<svg width="311" height="89" viewBox="0 0 311 89" fill="none" xmlns="http://www.w3.org/2000/svg">
<rect width="311" height="89" rx="9" fill="#1D1D1F"/>
<path fill-rule="evenodd" clip-rule="evenodd" d="M31.1563 20.9121C29.6765 21.2052 28.411 22.5126 28.0958 24.0741C27.5033 27.0094 30.1483 29.5454 33.0188 28.794C36.0747 27.9941 37.0413 24.1376 34.7376 21.9367C33.778 21.02 32.4828 20.6494 31.1563 20.9121ZM31.1984 30.7952C29.7013 30.9914 28.4813 31.3257 27.5555 31.7933C24.0198 33.5795 21.8651 38.3456 22.0066 44.0671C22.0457 45.6487 22.0609 45.7612 22.3001 46.2403C22.7069 47.0551 23.3475 47.442 24.3031 47.45C24.8918 47.455 25.3087 47.2918 25.6504 46.9225C26.0776 46.4611 26.1143 46.2349 26.0464 44.4844C25.9523 42.0554 26.1984 40.1441 26.82 38.4751L27.0828 37.7693L27.1107 44.1472C27.126 47.655 27.0845 53.7139 27.0183 57.6115C26.9521 61.5091 26.8974 65.4028 26.8969 66.2642C26.8957 67.8124 26.8986 67.8349 27.1509 68.2195C27.8632 69.3061 29.5543 69.4962 30.6195 68.6093C31.211 68.1167 31.3566 67.7049 31.4433 66.2788C31.5343 64.7848 31.7117 56.1233 31.7123 53.147L31.7128 51.0447H32.0402H32.3676L32.3683 52.7218C32.3696 55.4251 32.5538 64.6713 32.6361 66.1626C32.6975 67.2732 32.7495 67.6069 32.9111 67.925C33.6753 69.4296 36.0235 69.6017 36.9295 68.2195C37.1824 67.8337 37.1846 67.8164 37.1837 66.217C37.1831 65.3296 37.1314 61.4571 37.0686 57.6115C37.0058 53.7659 36.9305 47.6432 36.9013 44.0054L36.8482 37.3914L37.0519 37.7652C37.3536 38.3189 37.672 39.3252 37.9022 40.4537C38.0792 41.3205 38.1079 41.7827 38.1175 43.911C38.1247 45.5268 38.1642 46.4323 38.2331 46.5566C38.7822 47.5484 40.3451 47.7577 41.3359 46.972C41.493 46.8475 41.7387 46.5117 41.8818 46.2259L42.142 45.7062L42.141 43.5802C42.1401 41.7942 42.1069 41.2731 41.9331 40.3205C41.0697 35.5889 38.7425 32.3598 35.4256 31.2908C34.3381 30.9402 32.0966 30.6774 31.1984 30.7952Z" fill="#E44240"/>
<path fill-rule="evenodd" clip-rule="evenodd" d="M58.4991 20.9121C57.0192 21.2052 55.7538 22.5126 55.4386 24.0741C54.846 27.0094 57.4911 29.5454 60.3615 28.794C63.4175 27.9941 64.3841 24.1376 62.0803 21.9367C61.1208 21.02 59.8256 20.6494 58.4991 20.9121ZM58.5411 30.7952C57.0441 30.9914 55.824 31.3257 54.8983 31.7933C51.3626 33.5795 49.2079 38.3456 49.3493 44.0671C49.3884 45.6487 49.4037 45.7612 49.6428 46.2403C50.0496 47.0551 50.6903 47.442 51.6459 47.45C52.2346 47.455 52.6515 47.2918 52.9932 46.9225C53.4204 46.4611 53.4571 46.2349 53.3892 44.4844C53.2951 42.0554 53.5412 40.1441 54.1628 38.4751L54.4256 37.7693L54.4535 44.1472C54.4688 47.655 54.4273 53.7139 54.361 57.6115C54.2949 61.5091 54.2402 65.4028 54.2396 66.2642C54.2385 67.8124 54.2414 67.8349 54.4937 68.2195C55.206 69.3061 56.8971 69.4962 57.9623 68.6093C58.5538 68.1167 58.6994 67.7049 58.7861 66.2788C58.877 64.7848 59.0545 56.1233 59.0551 53.147L59.0556 51.0447H59.383H59.7103L59.7111 52.7218C59.7124 55.4251 59.8966 64.6713 59.9789 66.1626C60.0402 67.2732 60.0922 67.6069 60.2539 67.925C61.0181 69.4296 63.3663 69.6017 64.2722 68.2195C64.5252 67.8337 64.5274 67.8164 64.5265 66.217C64.5259 65.3296 64.4742 61.4571 64.4114 57.6115C64.3486 53.7659 64.2733 47.6432 64.2441 44.0054L64.191 37.3914L64.3947 37.7652C64.6964 38.3189 65.0148 39.3252 65.245 40.4537C65.422 41.3205 65.4507 41.7827 65.4602 43.911C65.4674 45.5268 65.507 46.4323 65.5758 46.5566C66.125 47.5484 67.6879 47.7577 68.6787 46.972C68.8358 46.8475 69.0814 46.5117 69.2246 46.2259L69.4848 45.7062L69.4837 43.5802C69.4829 41.7942 69.4497 41.2731 69.2759 40.3205C68.4125 35.5889 66.0853 32.3598 62.7684 31.2908C61.6808 30.9402 59.4394 30.6774 58.5411 30.7952Z" fill="#E44240"/>
<path fill-rule="evenodd" clip-rule="evenodd" d="M85.8413 20.9121C84.3615 21.2052 83.0961 22.5126 82.7809 24.0741C82.1883 27.0094 84.8334 29.5454 87.7038 28.794C90.7598 27.9941 91.7264 24.1376 89.4226 21.9367C88.463 21.02 87.1679 20.6494 85.8413 20.9121ZM85.8834 30.7952C84.3864 30.9914 83.1663 31.3257 82.2406 31.7933C78.7049 33.5795 76.5502 38.3456 76.6916 44.0671C76.7307 45.6487 76.746 45.7612 76.9851 46.2403C77.3919 47.0551 78.0325 47.442 78.9882 47.45C79.5769 47.455 79.9938 47.2918 80.3355 46.9225C80.7626 46.4611 80.7994 46.2349 80.7315 44.4844C80.6374 42.0554 80.8835 40.1441 81.505 38.4751L81.7679 37.7693L81.7957 44.1472C81.8111 47.655 81.7696 53.7139 81.7033 57.6115C81.6372 61.5091 81.5825 65.4028 81.5819 66.2642C81.5808 67.8124 81.5837 67.8349 81.836 68.2195C82.5482 69.3061 84.2394 69.4962 85.3045 68.6093C85.8961 68.1167 86.0417 67.7049 86.1284 66.2788C86.2193 64.7848 86.3967 56.1233 86.3974 53.147L86.3979 51.0447H86.7252H87.0526L87.0534 52.7218C87.0547 55.4251 87.2388 64.6713 87.3212 66.1626C87.3825 67.2732 87.4345 67.6069 87.5962 67.925C88.3603 69.4296 90.7085 69.6017 91.6145 68.2195C91.8674 67.8337 91.8697 67.8164 91.8687 66.217C91.8682 65.3296 91.8165 61.4571 91.7537 57.6115C91.6908 53.7659 91.6156 47.6432 91.5864 44.0054L91.5332 37.3914L91.737 37.7652C92.0387 38.3189 92.3571 39.3252 92.5873 40.4537C92.7643 41.3205 92.793 41.7827 92.8025 43.911C92.8097 45.5268 92.8493 46.4323 92.9181 46.5566C93.4673 47.5484 95.0301 47.7577 96.021 46.972C96.1781 46.8475 96.4237 46.5117 96.5668 46.2259L96.8271 45.7062L96.826 43.5802C96.8252 41.7942 96.792 41.2731 96.6182 40.3205C95.7548 35.5889 93.4276 32.3598 90.1107 31.2908C89.0231 30.9402 86.7816 30.6774 85.8834 30.7952Z" fill="#E44240"/>
<path fill-rule="evenodd" clip-rule="evenodd" d="M113.184 20.9121C111.704 21.2052 110.439 22.5126 110.124 24.0741C109.531 27.0094 112.176 29.5454 115.047 28.794C118.103 27.9941 119.069 24.1376 116.765 21.9367C115.806 21.02 114.511 20.6494 113.184 20.9121ZM113.226 30.7952C111.729 30.9914 110.509 31.3257 109.583 31.7933C106.048 33.5795 103.893 38.3456 104.034 44.0671C104.073 45.6487 104.089 45.7612 104.328 46.2403C104.735 47.0551 105.375 47.442 106.331 47.45C106.92 47.455 107.337 47.2918 107.678 46.9225C108.105 46.4611 108.142 46.2349 108.074 44.4844C107.98 42.0554 108.226 40.1441 108.848 38.4751L109.111 37.7693L109.139 44.1472C109.154 47.655 109.112 53.7139 109.046 57.6115C108.98 61.5091 108.925 65.4028 108.925 66.2642C108.924 67.8124 108.926 67.8349 109.179 68.2195C109.891 69.3061 111.582 69.4962 112.647 68.6093C113.239 68.1167 113.384 67.7049 113.471 66.2788C113.562 64.7848 113.74 56.1233 113.74 53.147L113.741 51.0447H114.068H114.395L114.396 52.7218C114.397 55.4251 114.582 64.6713 114.664 66.1626C114.725 67.2732 114.777 67.6069 114.939 67.925C115.703 69.4296 118.051 69.6017 118.957 68.2195C119.21 67.8337 119.212 67.8164 119.212 66.217C119.211 65.3296 119.159 61.4571 119.096 57.6115C119.034 53.7659 118.958 47.6432 118.929 44.0054L118.876 37.3914L119.08 37.7652C119.381 38.3189 119.7 39.3252 119.93 40.4537C120.107 41.3205 120.136 41.7827 120.145 43.911C120.152 45.5268 120.192 46.4323 120.261 46.5566C120.81 47.5484 122.373 47.7577 123.364 46.972C123.521 46.8475 123.767 46.5117 123.91 46.2259L124.17 45.7062L124.169 43.5802C124.168 41.7942 124.135 41.2731 123.961 40.3205C123.098 35.5889 120.77 32.3598 117.453 31.2908C116.366 30.9402 114.124 30.6774 113.226 30.7952Z" fill="#E44240"/>
<path fill-rule="evenodd" clip-rule="evenodd" d="M140.527 20.9121C139.047 21.2052 137.782 22.5126 137.466 24.0741C136.874 27.0094 139.519 29.5454 142.389 28.794C145.445 27.9941 146.412 24.1376 144.108 21.9367C143.149 21.02 141.853 20.6494 140.527 20.9121ZM140.569 30.7952C139.072 30.9914 137.852 31.3257 136.926 31.7933C133.39 33.5795 131.236 38.3456 131.377 44.0671C131.416 45.6487 131.432 45.7612 131.671 46.2403C132.077 47.0551 132.718 47.442 133.674 47.45C134.262 47.455 134.679 47.2918 135.021 46.9225C135.448 46.4611 135.485 46.2349 135.417 44.4844C135.323 42.0554 135.569 40.1441 136.191 38.4751L136.453 37.7693L136.481 44.1472C136.497 47.655 136.455 53.7139 136.389 57.6115C136.323 61.5091 136.268 65.4028 136.267 66.2642C136.266 67.8124 136.269 67.8349 136.522 68.2195C137.234 69.3061 138.925 69.4962 139.99 68.6093C140.582 68.1167 140.727 67.7049 140.814 66.2788C140.905 64.7848 141.082 56.1233 141.083 53.147L141.083 51.0447H141.411H141.738L141.739 52.7218C141.74 55.4251 141.924 64.6713 142.007 66.1626C142.068 67.2732 142.12 67.6069 142.282 67.925C143.046 69.4296 145.394 69.6017 146.3 68.2195C146.553 67.8337 146.555 67.8164 146.554 66.217C146.554 65.3296 146.502 61.4571 146.439 57.6115C146.376 53.7659 146.301 47.6432 146.272 44.0054L146.219 37.3914L146.423 37.7652C146.724 38.3189 147.043 39.3252 147.273 40.4537C147.45 41.3205 147.479 41.7827 147.488 43.911C147.495 45.5268 147.535 46.4323 147.604 46.5566C148.153 47.5484 149.716 47.7577 150.707 46.972C150.864 46.8475 151.109 46.5117 151.252 46.2259L151.513 45.7062L151.512 43.5802C151.511 41.7942 151.478 41.2731 151.304 40.3205C150.44 35.5889 148.113 32.3598 144.796 31.2908C143.709 30.9402 141.467 30.6774 140.569 30.7952Z" fill="#E44240"/>
<path fill-rule="evenodd" clip-rule="evenodd" d="M167.869 20.9121C166.389 21.2052 165.124 22.5126 164.809 24.0741C164.216 27.0094 166.861 29.5454 169.732 28.794C172.788 27.9941 173.754 24.1376 171.45 21.9367C170.491 21.02 169.196 20.6494 167.869 20.9121ZM167.911 30.7952C166.414 30.9914 165.194 31.3257 164.268 31.7933C160.733 33.5795 158.578 38.3456 158.719 44.0671C158.759 45.6487 158.774 45.7612 159.013 46.2403C159.42 47.0551 160.06 47.442 161.016 47.45C161.605 47.455 162.022 47.2918 162.363 46.9225C162.79 46.4611 162.827 46.2349 162.759 44.4844C162.665 42.0554 162.911 40.1441 163.533 38.4751L163.796 37.7693L163.824 44.1472C163.839 47.655 163.797 53.7139 163.731 57.6115C163.665 61.5091 163.61 65.4028 163.61 66.2642C163.609 67.8124 163.612 67.8349 163.864 68.2195C164.576 69.3061 166.267 69.4962 167.332 68.6093C167.924 68.1167 168.07 67.7049 168.156 66.2788C168.247 64.7848 168.425 56.1233 168.425 53.147L168.426 51.0447H168.753H169.08L169.081 52.7218C169.083 55.4251 169.267 64.6713 169.349 66.1626C169.41 67.2732 169.462 67.6069 169.624 67.925C170.388 69.4296 172.736 69.6017 173.642 68.2195C173.895 67.8337 173.898 67.8164 173.897 66.217C173.896 65.3296 173.844 61.4571 173.782 57.6115C173.719 53.7659 173.643 47.6432 173.614 44.0054L173.561 37.3914L173.765 37.7652C174.067 38.3189 174.385 39.3252 174.615 40.4537C174.792 41.3205 174.821 41.7827 174.83 43.911C174.838 45.5268 174.877 46.4323 174.946 46.5566C175.495 47.5484 177.058 47.7577 178.049 46.972C178.206 46.8475 178.452 46.5117 178.595 46.2259L178.855 45.7062L178.854 43.5802C178.853 41.7942 178.82 41.2731 178.646 40.3205C177.783 35.5889 175.455 32.3598 172.138 31.2908C171.051 30.9402 168.809 30.6774 167.911 30.7952Z" fill="#E44240"/>
<path fill-rule="evenodd" clip-rule="evenodd" d="M195.212 20.9121C193.732 21.2052 192.467 22.5126 192.151 24.0741C191.559 27.0094 194.204 29.5454 197.074 28.794C200.13 27.9941 201.097 24.1376 198.793 21.9367C197.834 21.02 196.538 20.6494 195.212 20.9121ZM195.254 30.7952C193.757 30.9914 192.537 31.3257 191.611 31.7933C188.075 33.5795 185.921 38.3456 186.062 44.0671C186.101 45.6487 186.117 45.7612 186.356 46.2403C186.763 47.0551 187.403 47.442 188.359 47.45C188.948 47.455 189.364 47.2918 189.706 46.9225C190.133 46.4611 190.17 46.2349 190.102 44.4844C190.008 42.0554 190.254 40.1441 190.876 38.4751L191.138 37.7693L191.166 44.1472C191.182 47.655 191.14 53.7139 191.074 57.6115C191.008 61.5091 190.953 65.4028 190.953 66.2642C190.951 67.8124 190.954 67.8349 191.207 68.2195C191.919 69.3061 193.61 69.4962 194.675 68.6093C195.267 68.1167 195.412 67.7049 195.499 66.2788C195.59 64.7848 195.767 56.1233 195.768 53.147L195.768 51.0447H196.096H196.423L196.424 52.7218C196.425 55.4251 196.609 64.6713 196.692 66.1626C196.753 67.2732 196.805 67.6069 196.967 67.925C197.731 69.4296 200.079 69.6017 200.985 68.2195C201.238 67.8337 201.24 67.8164 201.239 66.217C201.239 65.3296 201.187 61.4571 201.124 57.6115C201.061 53.7659 200.986 47.6432 200.957 44.0054L200.904 37.3914L201.108 37.7652C201.409 38.3189 201.728 39.3252 201.958 40.4537C202.135 41.3205 202.164 41.7827 202.173 43.911C202.18 45.5268 202.22 46.4323 202.289 46.5566C202.838 47.5484 204.401 47.7577 205.392 46.972C205.549 46.8475 205.794 46.5117 205.937 46.2259L206.198 45.7062L206.197 43.5802C206.196 41.7942 206.163 41.2731 205.989 40.3205C205.125 35.5889 202.798 32.3598 199.481 31.2908C198.394 30.9402 196.152 30.6774 195.254 30.7952Z" fill="#E44240"/>
<path fill-rule="evenodd" clip-rule="evenodd" d="M222.555 20.9121C221.075 21.2052 219.809 22.5126 219.494 24.0741C218.902 27.0094 221.547 29.5454 224.417 28.794C227.473 27.9941 228.44 24.1376 226.136 21.9367C225.176 21.02 223.881 20.6494 222.555 20.9121ZM222.597 30.7952C221.1 30.9914 219.88 31.3257 218.954 31.7933C215.418 33.5795 213.264 38.3456 213.405 44.0671C213.444 45.6487 213.459 45.7612 213.699 46.2403C214.105 47.0551 214.746 47.442 215.702 47.45C216.29 47.455 216.707 47.2918 217.049 46.9225C217.476 46.4611 217.513 46.2349 217.445 44.4844C217.351 42.0554 217.597 40.1441 218.218 38.4751L218.481 37.7693L218.509 44.1472C218.524 47.655 218.483 53.7139 218.417 57.6115C218.351 61.5091 218.296 65.4028 218.295 66.2642C218.294 67.8124 218.297 67.8349 218.549 68.2195C219.262 69.3061 220.953 69.4962 222.018 68.6093C222.609 68.1167 222.755 67.7049 222.842 66.2788C222.933 64.7848 223.11 56.1233 223.111 53.147L223.111 51.0447H223.439H223.766L223.767 52.7218C223.768 55.4251 223.952 64.6713 224.035 66.1626C224.096 67.2732 224.148 67.6069 224.31 67.925C225.074 69.4296 227.422 69.6017 228.328 68.2195C228.581 67.8337 228.583 67.8164 228.582 66.217C228.582 65.3296 228.53 61.4571 228.467 57.6115C228.404 53.7659 228.329 47.6432 228.3 44.0054L228.247 37.3914L228.45 37.7652C228.752 38.3189 229.07 39.3252 229.301 40.4537C229.478 41.3205 229.506 41.7827 229.516 43.911C229.523 45.5268 229.563 46.4323 229.632 46.5566C230.181 47.5484 231.744 47.7577 232.734 46.972C232.891 46.8475 233.137 46.5117 233.28 46.2259L233.54 45.7062L233.539 43.5802C233.539 41.7942 233.505 41.2731 233.332 40.3205C232.468 35.5889 230.141 32.3598 226.824 31.2908C225.737 30.9402 223.495 30.6774 222.597 30.7952Z" fill="#E44240"/>
<path fill-rule="evenodd" clip-rule="evenodd" d="M249.897 20.9121C248.417 21.2052 247.152 22.5126 246.837 24.0741C246.244 27.0094 248.889 29.5454 251.759 28.794C254.815 27.9941 255.782 24.1376 253.478 21.9367C252.519 21.02 251.224 20.6494 249.897 20.9121ZM249.939 30.7952C248.442 30.9914 247.222 31.3257 246.296 31.7933C242.761 33.5795 240.606 38.3456 240.747 44.0671C240.786 45.6487 240.802 45.7612 241.041 46.2403C241.448 47.0551 242.088 47.442 243.044 47.45C243.633 47.455 244.049 47.2918 244.391 46.9225C244.818 46.4611 244.855 46.2349 244.787 44.4844C244.693 42.0554 244.939 40.1441 245.561 38.4751L245.824 37.7693L245.851 44.1472C245.867 47.655 245.825 53.7139 245.759 57.6115C245.693 61.5091 245.638 65.4028 245.638 66.2642C245.636 67.8124 245.639 67.8349 245.892 68.2195C246.604 69.3061 248.295 69.4962 249.36 68.6093C249.952 68.1167 250.097 67.7049 250.184 66.2788C250.275 64.7848 250.452 56.1233 250.453 53.147L250.454 51.0447H250.781H251.108L251.109 52.7218C251.11 55.4251 251.295 64.6713 251.377 66.1626C251.438 67.2732 251.49 67.6069 251.652 67.925C252.416 69.4296 254.764 69.6017 255.67 68.2195C255.923 67.8337 255.925 67.8164 255.924 66.217C255.924 65.3296 255.872 61.4571 255.809 57.6115C255.747 53.7659 255.671 47.6432 255.642 44.0054L255.589 37.3914L255.793 37.7652C256.094 38.3189 256.413 39.3252 256.643 40.4537C256.82 41.3205 256.849 41.7827 256.858 43.911C256.865 45.5268 256.905 46.4323 256.974 46.5566C257.523 47.5484 259.086 47.7577 260.077 46.972C260.234 46.8475 260.479 46.5117 260.623 46.2259L260.883 45.7062L260.882 43.5802C260.881 41.7942 260.848 41.2731 260.674 40.3205C259.81 35.5889 257.483 32.3598 254.166 31.2908C253.079 30.9402 250.837 30.6774 249.939 30.7952Z" fill="#2C2C2E"/>
<path fill-rule="evenodd" clip-rule="evenodd" d="M277.24 20.9121C275.76 21.2052 274.495 22.5126 274.179 24.0741C273.587 27.0094 276.232 29.5454 279.102 28.794C282.158 27.9941 283.125 24.1376 280.821 21.9367C279.861 21.02 278.566 20.6494 277.24 20.9121ZM277.282 30.7952C275.785 30.9914 274.565 31.3257 273.639 31.7933C270.103 33.5795 267.949 38.3456 268.09 44.0671C268.129 45.6487 268.144 45.7612 268.384 46.2403C268.79 47.0551 269.431 47.442 270.387 47.45C270.975 47.455 271.392 47.2918 271.734 46.9225C272.161 46.4611 272.198 46.2349 272.13 44.4844C272.036 42.0554 272.282 40.1441 272.903 38.4751L273.166 37.7693L273.194 44.1472C273.21 47.655 273.168 53.7139 273.102 57.6115C273.036 61.5091 272.981 65.4028 272.98 66.2642C272.979 67.8124 272.982 67.8349 273.234 68.2195C273.947 69.3061 275.638 69.4962 276.703 68.6093C277.294 68.1167 277.44 67.7049 277.527 66.2788C277.618 64.7848 277.795 56.1233 277.796 53.147L277.796 51.0447H278.124H278.451L278.452 52.7218C278.453 55.4251 278.637 64.6713 278.72 66.1626C278.781 67.2732 278.833 67.6069 278.995 67.925C279.759 69.4296 282.107 69.6017 283.013 68.2195C283.266 67.8337 283.268 67.8164 283.267 66.217C283.267 65.3296 283.215 61.4571 283.152 57.6115C283.089 53.7659 283.014 47.6432 282.985 44.0054L282.932 37.3914L283.135 37.7652C283.437 38.3189 283.756 39.3252 283.986 40.4537C284.163 41.3205 284.191 41.7827 284.201 43.911C284.208 45.5268 284.248 46.4323 284.317 46.5566C284.866 47.5484 286.429 47.7577 287.419 46.972C287.577 46.8475 287.822 46.5117 287.965 46.2259L288.225 45.7062L288.224 43.5802C288.224 41.7942 288.19 41.2731 288.017 40.3205C287.153 35.5889 284.826 32.3598 281.509 31.2908C280.422 30.9402 278.18 30.6774 277.282 30.7952Z" fill="#2C2C2E"/>
</svg>
