<svg width="311" height="174" viewBox="0 0 311 174" fill="none" xmlns="http://www.w3.org/2000/svg">
<path opacity="0.75" d="M24.0982 161.305L22.1466 168H21.1473L18.8372 159.518H19.9423L21.6294 166.413H21.6999L23.5986 159.518H24.6684L26.5671 166.413H26.6376L28.3247 159.518H29.4298L27.1197 168H26.1204L24.1688 161.305H24.0982ZM32.851 162.445C32.514 162.445 32.2142 162.523 31.9516 162.68C31.693 162.833 31.4853 163.049 31.3285 163.327C31.1757 163.605 31.0855 163.932 31.0581 164.308H34.5498C34.542 163.932 34.4655 163.605 34.3205 163.327C34.1795 163.049 33.9835 162.833 33.7327 162.68C33.4819 162.523 33.188 162.445 32.851 162.445ZM34.5204 166.36H35.5315C35.4335 166.72 35.2611 167.032 35.0142 167.295C34.7712 167.557 34.4675 167.759 34.1031 167.9C33.7386 168.041 33.3252 168.112 32.8627 168.112C32.2749 168.112 31.7674 167.978 31.3403 167.712C30.9131 167.445 30.5839 167.067 30.3527 166.577C30.1215 166.084 30.0059 165.504 30.0059 164.837C30.0059 164.34 30.0725 163.889 30.2058 163.485C30.339 163.082 30.531 162.737 30.7818 162.451C31.0326 162.161 31.3324 161.939 31.6812 161.787C32.0339 161.63 32.4277 161.552 32.8627 161.552C33.4349 161.552 33.9247 161.681 34.3323 161.939C34.7438 162.194 35.0593 162.561 35.2787 163.039C35.5021 163.517 35.6138 164.083 35.6138 164.738V165.126H31.0581V165.173C31.0777 165.592 31.1639 165.954 31.3167 166.26C31.4696 166.566 31.6792 166.803 31.9457 166.971C32.2122 167.136 32.5257 167.218 32.8862 167.218C33.2938 167.218 33.6347 167.146 33.9091 167.001C34.1834 166.852 34.3872 166.638 34.5204 166.36ZM39.7286 162.445C39.3915 162.445 39.0917 162.523 38.8292 162.68C38.5705 162.833 38.3628 163.049 38.2061 163.327C38.0533 163.605 37.9631 163.932 37.9357 164.308H41.4274C41.4195 163.932 41.3431 163.605 41.1981 163.327C41.057 163.049 40.8611 162.833 40.6103 162.68C40.3595 162.523 40.0656 162.445 39.7286 162.445ZM41.398 166.36H42.4091C42.3111 166.72 42.1387 167.032 41.8918 167.295C41.6488 167.557 41.3451 167.759 40.9806 167.9C40.6162 168.041 40.2027 168.112 39.7403 168.112C39.1525 168.112 38.645 167.978 38.2178 167.712C37.7907 167.445 37.4615 167.067 37.2303 166.577C36.9991 166.084 36.8835 165.504 36.8835 164.837C36.8835 164.34 36.9501 163.889 37.0833 163.485C37.2166 163.082 37.4086 162.737 37.6594 162.451C37.9102 162.161 38.21 161.939 38.5588 161.787C38.9115 161.63 39.3053 161.552 39.7403 161.552C40.3125 161.552 40.8023 161.681 41.2099 161.939C41.6214 162.194 41.9368 162.561 42.1563 163.039C42.3797 163.517 42.4913 164.083 42.4913 164.738V165.126H37.9357V165.173C37.9553 165.592 38.0415 165.954 38.1943 166.26C38.3472 166.566 38.5568 166.803 38.8233 166.971C39.0898 167.136 39.4033 167.218 39.7638 167.218C40.1714 167.218 40.5123 167.146 40.7866 167.001C41.061 166.852 41.2647 166.638 41.398 166.36ZM45.2424 164.432L47.9934 161.663H49.2337L46.5062 164.379L49.416 168H48.1286L45.7538 165.031L45.1483 165.596V168H44.1373V159.147H45.1483V164.432H45.2424ZM56.0349 168V160.693H55.9408L53.7835 162.257V161.14L56.0408 159.518H57.093V168H56.0349Z" fill="white"/>
<path opacity="0.75" d="M220.034 161.76L218.083 168.455H217.083L214.773 159.973H215.878L217.565 166.868H217.636L219.535 159.973H220.604L222.503 166.868H222.574L224.261 159.973H225.366L223.056 168.455H222.056L220.105 161.76H220.034ZM228.787 162.9C228.45 162.9 228.15 162.978 227.888 163.135C227.629 163.288 227.421 163.504 227.265 163.782C227.112 164.06 227.022 164.387 226.994 164.764H230.486C230.478 164.387 230.402 164.06 230.257 163.782C230.115 163.504 229.92 163.288 229.669 163.135C229.418 162.978 229.124 162.9 228.787 162.9ZM230.456 166.815H231.468C231.37 167.176 231.197 167.487 230.95 167.75C230.707 168.012 230.404 168.214 230.039 168.355C229.675 168.496 229.261 168.567 228.799 168.567C228.211 168.567 227.703 168.434 227.276 168.167C226.849 167.901 226.52 167.522 226.289 167.033C226.058 166.539 225.942 165.959 225.942 165.293C225.942 164.795 226.009 164.344 226.142 163.941C226.275 163.537 226.467 163.192 226.718 162.906C226.969 162.616 227.268 162.395 227.617 162.242C227.97 162.085 228.364 162.007 228.799 162.007C229.371 162.007 229.861 162.136 230.268 162.395C230.68 162.649 230.995 163.016 231.215 163.494C231.438 163.972 231.55 164.538 231.55 165.193V165.581H226.994V165.628C227.014 166.047 227.1 166.409 227.253 166.715C227.406 167.021 227.615 167.258 227.882 167.426C228.148 167.591 228.462 167.673 228.822 167.673C229.23 167.673 229.571 167.601 229.845 167.456C230.119 167.307 230.323 167.093 230.456 166.815ZM235.665 162.9C235.328 162.9 235.028 162.978 234.765 163.135C234.507 163.288 234.299 163.504 234.142 163.782C233.989 164.06 233.899 164.387 233.872 164.764H237.363C237.356 164.387 237.279 164.06 237.134 163.782C236.993 163.504 236.797 163.288 236.546 163.135C236.296 162.978 236.002 162.9 235.665 162.9ZM237.334 166.815H238.345C238.247 167.176 238.075 167.487 237.828 167.75C237.585 168.012 237.281 168.214 236.917 168.355C236.552 168.496 236.139 168.567 235.676 168.567C235.089 168.567 234.581 168.434 234.154 168.167C233.727 167.901 233.398 167.522 233.166 167.033C232.935 166.539 232.82 165.959 232.82 165.293C232.82 164.795 232.886 164.344 233.019 163.941C233.153 163.537 233.345 163.192 233.595 162.906C233.846 162.616 234.146 162.395 234.495 162.242C234.848 162.085 235.241 162.007 235.676 162.007C236.248 162.007 236.738 162.136 237.146 162.395C237.557 162.649 237.873 163.016 238.092 163.494C238.316 163.972 238.427 164.538 238.427 165.193V165.581H233.872V165.628C233.891 166.047 233.978 166.409 234.13 166.715C234.283 167.021 234.493 167.258 234.759 167.426C235.026 167.591 235.339 167.673 235.7 167.673C236.107 167.673 236.448 167.601 236.723 167.456C236.997 167.307 237.201 167.093 237.334 166.815ZM241.178 164.887L243.929 162.118H245.17L242.442 164.834L245.352 168.455H244.065L241.69 165.487L241.084 166.051V168.455H240.073V159.602H241.084V164.887H241.178ZM253.817 168.455V166.697H249.684V165.733C250.064 165.095 250.458 164.444 250.866 163.782C251.277 163.12 251.689 162.467 252.1 161.824C252.516 161.182 252.921 160.564 253.317 159.973H254.851V165.751H256.056V166.697H254.851V168.455H253.817ZM250.766 165.686V165.757H253.823V160.954H253.752C253.435 161.429 253.103 161.932 252.759 162.465C252.418 162.998 252.077 163.539 251.736 164.088C251.399 164.632 251.075 165.165 250.766 165.686Z" fill="white"/>
<path opacity="0.25" d="M286.149 155.166C285.619 155.166 285.168 155.021 284.797 154.731C284.426 154.442 284.141 154.022 283.942 153.472C283.747 152.922 283.649 152.256 283.649 151.475C283.649 150.7 283.747 150.037 283.942 149.487C284.141 148.937 284.427 148.517 284.802 148.228C285.176 147.935 285.625 147.788 286.149 147.788C286.67 147.788 287.116 147.935 287.487 148.228C287.862 148.521 288.146 148.944 288.342 149.497C288.54 150.047 288.64 150.711 288.64 151.489C288.64 152.267 288.542 152.931 288.347 153.481C288.151 154.028 287.868 154.447 287.497 154.736C287.126 155.023 286.677 155.166 286.149 155.166ZM286.149 154.399C286.67 154.399 287.067 154.149 287.341 153.647C287.618 153.143 287.756 152.419 287.756 151.475C287.756 150.54 287.616 149.821 287.336 149.316C287.059 148.812 286.664 148.56 286.149 148.56C285.804 148.56 285.511 148.674 285.271 148.901C285.033 149.129 284.851 149.461 284.724 149.897C284.597 150.33 284.533 150.856 284.533 151.475C284.533 152.419 284.672 153.143 284.948 153.647C285.228 154.149 285.629 154.399 286.149 154.399ZM291.14 151.143C290.821 151.143 290.546 151.076 290.314 150.942C290.087 150.809 289.911 150.618 289.787 150.371C289.667 150.124 289.606 149.827 289.606 149.482C289.606 149.141 289.668 148.846 289.792 148.599C289.916 148.351 290.091 148.161 290.319 148.027C290.55 147.894 290.824 147.827 291.14 147.827C291.455 147.827 291.727 147.894 291.955 148.027C292.183 148.161 292.359 148.351 292.482 148.599C292.606 148.846 292.668 149.141 292.668 149.482C292.668 149.827 292.606 150.125 292.482 150.376C292.362 150.623 292.188 150.814 291.96 150.947C291.732 151.077 291.459 151.143 291.14 151.143ZM291.14 150.503C291.387 150.503 291.577 150.413 291.711 150.234C291.844 150.055 291.911 149.806 291.911 149.487C291.911 149.168 291.843 148.919 291.706 148.74C291.573 148.561 291.384 148.472 291.14 148.472C290.892 148.472 290.7 148.561 290.563 148.74C290.43 148.919 290.363 149.168 290.363 149.487C290.363 149.81 290.43 150.06 290.563 150.239C290.7 150.415 290.892 150.503 291.14 150.503ZM291.457 155H290.661L295.529 147.954H296.325L291.457 155ZM295.852 155.068C295.536 155.068 295.262 155.002 295.031 154.868C294.803 154.735 294.628 154.544 294.504 154.297C294.38 154.049 294.318 153.753 294.318 153.408C294.318 153.066 294.38 152.772 294.504 152.524C294.628 152.277 294.803 152.087 295.031 151.953C295.262 151.82 295.536 151.753 295.852 151.753C296.167 151.753 296.439 151.82 296.667 151.953C296.895 152.087 297.071 152.277 297.194 152.524C297.318 152.772 297.38 153.066 297.38 153.408C297.38 153.753 297.318 154.051 297.194 154.302C297.074 154.549 296.898 154.74 296.667 154.873C296.439 155.003 296.167 155.068 295.852 155.068ZM295.852 154.429C296.099 154.429 296.289 154.339 296.423 154.16C296.556 153.981 296.623 153.732 296.623 153.413C296.623 153.094 296.556 152.845 296.423 152.666C296.289 152.487 296.099 152.397 295.852 152.397C295.604 152.397 295.414 152.487 295.28 152.666C295.147 152.845 295.08 153.094 295.08 153.413C295.08 153.735 295.147 153.986 295.28 154.165C295.414 154.341 295.604 154.429 295.852 154.429Z" fill="white"/>
<path opacity="0.25" d="M285.466 119V112.931H285.388L283.596 114.229V113.302L285.471 111.954H286.345V119H285.466ZM290.817 119.166C290.287 119.166 289.836 119.021 289.465 118.731C289.094 118.442 288.809 118.022 288.61 117.472C288.415 116.922 288.317 116.256 288.317 115.475C288.317 114.7 288.415 114.037 288.61 113.487C288.809 112.937 289.095 112.517 289.47 112.228C289.844 111.935 290.293 111.788 290.817 111.788C291.338 111.788 291.784 111.935 292.155 112.228C292.53 112.521 292.814 112.944 293.01 113.497C293.208 114.047 293.308 114.711 293.308 115.489C293.308 116.267 293.21 116.931 293.015 117.481C292.819 118.028 292.536 118.447 292.165 118.736C291.794 119.023 291.345 119.166 290.817 119.166ZM290.817 118.399C291.338 118.399 291.735 118.149 292.009 117.647C292.285 117.143 292.424 116.419 292.424 115.475C292.424 114.54 292.284 113.821 292.004 113.316C291.727 112.812 291.332 112.56 290.817 112.56C290.472 112.56 290.179 112.674 289.938 112.901C289.701 113.129 289.519 113.461 289.392 113.897C289.265 114.33 289.201 114.856 289.201 115.475C289.201 116.419 289.34 117.143 289.616 117.647C289.896 118.149 290.297 118.399 290.817 118.399ZM297.116 119.166C296.586 119.166 296.135 119.021 295.764 118.731C295.393 118.442 295.108 118.022 294.909 117.472C294.714 116.922 294.616 116.256 294.616 115.475C294.616 114.7 294.714 114.037 294.909 113.487C295.108 112.937 295.394 112.517 295.769 112.228C296.143 111.935 296.592 111.788 297.116 111.788C297.637 111.788 298.083 111.935 298.454 112.228C298.828 112.521 299.113 112.944 299.309 113.497C299.507 114.047 299.606 114.711 299.606 115.489C299.606 116.267 299.509 116.931 299.313 117.481C299.118 118.028 298.835 118.447 298.464 118.736C298.093 119.023 297.644 119.166 297.116 119.166ZM297.116 118.399C297.637 118.399 298.034 118.149 298.308 117.647C298.584 117.143 298.723 116.419 298.723 115.475C298.723 114.54 298.583 113.821 298.303 113.316C298.026 112.812 297.631 112.56 297.116 112.56C296.771 112.56 296.478 112.674 296.237 112.901C296 113.129 295.817 113.461 295.69 113.897C295.563 114.33 295.5 114.856 295.5 115.475C295.5 116.419 295.638 117.143 295.915 117.647C296.195 118.149 296.595 118.399 297.116 118.399ZM302.106 115.143C301.787 115.143 301.512 115.076 301.281 114.942C301.053 114.809 300.878 114.618 300.754 114.371C300.633 114.124 300.573 113.827 300.573 113.482C300.573 113.141 300.635 112.846 300.759 112.599C300.882 112.351 301.058 112.161 301.286 112.027C301.517 111.894 301.791 111.827 302.106 111.827C302.422 111.827 302.694 111.894 302.922 112.027C303.15 112.161 303.326 112.351 303.449 112.599C303.573 112.846 303.635 113.141 303.635 113.482C303.635 113.827 303.573 114.125 303.449 114.376C303.329 114.623 303.155 114.814 302.927 114.947C302.699 115.077 302.425 115.143 302.106 115.143ZM302.106 114.503C302.354 114.503 302.544 114.413 302.678 114.234C302.811 114.055 302.878 113.806 302.878 113.487C302.878 113.168 302.81 112.919 302.673 112.74C302.539 112.561 302.351 112.472 302.106 112.472C301.859 112.472 301.667 112.561 301.53 112.74C301.397 112.919 301.33 113.168 301.33 113.487C301.33 113.81 301.397 114.06 301.53 114.239C301.667 114.415 301.859 114.503 302.106 114.503ZM302.424 119H301.628L306.496 111.954H307.292L302.424 119ZM306.818 119.068C306.503 119.068 306.229 119.002 305.998 118.868C305.77 118.735 305.594 118.544 305.471 118.297C305.347 118.049 305.285 117.753 305.285 117.408C305.285 117.066 305.347 116.772 305.471 116.524C305.594 116.277 305.77 116.087 305.998 115.953C306.229 115.82 306.503 115.753 306.818 115.753C307.134 115.753 307.406 115.82 307.634 115.953C307.862 116.087 308.037 116.277 308.161 116.524C308.285 116.772 308.347 117.066 308.347 117.408C308.347 117.753 308.285 118.051 308.161 118.302C308.041 118.549 307.865 118.74 307.634 118.873C307.406 119.003 307.134 119.068 306.818 119.068ZM306.818 118.429C307.066 118.429 307.256 118.339 307.39 118.16C307.523 117.981 307.59 117.732 307.59 117.413C307.59 117.094 307.523 116.845 307.39 116.666C307.256 116.487 307.066 116.397 306.818 116.397C306.571 116.397 306.381 116.487 306.247 116.666C306.114 116.845 306.047 117.094 306.047 117.413C306.047 117.735 306.114 117.986 306.247 118.165C306.381 118.341 306.571 118.429 306.818 118.429Z" fill="white"/>
<path opacity="0.25" d="M283.737 77.9414C283.737 77.6289 283.794 77.3408 283.908 77.0771C284.022 76.8135 284.182 76.5856 284.387 76.3936C284.595 76.2015 284.839 76.0534 285.119 75.9492C285.402 75.8418 285.713 75.7881 286.052 75.7881C286.358 75.7881 286.643 75.8369 286.906 75.9346C287.17 76.0322 287.401 76.1706 287.6 76.3496C287.798 76.5254 287.951 76.7337 288.059 76.9746C288.169 77.2155 288.225 77.4792 288.225 77.7656C288.225 77.9674 288.199 78.1628 288.146 78.3516C288.098 78.5371 288.011 78.7308 287.888 78.9326C287.767 79.1344 287.601 79.3607 287.39 79.6113C287.181 79.8587 286.919 80.1468 286.604 80.4756L285.002 82.1309V82.209H288.342V83H283.781V82.3945L286.164 79.8164C286.389 79.5723 286.576 79.3623 286.726 79.1865C286.875 79.0075 286.994 78.848 287.082 78.708C287.17 78.5648 287.232 78.4264 287.268 78.293C287.307 78.1595 287.326 78.0146 287.326 77.8584C287.326 77.6077 287.272 77.3848 287.165 77.1895C287.058 76.9941 286.905 76.8395 286.706 76.7256C286.507 76.6117 286.27 76.5547 285.993 76.5547C285.713 76.5547 285.467 76.6133 285.256 76.7305C285.044 76.8444 284.88 77.0055 284.763 77.2139C284.646 77.4189 284.587 77.6615 284.587 77.9414H283.737ZM292.194 83.166C291.664 83.166 291.213 83.0212 290.842 82.7314C290.471 82.4417 290.186 82.0218 289.987 81.4717C289.792 80.9215 289.694 80.2559 289.694 79.4746C289.694 78.6999 289.792 78.0374 289.987 77.4873C290.186 76.9372 290.472 76.5173 290.847 76.2275C291.221 75.9346 291.67 75.7881 292.194 75.7881C292.715 75.7881 293.161 75.9346 293.532 76.2275C293.907 76.5205 294.191 76.9437 294.387 77.4971C294.585 78.0472 294.685 78.7113 294.685 79.4893C294.685 80.2673 294.587 80.9313 294.392 81.4814C294.196 82.0283 293.913 82.4466 293.542 82.7363C293.171 83.0228 292.722 83.166 292.194 83.166ZM292.194 82.3994C292.715 82.3994 293.112 82.1488 293.386 81.6475C293.662 81.1429 293.801 80.4186 293.801 79.4746C293.801 78.5404 293.661 77.821 293.381 77.3164C293.104 76.8118 292.709 76.5596 292.194 76.5596C291.849 76.5596 291.556 76.6735 291.315 76.9014C291.078 77.1292 290.896 77.4613 290.769 77.8975C290.642 78.3304 290.578 78.8561 290.578 79.4746C290.578 80.4186 290.716 81.1429 290.993 81.6475C291.273 82.1488 291.674 82.3994 292.194 82.3994ZM298.493 83.166C297.963 83.166 297.512 83.0212 297.141 82.7314C296.77 82.4417 296.485 82.0218 296.286 81.4717C296.091 80.9215 295.993 80.2559 295.993 79.4746C295.993 78.6999 296.091 78.0374 296.286 77.4873C296.485 76.9372 296.771 76.5173 297.146 76.2275C297.52 75.9346 297.969 75.7881 298.493 75.7881C299.014 75.7881 299.46 75.9346 299.831 76.2275C300.205 76.5205 300.49 76.9437 300.686 77.4971C300.884 78.0472 300.983 78.7113 300.983 79.4893C300.983 80.2673 300.886 80.9313 300.69 81.4814C300.495 82.0283 300.212 82.4466 299.841 82.7363C299.47 83.0228 299.021 83.166 298.493 83.166ZM298.493 82.3994C299.014 82.3994 299.411 82.1488 299.685 81.6475C299.961 81.1429 300.1 80.4186 300.1 79.4746C300.1 78.5404 299.96 77.821 299.68 77.3164C299.403 76.8118 299.007 76.5596 298.493 76.5596C298.148 76.5596 297.855 76.6735 297.614 76.9014C297.377 77.1292 297.194 77.4613 297.067 77.8975C296.94 78.3304 296.877 78.8561 296.877 79.4746C296.877 80.4186 297.015 81.1429 297.292 81.6475C297.572 82.1488 297.972 82.3994 298.493 82.3994ZM303.483 79.1426C303.164 79.1426 302.889 79.0758 302.658 78.9424C302.43 78.8089 302.255 78.6185 302.131 78.3711C302.01 78.1237 301.95 77.8275 301.95 77.4824C301.95 77.1406 302.012 76.846 302.136 76.5986C302.259 76.3512 302.435 76.1608 302.663 76.0273C302.894 75.8939 303.168 75.8271 303.483 75.8271C303.799 75.8271 304.071 75.8939 304.299 76.0273C304.527 76.1608 304.702 76.3512 304.826 76.5986C304.95 76.846 305.012 77.1406 305.012 77.4824C305.012 77.8275 304.95 78.1253 304.826 78.376C304.706 78.6234 304.532 78.8138 304.304 78.9473C304.076 79.0775 303.802 79.1426 303.483 79.1426ZM303.483 78.5029C303.731 78.5029 303.921 78.4134 304.055 78.2344C304.188 78.0553 304.255 77.8063 304.255 77.4873C304.255 77.1683 304.187 76.9193 304.05 76.7402C303.916 76.5612 303.728 76.4717 303.483 76.4717C303.236 76.4717 303.044 76.5612 302.907 76.7402C302.774 76.9193 302.707 77.1683 302.707 77.4873C302.707 77.8096 302.774 78.0602 302.907 78.2393C303.044 78.415 303.236 78.5029 303.483 78.5029ZM303.801 83H303.005L307.873 75.9541H308.669L303.801 83ZM308.195 83.0684C307.88 83.0684 307.606 83.0016 307.375 82.8682C307.147 82.7347 306.971 82.5443 306.848 82.2969C306.724 82.0495 306.662 81.7533 306.662 81.4082C306.662 81.0664 306.724 80.7718 306.848 80.5244C306.971 80.277 307.147 80.0866 307.375 79.9531C307.606 79.8197 307.88 79.7529 308.195 79.7529C308.511 79.7529 308.783 79.8197 309.011 79.9531C309.239 80.0866 309.414 80.277 309.538 80.5244C309.662 80.7718 309.724 81.0664 309.724 81.4082C309.724 81.7533 309.662 82.0511 309.538 82.3018C309.418 82.5492 309.242 82.7396 309.011 82.873C308.783 83.0033 308.511 83.0684 308.195 83.0684ZM308.195 82.4287C308.443 82.4287 308.633 82.3392 308.767 82.1602C308.9 81.9811 308.967 81.7321 308.967 81.4131C308.967 81.0941 308.9 80.8451 308.767 80.666C308.633 80.487 308.443 80.3975 308.195 80.3975C307.948 80.3975 307.757 80.487 307.624 80.666C307.491 80.8451 307.424 81.0941 307.424 81.4131C307.424 81.7354 307.491 81.986 307.624 82.165C307.757 82.3408 307.948 82.4287 308.195 82.4287Z" fill="white"/>
<path opacity="0.25" d="M285.261 43.7529V43.001H286.096C286.366 43.001 286.605 42.9489 286.813 42.8447C287.022 42.7373 287.185 42.5892 287.302 42.4004C287.422 42.2116 287.482 41.9951 287.482 41.751C287.482 41.5329 287.429 41.3327 287.321 41.1504C287.214 40.9681 287.059 40.8232 286.857 40.7158C286.656 40.6084 286.413 40.5547 286.13 40.5547C285.707 40.5547 285.363 40.6605 285.1 40.8721C284.839 41.0837 284.691 41.3864 284.655 41.7803H283.801C283.83 41.3994 283.942 41.0592 284.138 40.7598C284.336 40.457 284.608 40.2194 284.953 40.0469C285.301 39.8743 285.713 39.7881 286.188 39.7881C286.537 39.7881 286.846 39.8385 287.116 39.9395C287.39 40.0404 287.619 40.1787 287.805 40.3545C287.993 40.527 288.135 40.7256 288.229 40.9502C288.327 41.1715 288.376 41.4059 288.376 41.6533C288.376 41.9365 288.321 42.1872 288.21 42.4053C288.103 42.6234 287.954 42.8057 287.766 42.9521C287.577 43.0986 287.362 43.2061 287.121 43.2744V43.3525C287.424 43.4014 287.689 43.5023 287.917 43.6553C288.145 43.805 288.322 44.002 288.449 44.2461C288.576 44.487 288.64 44.7718 288.64 45.1006C288.64 45.3968 288.576 45.6702 288.449 45.9209C288.326 46.1715 288.15 46.3896 287.922 46.5752C287.697 46.7607 287.435 46.9056 287.136 47.0098C286.836 47.1139 286.511 47.166 286.159 47.166C285.684 47.166 285.262 47.0846 284.895 46.9219C284.53 46.7559 284.24 46.5247 284.025 46.2285C283.814 45.9323 283.698 45.584 283.679 45.1836H284.528C284.554 45.431 284.637 45.6458 284.777 45.8281C284.921 46.0104 285.109 46.152 285.344 46.2529C285.578 46.3506 285.847 46.3994 286.149 46.3994C286.459 46.3994 286.732 46.3441 286.97 46.2334C287.211 46.1227 287.398 45.9681 287.531 45.7695C287.668 45.571 287.736 45.3398 287.736 45.0762C287.736 44.8027 287.671 44.5684 287.541 44.373C287.414 44.1745 287.23 44.0215 286.989 43.9141C286.748 43.8066 286.464 43.7529 286.135 43.7529H285.261ZM292.419 47.166C291.888 47.166 291.438 47.0212 291.066 46.7314C290.695 46.4417 290.41 46.0218 290.212 45.4717C290.017 44.9215 289.919 44.2559 289.919 43.4746C289.919 42.6999 290.017 42.0374 290.212 41.4873C290.41 40.9372 290.697 40.5173 291.071 40.2275C291.446 39.9346 291.895 39.7881 292.419 39.7881C292.94 39.7881 293.386 39.9346 293.757 40.2275C294.131 40.5205 294.416 40.9437 294.611 41.4971C294.81 42.0472 294.909 42.7113 294.909 43.4893C294.909 44.2673 294.812 44.9313 294.616 45.4814C294.421 46.0283 294.138 46.4466 293.767 46.7363C293.396 47.0228 292.946 47.166 292.419 47.166ZM292.419 46.3994C292.94 46.3994 293.337 46.1488 293.61 45.6475C293.887 45.1429 294.025 44.4186 294.025 43.4746C294.025 42.5404 293.885 41.821 293.605 41.3164C293.329 40.8118 292.933 40.5596 292.419 40.5596C292.074 40.5596 291.781 40.6735 291.54 40.9014C291.302 41.1292 291.12 41.4613 290.993 41.8975C290.866 42.3304 290.803 42.8561 290.803 43.4746C290.803 44.4186 290.941 45.1429 291.218 45.6475C291.498 46.1488 291.898 46.3994 292.419 46.3994ZM298.718 47.166C298.187 47.166 297.736 47.0212 297.365 46.7314C296.994 46.4417 296.709 46.0218 296.511 45.4717C296.315 44.9215 296.218 44.2559 296.218 43.4746C296.218 42.6999 296.315 42.0374 296.511 41.4873C296.709 40.9372 296.996 40.5173 297.37 40.2275C297.744 39.9346 298.194 39.7881 298.718 39.7881C299.239 39.7881 299.685 39.9346 300.056 40.2275C300.43 40.5205 300.715 40.9437 300.91 41.4971C301.109 42.0472 301.208 42.7113 301.208 43.4893C301.208 44.2673 301.11 44.9313 300.915 45.4814C300.72 46.0283 300.437 46.4466 300.065 46.7363C299.694 47.0228 299.245 47.166 298.718 47.166ZM298.718 46.3994C299.239 46.3994 299.636 46.1488 299.909 45.6475C300.186 45.1429 300.324 44.4186 300.324 43.4746C300.324 42.5404 300.184 41.821 299.904 41.3164C299.628 40.8118 299.232 40.5596 298.718 40.5596C298.373 40.5596 298.08 40.6735 297.839 40.9014C297.601 41.1292 297.419 41.4613 297.292 41.8975C297.165 42.3304 297.102 42.8561 297.102 43.4746C297.102 44.4186 297.24 45.1429 297.517 45.6475C297.797 46.1488 298.197 46.3994 298.718 46.3994ZM303.708 43.1426C303.389 43.1426 303.114 43.0758 302.883 42.9424C302.655 42.8089 302.479 42.6185 302.355 42.3711C302.235 42.1237 302.175 41.8275 302.175 41.4824C302.175 41.1406 302.237 40.846 302.36 40.5986C302.484 40.3512 302.66 40.1608 302.888 40.0273C303.119 39.8939 303.392 39.8271 303.708 39.8271C304.024 39.8271 304.296 39.8939 304.523 40.0273C304.751 40.1608 304.927 40.3512 305.051 40.5986C305.174 40.846 305.236 41.1406 305.236 41.4824C305.236 41.8275 305.174 42.1253 305.051 42.376C304.93 42.6234 304.756 42.8138 304.528 42.9473C304.3 43.0775 304.027 43.1426 303.708 43.1426ZM303.708 42.5029C303.955 42.5029 304.146 42.4134 304.279 42.2344C304.413 42.0553 304.479 41.8063 304.479 41.4873C304.479 41.1683 304.411 40.9193 304.274 40.7402C304.141 40.5612 303.952 40.4717 303.708 40.4717C303.461 40.4717 303.269 40.5612 303.132 40.7402C302.998 40.9193 302.932 41.1683 302.932 41.4873C302.932 41.8096 302.998 42.0602 303.132 42.2393C303.269 42.415 303.461 42.5029 303.708 42.5029ZM304.025 47H303.229L308.098 39.9541H308.894L304.025 47ZM308.42 47.0684C308.104 47.0684 307.831 47.0016 307.6 46.8682C307.372 46.7347 307.196 46.5443 307.072 46.2969C306.949 46.0495 306.887 45.7533 306.887 45.4082C306.887 45.0664 306.949 44.7718 307.072 44.5244C307.196 44.277 307.372 44.0866 307.6 43.9531C307.831 43.8197 308.104 43.7529 308.42 43.7529C308.736 43.7529 309.007 43.8197 309.235 43.9531C309.463 44.0866 309.639 44.277 309.763 44.5244C309.886 44.7718 309.948 45.0664 309.948 45.4082C309.948 45.7533 309.886 46.0511 309.763 46.3018C309.642 46.5492 309.466 46.7396 309.235 46.873C309.007 47.0033 308.736 47.0684 308.42 47.0684ZM308.42 46.4287C308.667 46.4287 308.858 46.3392 308.991 46.1602C309.125 45.9811 309.191 45.7321 309.191 45.4131C309.191 45.0941 309.125 44.8451 308.991 44.666C308.858 44.487 308.667 44.3975 308.42 44.3975C308.173 44.3975 307.982 44.487 307.849 44.666C307.715 44.8451 307.648 45.0941 307.648 45.4131C307.648 45.7354 307.715 45.986 307.849 46.165C307.982 46.3408 308.173 46.4287 308.42 46.4287Z" fill="white"/>
<path opacity="0.25" d="M286.999 11V9.54004H283.566V8.73926C283.882 8.20866 284.209 7.66829 284.548 7.11816C284.89 6.56803 285.231 6.02604 285.573 5.49219C285.918 4.95833 286.255 4.44564 286.584 3.9541H287.858V8.75391H288.859V9.54004H287.858V11H286.999ZM284.465 8.7002V8.75879H287.004V4.76953H286.945C286.682 5.16341 286.407 5.58171 286.12 6.02441C285.837 6.46712 285.554 6.91634 285.271 7.37207C284.991 7.82454 284.722 8.26725 284.465 8.7002ZM292.585 11.166C292.054 11.166 291.604 11.0212 291.232 10.7314C290.861 10.4417 290.576 10.0218 290.378 9.47168C290.183 8.92155 290.085 8.25586 290.085 7.47461C290.085 6.69987 290.183 6.03743 290.378 5.4873C290.576 4.93717 290.863 4.51725 291.237 4.22754C291.612 3.93457 292.061 3.78809 292.585 3.78809C293.106 3.78809 293.552 3.93457 293.923 4.22754C294.297 4.52051 294.582 4.94368 294.777 5.49707C294.976 6.0472 295.075 6.71126 295.075 7.48926C295.075 8.26725 294.978 8.93132 294.782 9.48145C294.587 10.0283 294.304 10.4466 293.933 10.7363C293.562 11.0228 293.112 11.166 292.585 11.166ZM292.585 10.3994C293.106 10.3994 293.503 10.1488 293.776 9.64746C294.053 9.1429 294.191 8.41862 294.191 7.47461C294.191 6.54036 294.051 5.82096 293.771 5.31641C293.495 4.81185 293.099 4.55957 292.585 4.55957C292.24 4.55957 291.947 4.6735 291.706 4.90137C291.468 5.12923 291.286 5.46126 291.159 5.89746C291.032 6.3304 290.969 6.85612 290.969 7.47461C290.969 8.41862 291.107 9.1429 291.384 9.64746C291.664 10.1488 292.064 10.3994 292.585 10.3994ZM298.884 11.166C298.353 11.166 297.902 11.0212 297.531 10.7314C297.16 10.4417 296.875 10.0218 296.677 9.47168C296.481 8.92155 296.384 8.25586 296.384 7.47461C296.384 6.69987 296.481 6.03743 296.677 5.4873C296.875 4.93717 297.162 4.51725 297.536 4.22754C297.91 3.93457 298.36 3.78809 298.884 3.78809C299.405 3.78809 299.851 3.93457 300.222 4.22754C300.596 4.52051 300.881 4.94368 301.076 5.49707C301.275 6.0472 301.374 6.71126 301.374 7.48926C301.374 8.26725 301.276 8.93132 301.081 9.48145C300.886 10.0283 300.603 10.4466 300.231 10.7363C299.86 11.0228 299.411 11.166 298.884 11.166ZM298.884 10.3994C299.405 10.3994 299.802 10.1488 300.075 9.64746C300.352 9.1429 300.49 8.41862 300.49 7.47461C300.49 6.54036 300.35 5.82096 300.07 5.31641C299.794 4.81185 299.398 4.55957 298.884 4.55957C298.539 4.55957 298.246 4.6735 298.005 4.90137C297.767 5.12923 297.585 5.46126 297.458 5.89746C297.331 6.3304 297.268 6.85612 297.268 7.47461C297.268 8.41862 297.406 9.1429 297.683 9.64746C297.963 10.1488 298.363 10.3994 298.884 10.3994ZM303.874 7.14258C303.555 7.14258 303.28 7.07585 303.049 6.94238C302.821 6.80892 302.645 6.61849 302.521 6.37109C302.401 6.1237 302.341 5.82747 302.341 5.48242C302.341 5.14062 302.403 4.84603 302.526 4.59863C302.65 4.35124 302.826 4.16081 303.054 4.02734C303.285 3.89388 303.558 3.82715 303.874 3.82715C304.19 3.82715 304.462 3.89388 304.689 4.02734C304.917 4.16081 305.093 4.35124 305.217 4.59863C305.34 4.84603 305.402 5.14062 305.402 5.48242C305.402 5.82747 305.34 6.12533 305.217 6.37598C305.096 6.62337 304.922 6.8138 304.694 6.94727C304.466 7.07747 304.193 7.14258 303.874 7.14258ZM303.874 6.50293C304.121 6.50293 304.312 6.41341 304.445 6.23438C304.579 6.05534 304.646 5.80632 304.646 5.4873C304.646 5.16829 304.577 4.91927 304.44 4.74023C304.307 4.5612 304.118 4.47168 303.874 4.47168C303.627 4.47168 303.435 4.5612 303.298 4.74023C303.164 4.91927 303.098 5.16829 303.098 5.4873C303.098 5.80957 303.164 6.06022 303.298 6.23926C303.435 6.41504 303.627 6.50293 303.874 6.50293ZM304.191 11H303.396L308.264 3.9541H309.06L304.191 11ZM308.586 11.0684C308.27 11.0684 307.997 11.0016 307.766 10.8682C307.538 10.7347 307.362 10.5443 307.238 10.2969C307.115 10.0495 307.053 9.75326 307.053 9.4082C307.053 9.06641 307.115 8.77181 307.238 8.52441C307.362 8.27702 307.538 8.08659 307.766 7.95312C307.997 7.81966 308.27 7.75293 308.586 7.75293C308.902 7.75293 309.174 7.81966 309.401 7.95312C309.629 8.08659 309.805 8.27702 309.929 8.52441C310.052 8.77181 310.114 9.06641 310.114 9.4082C310.114 9.75326 310.052 10.0511 309.929 10.3018C309.808 10.5492 309.632 10.7396 309.401 10.873C309.174 11.0033 308.902 11.0684 308.586 11.0684ZM308.586 10.4287C308.833 10.4287 309.024 10.3392 309.157 10.1602C309.291 9.98112 309.357 9.7321 309.357 9.41309C309.357 9.09408 309.291 8.84505 309.157 8.66602C309.024 8.48698 308.833 8.39746 308.586 8.39746C308.339 8.39746 308.148 8.48698 308.015 8.66602C307.881 8.84505 307.814 9.09408 307.814 9.41309C307.814 9.73535 307.881 9.986 308.015 10.165C308.148 10.3408 308.339 10.4287 308.586 10.4287Z" fill="white"/>
<g opacity="0.1">
<rect x="277" y="151" width="1.00001" height="277" rx="0.500007" transform="rotate(90 277 151)" fill="url(#paint0_linear_109_4659)"/>
<rect x="277" y="115" width="1.00001" height="277" rx="0.500007" transform="rotate(90 277 115)" fill="url(#paint1_linear_109_4659)"/>
<rect x="277" y="79" width="1.00001" height="277" rx="0.500007" transform="rotate(90 277 79)" fill="url(#paint2_linear_109_4659)"/>
<rect x="277" y="43" width="1.00001" height="277" rx="0.500007" transform="rotate(90 277 43)" fill="url(#paint3_linear_109_4659)"/>
<rect x="277" y="7" width="1.00001" height="277" rx="0.500007" transform="rotate(90 277 7)" fill="url(#paint4_linear_109_4659)"/>
<path d="M39.5016 151L39.5016 116L38.4984 116L38.4984 151L39.5016 151Z" fill="white"/>
<path d="M236.502 152L236.502 17L235.498 17L235.498 152L236.502 152Z" fill="white"/>
</g>
<g filter="url(#filter0_dd_109_4659)">
<path d="M236 17C217 17 174.811 17.0001 137.75 67C100.689 117 60.5 116 39.5 116" stroke="#E44240" stroke-width="7.02258"/>
</g>
<circle cx="39.1878" cy="116.035" r="11.0355" fill="#E44240" fill-opacity="0.5"/>
<circle cx="39.188" cy="116.036" r="5.01613" fill="white"/>
<circle cx="235.819" cy="17.0548" r="17.0548" fill="#E44240" fill-opacity="0.5"/>
<circle cx="235.819" cy="17.055" r="11.0355" fill="#E44240" fill-opacity="0.5"/>
<circle cx="235.818" cy="17.0547" r="5.01613" fill="white"/>
<path d="M255 75.3901L236 49L217 75.3901H227.854V161.5H244.136V75.3901H255Z" fill="url(#paint5_linear_109_4659)"/>
<path d="M255 75.3901L236 49L217 75.3901H227.854V140.5H244.136V75.3901H255Z" fill="url(#paint6_linear_109_4659)"/>
<g filter="url(#filter1_d_109_4659)">
<g filter="url(#filter2_b_109_4659)">
<path d="M40 54.715C40 57.8113 42.51 60.3213 45.6063 60.3213H111.394C114.49 60.3213 117 57.8113 117 54.715V52.5L127.255 54.219L117 43.471V33.6062C117 30.51 114.49 28 111.394 28H64.8626H60.5661H56.575H45.6063C42.51 28 40 30.51 40 33.6062V54.715Z" fill="white" fill-opacity="0.17"/>
</g>
<path d="M49.3574 39.9928H52.0039C52.3341 39.9928 52.6368 40.0479 52.9119 40.1579C53.1871 40.268 53.4234 40.425 53.6209 40.629C53.8216 40.8297 53.9754 41.0692 54.0822 41.3477C54.1923 41.6228 54.2473 41.9271 54.2473 42.2606C54.2473 42.5875 54.1923 42.8886 54.0822 43.1638C53.9721 43.4357 53.8151 43.672 53.6112 43.8728C53.4105 44.0702 53.1725 44.224 52.8974 44.3341C52.6254 44.4441 52.3244 44.4992 51.9941 44.4992H50.2314V47H49.3574V39.9928ZM50.2314 40.7698V43.7222H51.7756C52.2742 43.7222 52.661 43.5943 52.9362 43.3386C53.2114 43.0829 53.349 42.7235 53.349 42.2606C53.349 41.7815 53.213 41.414 52.9411 41.1583C52.6724 40.8993 52.2839 40.7698 51.7756 40.7698H50.2314ZM57.5154 42.4111C57.237 42.4111 56.9893 42.4759 56.7724 42.6054C56.5588 42.7316 56.3872 42.9097 56.2577 43.1395C56.1314 43.3694 56.057 43.6397 56.0343 43.9505H58.9188C58.9123 43.6397 58.8492 43.3694 58.7294 43.1395C58.6128 42.9097 58.451 42.7316 58.2438 42.6054C58.0366 42.4759 57.7938 42.4111 57.5154 42.4111ZM58.8945 45.6452H59.7297C59.6488 45.943 59.5063 46.2004 59.3024 46.4173C59.1017 46.6342 58.8508 46.8009 58.5497 46.9174C58.2486 47.034 57.9071 47.0923 57.5251 47.0923C57.0395 47.0923 56.6203 46.9822 56.2674 46.7621C55.9145 46.5419 55.6426 46.2295 55.4516 45.8249C55.2606 45.417 55.1651 44.9378 55.1651 44.3875C55.1651 43.9764 55.2201 43.6041 55.3302 43.2706C55.4403 42.9372 55.5989 42.6523 55.8061 42.416C56.0133 42.1764 56.2609 41.9935 56.549 41.8672C56.8404 41.7378 57.1657 41.673 57.5251 41.673C57.9977 41.673 58.4024 41.7798 58.7391 41.9935C59.079 42.2039 59.3396 42.5066 59.5209 42.9016C59.7054 43.2965 59.7977 43.7643 59.7977 44.3049V44.6254H56.0343V44.6643C56.0505 45.0107 56.1217 45.3101 56.248 45.5626C56.3742 45.8151 56.5474 46.011 56.7676 46.1502C56.9877 46.2862 57.2467 46.3542 57.5445 46.3542C57.8812 46.3542 58.1628 46.2943 58.3895 46.1745C58.6161 46.0515 58.7844 45.875 58.8945 45.6452ZM61.1088 47V41.7653H61.9052V42.5422H61.9829C62.0347 42.3739 62.1302 42.225 62.2694 42.0955C62.4118 41.9627 62.5834 41.8592 62.7841 41.7847C62.9881 41.7102 63.205 41.673 63.4348 41.673C63.5028 41.673 63.5756 41.6762 63.6533 41.6827C63.731 41.686 63.7974 41.6908 63.8524 41.6973V42.5325C63.8298 42.526 63.786 42.5196 63.7213 42.5131C63.6566 42.5034 63.587 42.4969 63.5125 42.4937C63.438 42.4872 63.3733 42.484 63.3183 42.484C63.0528 42.484 62.8165 42.539 62.6093 42.6491C62.4021 42.7591 62.2386 42.9097 62.1188 43.1007C62.0023 43.2917 61.944 43.5102 61.944 43.7562V47H61.1088ZM65.5374 47V42.4645H64.6682V41.7653H65.5374V41.1826C65.5374 40.6613 65.6653 40.2745 65.9211 40.022C66.18 39.7662 66.5588 39.6384 67.0574 39.6384C67.1577 39.6384 67.2548 39.6432 67.3487 39.6529C67.4426 39.6594 67.5332 39.6707 67.6206 39.6869V40.3668C67.5688 40.357 67.509 40.3506 67.441 40.3473C67.373 40.3441 67.3018 40.3425 67.2273 40.3425C66.9262 40.3425 66.7077 40.4153 66.5718 40.561C66.439 40.7034 66.3727 40.9187 66.3727 41.2068V41.7653H67.5721V42.4645H66.3727V47H65.5374ZM70.7188 47.0923C70.2234 47.0923 69.7945 46.9838 69.4319 46.7669C69.0726 46.5468 68.7942 46.2344 68.5967 45.8297C68.4025 45.425 68.3053 44.9427 68.3053 44.3826C68.3053 43.8226 68.4025 43.3402 68.5967 42.9356C68.7942 42.5277 69.0726 42.2153 69.4319 41.9984C69.7945 41.7815 70.2234 41.673 70.7188 41.673C71.2141 41.673 71.6414 41.7815 72.0007 41.9984C72.3633 42.2153 72.6417 42.5277 72.836 42.9356C73.0334 43.3402 73.1322 43.8226 73.1322 44.3826C73.1322 44.9427 73.0334 45.425 72.836 45.8297C72.6417 46.2344 72.3633 46.5468 72.0007 46.7669C71.6414 46.9838 71.2141 47.0923 70.7188 47.0923ZM70.7188 46.3396C71.2141 46.3396 71.5961 46.168 71.8648 45.8249C72.1335 45.4817 72.2678 45.001 72.2678 44.3826C72.2678 43.7611 72.1335 43.2803 71.8648 42.9404C71.5961 42.5973 71.2141 42.4257 70.7188 42.4257C70.2234 42.4257 69.8414 42.5973 69.5727 42.9404C69.304 43.2803 69.1697 43.7611 69.1697 44.3826C69.1697 45.001 69.304 45.4817 69.5727 45.8249C69.8414 46.168 70.2234 46.3396 70.7188 46.3396ZM74.4433 47V41.7653H75.2397V42.5422H75.3174C75.3691 42.3739 75.4646 42.225 75.6039 42.0955C75.7463 41.9627 75.9179 41.8592 76.1186 41.7847C76.3225 41.7102 76.5394 41.673 76.7693 41.673C76.8373 41.673 76.9101 41.6762 76.9878 41.6827C77.0655 41.686 77.1319 41.6908 77.1869 41.6973V42.5325C77.1642 42.526 77.1205 42.5196 77.0558 42.5131C76.991 42.5034 76.9214 42.4969 76.847 42.4937C76.7725 42.4872 76.7078 42.484 76.6527 42.484C76.3873 42.484 76.151 42.539 75.9438 42.6491C75.7366 42.7591 75.5731 42.9097 75.4533 43.1007C75.3368 43.2917 75.2785 43.5102 75.2785 43.7562V47H74.4433ZM78.3281 47V41.7653H79.1244V42.5908H79.2021C79.3219 42.2994 79.5081 42.0744 79.7606 41.9158C80.0131 41.7539 80.3141 41.673 80.6638 41.673C81.0166 41.673 81.3161 41.7588 81.5621 41.9304C81.8082 42.0987 81.9911 42.3188 82.1108 42.5908H82.1885C82.3277 42.3124 82.5382 42.0906 82.8198 41.9255C83.1047 41.7572 83.4284 41.673 83.791 41.673C84.3252 41.673 84.7363 41.8219 85.0244 42.1198C85.3125 42.4143 85.4566 42.8352 85.4566 43.3823V47H84.6214V43.5765C84.6214 42.8093 84.2539 42.4257 83.5191 42.4257C83.2763 42.4257 83.0642 42.4807 82.8829 42.5908C82.7017 42.6976 82.5592 42.8433 82.4556 43.0278C82.3553 43.2091 82.3051 43.4114 82.3051 43.6348V47H81.4699V43.4454C81.4699 43.2382 81.4245 43.0586 81.3339 42.9064C81.2432 42.7543 81.1154 42.6361 80.9503 42.5519C80.7884 42.4678 80.5974 42.4257 80.3773 42.4257C80.1507 42.4257 79.9451 42.4856 79.7606 42.6054C79.576 42.7251 79.4304 42.8854 79.3235 43.0861C79.2167 43.2868 79.1633 43.5102 79.1633 43.7562V47H78.3281ZM88.5936 46.359C88.8784 46.359 89.1342 46.3024 89.3608 46.1891C89.5874 46.0725 89.7655 45.9155 89.895 45.718C90.0245 45.5205 90.0892 45.2972 90.0892 45.0479V44.5672L88.681 44.6594C88.2828 44.6853 87.9914 44.7695 87.8069 44.9119C87.6256 45.0511 87.535 45.2519 87.535 45.5141C87.535 45.6921 87.5803 45.8443 87.6709 45.9705C87.7648 46.0968 87.8911 46.1939 88.0497 46.2619C88.2116 46.3266 88.3928 46.359 88.5936 46.359ZM88.4382 47.0923C88.1015 47.0923 87.7988 47.0291 87.5301 46.9029C87.2646 46.7766 87.0542 46.597 86.8988 46.3639C86.7467 46.1275 86.6706 45.8508 86.6706 45.5335C86.6706 45.0641 86.8357 44.6983 87.1659 44.436C87.4993 44.1706 87.9704 44.0201 88.579 43.9844L90.0892 43.8922V43.4163C90.0892 43.0926 89.9888 42.8449 89.7881 42.6733C89.5907 42.5018 89.2961 42.416 88.9043 42.416C88.5903 42.416 88.3297 42.4726 88.1225 42.5859C87.9153 42.6992 87.7826 42.8595 87.7243 43.0667H86.8794C86.915 42.7883 87.0251 42.5438 87.2096 42.3334C87.3941 42.123 87.6337 41.9611 87.9283 41.8478C88.2261 41.7313 88.5612 41.673 88.9335 41.673C89.3608 41.673 89.7218 41.7426 90.0164 41.8818C90.3142 42.021 90.5392 42.2217 90.6913 42.484C90.8467 42.7429 90.9244 43.0537 90.9244 43.4163V47H90.128V46.2279H90.0504C89.882 46.5063 89.6586 46.72 89.3802 46.8689C89.1018 47.0178 88.7878 47.0923 88.4382 47.0923ZM92.4686 47V41.7653H93.265V42.5908H93.3427C93.4722 42.3027 93.6664 42.0777 93.9254 41.9158C94.1844 41.7539 94.5146 41.673 94.916 41.673C95.5052 41.673 95.9568 41.8413 96.2708 42.178C96.5881 42.5115 96.7467 42.989 96.7467 43.6105V47H95.9115V43.8145C95.9115 43.3418 95.8095 42.9922 95.6056 42.7656C95.4049 42.539 95.0957 42.4257 94.6781 42.4257C94.3997 42.4257 94.1569 42.4856 93.9497 42.6054C93.7457 42.7219 93.5871 42.8919 93.4738 43.1152C93.3605 43.3354 93.3039 43.5976 93.3039 43.9019V47H92.4686ZM102.608 43.3677H101.763C101.718 43.1929 101.637 43.0343 101.52 42.8919C101.404 42.7494 101.253 42.6361 101.069 42.5519C100.884 42.4678 100.665 42.4257 100.413 42.4257C100.099 42.4257 99.827 42.505 99.5972 42.6636C99.3673 42.8223 99.1893 43.0472 99.063 43.3386C98.94 43.6267 98.8785 43.9683 98.8785 44.3632C98.8785 44.7679 98.9416 45.1175 99.0679 45.4121C99.1941 45.7067 99.3722 45.9349 99.602 46.0968C99.8319 46.2587 100.102 46.3396 100.413 46.3396C100.766 46.3396 101.059 46.2603 101.292 46.1016C101.528 45.943 101.685 45.7164 101.763 45.4218H102.608C102.556 45.7423 102.438 46.0288 102.253 46.2813C102.069 46.5338 101.821 46.7329 101.51 46.8786C101.2 47.021 100.835 47.0923 100.418 47.0923C99.929 47.0923 99.5049 46.9806 99.1456 46.7572C98.7862 46.5338 98.5078 46.2182 98.3103 45.8103C98.1129 45.3991 98.0141 44.9168 98.0141 44.3632C98.0141 43.9553 98.0692 43.5863 98.1792 43.2561C98.2925 42.9258 98.4528 42.6426 98.66 42.4063C98.8704 42.1699 99.1229 41.9886 99.4175 41.8624C99.7153 41.7361 100.047 41.673 100.413 41.673C100.837 41.673 101.205 41.7507 101.515 41.9061C101.826 42.0582 102.074 42.2622 102.258 42.5179C102.443 42.7737 102.559 43.057 102.608 43.3677ZM105.929 42.4111C105.651 42.4111 105.403 42.4759 105.186 42.6054C104.973 42.7316 104.801 42.9097 104.672 43.1395C104.545 43.3694 104.471 43.6397 104.448 43.9505H107.333C107.326 43.6397 107.263 43.3694 107.143 43.1395C107.027 42.9097 106.865 42.7316 106.658 42.6054C106.451 42.4759 106.208 42.4111 105.929 42.4111ZM107.308 45.6452H108.144C108.063 45.943 107.92 46.2004 107.716 46.4173C107.516 46.6342 107.265 46.8009 106.964 46.9174C106.663 47.034 106.321 47.0923 105.939 47.0923C105.453 47.0923 105.034 46.9822 104.681 46.7621C104.329 46.5419 104.057 46.2295 103.866 45.8249C103.675 45.417 103.579 44.9378 103.579 44.3875C103.579 43.9764 103.634 43.6041 103.744 43.2706C103.854 42.9372 104.013 42.6523 104.22 42.416C104.427 42.1764 104.675 41.9935 104.963 41.8672C105.254 41.7378 105.58 41.673 105.939 41.673C106.412 41.673 106.816 41.7798 107.153 41.9935C107.493 42.2039 107.754 42.5066 107.935 42.9016C108.119 43.2965 108.212 43.7643 108.212 44.3049V44.6254H104.448V44.6643C104.464 45.0107 104.536 45.3101 104.662 45.5626C104.788 45.8151 104.961 46.011 105.182 46.1502C105.402 46.2862 105.661 46.3542 105.958 46.3542C106.295 46.3542 106.577 46.2943 106.803 46.1745C107.03 46.0515 107.198 45.875 107.308 45.6452Z" fill="white"/>
</g>
<defs>
<filter id="filter0_dd_109_4659" x="14.4194" y="6.46619" width="246.661" height="156.186" filterUnits="userSpaceOnUse" color-interpolation-filters="sRGB">
<feFlood flood-opacity="0" result="BackgroundImageFix"/>
<feColorMatrix in="SourceAlpha" type="matrix" values="0 0 0 0 0 0 0 0 0 0 0 0 0 0 0 0 0 0 127 0" result="hardAlpha"/>
<feOffset dy="5.01613"/>
<feGaussianBlur stdDeviation="6.01935"/>
<feComposite in2="hardAlpha" operator="out"/>
<feColorMatrix type="matrix" values="0 0 0 0 0.894118 0 0 0 0 0.258824 0 0 0 0 0.25098 0 0 0 0.75 0"/>
<feBlend mode="normal" in2="BackgroundImageFix" result="effect1_dropShadow_109_4659"/>
<feColorMatrix in="SourceAlpha" type="matrix" values="0 0 0 0 0 0 0 0 0 0 0 0 0 0 0 0 0 0 127 0" result="hardAlpha"/>
<feOffset dy="18.0581"/>
<feGaussianBlur stdDeviation="12.5403"/>
<feComposite in2="hardAlpha" operator="out"/>
<feColorMatrix type="matrix" values="0 0 0 0 0.894118 0 0 0 0 0.258824 0 0 0 0 0.25098 0 0 0 0.44 0"/>
<feBlend mode="normal" in2="effect1_dropShadow_109_4659" result="effect2_dropShadow_109_4659"/>
<feBlend mode="normal" in="SourceGraphic" in2="effect2_dropShadow_109_4659" result="shape"/>
</filter>
<filter id="filter1_d_109_4659" x="25.9548" y="18.971" width="123.371" height="68.4374" filterUnits="userSpaceOnUse" color-interpolation-filters="sRGB">
<feFlood flood-opacity="0" result="BackgroundImageFix"/>
<feColorMatrix in="SourceAlpha" type="matrix" values="0 0 0 0 0 0 0 0 0 0 0 0 0 0 0 0 0 0 127 0" result="hardAlpha"/>
<feOffset dx="4.0129" dy="9.02903"/>
<feGaussianBlur stdDeviation="9.02903"/>
<feComposite in2="hardAlpha" operator="out"/>
<feColorMatrix type="matrix" values="0 0 0 0 0 0 0 0 0 0 0 0 0 0 0 0 0 0 0.37 0"/>
<feBlend mode="normal" in2="BackgroundImageFix" result="effect1_dropShadow_109_4659"/>
<feBlend mode="normal" in="SourceGraphic" in2="effect1_dropShadow_109_4659" result="shape"/>
</filter>
<filter id="filter2_b_109_4659" x="31.5868" y="19.5868" width="104.081" height="49.1477" filterUnits="userSpaceOnUse" color-interpolation-filters="sRGB">
<feFlood flood-opacity="0" result="BackgroundImageFix"/>
<feGaussianBlur in="BackgroundImage" stdDeviation="4.20659"/>
<feComposite in2="SourceAlpha" operator="in" result="effect1_backgroundBlur_109_4659"/>
<feBlend mode="normal" in="SourceGraphic" in2="effect1_backgroundBlur_109_4659" result="shape"/>
</filter>
<linearGradient id="paint0_linear_109_4659" x1="277" y1="151" x2="277" y2="429.787" gradientUnits="userSpaceOnUse">
<stop stop-color="white" stop-opacity="0"/>
<stop offset="0.179035" stop-color="white"/>
<stop offset="0.809177" stop-color="white"/>
<stop offset="1" stop-color="white" stop-opacity="0"/>
</linearGradient>
<linearGradient id="paint1_linear_109_4659" x1="277" y1="115" x2="277" y2="393.787" gradientUnits="userSpaceOnUse">
<stop stop-color="white" stop-opacity="0"/>
<stop offset="0.179035" stop-color="white"/>
<stop offset="0.809177" stop-color="white"/>
<stop offset="1" stop-color="white" stop-opacity="0"/>
</linearGradient>
<linearGradient id="paint2_linear_109_4659" x1="277" y1="79" x2="277" y2="357.787" gradientUnits="userSpaceOnUse">
<stop stop-color="white" stop-opacity="0"/>
<stop offset="0.179035" stop-color="white"/>
<stop offset="0.809177" stop-color="white"/>
<stop offset="1" stop-color="white" stop-opacity="0"/>
</linearGradient>
<linearGradient id="paint3_linear_109_4659" x1="277" y1="43" x2="277" y2="321.787" gradientUnits="userSpaceOnUse">
<stop stop-color="white" stop-opacity="0"/>
<stop offset="0.179035" stop-color="white"/>
<stop offset="0.809177" stop-color="white"/>
<stop offset="1" stop-color="white" stop-opacity="0"/>
</linearGradient>
<linearGradient id="paint4_linear_109_4659" x1="277" y1="7" x2="277" y2="285.787" gradientUnits="userSpaceOnUse">
<stop stop-color="white" stop-opacity="0"/>
<stop offset="0.179035" stop-color="white"/>
<stop offset="0.809177" stop-color="white"/>
<stop offset="1" stop-color="white" stop-opacity="0"/>
</linearGradient>
<linearGradient id="paint5_linear_109_4659" x1="236" y1="152.5" x2="236" y2="65.7377" gradientUnits="userSpaceOnUse">
<stop stop-color="#111113" stop-opacity="0"/>
<stop offset="0.197917" stop-color="#111113"/>
</linearGradient>
<linearGradient id="paint6_linear_109_4659" x1="236" y1="136" x2="236" y2="65.7377" gradientUnits="userSpaceOnUse">
<stop stop-color="#E44240" stop-opacity="0"/>
<stop offset="1" stop-color="#E44240"/>
</linearGradient>
</defs>
</svg>
