<svg width="375" height="341" viewBox="0 0 375 341" fill="none" xmlns="http://www.w3.org/2000/svg">
<g opacity="0.1">
<path d="M233.323 26.5271L233.323 73.5529L232.113 73.5529L232.113 26.5271L233.323 26.5271Z" fill="white"/>
<path d="M308.081 26.5272L308.081 74.7587L306.871 74.7587L306.872 26.5272L308.081 26.5272Z" fill="white"/>
</g>
<g opacity="0.25">
<path d="M375 106.108L7.52211e-05 106.108" stroke="url(#paint0_linear_88_9437)" stroke-width="1.20968" stroke-linecap="round" stroke-dasharray="4.82 4.82"/>
</g>
<path d="M0.000459941 201.502H0V340.032H166.399V108.063C156.7 115.277 147.158 124.078 137.46 134.809C77.183 201.502 34.3653 201.502 0.000459941 201.502Z" fill="url(#paint1_linear_88_9437)" fill-opacity="0.5"/>
<path d="M374.999 340.032V75.9648C273.435 75.9648 218.731 70.6118 168.81 106.304V340.032H374.999Z" fill="url(#paint2_linear_88_9437)" fill-opacity="0.5"/>
<rect x="166.399" y="112.139" width="2.41158" height="227.894" fill="#111113"/>
<path d="M375 75.9648C252.01 75.9648 197.737 68.1151 137.46 134.809C77.1827 201.503 34.3649 201.502 0 201.502" stroke="url(#paint3_linear_88_9437)" stroke-width="8.46774"/>
<circle cx="232.748" cy="80.8188" r="9.67742" fill="#E44240"/>
<circle cx="232.75" cy="80.8185" r="6.04839" fill="white"/>
<circle cx="69.9657" cy="188.134" r="9.67742" fill="#6E6E70"/>
<circle cx="69.9676" cy="188.134" r="6.04839" fill="white"/>
<circle cx="307.51" cy="74.7896" r="9.67742" fill="#E44240"/>
<circle cx="307.512" cy="74.7894" r="6.04839" fill="white"/>
<circle cx="167.669" cy="107.381" r="20.5645" fill="#E44240" fill-opacity="0.5"/>
<circle cx="167.669" cy="107.38" r="13.3064" fill="#E44240" fill-opacity="0.5"/>
<circle cx="167.669" cy="107.381" r="6.04839" fill="white"/>
<path d="M214.964 3.80497H218.977C219.99 3.80497 220.852 4.0028 221.563 4.39844C222.275 4.78938 222.819 5.35931 223.195 6.10821C223.572 6.85712 223.761 7.76382 223.761 8.8283C223.761 9.93518 223.575 10.8725 223.202 11.6402C222.83 12.408 222.286 12.9944 221.57 13.3995C220.859 13.7998 219.995 14 218.977 14H214.964V3.80497ZM217.098 5.62778V12.1772H218.638C219.58 12.1772 220.306 11.8946 220.814 11.3294C221.328 10.7642 221.584 9.94224 221.584 8.86363C221.584 8.17595 221.467 7.5919 221.231 7.11147C221 6.62633 220.664 6.25894 220.221 6.0093C219.783 5.75496 219.255 5.62778 218.638 5.62778H217.098ZM225.583 14V6.20713H227.576V7.45059H227.703C227.769 7.19154 227.896 6.95839 228.084 6.75114C228.278 6.5439 228.513 6.3814 228.791 6.26365C229.069 6.14118 229.373 6.07995 229.702 6.07995C229.844 6.07995 229.99 6.08937 230.14 6.10821C230.296 6.12234 230.418 6.14589 230.508 6.17887V8.05113C230.456 8.03229 230.374 8.01345 230.261 7.99461C230.147 7.97106 230.025 7.95458 229.893 7.94516C229.761 7.93103 229.641 7.92396 229.533 7.92396C229.161 7.92396 228.831 7.99461 228.544 8.13592C228.261 8.27722 228.04 8.47975 227.88 8.74352C227.719 9.00729 227.639 9.32051 227.639 9.68319V14H225.583ZM232.126 14.1908C231.871 14.1908 231.65 14.1366 231.462 14.0283C231.278 13.9246 231.134 13.781 231.031 13.5973C230.927 13.4136 230.875 13.2016 230.875 12.9614C230.875 12.7212 230.927 12.5093 231.031 12.3256C231.134 12.1419 231.278 11.9982 231.462 11.8946C231.65 11.791 231.871 11.7391 232.126 11.7391C232.507 11.7391 232.811 11.8545 233.037 12.0853C233.263 12.3114 233.376 12.6035 233.376 12.9614C233.376 13.2016 233.324 13.4136 233.221 13.5973C233.117 13.781 232.971 13.9246 232.783 14.0283C232.599 14.1366 232.38 14.1908 232.126 14.1908ZM241.741 14H239.608V3.80497H241.741V8.34787H241.869L245.634 3.80497H248.008L244.292 8.27722L248.27 14H245.712L242.752 9.73264L241.741 10.9267V14ZM252.438 7.61309C252.122 7.61309 251.84 7.68375 251.59 7.82505C251.345 7.96164 251.147 8.15711 250.997 8.41146C250.851 8.66109 250.766 8.95312 250.742 9.28754H254.063C254.039 8.77414 253.882 8.36671 253.59 8.06526C253.302 7.76382 252.918 7.61309 252.438 7.61309ZM254.105 11.7815H256.02C255.916 12.2714 255.705 12.6953 255.384 13.0533C255.069 13.4065 254.661 13.6821 254.162 13.8799C253.663 14.073 253.095 14.1696 252.459 14.1696C251.668 14.1696 250.99 14.0094 250.424 13.6891C249.864 13.3688 249.433 12.9096 249.132 12.3114C248.835 11.7085 248.686 10.9855 248.686 10.1424C248.686 9.2946 248.837 8.56454 249.139 7.95222C249.44 7.33991 249.871 6.8689 250.432 6.53919C250.992 6.20477 251.659 6.03756 252.431 6.03756C253.194 6.03756 253.849 6.19535 254.395 6.51093C254.941 6.8218 255.358 7.27161 255.646 7.86037C255.938 8.44443 256.084 9.14859 256.084 9.97286V10.6017H250.735V10.7076C250.749 11.287 250.914 11.7462 251.23 12.0853C251.55 12.4198 251.979 12.587 252.516 12.587C252.921 12.587 253.26 12.5187 253.533 12.3821C253.806 12.2408 253.997 12.0406 254.105 11.7815ZM261.234 12.262C261.606 12.262 261.924 12.1725 262.188 11.9935C262.456 11.8098 262.661 11.5531 262.803 11.2234C262.944 10.889 263.015 10.4933 263.015 10.0364C263.015 9.57956 262.942 9.18391 262.796 8.8495C262.654 8.51508 262.449 8.25838 262.181 8.07939C261.917 7.8957 261.602 7.80385 261.234 7.80385C260.867 7.80385 260.551 7.8957 260.287 8.07939C260.028 8.25838 259.828 8.51508 259.687 8.8495C259.55 9.18391 259.482 9.57721 259.482 10.0294C259.482 10.7171 259.635 11.2611 259.941 11.6614C260.247 12.0618 260.678 12.262 261.234 12.262ZM261.206 16.9532C260.518 16.9532 259.913 16.8567 259.39 16.6636C258.872 16.4752 258.46 16.209 258.154 15.8652C257.852 15.5261 257.68 15.1281 257.638 14.6712H259.673C259.725 14.9114 259.889 15.1022 260.167 15.2435C260.445 15.3848 260.806 15.4554 261.248 15.4554C261.799 15.4554 262.228 15.333 262.534 15.088C262.84 14.8478 262.993 14.5087 262.993 14.0707V12.6294H262.866C262.65 13.0391 262.341 13.3524 261.941 13.569C261.54 13.781 261.067 13.887 260.521 13.887C259.875 13.887 259.315 13.7292 258.839 13.4136C258.368 13.098 258.005 12.6529 257.751 12.0783C257.497 11.4989 257.37 10.8183 257.37 10.0364C257.37 9.23102 257.497 8.53156 257.751 7.93809C258.01 7.34462 258.377 6.88774 258.853 6.56745C259.334 6.24245 259.904 6.07995 260.563 6.07995C261.091 6.07995 261.564 6.20242 261.983 6.44734C262.407 6.69227 262.723 7.02904 262.93 7.45766H263.057V6.20713H265.049V13.9717C265.049 14.5841 264.892 15.1116 264.576 15.5543C264.265 16.0018 263.82 16.3456 263.241 16.5858C262.666 16.8308 261.988 16.9532 261.206 16.9532ZM270.482 7.61309C270.167 7.61309 269.884 7.68375 269.635 7.82505C269.39 7.96164 269.192 8.15711 269.041 8.41146C268.895 8.66109 268.81 8.95312 268.787 9.28754H272.107C272.084 8.77414 271.926 8.36671 271.634 8.06526C271.347 7.76382 270.963 7.61309 270.482 7.61309ZM272.15 11.7815H274.065C273.961 12.2714 273.749 12.6953 273.429 13.0533C273.113 13.4065 272.706 13.6821 272.206 13.8799C271.707 14.073 271.14 14.1696 270.504 14.1696C269.712 14.1696 269.034 14.0094 268.469 13.6891C267.908 13.3688 267.477 12.9096 267.176 12.3114C266.879 11.7085 266.731 10.9855 266.731 10.1424C266.731 9.2946 266.882 8.56454 267.183 7.95222C267.484 7.33991 267.915 6.8689 268.476 6.53919C269.036 6.20477 269.703 6.03756 270.475 6.03756C271.238 6.03756 271.893 6.19535 272.44 6.51093C272.986 6.8218 273.403 7.27161 273.69 7.86037C273.982 8.44443 274.128 9.14859 274.128 9.97286V10.6017H268.78V10.7076C268.794 11.287 268.959 11.7462 269.274 12.0853C269.595 12.4198 270.023 12.587 270.56 12.587C270.965 12.587 271.304 12.5187 271.578 12.3821C271.851 12.2408 272.042 12.0406 272.15 11.7815ZM275.887 14V3.23269H277.943V14H275.887ZM290.865 6.20713V14H288.873V12.7495H288.746C288.562 13.2016 288.284 13.5525 287.912 13.8022C287.54 14.0471 287.06 14.1696 286.471 14.1696C285.91 14.1696 285.425 14.0565 285.016 13.8304C284.61 13.5996 284.297 13.2699 284.076 12.8413C283.854 12.408 283.744 11.8899 283.744 11.287V6.20713H285.8V10.7571C285.8 11.8404 286.278 12.3821 287.234 12.3821C287.747 12.3821 288.138 12.2314 288.407 11.9299C288.675 11.6285 288.81 11.2187 288.81 10.7006V6.20713H290.865ZM292.752 8.49624C292.752 8.00168 292.886 7.5707 293.155 7.20331C293.428 6.83593 293.807 6.55096 294.292 6.34843C294.777 6.14118 295.345 6.03756 295.995 6.03756C296.984 6.03756 297.759 6.23774 298.319 6.6381C298.884 7.03846 299.195 7.61074 299.252 8.35494H297.351C297.299 8.1053 297.158 7.90748 296.927 7.76146C296.697 7.61545 296.39 7.54244 296.009 7.54244C295.764 7.54244 295.545 7.57777 295.352 7.64842C295.159 7.71436 295.006 7.81092 294.893 7.93809C294.784 8.06055 294.73 8.20421 294.73 8.36907C294.73 8.56218 294.815 8.71997 294.984 8.84243C295.159 8.96489 295.425 9.06616 295.783 9.14623L297.245 9.46417C298.004 9.62902 298.557 9.88101 298.906 10.2201C299.259 10.5546 299.436 11.0138 299.436 11.5978C299.436 12.116 299.289 12.5681 298.997 12.9544C298.71 13.3406 298.31 13.6397 297.796 13.8516C297.283 14.0636 296.685 14.1696 296.002 14.1696C294.975 14.1696 294.163 13.967 293.564 13.562C292.966 13.1569 292.632 12.5799 292.561 11.831H294.568C294.643 12.0948 294.805 12.2997 295.055 12.4457C295.305 12.5917 295.634 12.6647 296.044 12.6647C296.445 12.6647 296.77 12.5893 297.019 12.4386C297.269 12.2832 297.394 12.0806 297.394 11.831C297.394 11.6379 297.316 11.4824 297.161 11.3647C297.005 11.2422 296.755 11.1433 296.412 11.068L294.999 10.75C294.24 10.5852 293.675 10.3191 293.303 9.95166C292.936 9.57956 292.752 9.09442 292.752 8.49624ZM304.494 7.61309C304.179 7.61309 303.896 7.68375 303.646 7.82505C303.401 7.96164 303.204 8.15711 303.053 8.41146C302.907 8.66109 302.822 8.95312 302.799 9.28754H306.119C306.096 8.77414 305.938 8.36671 305.646 8.06526C305.358 7.76382 304.975 7.61309 304.494 7.61309ZM306.162 11.7815H308.076C307.973 12.2714 307.761 12.6953 307.44 13.0533C307.125 13.4065 306.717 13.6821 306.218 13.8799C305.719 14.073 305.151 14.1696 304.515 14.1696C303.724 14.1696 303.046 14.0094 302.481 13.6891C301.92 13.3688 301.489 12.9096 301.188 12.3114C300.891 11.7085 300.743 10.9855 300.743 10.1424C300.743 9.2946 300.893 8.56454 301.195 7.95222C301.496 7.33991 301.927 6.8689 302.488 6.53919C303.048 6.20477 303.715 6.03756 304.487 6.03756C305.25 6.03756 305.905 6.19535 306.451 6.51093C306.998 6.8218 307.414 7.27161 307.702 7.86037C307.994 8.44443 308.14 9.14859 308.14 9.97286V10.6017H302.791V10.7076C302.806 11.287 302.97 11.7462 303.286 12.0853C303.606 12.4198 304.035 12.587 304.572 12.587C304.977 12.587 305.316 12.5187 305.589 12.3821C305.862 12.2408 306.053 12.0406 306.162 11.7815ZM309.828 14V6.20713H311.821V7.45059H311.948C312.014 7.19154 312.141 6.95839 312.329 6.75114C312.523 6.5439 312.758 6.3814 313.036 6.26365C313.314 6.14118 313.618 6.07995 313.947 6.07995C314.089 6.07995 314.235 6.08937 314.385 6.10821C314.541 6.12234 314.663 6.14589 314.753 6.17887V8.05113C314.701 8.03229 314.619 8.01345 314.506 7.99461C314.392 7.97106 314.27 7.95458 314.138 7.94516C314.006 7.93103 313.886 7.92396 313.778 7.92396C313.406 7.92396 313.076 7.99461 312.789 8.13592C312.506 8.27722 312.285 8.47975 312.125 8.74352C311.964 9.00729 311.884 9.32051 311.884 9.68319V14H309.828ZM315.77 8.49624C315.77 8.00168 315.904 7.5707 316.173 7.20331C316.446 6.83593 316.825 6.55096 317.31 6.34843C317.796 6.14118 318.363 6.03756 319.013 6.03756C320.002 6.03756 320.777 6.23774 321.338 6.6381C321.903 7.03846 322.214 7.61074 322.27 8.35494H320.37C320.318 8.1053 320.176 7.90748 319.946 7.76146C319.715 7.61545 319.409 7.54244 319.027 7.54244C318.782 7.54244 318.563 7.57777 318.37 7.64842C318.177 7.71436 318.024 7.81092 317.911 7.93809C317.803 8.06055 317.748 8.20421 317.748 8.36907C317.748 8.56218 317.833 8.71997 318.003 8.84243C318.177 8.96489 318.443 9.06616 318.801 9.14623L320.264 9.46417C321.022 9.62902 321.575 9.88101 321.924 10.2201C322.277 10.5546 322.454 11.0138 322.454 11.5978C322.454 12.116 322.308 12.5681 322.016 12.9544C321.728 13.3406 321.328 13.6397 320.815 13.8516C320.301 14.0636 319.703 14.1696 319.02 14.1696C317.993 14.1696 317.181 13.967 316.583 13.562C315.984 13.1569 315.65 12.5799 315.579 11.831H317.586C317.661 12.0948 317.824 12.2997 318.073 12.4457C318.323 12.5917 318.653 12.6647 319.063 12.6647C319.463 12.6647 319.788 12.5893 320.038 12.4386C320.287 12.2832 320.412 12.0806 320.412 11.831C320.412 11.6379 320.334 11.4824 320.179 11.3647C320.023 11.2422 319.774 11.1433 319.43 11.068L318.017 10.75C317.259 10.5852 316.693 10.3191 316.321 9.95166C315.954 9.57956 315.77 9.09442 315.77 8.49624Z" fill="white"/>
<defs>
<linearGradient id="paint0_linear_88_9437" x1="375" y1="106.108" x2="-2.41929" y2="106.108" gradientUnits="userSpaceOnUse">
<stop stop-color="white" stop-opacity="0"/>
<stop offset="0.179035" stop-color="white"/>
<stop offset="0.809177" stop-color="white"/>
<stop offset="1" stop-color="white" stop-opacity="0"/>
</linearGradient>
<linearGradient id="paint1_linear_88_9437" x1="21.8945" y1="-60.9791" x2="21.8945" y2="340.032" gradientUnits="userSpaceOnUse">
<stop stop-color="#6E6E70"/>
<stop offset="1" stop-color="#6E6E70" stop-opacity="0"/>
</linearGradient>
<linearGradient id="paint2_linear_88_9437" x1="195.94" y1="-116.961" x2="195.94" y2="340.032" gradientUnits="userSpaceOnUse">
<stop stop-color="#E44240"/>
<stop offset="1" stop-color="#E44240" stop-opacity="0"/>
</linearGradient>
<linearGradient id="paint3_linear_88_9437" x1="375" y1="105.507" x2="-3.21619e-08" y2="105.507" gradientUnits="userSpaceOnUse">
<stop stop-color="#E44240"/>
<stop offset="0.546875" stop-color="#E44240"/>
<stop offset="0.557292" stop-color="#6E6E70"/>
<stop offset="1" stop-color="#6E6E70"/>
</linearGradient>
</defs>
</svg>
