<svg width="311" height="311" viewBox="0 0 311 311" fill="none" xmlns="http://www.w3.org/2000/svg">
<rect width="311" height="311" rx="25.1762" fill="white"/>
<path d="M28.7247 19.3345H19.334V28.7252H28.7247V19.3345Z" fill="#111113"/>
<path d="M38.1154 19.3345H28.7246V28.7252H38.1154V19.3345Z" fill="#111113"/>
<path d="M47.504 19.3345H38.1133V28.7252H47.504V19.3345Z" fill="#111113"/>
<path d="M56.8966 19.3345H47.5059V28.7252H56.8966V19.3345Z" fill="#111113"/>
<path d="M66.2853 19.3345H56.8945V28.7252H66.2853V19.3345Z" fill="#111113"/>
<path d="M75.6798 19.3345H66.2891V28.7252H75.6798V19.3345Z" fill="#111113"/>
<path d="M85.0704 19.3345H75.6797V28.7252H85.0704V19.3345Z" fill="#111113"/>
<path d="M103.852 19.3345H94.4609V28.7252H103.852V19.3345Z" fill="#111113"/>
<path d="M122.633 19.3345H113.242V28.7252H122.633V19.3345Z" fill="#111113"/>
<path d="M141.416 19.3345H132.025V28.7252H141.416V19.3345Z" fill="#111113"/>
<path d="M150.805 19.3345H141.414V28.7252H150.805V19.3345Z" fill="#111113"/>
<path d="M160.195 19.3345H150.805V28.7252H160.195V19.3345Z" fill="#111113"/>
<path d="M169.586 19.3345H160.195V28.7252H169.586V19.3345Z" fill="#111113"/>
<path d="M178.977 19.3345H169.586V28.7252H178.977V19.3345Z" fill="#111113"/>
<path d="M216.539 19.3345H207.148V28.7252H216.539V19.3345Z" fill="#111113"/>
<path d="M235.32 19.3345H225.93V28.7252H235.32V19.3345Z" fill="#111113"/>
<path d="M244.711 19.3345H235.32V28.7252H244.711V19.3345Z" fill="#111113"/>
<path d="M254.102 19.3345H244.711V28.7252H254.102V19.3345Z" fill="#111113"/>
<path d="M263.496 19.3345H254.105V28.7252H263.496V19.3345Z" fill="#111113"/>
<path d="M272.885 19.3345H263.494V28.7252H272.885V19.3345Z" fill="#111113"/>
<path d="M282.277 19.3345H272.887V28.7252H282.277V19.3345Z" fill="#111113"/>
<path d="M291.666 19.3345H282.275V28.7252H291.666V19.3345Z" fill="#111113"/>
<path d="M28.7247 28.7246H19.334V38.1154H28.7247V28.7246Z" fill="#111113"/>
<path d="M85.0704 28.7246H75.6797V38.1154H85.0704V28.7246Z" fill="#111113"/>
<path d="M113.242 28.7246H103.852V38.1154H113.242V28.7246Z" fill="#111113"/>
<path d="M122.633 28.7246H113.242V38.1154H122.633V28.7246Z" fill="#111113"/>
<path d="M132.022 28.7246H122.631V38.1154H132.022V28.7246Z" fill="#111113"/>
<path d="M141.416 28.7246H132.025V38.1154H141.416V28.7246Z" fill="#111113"/>
<path d="M150.805 28.7246H141.414V38.1154H150.805V28.7246Z" fill="#111113"/>
<path d="M188.365 28.7246H178.975V38.1154H188.365V28.7246Z" fill="#111113"/>
<path d="M197.76 28.7246H188.369V38.1154H197.76V28.7246Z" fill="#111113"/>
<path d="M235.32 28.7246H225.93V38.1154H235.32V28.7246Z" fill="#111113"/>
<path d="M291.666 28.7246H282.275V38.1154H291.666V28.7246Z" fill="#111113"/>
<path d="M28.7247 38.1152H19.334V47.506H28.7247V38.1152Z" fill="#111113"/>
<path d="M47.504 38.1152H38.1133V47.506H47.504V38.1152Z" fill="#111113"/>
<path d="M56.8966 38.1152H47.5059V47.506H56.8966V38.1152Z" fill="#111113"/>
<path d="M66.2853 38.1152H56.8945V47.506H66.2853V38.1152Z" fill="#111113"/>
<path d="M85.0704 38.1152H75.6797V47.506H85.0704V38.1152Z" fill="#111113"/>
<path d="M103.852 38.1152H94.4609V47.506H103.852V38.1152Z" fill="#111113"/>
<path d="M113.242 38.1152H103.852V47.506H113.242V38.1152Z" fill="#111113"/>
<path d="M122.633 38.1152H113.242V47.506H122.633V38.1152Z" fill="#111113"/>
<path d="M150.805 38.1152H141.414V47.506H150.805V38.1152Z" fill="#111113"/>
<path d="M160.195 38.1152H150.805V47.506H160.195V38.1152Z" fill="#111113"/>
<path d="M169.586 38.1152H160.195V47.506H169.586V38.1152Z" fill="#111113"/>
<path d="M197.76 38.1152H188.369V47.506H197.76V38.1152Z" fill="#111113"/>
<path d="M207.149 38.1152H197.758V47.506H207.149V38.1152Z" fill="#111113"/>
<path d="M235.32 38.1152H225.93V47.506H235.32V38.1152Z" fill="#111113"/>
<path d="M254.102 38.1152H244.711V47.506H254.102V38.1152Z" fill="#111113"/>
<path d="M263.496 38.1152H254.105V47.506H263.496V38.1152Z" fill="#111113"/>
<path d="M272.885 38.1152H263.494V47.506H272.885V38.1152Z" fill="#111113"/>
<path d="M291.666 38.1152H282.275V47.506H291.666V38.1152Z" fill="#111113"/>
<path d="M28.7247 47.5059H19.334V56.8966H28.7247V47.5059Z" fill="#111113"/>
<path d="M47.504 47.5059H38.1133V56.8966H47.504V47.5059Z" fill="#111113"/>
<path d="M56.8966 47.5059H47.5059V56.8966H56.8966V47.5059Z" fill="#111113"/>
<path d="M66.2853 47.5059H56.8945V56.8966H66.2853V47.5059Z" fill="#111113"/>
<path d="M85.0704 47.5059H75.6797V56.8966H85.0704V47.5059Z" fill="#111113"/>
<path d="M103.852 47.5059H94.4609V56.8966H103.852V47.5059Z" fill="#111113"/>
<path d="M113.242 47.5059H103.852V56.8966H113.242V47.5059Z" fill="#111113"/>
<path d="M122.633 47.5059H113.242V56.8966H122.633V47.5059Z" fill="#111113"/>
<path d="M141.416 47.5059H132.025V56.8966H141.416V47.5059Z" fill="#111113"/>
<path d="M150.805 47.5059H141.414V56.8966H150.805V47.5059Z" fill="#111113"/>
<path d="M160.195 47.5059H150.805V56.8966H160.195V47.5059Z" fill="#111113"/>
<path d="M169.586 47.5059H160.195V56.8966H169.586V47.5059Z" fill="#111113"/>
<path d="M188.365 47.5059H178.975V56.8966H188.365V47.5059Z" fill="#111113"/>
<path d="M207.149 47.5059H197.758V56.8966H207.149V47.5059Z" fill="#111113"/>
<path d="M235.32 47.5059H225.93V56.8966H235.32V47.5059Z" fill="#111113"/>
<path d="M254.102 47.5059H244.711V56.8966H254.102V47.5059Z" fill="#111113"/>
<path d="M263.496 47.5059H254.105V56.8966H263.496V47.5059Z" fill="#111113"/>
<path d="M272.885 47.5059H263.494V56.8966H272.885V47.5059Z" fill="#111113"/>
<path d="M291.666 47.5059H282.275V56.8966H291.666V47.5059Z" fill="#111113"/>
<path d="M28.7247 56.897H19.334V66.2877H28.7247V56.897Z" fill="#111113"/>
<path d="M47.504 56.897H38.1133V66.2877H47.504V56.897Z" fill="#111113"/>
<path d="M56.8966 56.897H47.5059V66.2877H56.8966V56.897Z" fill="#111113"/>
<path d="M66.2853 56.897H56.8945V66.2877H66.2853V56.897Z" fill="#111113"/>
<path d="M85.0704 56.897H75.6797V66.2877H85.0704V56.897Z" fill="#111113"/>
<path d="M103.852 56.897H94.4609V66.2877H103.852V56.897Z" fill="#111113"/>
<path d="M132.022 56.897H122.631V66.2877H132.022V56.897Z" fill="#111113"/>
<path d="M141.416 56.897H132.025V66.2877H141.416V56.897Z" fill="#111113"/>
<path d="M169.586 56.897H160.195V66.2877H169.586V56.897Z" fill="#111113"/>
<path d="M178.977 56.897H169.586V66.2877H178.977V56.897Z" fill="#111113"/>
<path d="M197.76 56.897H188.369V66.2877H197.76V56.897Z" fill="#111113"/>
<path d="M235.32 56.897H225.93V66.2877H235.32V56.897Z" fill="#111113"/>
<path d="M254.102 56.897H244.711V66.2877H254.102V56.897Z" fill="#111113"/>
<path d="M263.496 56.897H254.105V66.2877H263.496V56.897Z" fill="#111113"/>
<path d="M272.885 56.897H263.494V66.2877H272.885V56.897Z" fill="#111113"/>
<path d="M291.666 56.897H282.275V66.2877H291.666V56.897Z" fill="#111113"/>
<path d="M28.7247 66.2881H19.334V75.6789H28.7247V66.2881Z" fill="#111113"/>
<path d="M85.0704 66.2881H75.6797V75.6789H85.0704V66.2881Z" fill="#111113"/>
<path d="M122.633 66.2881H113.242V75.6789H122.633V66.2881Z" fill="#111113"/>
<path d="M132.022 66.2881H122.631V75.6789H132.022V66.2881Z" fill="#111113"/>
<path d="M150.805 66.2881H141.414V75.6789H150.805V66.2881Z" fill="#111113"/>
<path d="M207.149 66.2881H197.758V75.6789H207.149V66.2881Z" fill="#111113"/>
<path d="M216.539 66.2881H207.148V75.6789H216.539V66.2881Z" fill="#111113"/>
<path d="M235.32 66.2881H225.93V75.6789H235.32V66.2881Z" fill="#111113"/>
<path d="M291.666 66.2881H282.275V75.6789H291.666V66.2881Z" fill="#111113"/>
<path d="M28.7247 75.6782H19.334V85.069H28.7247V75.6782Z" fill="#111113"/>
<path d="M38.1154 75.6782H28.7246V85.069H38.1154V75.6782Z" fill="#111113"/>
<path d="M47.504 75.6782H38.1133V85.069H47.504V75.6782Z" fill="#111113"/>
<path d="M56.8966 75.6782H47.5059V85.069H56.8966V75.6782Z" fill="#111113"/>
<path d="M66.2853 75.6782H56.8945V85.069H66.2853V75.6782Z" fill="#111113"/>
<path d="M75.6798 75.6782H66.2891V85.069H75.6798V75.6782Z" fill="#111113"/>
<path d="M85.0704 75.6782H75.6797V85.069H85.0704V75.6782Z" fill="#111113"/>
<path d="M103.852 75.6782H94.4609V85.069H103.852V75.6782Z" fill="#111113"/>
<path d="M122.633 75.6782H113.242V85.069H122.633V75.6782Z" fill="#111113"/>
<path d="M141.416 75.6782H132.025V85.069H141.416V75.6782Z" fill="#111113"/>
<path d="M160.195 75.6782H150.805V85.069H160.195V75.6782Z" fill="#111113"/>
<path d="M178.977 75.6782H169.586V85.069H178.977V75.6782Z" fill="#111113"/>
<path d="M197.76 75.6782H188.369V85.069H197.76V75.6782Z" fill="#111113"/>
<path d="M216.539 75.6782H207.148V85.069H216.539V75.6782Z" fill="#111113"/>
<path d="M235.32 75.6782H225.93V85.069H235.32V75.6782Z" fill="#111113"/>
<path d="M244.711 75.6782H235.32V85.069H244.711V75.6782Z" fill="#111113"/>
<path d="M254.102 75.6782H244.711V85.069H254.102V75.6782Z" fill="#111113"/>
<path d="M263.496 75.6782H254.105V85.069H263.496V75.6782Z" fill="#111113"/>
<path d="M272.885 75.6782H263.494V85.069H272.885V75.6782Z" fill="#111113"/>
<path d="M282.277 75.6782H272.887V85.069H282.277V75.6782Z" fill="#111113"/>
<path d="M291.666 75.6782H282.275V85.069H291.666V75.6782Z" fill="#111113"/>
<path d="M122.633 85.0693H113.242V94.4601H122.633V85.0693Z" fill="#111113"/>
<path d="M141.416 85.0693H132.025V94.4601H141.416V85.0693Z" fill="#111113"/>
<path d="M188.365 85.0693H178.975V94.4601H188.365V85.0693Z" fill="#111113"/>
<path d="M197.76 85.0693H188.369V94.4601H197.76V85.0693Z" fill="#111113"/>
<path d="M216.539 85.0693H207.148V94.4601H216.539V85.0693Z" fill="#111113"/>
<path d="M28.7247 94.4595H19.334V103.85H28.7247V94.4595Z" fill="#111113"/>
<path d="M38.1154 94.4595H28.7246V103.85H38.1154V94.4595Z" fill="#111113"/>
<path d="M47.504 94.4595H38.1133V103.85H47.504V94.4595Z" fill="#111113"/>
<path d="M56.8966 94.4595H47.5059V103.85H56.8966V94.4595Z" fill="#111113"/>
<path d="M85.0704 94.4595H75.6797V103.85H85.0704V94.4595Z" fill="#111113"/>
<path d="M103.852 94.4595H94.4609V103.85H103.852V94.4595Z" fill="#111113"/>
<path d="M122.633 94.4595H113.242V103.85H122.633V94.4595Z" fill="#111113"/>
<path d="M132.022 94.4595H122.631V103.85H132.022V94.4595Z" fill="#111113"/>
<path d="M141.416 94.4595H132.025V103.85H141.416V94.4595Z" fill="#111113"/>
<path d="M160.195 94.4595H150.805V103.85H160.195V94.4595Z" fill="#111113"/>
<path d="M178.977 94.4595H169.586V103.85H178.977V94.4595Z" fill="#111113"/>
<path d="M188.365 94.4595H178.975V103.85H188.365V94.4595Z" fill="#111113"/>
<path d="M207.149 94.4595H197.758V103.85H207.149V94.4595Z" fill="#111113"/>
<path d="M216.539 94.4595H207.148V103.85H216.539V94.4595Z" fill="#111113"/>
<path d="M225.93 94.4595H216.539V103.85H225.93V94.4595Z" fill="#111113"/>
<path d="M254.102 94.4595H244.711V103.85H254.102V94.4595Z" fill="#111113"/>
<path d="M263.496 94.4595H254.105V103.85H263.496V94.4595Z" fill="#111113"/>
<path d="M272.885 94.4595H263.494V103.85H272.885V94.4595Z" fill="#111113"/>
<path d="M291.666 94.4595H282.275V103.85H291.666V94.4595Z" fill="#111113"/>
<path d="M56.8966 103.85H47.5059V113.241H56.8966V103.85Z" fill="#111113"/>
<path d="M94.4611 103.85H85.0703V113.241H94.4611V103.85Z" fill="#111113"/>
<path d="M122.633 103.85H113.242V113.241H122.633V103.85Z" fill="#111113"/>
<path d="M141.416 103.85H132.025V113.241H141.416V103.85Z" fill="#111113"/>
<path d="M160.195 103.85H150.805V113.241H160.195V103.85Z" fill="#111113"/>
<path d="M178.977 103.85H169.586V113.241H178.977V103.85Z" fill="#111113"/>
<path d="M188.365 103.85H178.975V113.241H188.365V103.85Z" fill="#111113"/>
<path d="M197.76 103.85H188.369V113.241H197.76V103.85Z" fill="#111113"/>
<path d="M207.149 103.85H197.758V113.241H207.149V103.85Z" fill="#111113"/>
<path d="M216.539 103.85H207.148V113.241H216.539V103.85Z" fill="#111113"/>
<path d="M225.93 103.85H216.539V113.241H225.93V103.85Z" fill="#111113"/>
<path d="M235.32 103.85H225.93V113.241H235.32V103.85Z" fill="#111113"/>
<path d="M244.711 103.85H235.32V113.241H244.711V103.85Z" fill="#111113"/>
<path d="M254.102 103.85H244.711V113.241H254.102V103.85Z" fill="#111113"/>
<path d="M291.666 103.85H282.275V113.241H291.666V103.85Z" fill="#111113"/>
<path d="M28.7247 113.241H19.334V122.632H28.7247V113.241Z" fill="#111113"/>
<path d="M47.504 113.241H38.1133V122.632H47.504V113.241Z" fill="#111113"/>
<path d="M66.2853 113.241H56.8945V122.632H66.2853V113.241Z" fill="#111113"/>
<path d="M75.6798 113.241H66.2891V122.632H75.6798V113.241Z" fill="#111113"/>
<path d="M85.0704 113.241H75.6797V122.632H85.0704V113.241Z" fill="#111113"/>
<path d="M94.4611 113.241H85.0703V122.632H94.4611V113.241Z" fill="#111113"/>
<path d="M103.852 113.241H94.4609V122.632H103.852V113.241Z" fill="#111113"/>
<path d="M113.242 113.241H103.852V122.632H113.242V113.241Z" fill="#111113"/>
<path d="M122.633 113.241H113.242V122.632H122.633V113.241Z" fill="#111113"/>
<path d="M132.022 113.241H122.631V122.632H132.022V113.241Z" fill="#111113"/>
<path d="M141.416 113.241H132.025V122.632H141.416V113.241Z" fill="#111113"/>
<path d="M150.805 113.241H141.414V122.632H150.805V113.241Z" fill="#111113"/>
<path d="M160.195 113.241H150.805V122.632H160.195V113.241Z" fill="#111113"/>
<path d="M178.977 113.241H169.586V122.632H178.977V113.241Z" fill="#111113"/>
<path d="M197.76 113.241H188.369V122.632H197.76V113.241Z" fill="#111113"/>
<path d="M225.93 113.241H216.539V122.632H225.93V113.241Z" fill="#111113"/>
<path d="M272.885 113.241H263.494V122.632H272.885V113.241Z" fill="#111113"/>
<path d="M282.277 113.241H272.887V122.632H282.277V113.241Z" fill="#111113"/>
<path d="M47.504 122.633H38.1133V132.024H47.504V122.633Z" fill="#111113"/>
<path d="M113.242 122.633H103.852V132.024H113.242V122.633Z" fill="#111113"/>
<path d="M122.633 122.633H113.242V132.024H122.633V122.633Z" fill="#111113"/>
<path d="M150.805 122.633H141.414V132.024H150.805V122.633Z" fill="#111113"/>
<path d="M169.586 122.633H160.195V132.024H169.586V122.633Z" fill="#111113"/>
<path d="M197.76 122.633H188.369V132.024H197.76V122.633Z" fill="#111113"/>
<path d="M216.539 122.633H207.148V132.024H216.539V122.633Z" fill="#111113"/>
<path d="M225.93 122.633H216.539V132.024H225.93V122.633Z" fill="#111113"/>
<path d="M244.711 122.633H235.32V132.024H244.711V122.633Z" fill="#111113"/>
<path d="M291.666 122.633H282.275V132.024H291.666V122.633Z" fill="#111113"/>
<path d="M28.7247 132.023H19.334V141.414H28.7247V132.023Z" fill="#111113"/>
<path d="M38.1154 132.023H28.7246V141.414H38.1154V132.023Z" fill="#111113"/>
<path d="M47.504 132.023H38.1133V141.414H47.504V132.023Z" fill="#111113"/>
<path d="M85.0704 132.023H75.6797V141.414H85.0704V132.023Z" fill="#111113"/>
<path d="M113.242 132.023H103.852V141.414H113.242V132.023Z" fill="#111113"/>
<path d="M122.633 132.023H113.242V141.414H122.633V132.023Z" fill="#111113"/>
<path d="M141.416 132.023H132.025V141.414H141.416V132.023Z" fill="#111113"/>
<path d="M150.805 132.023H141.414V141.414H150.805V132.023Z" fill="#111113"/>
<path d="M178.977 132.023H169.586V141.414H178.977V132.023Z" fill="#111113"/>
<path d="M188.365 132.023H178.975V141.414H188.365V132.023Z" fill="#111113"/>
<path d="M197.76 132.023H188.369V141.414H197.76V132.023Z" fill="#111113"/>
<path d="M207.149 132.023H197.758V141.414H207.149V132.023Z" fill="#111113"/>
<path d="M263.496 132.023H254.105V141.414H263.496V132.023Z" fill="#111113"/>
<path d="M272.885 132.023H263.494V141.414H272.885V132.023Z" fill="#111113"/>
<path d="M38.1154 141.413H28.7246V150.804H38.1154V141.413Z" fill="#111113"/>
<path d="M47.504 141.413H38.1133V150.804H47.504V141.413Z" fill="#111113"/>
<path d="M56.8966 141.413H47.5059V150.804H56.8966V141.413Z" fill="#111113"/>
<path d="M66.2853 141.413H56.8945V150.804H66.2853V141.413Z" fill="#111113"/>
<path d="M94.4611 141.413H85.0703V150.804H94.4611V141.413Z" fill="#111113"/>
<path d="M103.852 141.413H94.4609V150.804H103.852V141.413Z" fill="#111113"/>
<path d="M132.022 141.413H122.631V150.804H132.022V141.413Z" fill="#111113"/>
<path d="M141.416 141.413H132.025V150.804H141.416V141.413Z" fill="#111113"/>
<path d="M150.805 141.413H141.414V150.804H150.805V141.413Z" fill="#111113"/>
<path d="M169.586 141.413H160.195V150.804H169.586V141.413Z" fill="#111113"/>
<path d="M188.365 141.413H178.975V150.804H188.365V141.413Z" fill="#111113"/>
<path d="M197.76 141.413H188.369V150.804H197.76V141.413Z" fill="#111113"/>
<path d="M207.149 141.413H197.758V150.804H207.149V141.413Z" fill="#111113"/>
<path d="M216.539 141.413H207.148V150.804H216.539V141.413Z" fill="#111113"/>
<path d="M235.32 141.413H225.93V150.804H235.32V141.413Z" fill="#111113"/>
<path d="M272.885 141.413H263.494V150.804H272.885V141.413Z" fill="#111113"/>
<path d="M282.277 141.413H272.887V150.804H282.277V141.413Z" fill="#111113"/>
<path d="M291.666 141.413H282.275V150.804H291.666V141.413Z" fill="#111113"/>
<path d="M28.7247 150.804H19.334V160.195H28.7247V150.804Z" fill="#111113"/>
<path d="M38.1154 150.804H28.7246V160.195H38.1154V150.804Z" fill="#111113"/>
<path d="M56.8966 150.804H47.5059V160.195H56.8966V150.804Z" fill="#111113"/>
<path d="M66.2853 150.804H56.8945V160.195H66.2853V150.804Z" fill="#111113"/>
<path d="M75.6798 150.804H66.2891V160.195H75.6798V150.804Z" fill="#111113"/>
<path d="M85.0704 150.804H75.6797V160.195H85.0704V150.804Z" fill="#111113"/>
<path d="M94.4611 150.804H85.0703V160.195H94.4611V150.804Z" fill="#111113"/>
<path d="M113.242 150.804H103.852V160.195H113.242V150.804Z" fill="#111113"/>
<path d="M132.022 150.804H122.631V160.195H132.022V150.804Z" fill="#111113"/>
<path d="M150.805 150.804H141.414V160.195H150.805V150.804Z" fill="#111113"/>
<path d="M160.195 150.804H150.805V160.195H160.195V150.804Z" fill="#111113"/>
<path d="M207.149 150.804H197.758V160.195H207.149V150.804Z" fill="#111113"/>
<path d="M225.93 150.804H216.539V160.195H225.93V150.804Z" fill="#111113"/>
<path d="M235.32 150.804H225.93V160.195H235.32V150.804Z" fill="#111113"/>
<path d="M244.711 150.804H235.32V160.195H244.711V150.804Z" fill="#111113"/>
<path d="M254.102 150.804H244.711V160.195H254.102V150.804Z" fill="#111113"/>
<path d="M272.885 150.804H263.494V160.195H272.885V150.804Z" fill="#111113"/>
<path d="M282.277 150.804H272.887V160.195H282.277V150.804Z" fill="#111113"/>
<path d="M291.666 150.804H282.275V160.195H291.666V150.804Z" fill="#111113"/>
<path d="M28.7247 160.196H19.334V169.587H28.7247V160.196Z" fill="#111113"/>
<path d="M38.1154 160.196H28.7246V169.587H38.1154V160.196Z" fill="#111113"/>
<path d="M47.504 160.196H38.1133V169.587H47.504V160.196Z" fill="#111113"/>
<path d="M56.8966 160.196H47.5059V169.587H56.8966V160.196Z" fill="#111113"/>
<path d="M94.4611 160.196H85.0703V169.587H94.4611V160.196Z" fill="#111113"/>
<path d="M113.242 160.196H103.852V169.587H113.242V160.196Z" fill="#111113"/>
<path d="M132.022 160.196H122.631V169.587H132.022V160.196Z" fill="#111113"/>
<path d="M160.195 160.196H150.805V169.587H160.195V160.196Z" fill="#111113"/>
<path d="M169.586 160.196H160.195V169.587H169.586V160.196Z" fill="#111113"/>
<path d="M178.977 160.196H169.586V169.587H178.977V160.196Z" fill="#111113"/>
<path d="M207.149 160.196H197.758V169.587H207.149V160.196Z" fill="#111113"/>
<path d="M216.539 160.196H207.148V169.587H216.539V160.196Z" fill="#111113"/>
<path d="M282.277 160.196H272.887V169.587H282.277V160.196Z" fill="#111113"/>
<path d="M38.1154 169.587H28.7246V178.978H38.1154V169.587Z" fill="#111113"/>
<path d="M47.504 169.587H38.1133V178.978H47.504V169.587Z" fill="#111113"/>
<path d="M56.8966 169.587H47.5059V178.978H56.8966V169.587Z" fill="#111113"/>
<path d="M75.6798 169.587H66.2891V178.978H75.6798V169.587Z" fill="#111113"/>
<path d="M85.0704 169.587H75.6797V178.978H85.0704V169.587Z" fill="#111113"/>
<path d="M141.416 169.587H132.025V178.978H141.416V169.587Z" fill="#111113"/>
<path d="M150.805 169.587H141.414V178.978H150.805V169.587Z" fill="#111113"/>
<path d="M178.977 169.587H169.586V178.978H178.977V169.587Z" fill="#111113"/>
<path d="M197.76 169.587H188.369V178.978H197.76V169.587Z" fill="#111113"/>
<path d="M207.149 169.587H197.758V178.978H207.149V169.587Z" fill="#111113"/>
<path d="M216.539 169.587H207.148V178.978H216.539V169.587Z" fill="#111113"/>
<path d="M225.93 169.587H216.539V178.978H225.93V169.587Z" fill="#111113"/>
<path d="M244.711 169.587H235.32V178.978H244.711V169.587Z" fill="#111113"/>
<path d="M254.102 169.587H244.711V178.978H254.102V169.587Z" fill="#111113"/>
<path d="M263.496 169.587H254.105V178.978H263.496V169.587Z" fill="#111113"/>
<path d="M282.277 169.587H272.887V178.978H282.277V169.587Z" fill="#111113"/>
<path d="M38.1154 178.977H28.7246V188.368H38.1154V178.977Z" fill="#111113"/>
<path d="M75.6798 178.977H66.2891V188.368H75.6798V178.977Z" fill="#111113"/>
<path d="M94.4611 178.977H85.0703V188.368H94.4611V178.977Z" fill="#111113"/>
<path d="M103.852 178.977H94.4609V188.368H103.852V178.977Z" fill="#111113"/>
<path d="M113.242 178.977H103.852V188.368H113.242V178.977Z" fill="#111113"/>
<path d="M122.633 178.977H113.242V188.368H122.633V178.977Z" fill="#111113"/>
<path d="M150.805 178.977H141.414V188.368H150.805V178.977Z" fill="#111113"/>
<path d="M160.195 178.977H150.805V188.368H160.195V178.977Z" fill="#111113"/>
<path d="M169.586 178.977H160.195V188.368H169.586V178.977Z" fill="#111113"/>
<path d="M188.365 178.977H178.975V188.368H188.365V178.977Z" fill="#111113"/>
<path d="M216.539 178.977H207.148V188.368H216.539V178.977Z" fill="#111113"/>
<path d="M244.711 178.977H235.32V188.368H244.711V178.977Z" fill="#111113"/>
<path d="M263.496 178.977H254.105V188.368H263.496V178.977Z" fill="#111113"/>
<path d="M272.885 178.977H263.494V188.368H272.885V178.977Z" fill="#111113"/>
<path d="M282.277 178.977H272.887V188.368H282.277V178.977Z" fill="#111113"/>
<path d="M28.7247 188.367H19.334V197.758H28.7247V188.367Z" fill="#111113"/>
<path d="M66.2853 188.367H56.8945V197.758H66.2853V188.367Z" fill="#111113"/>
<path d="M85.0704 188.367H75.6797V197.758H85.0704V188.367Z" fill="#111113"/>
<path d="M94.4611 188.367H85.0703V197.758H94.4611V188.367Z" fill="#111113"/>
<path d="M113.242 188.367H103.852V197.758H113.242V188.367Z" fill="#111113"/>
<path d="M160.195 188.367H150.805V197.758H160.195V188.367Z" fill="#111113"/>
<path d="M169.586 188.367H160.195V197.758H169.586V188.367Z" fill="#111113"/>
<path d="M188.365 188.367H178.975V197.758H188.365V188.367Z" fill="#111113"/>
<path d="M197.76 188.367H188.369V197.758H197.76V188.367Z" fill="#111113"/>
<path d="M216.539 188.367H207.148V197.758H216.539V188.367Z" fill="#111113"/>
<path d="M235.32 188.367H225.93V197.758H235.32V188.367Z" fill="#111113"/>
<path d="M272.885 188.367H263.494V197.758H272.885V188.367Z" fill="#111113"/>
<path d="M56.8966 197.758H47.5059V207.149H56.8966V197.758Z" fill="#111113"/>
<path d="M66.2853 197.758H56.8945V207.149H66.2853V197.758Z" fill="#111113"/>
<path d="M94.4611 197.758H85.0703V207.149H94.4611V197.758Z" fill="#111113"/>
<path d="M103.852 197.758H94.4609V207.149H103.852V197.758Z" fill="#111113"/>
<path d="M132.022 197.758H122.631V207.149H132.022V197.758Z" fill="#111113"/>
<path d="M160.195 197.758H150.805V207.149H160.195V197.758Z" fill="#111113"/>
<path d="M169.586 197.758H160.195V207.149H169.586V197.758Z" fill="#111113"/>
<path d="M178.977 197.758H169.586V207.149H178.977V197.758Z" fill="#111113"/>
<path d="M188.365 197.758H178.975V207.149H188.365V197.758Z" fill="#111113"/>
<path d="M254.102 197.758H244.711V207.149H254.102V197.758Z" fill="#111113"/>
<path d="M272.885 197.758H263.494V207.149H272.885V197.758Z" fill="#111113"/>
<path d="M38.1154 207.15H28.7246V216.541H38.1154V207.15Z" fill="#111113"/>
<path d="M47.504 207.15H38.1133V216.541H47.504V207.15Z" fill="#111113"/>
<path d="M75.6798 207.15H66.2891V216.541H75.6798V207.15Z" fill="#111113"/>
<path d="M85.0704 207.15H75.6797V216.541H85.0704V207.15Z" fill="#111113"/>
<path d="M94.4611 207.149H85.0703V216.54H94.4611V207.149Z" fill="#111113"/>
<path d="M122.633 207.149H113.242V216.54H122.633V207.149Z" fill="#111113"/>
<path d="M160.195 207.149H150.805V216.54H160.195V207.149Z" fill="#111113"/>
<path d="M188.365 207.149H178.975V216.54H188.365V207.149Z" fill="#111113"/>
<path d="M197.76 207.149H188.369V216.54H197.76V207.149Z" fill="#111113"/>
<path d="M207.149 207.149H197.758V216.54H207.149V207.149Z" fill="#111113"/>
<path d="M216.539 207.149H207.148V216.54H216.539V207.149Z" fill="#111113"/>
<path d="M225.93 207.149H216.539V216.54H225.93V207.149Z" fill="#111113"/>
<path d="M235.32 207.149H225.93V216.54H235.32V207.149Z" fill="#111113"/>
<path d="M244.711 207.149H235.32V216.54H244.711V207.149Z" fill="#111113"/>
<path d="M254.102 207.149H244.711V216.54H254.102V207.149Z" fill="#111113"/>
<path d="M263.496 207.149H254.105V216.54H263.496V207.149Z" fill="#111113"/>
<path d="M272.885 207.149H263.494V216.54H272.885V207.149Z" fill="#111113"/>
<path d="M103.852 216.54H94.4609V225.93H103.852V216.54Z" fill="#111113"/>
<path d="M113.242 216.54H103.852V225.93H113.242V216.54Z" fill="#111113"/>
<path d="M122.633 216.54H113.242V225.93H122.633V216.54Z" fill="#111113"/>
<path d="M160.195 216.54H150.805V225.93H160.195V216.54Z" fill="#111113"/>
<path d="M216.539 216.54H207.148V225.93H216.539V216.54Z" fill="#111113"/>
<path d="M254.102 216.54H244.711V225.93H254.102V216.54Z" fill="#111113"/>
<path d="M263.496 216.54H254.105V225.93H263.496V216.54Z" fill="#111113"/>
<path d="M272.885 216.54H263.494V225.93H272.885V216.54Z" fill="#111113"/>
<path d="M282.277 216.54H272.887V225.93H282.277V216.54Z" fill="#111113"/>
<path d="M291.666 216.54H282.275V225.93H291.666V216.54Z" fill="#111113"/>
<path d="M28.7247 225.93H19.334V235.321H28.7247V225.93Z" fill="#111113"/>
<path d="M38.1154 225.93H28.7246V235.321H38.1154V225.93Z" fill="#111113"/>
<path d="M47.504 225.93H38.1133V235.321H47.504V225.93Z" fill="#111113"/>
<path d="M56.8966 225.93H47.5059V235.321H56.8966V225.93Z" fill="#111113"/>
<path d="M66.2853 225.93H56.8945V235.321H66.2853V225.93Z" fill="#111113"/>
<path d="M75.6798 225.93H66.2891V235.321H75.6798V225.93Z" fill="#111113"/>
<path d="M85.0704 225.93H75.6797V235.321H85.0704V225.93Z" fill="#111113"/>
<path d="M122.633 225.93H113.242V235.321H122.633V225.93Z" fill="#111113"/>
<path d="M150.805 225.93H141.414V235.321H150.805V225.93Z" fill="#111113"/>
<path d="M160.195 225.93H150.805V235.321H160.195V225.93Z" fill="#111113"/>
<path d="M188.365 225.93H178.975V235.321H188.365V225.93Z" fill="#111113"/>
<path d="M207.149 225.93H197.758V235.321H207.149V225.93Z" fill="#111113"/>
<path d="M216.539 225.93H207.148V235.321H216.539V225.93Z" fill="#111113"/>
<path d="M235.32 225.93H225.93V235.321H235.32V225.93Z" fill="#111113"/>
<path d="M254.102 225.93H244.711V235.321H254.102V225.93Z" fill="#111113"/>
<path d="M263.496 225.93H254.105V235.321H263.496V225.93Z" fill="#111113"/>
<path d="M282.277 225.93H272.887V235.321H282.277V225.93Z" fill="#111113"/>
<path d="M28.7247 235.321H19.334V244.712H28.7247V235.321Z" fill="#111113"/>
<path d="M85.0704 235.321H75.6797V244.712H85.0704V235.321Z" fill="#111113"/>
<path d="M113.242 235.321H103.852V244.712H113.242V235.321Z" fill="#111113"/>
<path d="M132.022 235.321H122.631V244.712H132.022V235.321Z" fill="#111113"/>
<path d="M141.416 235.321H132.025V244.712H141.416V235.321Z" fill="#111113"/>
<path d="M150.805 235.321H141.414V244.712H150.805V235.321Z" fill="#111113"/>
<path d="M197.76 235.321H188.369V244.712H197.76V235.321Z" fill="#111113"/>
<path d="M216.539 235.321H207.148V244.712H216.539V235.321Z" fill="#111113"/>
<path d="M254.102 235.321H244.711V244.712H254.102V235.321Z" fill="#111113"/>
<path d="M263.496 235.321H254.105V244.712H263.496V235.321Z" fill="#111113"/>
<path d="M291.666 235.321H282.275V244.712H291.666V235.321Z" fill="#111113"/>
<path d="M28.7247 244.711H19.334V254.102H28.7247V244.711Z" fill="#111113"/>
<path d="M47.504 244.711H38.1133V254.102H47.504V244.711Z" fill="#111113"/>
<path d="M56.8966 244.711H47.5059V254.102H56.8966V244.711Z" fill="#111113"/>
<path d="M66.2853 244.711H56.8945V254.102H66.2853V244.711Z" fill="#111113"/>
<path d="M85.0704 244.711H75.6797V254.102H85.0704V244.711Z" fill="#111113"/>
<path d="M132.022 244.711H122.631V254.102H132.022V244.711Z" fill="#111113"/>
<path d="M141.416 244.711H132.025V254.102H141.416V244.711Z" fill="#111113"/>
<path d="M150.805 244.711H141.414V254.102H150.805V244.711Z" fill="#111113"/>
<path d="M160.195 244.711H150.805V254.102H160.195V244.711Z" fill="#111113"/>
<path d="M169.586 244.711H160.195V254.102H169.586V244.711Z" fill="#111113"/>
<path d="M178.977 244.711H169.586V254.102H178.977V244.711Z" fill="#111113"/>
<path d="M188.365 244.711H178.975V254.102H188.365V244.711Z" fill="#111113"/>
<path d="M197.76 244.711H188.369V254.102H197.76V244.711Z" fill="#111113"/>
<path d="M216.539 244.711H207.148V254.102H216.539V244.711Z" fill="#111113"/>
<path d="M225.93 244.711H216.539V254.102H225.93V244.711Z" fill="#111113"/>
<path d="M235.32 244.711H225.93V254.102H235.32V244.711Z" fill="#111113"/>
<path d="M244.711 244.711H235.32V254.102H244.711V244.711Z" fill="#111113"/>
<path d="M254.102 244.711H244.711V254.102H254.102V244.711Z" fill="#111113"/>
<path d="M272.885 244.711H263.494V254.102H272.885V244.711Z" fill="#111113"/>
<path d="M291.666 244.711H282.275V254.102H291.666V244.711Z" fill="#111113"/>
<path d="M28.7247 254.104H19.334V263.494H28.7247V254.104Z" fill="#111113"/>
<path d="M47.504 254.104H38.1133V263.494H47.504V254.104Z" fill="#111113"/>
<path d="M56.8966 254.104H47.5059V263.494H56.8966V254.104Z" fill="#111113"/>
<path d="M66.2853 254.104H56.8945V263.494H66.2853V254.104Z" fill="#111113"/>
<path d="M85.0704 254.104H75.6797V263.494H85.0704V254.104Z" fill="#111113"/>
<path d="M103.852 254.103H94.4609V263.494H103.852V254.103Z" fill="#111113"/>
<path d="M113.242 254.103H103.852V263.494H113.242V254.103Z" fill="#111113"/>
<path d="M132.022 254.103H122.631V263.494H132.022V254.103Z" fill="#111113"/>
<path d="M169.586 254.103H160.195V263.494H169.586V254.103Z" fill="#111113"/>
<path d="M188.365 254.103H178.975V263.494H188.365V254.103Z" fill="#111113"/>
<path d="M197.76 254.103H188.369V263.494H197.76V254.103Z" fill="#111113"/>
<path d="M207.149 254.103H197.758V263.494H207.149V254.103Z" fill="#111113"/>
<path d="M216.539 254.103H207.148V263.494H216.539V254.103Z" fill="#111113"/>
<path d="M244.711 254.103H235.32V263.494H244.711V254.103Z" fill="#111113"/>
<path d="M254.102 254.103H244.711V263.494H254.102V254.103Z" fill="#111113"/>
<path d="M263.496 254.103H254.105V263.494H263.496V254.103Z" fill="#111113"/>
<path d="M291.666 254.103H282.275V263.494H291.666V254.103Z" fill="#111113"/>
<path d="M28.7247 263.493H19.334V272.884H28.7247V263.493Z" fill="#111113"/>
<path d="M47.504 263.493H38.1133V272.884H47.504V263.493Z" fill="#111113"/>
<path d="M56.8966 263.493H47.5059V272.884H56.8966V263.493Z" fill="#111113"/>
<path d="M66.2853 263.493H56.8945V272.884H66.2853V263.493Z" fill="#111113"/>
<path d="M85.0704 263.493H75.6797V272.884H85.0704V263.493Z" fill="#111113"/>
<path d="M103.852 263.493H94.4609V272.884H103.852V263.493Z" fill="#111113"/>
<path d="M122.633 263.493H113.242V272.884H122.633V263.493Z" fill="#111113"/>
<path d="M141.416 263.493H132.025V272.884H141.416V263.493Z" fill="#111113"/>
<path d="M150.805 263.493H141.414V272.884H150.805V263.493Z" fill="#111113"/>
<path d="M160.195 263.493H150.805V272.884H160.195V263.493Z" fill="#111113"/>
<path d="M188.365 263.493H178.975V272.884H188.365V263.493Z" fill="#111113"/>
<path d="M216.539 263.493H207.148V272.884H216.539V263.493Z" fill="#111113"/>
<path d="M272.885 263.493H263.494V272.884H272.885V263.493Z" fill="#111113"/>
<path d="M291.666 263.493H282.275V272.884H291.666V263.493Z" fill="#111113"/>
<path d="M28.7247 272.884H19.334V282.275H28.7247V272.884Z" fill="#111113"/>
<path d="M85.0704 272.884H75.6797V282.275H85.0704V272.884Z" fill="#111113"/>
<path d="M103.852 272.884H94.4609V282.275H103.852V272.884Z" fill="#111113"/>
<path d="M113.242 272.884H103.852V282.275H113.242V272.884Z" fill="#111113"/>
<path d="M122.633 272.884H113.242V282.275H122.633V272.884Z" fill="#111113"/>
<path d="M160.195 272.884H150.805V282.275H160.195V272.884Z" fill="#111113"/>
<path d="M169.586 272.884H160.195V282.275H169.586V272.884Z" fill="#111113"/>
<path d="M197.76 272.884H188.369V282.275H197.76V272.884Z" fill="#111113"/>
<path d="M216.539 272.884H207.148V282.275H216.539V272.884Z" fill="#111113"/>
<path d="M235.32 272.884H225.93V282.275H235.32V272.884Z" fill="#111113"/>
<path d="M244.711 272.884H235.32V282.275H244.711V272.884Z" fill="#111113"/>
<path d="M263.496 272.884H254.105V282.275H263.496V272.884Z" fill="#111113"/>
<path d="M282.277 272.884H272.887V282.275H282.277V272.884Z" fill="#111113"/>
<path d="M28.7247 282.274H19.334V291.665H28.7247V282.274Z" fill="#111113"/>
<path d="M38.1154 282.274H28.7246V291.665H38.1154V282.274Z" fill="#111113"/>
<path d="M47.504 282.274H38.1133V291.665H47.504V282.274Z" fill="#111113"/>
<path d="M56.8966 282.274H47.5059V291.665H56.8966V282.274Z" fill="#111113"/>
<path d="M66.2853 282.274H56.8945V291.665H66.2853V282.274Z" fill="#111113"/>
<path d="M75.6798 282.274H66.2891V291.665H75.6798V282.274Z" fill="#111113"/>
<path d="M85.0704 282.274H75.6797V291.665H85.0704V282.274Z" fill="#111113"/>
<path d="M103.852 282.274H94.4609V291.665H103.852V282.274Z" fill="#111113"/>
<path d="M122.633 282.274H113.242V291.665H122.633V282.274Z" fill="#111113"/>
<path d="M132.022 282.274H122.631V291.665H132.022V282.274Z" fill="#111113"/>
<path d="M150.805 282.274H141.414V291.665H150.805V282.274Z" fill="#111113"/>
<path d="M169.586 282.274H160.195V291.665H169.586V282.274Z" fill="#111113"/>
<path d="M178.977 282.274H169.586V291.665H178.977V282.274Z" fill="#111113"/>
<path d="M197.76 282.274H188.369V291.665H197.76V282.274Z" fill="#111113"/>
<path d="M207.149 282.274H197.758V291.665H207.149V282.274Z" fill="#111113"/>
<path d="M216.539 282.274H207.148V291.665H216.539V282.274Z" fill="#111113"/>
<path d="M235.32 282.274H225.93V291.665H235.32V282.274Z" fill="#111113"/>
<path d="M282.277 282.274H272.887V291.665H282.277V282.274Z" fill="#111113"/>
</svg>
