<svg width="313" height="188" viewBox="0 0 313 188" fill="none" xmlns="http://www.w3.org/2000/svg">
<path opacity="0.75" d="M139.431 182.545L138.579 180.117H135.205L134.353 182.545H133.242L136.369 174.063H137.415L140.542 182.545H139.431ZM136.845 175.432L135.516 179.218H138.267L136.939 175.432H136.845ZM142.147 182.545V177.055H141.095V176.208H142.147V175.503C142.147 174.872 142.302 174.404 142.611 174.098C142.925 173.788 143.384 173.633 143.987 173.633C144.108 173.633 144.226 173.639 144.34 173.651C144.453 173.659 144.563 173.673 144.669 173.692V174.515C144.606 174.503 144.534 174.496 144.451 174.492C144.369 174.488 144.283 174.486 144.193 174.486C143.828 174.486 143.564 174.574 143.399 174.75C143.239 174.923 143.158 175.183 143.158 175.532V176.208H144.61V177.055H143.158V182.545H142.147ZM146.509 174.568H147.52V176.208H148.931V177.055H147.52V180.64C147.52 181.013 147.594 181.283 147.743 181.452C147.892 181.62 148.131 181.704 148.46 181.704C148.551 181.704 148.627 181.702 148.69 181.698C148.756 181.695 148.837 181.689 148.931 181.681V182.533C148.829 182.549 148.729 182.563 148.631 182.574C148.533 182.586 148.435 182.592 148.337 182.592C147.902 182.592 147.549 182.535 147.279 182.421C147.012 182.308 146.816 182.128 146.691 181.881C146.57 181.63 146.509 181.303 146.509 180.899V177.055H145.486V176.208H146.509V174.568ZM152.893 176.99C152.556 176.99 152.256 177.068 151.993 177.225C151.735 177.378 151.527 177.593 151.37 177.872C151.217 178.15 151.127 178.477 151.1 178.853H154.591C154.584 178.477 154.507 178.15 154.362 177.872C154.221 177.593 154.025 177.378 153.774 177.225C153.524 177.068 153.23 176.99 152.893 176.99ZM154.562 180.905H155.573C155.475 181.265 155.303 181.577 155.056 181.84C154.813 182.102 154.509 182.304 154.145 182.445C153.78 182.586 153.367 182.657 152.904 182.657C152.317 182.657 151.809 182.523 151.382 182.257C150.955 181.99 150.626 181.612 150.394 181.122C150.163 180.629 150.048 180.049 150.048 179.382C150.048 178.885 150.114 178.434 150.247 178.03C150.381 177.627 150.573 177.282 150.823 176.996C151.074 176.706 151.374 176.484 151.723 176.332C152.076 176.175 152.469 176.096 152.904 176.096C153.477 176.096 153.966 176.226 154.374 176.484C154.785 176.739 155.101 177.106 155.32 177.584C155.544 178.062 155.655 178.628 155.655 179.282V179.67H151.1V179.717C151.119 180.137 151.206 180.499 151.358 180.805C151.511 181.111 151.721 181.348 151.987 181.516C152.254 181.681 152.567 181.763 152.928 181.763C153.335 181.763 153.676 181.691 153.951 181.546C154.225 181.397 154.429 181.183 154.562 180.905ZM157.243 182.545V176.208H158.207V177.149H158.301C158.363 176.945 158.479 176.765 158.647 176.608C158.82 176.447 159.028 176.322 159.271 176.232C159.517 176.142 159.78 176.096 160.058 176.096C160.141 176.096 160.229 176.1 160.323 176.108C160.417 176.112 160.497 176.118 160.564 176.126V177.137C160.536 177.129 160.483 177.121 160.405 177.113C160.327 177.102 160.242 177.094 160.152 177.09C160.062 177.082 159.984 177.078 159.917 177.078C159.596 177.078 159.31 177.145 159.059 177.278C158.808 177.411 158.61 177.593 158.465 177.825C158.324 178.056 158.254 178.32 158.254 178.618V182.545H157.243ZM165.166 176.455C165.166 176.079 165.235 175.732 165.372 175.415C165.509 175.097 165.701 174.823 165.948 174.592C166.199 174.36 166.493 174.182 166.83 174.057C167.171 173.927 167.545 173.863 167.953 173.863C168.321 173.863 168.664 173.921 168.981 174.039C169.299 174.157 169.577 174.323 169.816 174.539C170.055 174.75 170.239 175.001 170.369 175.291C170.502 175.581 170.569 175.899 170.569 176.243C170.569 176.486 170.537 176.722 170.475 176.949C170.416 177.172 170.312 177.405 170.163 177.648C170.018 177.891 169.818 178.164 169.563 178.465C169.313 178.763 168.997 179.11 168.617 179.506L166.689 181.499V181.593H170.71V182.545H165.219V181.816L168.088 178.712C168.358 178.418 168.584 178.166 168.764 177.954C168.944 177.738 169.087 177.546 169.193 177.378C169.299 177.205 169.373 177.039 169.416 176.878C169.463 176.718 169.487 176.543 169.487 176.355C169.487 176.053 169.422 175.785 169.293 175.55C169.164 175.315 168.979 175.128 168.74 174.991C168.501 174.854 168.215 174.786 167.882 174.786C167.545 174.786 167.249 174.856 166.995 174.997C166.74 175.134 166.542 175.328 166.401 175.579C166.26 175.826 166.189 176.118 166.189 176.455H165.166ZM175.318 182.745C174.918 182.745 174.55 182.686 174.213 182.568C173.876 182.451 173.58 182.284 173.325 182.069C173.075 181.853 172.875 181.597 172.726 181.299C172.577 181.001 172.491 180.67 172.467 180.305H173.508C173.539 180.607 173.635 180.872 173.796 181.099C173.96 181.326 174.174 181.503 174.436 181.628C174.699 181.753 174.997 181.816 175.33 181.816C175.702 181.816 176.026 181.734 176.3 181.569C176.578 181.401 176.794 181.167 176.946 180.87C177.099 180.572 177.176 180.225 177.176 179.829C177.176 179.445 177.099 179.11 176.946 178.824C176.794 178.538 176.582 178.315 176.312 178.154C176.041 177.993 175.728 177.913 175.371 177.913C174.967 177.913 174.613 178.001 174.307 178.177C174.001 178.354 173.764 178.599 173.596 178.912H172.602L173.09 174.063H177.799V175.009H173.919L173.655 177.772H173.749C174.16 177.258 174.789 177.002 175.636 177.002C175.992 177.002 176.327 177.068 176.641 177.202C176.954 177.335 177.231 177.525 177.47 177.772C177.709 178.019 177.895 178.315 178.028 178.659C178.165 179 178.234 179.38 178.234 179.8C178.234 180.235 178.163 180.633 178.022 180.993C177.885 181.354 177.687 181.665 177.429 181.928C177.17 182.19 176.862 182.392 176.506 182.533C176.149 182.674 175.753 182.745 175.318 182.745Z" fill="white"/>
<path d="M8.37372 98.2844V99.2837H3.88664V92.2151H8.37372V93.2144H4.98392V95.213H8.19248V96.1633H4.98392V98.2844H8.37372ZM9.83839 99.2837V93.9492H10.8524V94.7672H10.9308C11.0059 94.5027 11.1773 94.2855 11.4451 94.1157C11.7162 93.9459 12.0248 93.861 12.3709 93.861C12.5702 93.861 12.7269 93.8757 12.8412 93.9051V94.9436C12.7138 94.9011 12.5179 94.8799 12.2534 94.8799C11.8517 94.8799 11.5235 94.9958 11.2688 95.2277C11.0173 95.4595 10.8916 95.7616 10.8916 96.1339V99.2837H9.83839ZM16.8433 95.1199C16.6082 94.8685 16.2963 94.7427 15.9077 94.7427C15.5191 94.7427 15.1991 94.8685 14.9476 95.1199C14.6961 95.3714 14.5557 95.7061 14.5263 96.1241H17.2205C17.2075 95.7028 17.0817 95.3681 16.8433 95.1199ZM17.2156 97.8435H18.2296C18.1088 98.3236 17.8443 98.7008 17.4361 98.9751C17.0311 99.2494 16.5249 99.3866 15.9175 99.3866C15.1533 99.3866 14.5508 99.1416 14.1099 98.6518C13.6723 98.1587 13.4535 97.4859 13.4535 96.6336C13.4535 95.7812 13.6756 95.1036 14.1197 94.6007C14.5639 94.0977 15.1615 93.8463 15.9126 93.8463C16.6539 93.8463 17.2352 94.0847 17.6565 94.5615C18.081 95.0383 18.2933 95.6963 18.2933 96.5356V96.903H14.5263V96.9618C14.5426 97.432 14.6782 97.8043 14.9329 98.0786C15.1876 98.353 15.5256 98.4901 15.9469 98.4901C16.5902 98.4901 17.0132 98.2746 17.2156 97.8435ZM24.0736 95.693H23.0498C22.9845 95.422 22.8424 95.2032 22.6236 95.0366C22.4081 94.8701 22.1305 94.7868 21.7909 94.7868C21.35 94.7868 21.0022 94.9468 20.7475 95.2669C20.496 95.5869 20.3703 96.031 20.3703 96.5993C20.3703 97.174 20.496 97.6263 20.7475 97.9562C21.0022 98.2828 21.35 98.446 21.7909 98.446C22.1273 98.446 22.4032 98.3709 22.6187 98.2207C22.8375 98.0705 22.9812 97.8533 23.0498 97.5692H24.0736C24.005 98.1178 23.7699 98.5587 23.3682 98.8918C22.9665 99.2216 22.4424 99.3866 21.7958 99.3866C21.0185 99.3866 20.4062 99.14 19.9588 98.6469C19.5147 98.1505 19.2926 97.468 19.2926 96.5993C19.2926 95.7437 19.5147 95.0709 19.9588 94.5811C20.403 94.0912 21.0136 93.8463 21.7909 93.8463C22.4408 93.8463 22.9649 94.0161 23.3633 94.3557C23.765 94.6954 24.0018 95.1411 24.0736 95.693ZM25.7293 92.6216H26.7825V93.9737H27.9386V94.8603H26.7825V97.6035C26.7825 97.8811 26.8429 98.0852 26.9638 98.2158C27.0846 98.3432 27.2756 98.4068 27.5369 98.4068C27.6414 98.4068 27.7753 98.3987 27.9386 98.3824V99.2592C27.7296 99.2951 27.5385 99.3131 27.3654 99.3131C26.7809 99.3131 26.3612 99.202 26.1065 98.98C25.8551 98.7579 25.7293 98.3889 25.7293 97.8729V94.8603H24.8819V93.9737H25.7293V92.6216ZM29.1975 99.2837V93.9492H30.2458V99.2837H29.1975ZM30.2066 92.8323C30.0793 92.9531 29.9176 93.0135 29.7217 93.0135C29.5257 93.0135 29.3624 92.9531 29.2318 92.8323C29.1044 92.7082 29.0408 92.5547 29.0408 92.3718C29.0408 92.1889 29.1044 92.0355 29.2318 91.9114C29.3624 91.7873 29.5257 91.7252 29.7217 91.7252C29.9176 91.7252 30.0793 91.7873 30.2066 91.9114C30.3372 92.0355 30.4026 92.1889 30.4026 92.3718C30.4026 92.5547 30.3372 92.7082 30.2066 92.8323ZM34.0471 99.3866C33.2633 99.3866 32.6477 99.14 32.2003 98.6469C31.7529 98.1538 31.5292 97.4761 31.5292 96.614C31.5292 95.7551 31.7529 95.0791 32.2003 94.586C32.651 94.0928 33.2666 93.8463 34.0471 93.8463C34.8243 93.8463 35.4366 94.0928 35.884 94.586C36.3347 95.0791 36.56 95.7551 36.56 96.614C36.56 97.4761 36.3363 98.1538 35.8889 98.6469C35.4415 99.14 34.8276 99.3866 34.0471 99.3866ZM34.0471 98.4509C34.501 98.4509 34.8521 98.2909 35.1003 97.9709C35.3517 97.6476 35.4775 97.1953 35.4775 96.614C35.4775 96.0359 35.3517 95.5869 35.1003 95.2669C34.8521 94.9436 34.501 94.7819 34.0471 94.7819C33.5899 94.7819 33.2372 94.9419 32.989 95.262C32.7408 95.582 32.6167 96.0327 32.6167 96.614C32.6167 97.1985 32.7408 97.6508 32.989 97.9709C33.2372 98.2909 33.5899 98.4509 34.0471 98.4509ZM37.8288 99.2837V93.9492H38.8428V94.7966H38.9212C39.1987 94.1631 39.7294 93.8463 40.5132 93.8463C41.1075 93.8463 41.5631 94.0177 41.8799 94.3606C42.1999 94.7035 42.3599 95.1934 42.3599 95.8302V99.2837H41.3068V96.0947C41.3068 95.2391 40.923 94.8113 40.1556 94.8113C39.767 94.8113 39.4567 94.9338 39.2249 95.1787C38.9963 95.4204 38.882 95.7486 38.882 96.1633V99.2837H37.8288Z" fill="white"/>
<path opacity="0.75" d="M237.512 182.545L236.659 180.117H233.285L232.433 182.545H231.322L234.449 174.063H235.495L238.623 182.545H237.512ZM234.925 175.432L233.597 179.218H236.348L235.019 175.432H234.925ZM240.227 182.545V177.055H239.175V176.208H240.227V175.503C240.227 174.872 240.382 174.404 240.692 174.098C241.005 173.788 241.464 173.633 242.067 173.633C242.189 173.633 242.306 173.639 242.42 173.651C242.534 173.659 242.643 173.673 242.749 173.692V174.515C242.686 174.503 242.614 174.496 242.532 174.492C242.449 174.488 242.363 174.486 242.273 174.486C241.909 174.486 241.644 174.574 241.479 174.75C241.319 174.923 241.238 175.183 241.238 175.532V176.208H242.69V177.055H241.238V182.545H240.227ZM244.589 174.568H245.6V176.208H247.011V177.055H245.6V180.64C245.6 181.013 245.675 181.283 245.824 181.452C245.972 181.62 246.211 181.704 246.541 181.704C246.631 181.704 246.707 181.702 246.77 181.698C246.837 181.695 246.917 181.689 247.011 181.681V182.533C246.909 182.549 246.809 182.563 246.711 182.574C246.613 182.586 246.515 182.592 246.417 182.592C245.982 182.592 245.63 182.535 245.359 182.421C245.093 182.308 244.897 182.128 244.771 181.881C244.65 181.63 244.589 181.303 244.589 180.899V177.055H243.566V176.208H244.589V174.568ZM250.973 176.99C250.636 176.99 250.336 177.068 250.074 177.225C249.815 177.378 249.607 177.593 249.45 177.872C249.298 178.15 249.207 178.477 249.18 178.853H252.672C252.664 178.477 252.587 178.15 252.442 177.872C252.301 177.593 252.105 177.378 251.855 177.225C251.604 177.068 251.31 176.99 250.973 176.99ZM252.642 180.905H253.653C253.555 181.265 253.383 181.577 253.136 181.84C252.893 182.102 252.589 182.304 252.225 182.445C251.861 182.586 251.447 182.657 250.985 182.657C250.397 182.657 249.889 182.523 249.462 182.257C249.035 181.99 248.706 181.612 248.475 181.122C248.243 180.629 248.128 180.049 248.128 179.382C248.128 178.885 248.194 178.434 248.328 178.03C248.461 177.627 248.653 177.282 248.904 176.996C249.155 176.706 249.454 176.484 249.803 176.332C250.156 176.175 250.55 176.096 250.985 176.096C251.557 176.096 252.047 176.226 252.454 176.484C252.866 176.739 253.181 177.106 253.401 177.584C253.624 178.062 253.736 178.628 253.736 179.282V179.67H249.18V179.717C249.2 180.137 249.286 180.499 249.439 180.805C249.591 181.111 249.801 181.348 250.068 181.516C250.334 181.681 250.648 181.763 251.008 181.763C251.416 181.763 251.757 181.691 252.031 181.546C252.305 181.397 252.509 181.183 252.642 180.905ZM255.323 182.545V176.208H256.287V177.149H256.381C256.444 176.945 256.559 176.765 256.728 176.608C256.9 176.447 257.108 176.322 257.351 176.232C257.598 176.142 257.86 176.096 258.139 176.096C258.221 176.096 258.309 176.1 258.403 176.108C258.497 176.112 258.577 176.118 258.644 176.126V177.137C258.617 177.129 258.564 177.121 258.485 177.113C258.407 177.102 258.323 177.094 258.233 177.09C258.142 177.082 258.064 177.078 257.997 177.078C257.676 177.078 257.39 177.145 257.139 177.278C256.888 177.411 256.69 177.593 256.545 177.825C256.404 178.056 256.334 178.32 256.334 178.618V182.545H255.323ZM267.173 182.545V180.787H263.041V179.823C263.421 179.185 263.815 178.534 264.223 177.872C264.634 177.209 265.045 176.557 265.457 175.914C265.872 175.272 266.278 174.654 266.674 174.063H268.208V179.841H269.413V180.787H268.208V182.545H267.173ZM264.123 179.776V179.847H267.179V175.044H267.109C266.791 175.518 266.46 176.022 266.115 176.555C265.774 177.088 265.433 177.629 265.093 178.177C264.755 178.722 264.432 179.255 264.123 179.776ZM273.869 182.745C273.469 182.745 273.101 182.686 272.764 182.568C272.427 182.451 272.131 182.284 271.876 182.069C271.625 181.853 271.425 181.597 271.276 181.299C271.128 181.001 271.041 180.67 271.018 180.305H272.058C272.09 180.607 272.186 180.872 272.346 181.099C272.511 181.326 272.724 181.503 272.987 181.628C273.25 181.753 273.547 181.816 273.881 181.816C274.253 181.816 274.576 181.734 274.85 181.569C275.129 181.401 275.344 181.167 275.497 180.87C275.65 180.572 275.726 180.225 275.726 179.829C275.726 179.445 275.65 179.11 275.497 178.824C275.344 178.538 275.133 178.315 274.862 178.154C274.592 177.993 274.278 177.913 273.922 177.913C273.518 177.913 273.163 178.001 272.858 178.177C272.552 178.354 272.315 178.599 272.146 178.912H271.153L271.641 174.063H276.349V175.009H272.47L272.205 177.772H272.299C272.711 177.258 273.34 177.002 274.186 177.002C274.543 177.002 274.878 177.068 275.191 177.202C275.505 177.335 275.781 177.525 276.02 177.772C276.259 178.019 276.445 178.315 276.579 178.659C276.716 179 276.784 179.38 276.784 179.8C276.784 180.235 276.714 180.633 276.573 180.993C276.436 181.354 276.238 181.665 275.979 181.928C275.72 182.19 275.413 182.392 275.056 182.533C274.7 182.674 274.304 182.745 273.869 182.745Z" fill="white"/>
<g opacity="0.1">
<rect x="311" y="164.529" width="1.00324" height="311" rx="0.50162" transform="rotate(90 311 164.529)" fill="url(#paint0_linear_86_4504)"/>
<rect x="311" y="123.397" width="1.00324" height="311" rx="0.50162" transform="rotate(90 311 123.397)" fill="url(#paint1_linear_86_4504)"/>
<rect x="311" y="82.2646" width="1.00324" height="311" rx="0.50162" transform="rotate(90 311 82.2646)" fill="url(#paint2_linear_86_4504)"/>
<rect x="311" y="41.1323" width="1.00324" height="311" rx="0.50162" transform="rotate(90 311 41.1323)" fill="url(#paint3_linear_86_4504)"/>
<rect x="311" width="1.00324" height="311" rx="0.50162" transform="rotate(90 311 0)" fill="url(#paint4_linear_86_4504)"/>
<path d="M58.6881 164.529L58.6881 115.371L57.6849 115.371L57.6849 164.529L58.6881 164.529Z" fill="white"/>
<path d="M157.005 165.532L157.005 55.1772L156.001 55.1772L156.001 165.532L157.005 165.532Z" fill="white"/>
<path d="M255.321 165.532L255.321 23.0742L254.318 23.0742L254.318 165.532L255.321 165.532Z" fill="white"/>
</g>
<path d="M311 151.988C258.331 130.921 143.475 115.37 48.1548 115.37H0" stroke="url(#paint5_linear_86_4504)" stroke-width="7.02258"/>
<mask id="mask0_86_4504" style="mask-type:alpha" maskUnits="userSpaceOnUse" x="0" y="6" width="311" height="155">
<path d="M311 6.01904H0V160.014H311V6.01904Z" fill="url(#paint6_linear_86_4504)"/>
</mask>
<g mask="url(#mask0_86_4504)">
<g filter="url(#filter0_dd_86_4504)">
<path d="M311 15.3013C270.5 15.3013 209 15.3013 156 59.8013C103 104.301 80.8073 115.112 47.6532 115.112H0" stroke="#E44240" stroke-width="7.02258"/>
</g>
</g>
<circle cx="58.1878" cy="115.371" r="11.0355" fill="#E44240" fill-opacity="0.5"/>
<circle cx="58.188" cy="115.371" r="5.01613" fill="white"/>
<circle cx="156.503" cy="59.3271" r="8.02581" fill="#E44240"/>
<circle cx="156.503" cy="59.327" r="5.01613" fill="white"/>
<circle cx="156.503" cy="121.39" r="8.02581" fill="#6E6E70"/>
<circle cx="156.503" cy="121.39" r="5.01613" fill="white"/>
<circle cx="254.819" cy="18.3561" r="17.0548" fill="#E44240" fill-opacity="0.5"/>
<circle cx="254.819" cy="18.3563" r="11.0355" fill="#E44240" fill-opacity="0.5"/>
<circle cx="254.818" cy="18.356" r="5.01613" fill="white"/>
<circle cx="254.82" cy="136.439" r="11.0355" fill="#68686A"/>
<circle cx="254.82" cy="136.439" r="5.01613" fill="white"/>
<g filter="url(#filter1_d_86_4504)">
<g filter="url(#filter2_b_86_4504)">
<path d="M41.1318 34.6995C41.1318 31.6033 43.6418 29.0933 46.7381 29.0933H111.771C114.867 29.0933 117.377 31.6033 117.377 34.6995V41.6336L128.412 52.6691L117.377 50.6626V55.8083C117.377 58.9046 114.867 61.4146 111.771 61.4146H65.9944H61.698H57.7069H46.7381C43.6418 61.4146 41.1318 58.9046 41.1318 55.8083V34.6995Z" fill="#E44240"/>
</g>
<path d="M65.669 36.5721L64.0569 42.103H63.2314L61.323 35.0959H62.2359L63.6295 40.7919H63.6878L65.2563 35.0959H66.1401L67.7086 40.7919H67.7668L69.1605 35.0959H70.0734L68.165 42.103H67.3395L65.7273 36.5721H65.669ZM71.3165 42.103V36.8683H72.1518V42.103H71.3165ZM71.7342 35.8583C71.6273 35.8583 71.5286 35.8324 71.4379 35.7806C71.3505 35.7288 71.2809 35.6592 71.2291 35.5718C71.1773 35.4811 71.1514 35.3824 71.1514 35.2755C71.1514 35.1687 71.1773 35.0716 71.2291 34.9842C71.2809 34.8935 71.3505 34.8223 71.4379 34.7705C71.5286 34.7187 71.6273 34.6928 71.7342 34.6928C71.841 34.6928 71.9381 34.7187 72.0255 34.7705C72.1162 34.8223 72.1874 34.8935 72.2392 34.9842C72.291 35.0716 72.3169 35.1687 72.3169 35.2755C72.3169 35.3824 72.291 35.4811 72.2392 35.5718C72.1874 35.6592 72.1162 35.7288 72.0255 35.7806C71.9381 35.8324 71.841 35.8583 71.7342 35.8583ZM74.0941 35.5135H74.9294V36.8683H76.0948V37.5676H74.9294V40.5297C74.9294 40.8372 74.9909 41.0606 75.1139 41.1998C75.2369 41.339 75.4344 41.4086 75.7063 41.4086C75.7808 41.4086 75.8439 41.407 75.8957 41.4038C75.9507 41.4005 76.0171 41.3957 76.0948 41.3892V42.0933C76.0106 42.1063 75.9281 42.1176 75.8472 42.1273C75.7662 42.137 75.6853 42.1419 75.6044 42.1419C75.245 42.1419 74.9537 42.0949 74.7303 42.0011C74.5101 41.9072 74.3483 41.7583 74.2447 41.5543C74.1443 41.3471 74.0941 41.0768 74.0941 40.7434V37.5676H73.2492V36.8683H74.0941V35.5135ZM77.4059 42.103V34.7899H78.2411V37.6938H78.3188C78.4483 37.4057 78.649 37.1807 78.921 37.0188C79.1929 36.857 79.5296 36.776 79.931 36.776C80.3001 36.776 80.6189 36.8521 80.8876 37.0043C81.1596 37.1564 81.3684 37.3782 81.5141 37.6695C81.663 37.9577 81.7374 38.3057 81.7374 38.7136V42.103H80.9022V38.9175C80.9022 38.4546 80.7986 38.1082 80.5914 37.8783C80.3875 37.6453 80.088 37.5287 79.6931 37.5287C79.3791 37.5287 79.1136 37.5902 78.8967 37.7132C78.683 37.8363 78.5196 38.0094 78.4062 38.2328C78.2962 38.453 78.2411 38.7103 78.2411 39.0049V42.103H77.4059ZM86.1758 35.0959H88.5795C89.2723 35.0959 89.8647 35.2351 90.3568 35.5135C90.8521 35.7887 91.2309 36.1885 91.4931 36.7129C91.7553 37.2341 91.8864 37.8622 91.8864 38.597C91.8864 39.3319 91.7553 39.9615 91.4931 40.486C91.2309 41.0104 90.8537 41.4119 90.3616 41.6903C89.8696 41.9654 89.2755 42.103 88.5795 42.103H86.1758V35.0959ZM87.0499 35.8825V41.3164H88.5212C89.0424 41.3164 89.4876 41.2095 89.8566 40.9959C90.2257 40.7822 90.5073 40.473 90.7016 40.0684C90.8958 39.6637 90.9929 39.1765 90.9929 38.6067C90.9929 38.037 90.8942 37.5481 90.6967 37.1402C90.5025 36.7323 90.2208 36.4215 89.8518 36.2079C89.4827 35.991 89.0392 35.8825 88.5212 35.8825H87.0499ZM93.2946 42.103V36.8683H94.091V37.6453H94.1687C94.2205 37.4769 94.316 37.328 94.4552 37.1985C94.5977 37.0658 94.7692 36.9622 94.9699 36.8877C95.1739 36.8133 95.3908 36.776 95.6206 36.776C95.6886 36.776 95.7615 36.7793 95.8392 36.7857C95.9169 36.789 95.9832 36.7938 96.0383 36.8003V37.6355C96.0156 37.6291 95.9719 37.6226 95.9071 37.6161C95.8424 37.6064 95.7728 37.5999 95.6983 37.5967C95.6239 37.5902 95.5591 37.587 95.5041 37.587C95.2386 37.587 95.0023 37.642 94.7951 37.7521C94.5879 37.8622 94.4245 38.0127 94.3047 38.2037C94.1881 38.3947 94.1299 38.6132 94.1299 38.8592V42.103H93.2946ZM97.1406 42.1516C97.024 42.1516 96.9172 42.1241 96.8201 42.069C96.7262 42.0108 96.6501 41.9347 96.5918 41.8408C96.5368 41.7437 96.5093 41.6369 96.5093 41.5203C96.5093 41.4038 96.5368 41.2986 96.5918 41.2047C96.6501 41.1076 96.7262 41.0315 96.8201 40.9764C96.9172 40.9182 97.024 40.889 97.1406 40.889C97.2571 40.889 97.3623 40.9182 97.4562 40.9764C97.5533 41.0315 97.6294 41.1076 97.6844 41.2047C97.7427 41.2986 97.7718 41.4038 97.7718 41.5203C97.7718 41.6369 97.7427 41.7437 97.6844 41.8408C97.6294 41.9347 97.5533 42.0108 97.4562 42.069C97.3623 42.1241 97.2571 42.1516 97.1406 42.1516ZM57.1371 54.103H56.263V47.0959H57.1371V50.4999H57.2148L60.2838 47.0959H61.3812L58.5793 50.1211L61.6386 54.103H60.5072L57.9772 50.7281L57.1371 51.6556V54.103ZM64.4114 49.5141C64.1329 49.5141 63.8853 49.5789 63.6684 49.7084C63.4547 49.8346 63.2832 50.0127 63.1537 50.2425C63.0274 50.4724 62.9529 50.7427 62.9303 51.0535H65.8147C65.8083 50.7427 65.7451 50.4724 65.6253 50.2425C65.5088 50.0127 65.3469 49.8346 65.1397 49.7084C64.9326 49.5789 64.6898 49.5141 64.4114 49.5141ZM65.7904 52.7482H66.6257C66.5447 53.046 66.4023 53.3034 66.1983 53.5203C65.9976 53.7372 65.7467 53.9039 65.4457 54.0205C65.1446 54.137 64.8031 54.1953 64.4211 54.1953C63.9355 54.1953 63.5162 54.0852 63.1634 53.8651C62.8105 53.6449 62.5386 53.3325 62.3476 52.9279C62.1566 52.52 62.0611 52.0409 62.0611 51.4905C62.0611 51.0794 62.1161 50.7071 62.2262 50.3736C62.3362 50.0402 62.4949 49.7553 62.7021 49.519C62.9092 49.2794 63.1569 49.0965 63.445 48.9703C63.7364 48.8408 64.0617 48.776 64.4211 48.776C64.8937 48.776 65.2984 48.8829 65.6351 49.0965C65.975 49.307 66.2356 49.6096 66.4169 50.0046C66.6014 50.3995 66.6937 50.8673 66.6937 51.408V51.7285H62.9303V51.7673C62.9465 52.1137 63.0177 52.4132 63.1439 52.6657C63.2702 52.9182 63.4434 53.114 63.6635 53.2532C63.8837 53.3892 64.1427 53.4572 64.4405 53.4572C64.7772 53.4572 65.0588 53.3973 65.2854 53.2775C65.512 53.1545 65.6804 52.9781 65.7904 52.7482ZM70.122 53.2872C70.4457 53.2872 70.7225 53.2095 70.9523 53.0541C71.1854 52.8987 71.3635 52.6802 71.4865 52.3986C71.6128 52.1169 71.6759 51.7867 71.6759 51.408C71.6759 51.0292 71.6128 50.699 71.4865 50.4173C71.3635 50.1357 71.1854 49.9172 70.9523 49.7618C70.7225 49.6064 70.4457 49.5287 70.122 49.5287C69.7982 49.5287 69.5231 49.6064 69.2965 49.7618C69.0731 49.9172 68.9015 50.1357 68.7817 50.4173C68.6652 50.699 68.6069 51.0292 68.6069 51.408C68.6069 51.7867 68.6652 52.1169 68.7817 52.3986C68.9015 52.6802 69.0731 52.8987 69.2965 53.0541C69.5231 53.2095 69.7982 53.2872 70.122 53.2872ZM70.1608 56.1134C69.74 56.1134 69.3725 56.0535 69.0585 55.9337C68.7445 55.8172 68.4936 55.6505 68.3058 55.4336C68.1213 55.2199 68.008 54.969 67.9659 54.6809H68.8497C68.895 54.8945 69.031 55.0645 69.2576 55.1908C69.4842 55.3203 69.7853 55.385 70.1608 55.385C70.6302 55.385 70.996 55.2749 71.2583 55.0548C71.5237 54.8379 71.6565 54.5368 71.6565 54.1516V53.1221H71.5788C71.4137 53.4102 71.1887 53.6336 70.9038 53.7922C70.6189 53.9476 70.2968 54.0253 69.9374 54.0253C69.4842 54.0253 69.0941 53.9169 68.7672 53.7C68.4402 53.4798 68.1877 53.1739 68.0096 52.7822C67.8316 52.3873 67.7425 51.9292 67.7425 51.408C67.7425 51.0163 67.7927 50.6601 67.8931 50.3397C67.9967 50.0159 68.144 49.7375 68.335 49.5044C68.526 49.2713 68.7558 49.0917 69.0245 48.9654C69.2965 48.8392 69.6008 48.776 69.9374 48.776C70.1835 48.776 70.4149 48.8149 70.6318 48.8926C70.8487 48.967 71.0414 49.0739 71.2097 49.2131C71.3813 49.349 71.5173 49.5109 71.6176 49.6987H71.6953V48.8683H72.4917V54.1953C72.4917 54.587 72.3962 54.9253 72.2052 55.2102C72.0142 55.4983 71.7439 55.7201 71.3942 55.8755C71.0478 56.0341 70.6367 56.1134 70.1608 56.1134ZM76.1531 49.5141C75.8747 49.5141 75.627 49.5789 75.4101 49.7084C75.1965 49.8346 75.0249 50.0127 74.8954 50.2425C74.7691 50.4724 74.6947 50.7427 74.672 51.0535H77.5565C77.55 50.7427 77.4869 50.4724 77.3671 50.2425C77.2505 50.0127 77.0887 49.8346 76.8815 49.7084C76.6743 49.5789 76.4315 49.5141 76.1531 49.5141ZM77.5322 52.7482H78.3674C78.2865 53.046 78.144 53.3034 77.9401 53.5203C77.7394 53.7372 77.4885 53.9039 77.1874 54.0205C76.8863 54.137 76.5448 54.1953 76.1628 54.1953C75.6772 54.1953 75.258 54.0852 74.9051 53.8651C74.5522 53.6449 74.2803 53.3325 74.0893 52.9279C73.8983 52.52 73.8028 52.0409 73.8028 51.4905C73.8028 51.0794 73.8578 50.7071 73.9679 50.3736C74.078 50.0402 74.2366 49.7553 74.4438 49.519C74.651 49.2794 74.8986 49.0965 75.1867 48.9703C75.4781 48.8408 75.8035 48.776 76.1628 48.776C76.6354 48.776 77.0401 48.8829 77.3768 49.0965C77.7167 49.307 77.9773 49.6096 78.1586 50.0046C78.3431 50.3995 78.4354 50.8673 78.4354 51.408V51.7285H74.672V51.7673C74.6882 52.1137 74.7594 52.4132 74.8857 52.6657C75.0119 52.9182 75.1851 53.114 75.4053 53.2532C75.6254 53.3892 75.8844 53.4572 76.1822 53.4572C76.5189 53.4572 76.8005 53.3973 77.0272 53.2775C77.2538 53.1545 77.4221 52.9781 77.5322 52.7482ZM79.7951 54.103V46.7899H80.6303V54.103H79.7951ZM87.6083 48.776C88.0518 48.776 88.4387 48.8877 88.7689 49.1111C89.0991 49.3345 89.3548 49.6501 89.5361 50.058C89.7174 50.4627 89.8081 50.9386 89.8081 51.4857C89.8081 51.8936 89.7563 52.2642 89.6527 52.5977C89.5491 52.9311 89.4002 53.2176 89.2059 53.4572C89.0149 53.6935 88.7834 53.8764 88.5115 54.0059C88.2428 54.1322 87.9417 54.1953 87.6083 54.1953C87.236 54.1953 86.9058 54.1192 86.6177 53.9671C86.3296 53.8117 86.1143 53.5948 85.9718 53.3164H85.8941V55.8512H85.0589V48.8683H85.8553V49.7424H85.933C86.1013 49.4413 86.3328 49.205 86.6274 49.0334C86.9252 48.8618 87.2522 48.776 87.6083 48.776ZM87.4092 53.4426C87.7297 53.4426 88.0033 53.3649 88.2299 53.2095C88.4597 53.0541 88.6362 52.8308 88.7592 52.5394C88.8822 52.2448 88.9437 51.8936 88.9437 51.4857C88.9437 51.0778 88.8822 50.7281 88.7592 50.4368C88.6394 50.1422 88.4646 49.9172 88.2347 49.7618C88.0081 49.6064 87.7346 49.5287 87.4141 49.5287C87.1 49.5287 86.8265 49.608 86.5934 49.7666C86.3636 49.9253 86.1855 50.1519 86.0593 50.4465C85.933 50.7378 85.8699 51.0842 85.8699 51.4857C85.8699 51.8839 85.933 52.2302 86.0593 52.5248C86.1855 52.8162 86.3636 53.0428 86.5934 53.2047C86.8233 53.3633 87.0952 53.4426 87.4092 53.4426ZM91.1677 54.103V46.7899H92.003V54.103H91.1677ZM95.237 53.462C95.5219 53.462 95.7777 53.4054 96.0043 53.2921C96.2309 53.1755 96.4089 53.0185 96.5384 52.8211C96.6679 52.6236 96.7327 52.4002 96.7327 52.1509V51.6702L95.3244 51.7625C94.9262 51.7884 94.6349 51.8725 94.4504 52.015C94.2691 52.1542 94.1784 52.3549 94.1784 52.6171C94.1784 52.7952 94.2237 52.9473 94.3144 53.0736C94.4083 53.1998 94.5345 53.2969 94.6932 53.3649C94.855 53.4297 95.0363 53.462 95.237 53.462ZM95.0816 54.1953C94.745 54.1953 94.4423 54.1322 94.1736 54.0059C93.9081 53.8797 93.6977 53.7 93.5423 53.4669C93.3901 53.2306 93.3141 52.9538 93.3141 52.6365C93.3141 52.1671 93.4792 51.8013 93.8094 51.5391C94.1428 51.2736 94.6138 51.1231 95.2225 51.0875L96.7327 50.9952V50.5193C96.7327 50.1956 96.6323 49.9479 96.4316 49.7764C96.2341 49.6048 95.9395 49.519 95.5478 49.519C95.2338 49.519 94.9732 49.5756 94.766 49.689C94.5588 49.8023 94.4261 49.9625 94.3678 50.1697H93.5229C93.5585 49.8913 93.6686 49.6469 93.8531 49.4364C94.0376 49.226 94.2772 49.0642 94.5718 48.9508C94.8696 48.8343 95.2047 48.776 95.5769 48.776C96.0043 48.776 96.3652 48.8456 96.6598 48.9848C96.9577 49.124 97.1827 49.3248 97.3348 49.587C97.4902 49.846 97.5679 50.1567 97.5679 50.5193V54.103H96.7715V53.3309H96.6938C96.5255 53.6093 96.3021 53.823 96.0237 53.9719C95.7453 54.1208 95.4313 54.1953 95.0816 54.1953ZM99.1121 54.103V48.8683H99.9085V49.6938H99.9862C100.116 49.4057 100.31 49.1807 100.569 49.0188C100.828 48.857 101.158 48.776 101.559 48.776C102.149 48.776 102.6 48.9444 102.914 49.2811C103.232 49.6145 103.39 50.092 103.39 50.7136V54.103H102.555V50.9175C102.555 50.4449 102.453 50.0952 102.249 49.8686C102.048 49.642 101.739 49.5287 101.322 49.5287C101.043 49.5287 100.8 49.5886 100.593 49.7084C100.389 49.8249 100.231 49.9949 100.117 50.2183C100.004 50.4384 99.9473 50.7006 99.9473 51.0049V54.103H99.1121Z" fill="white"/>
</g>
<g filter="url(#filter3_d_86_4504)">
<g filter="url(#filter4_b_86_4504)">
<path d="M209 77.9075C209 74.8113 211.51 72.3013 214.606 72.3013H279.639C282.735 72.3013 285.245 74.8113 285.245 77.9075V99.0163C285.245 102.113 282.735 104.623 279.639 104.623H233.863L225.575 117.446V104.623H214.606C211.51 104.623 209 102.113 209 99.0163V77.9075Z" fill="white" fill-opacity="0.17"/>
</g>
<path d="M220.226 85.3109H219.362V78.3038H220.212L224.014 83.757H224.092V78.3038H224.956V85.3109H224.106L220.304 79.8771H220.226V85.3109ZM228.787 85.4032C228.292 85.4032 227.863 85.2947 227.501 85.0778C227.141 84.8577 226.863 84.5453 226.665 84.1406C226.471 83.736 226.374 83.2536 226.374 82.6935C226.374 82.1335 226.471 81.6511 226.665 81.2465C226.863 80.8386 227.141 80.5262 227.501 80.3093C227.863 80.0924 228.292 79.9839 228.787 79.9839C229.283 79.9839 229.71 80.0924 230.069 80.3093C230.432 80.5262 230.71 80.8386 230.905 81.2465C231.102 81.6511 231.201 82.1335 231.201 82.6935C231.201 83.2536 231.102 83.736 230.905 84.1406C230.71 84.5453 230.432 84.8577 230.069 85.0778C229.71 85.2947 229.283 85.4032 228.787 85.4032ZM228.787 84.6505C229.283 84.6505 229.665 84.4789 229.933 84.1358C230.202 83.7926 230.337 83.3119 230.337 82.6935C230.337 82.072 230.202 81.5912 229.933 81.2513C229.665 80.9082 229.283 80.7366 228.787 80.7366C228.292 80.7366 227.91 80.9082 227.641 81.2513C227.373 81.5912 227.238 82.072 227.238 82.6935C227.238 83.3119 227.373 83.7926 227.641 84.1358C227.91 84.4789 228.292 84.6505 228.787 84.6505ZM235.426 78.3038H237.829C238.522 78.3038 239.115 78.443 239.607 78.7214C240.102 78.9965 240.481 79.3963 240.743 79.9208C241.005 80.442 241.136 81.07 241.136 81.8049C241.136 82.5398 241.005 83.1694 240.743 83.6939C240.481 84.2183 240.104 84.6197 239.611 84.8982C239.119 85.1733 238.525 85.3109 237.829 85.3109H235.426V78.3038ZM236.3 79.0904V84.5242H237.771C238.292 84.5242 238.737 84.4174 239.106 84.2038C239.475 83.9901 239.757 83.6809 239.951 83.2763C240.146 82.8716 240.243 82.3844 240.243 81.8146C240.243 81.2449 240.144 80.756 239.946 80.3481C239.752 79.9402 239.471 79.6294 239.102 79.4158C238.733 79.1989 238.289 79.0904 237.771 79.0904H236.3ZM242.544 85.3109V80.0762H243.341V80.8531H243.419C243.47 80.6848 243.566 80.5359 243.705 80.4064C243.847 80.2737 244.019 80.1701 244.22 80.0956C244.424 80.0211 244.641 79.9839 244.87 79.9839C244.938 79.9839 245.011 79.9872 245.089 79.9936C245.167 79.9969 245.233 80.0017 245.288 80.0082V80.8434C245.265 80.8369 245.222 80.8305 245.157 80.824C245.092 80.8143 245.023 80.8078 244.948 80.8046C244.874 80.7981 244.809 80.7949 244.754 80.7949C244.488 80.7949 244.252 80.8499 244.045 80.96C243.838 81.07 243.674 81.2206 243.554 81.4116C243.438 81.6026 243.38 81.8211 243.38 82.0671V85.3109H242.544ZM246.39 85.3595C246.274 85.3595 246.167 85.332 246.07 85.2769C245.976 85.2186 245.9 85.1426 245.842 85.0487C245.787 84.9516 245.759 84.8447 245.759 84.7282C245.759 84.6117 245.787 84.5064 245.842 84.4126C245.9 84.3154 245.976 84.2394 246.07 84.1843C246.167 84.1261 246.274 84.0969 246.39 84.0969C246.507 84.0969 246.612 84.1261 246.706 84.1843C246.803 84.2394 246.879 84.3154 246.934 84.4126C246.993 84.5064 247.022 84.6117 247.022 84.7282C247.022 84.8447 246.993 84.9516 246.934 85.0487C246.879 85.1426 246.803 85.2186 246.706 85.2769C246.612 85.332 246.507 85.3595 246.39 85.3595ZM252.441 85.3109H251.567V78.3038H252.441V81.7078H252.519L255.588 78.3038H256.685L253.883 81.329L256.942 85.3109H255.811L253.281 81.936L252.441 82.8635V85.3109ZM259.715 80.722C259.437 80.722 259.189 80.7868 258.972 80.9163C258.759 81.0425 258.587 81.2206 258.457 81.4504C258.331 81.6803 258.257 81.9506 258.234 82.2614H261.119C261.112 81.9506 261.049 81.6803 260.929 81.4504C260.813 81.2206 260.651 81.0425 260.444 80.9163C260.236 80.7868 259.994 80.722 259.715 80.722ZM261.094 83.9561H261.929C261.849 84.2539 261.706 84.5113 261.502 84.7282C261.301 84.9451 261.051 85.1118 260.749 85.2284C260.448 85.3449 260.107 85.4032 259.725 85.4032C259.239 85.4032 258.82 85.2931 258.467 85.073C258.114 84.8528 257.842 84.5404 257.651 84.1358C257.46 83.7279 257.365 83.2487 257.365 82.6984C257.365 82.2873 257.42 81.915 257.53 81.5815C257.64 81.2481 257.799 80.9632 258.006 80.7269C258.213 80.4873 258.461 80.3044 258.749 80.1782C259.04 80.0487 259.366 79.9839 259.725 79.9839C260.197 79.9839 260.602 80.0907 260.939 80.3044C261.279 80.5148 261.539 80.8175 261.721 81.2125C261.905 81.6074 261.997 82.0752 261.997 82.6159V82.9363H258.234V82.9752C258.25 83.3216 258.321 83.621 258.448 83.8735C258.574 84.1261 258.747 84.3219 258.967 84.4611C259.187 84.5971 259.446 84.6651 259.744 84.6651C260.081 84.6651 260.363 84.6052 260.589 84.4854C260.816 84.3624 260.984 84.1859 261.094 83.9561ZM265.426 84.4951C265.749 84.4951 266.026 84.4174 266.256 84.262C266.489 84.1066 266.667 83.8881 266.79 83.6065C266.917 83.3248 266.98 82.9946 266.98 82.6159C266.98 82.2371 266.917 81.9069 266.79 81.6252C266.667 81.3436 266.489 81.1251 266.256 80.9697C266.026 80.8143 265.749 80.7366 265.426 80.7366C265.102 80.7366 264.827 80.8143 264.6 80.9697C264.377 81.1251 264.205 81.3436 264.086 81.6252C263.969 81.9069 263.911 82.2371 263.911 82.6159C263.911 82.9946 263.969 83.3248 264.086 83.6065C264.205 83.8881 264.377 84.1066 264.6 84.262C264.827 84.4174 265.102 84.4951 265.426 84.4951ZM265.465 87.3213C265.044 87.3213 264.676 87.2614 264.362 87.1416C264.048 87.0251 263.797 86.8583 263.61 86.6414C263.425 86.4278 263.312 86.1769 263.27 85.8888H264.153C264.199 86.1024 264.335 86.2724 264.561 86.3986C264.788 86.5281 265.089 86.5929 265.465 86.5929C265.934 86.5929 266.3 86.4828 266.562 86.2627C266.828 86.0458 266.96 85.7447 266.96 85.3595V84.33H266.883C266.717 84.6181 266.492 84.8415 266.208 85.0001C265.923 85.1555 265.601 85.2332 265.241 85.2332C264.788 85.2332 264.398 85.1248 264.071 84.9079C263.744 84.6877 263.491 84.3818 263.313 83.9901C263.135 83.5951 263.046 83.1371 263.046 82.6159C263.046 82.2241 263.097 81.868 263.197 81.5475C263.3 81.2238 263.448 80.9454 263.639 80.7123C263.83 80.4792 264.06 80.2996 264.328 80.1733C264.6 80.047 264.905 79.9839 265.241 79.9839C265.487 79.9839 265.719 80.0228 265.936 80.1005C266.153 80.1749 266.345 80.2818 266.513 80.421C266.685 80.5569 266.821 80.7188 266.921 80.9066H266.999V80.0762H267.795V85.4032C267.795 85.7949 267.7 86.1332 267.509 86.4181C267.318 86.7062 267.048 86.9279 266.698 87.0833C266.352 87.242 265.94 87.3213 265.465 87.3213ZM271.457 80.722C271.178 80.722 270.931 80.7868 270.714 80.9163C270.5 81.0425 270.329 81.2206 270.199 81.4504C270.073 81.6803 269.998 81.9506 269.976 82.2614H272.86C272.854 81.9506 272.791 81.6803 272.671 81.4504C272.554 81.2206 272.392 81.0425 272.185 80.9163C271.978 80.7868 271.735 80.722 271.457 80.722ZM272.836 83.9561H273.671C273.59 84.2539 273.448 84.5113 273.244 84.7282C273.043 84.9451 272.792 85.1118 272.491 85.2284C272.19 85.3449 271.849 85.4032 271.467 85.4032C270.981 85.4032 270.562 85.2931 270.209 85.073C269.856 84.8528 269.584 84.5404 269.393 84.1358C269.202 83.7279 269.107 83.2487 269.107 82.6984C269.107 82.2873 269.162 81.915 269.272 81.5815C269.382 81.2481 269.54 80.9632 269.748 80.7269C269.955 80.4873 270.202 80.3044 270.491 80.1782C270.782 80.0487 271.107 79.9839 271.467 79.9839C271.939 79.9839 272.344 80.0907 272.681 80.3044C273.02 80.5148 273.281 80.8175 273.462 81.2125C273.647 81.6074 273.739 82.0752 273.739 82.6159V82.9363H269.976V82.9752C269.992 83.3216 270.063 83.621 270.189 83.8735C270.316 84.1261 270.489 84.3219 270.709 84.4611C270.929 84.5971 271.188 84.6651 271.486 84.6651C271.823 84.6651 272.104 84.6052 272.331 84.4854C272.558 84.3624 272.726 84.1859 272.836 83.9561ZM275.099 85.3109V77.9978H275.934V85.3109H275.099ZM241.025 91.9839C241.468 91.9839 241.855 92.0956 242.185 92.319C242.515 92.5424 242.771 92.858 242.952 93.2659C243.134 93.6706 243.224 94.1464 243.224 94.6935C243.224 95.1014 243.172 95.4721 243.069 95.8056C242.965 96.139 242.816 96.4255 242.622 96.6651C242.431 96.9014 242.2 97.0843 241.928 97.2138C241.659 97.34 241.358 97.4032 241.025 97.4032C240.652 97.4032 240.322 97.3271 240.034 97.1749C239.746 97.0196 239.531 96.8027 239.388 96.5242H239.31V99.0591H238.475V92.0762H239.272V92.9503H239.349C239.518 92.6492 239.749 92.4129 240.044 92.2413C240.341 92.0697 240.668 91.9839 241.025 91.9839ZM240.825 96.6505C241.146 96.6505 241.419 96.5728 241.646 96.4174C241.876 96.262 242.052 96.0386 242.175 95.7473C242.298 95.4527 242.36 95.1014 242.36 94.6935C242.36 94.2856 242.298 93.936 242.175 93.6447C242.056 93.3501 241.881 93.1251 241.651 92.9697C241.424 92.8143 241.151 92.7366 240.83 92.7366C240.516 92.7366 240.243 92.8159 240.01 92.9745C239.78 93.1332 239.602 93.3598 239.475 93.6544C239.349 93.9457 239.286 94.2921 239.286 94.6935C239.286 95.0917 239.349 95.4381 239.475 95.7327C239.602 96.0241 239.78 96.2507 240.01 96.4126C240.239 96.5712 240.511 96.6505 240.825 96.6505ZM244.584 97.3109V89.9978H245.419V97.3109H244.584ZM248.653 96.6699C248.938 96.6699 249.194 96.6133 249.42 96.5C249.647 96.3834 249.825 96.2264 249.955 96.0289C250.084 95.8315 250.149 95.6081 250.149 95.3588V94.8781L248.741 94.9703C248.342 94.9962 248.051 95.0804 247.867 95.2228C247.685 95.3621 247.595 95.5628 247.595 95.825C247.595 96.003 247.64 96.1552 247.731 96.2814C247.824 96.4077 247.951 96.5048 248.109 96.5728C248.271 96.6376 248.453 96.6699 248.653 96.6699ZM248.498 97.4032C248.161 97.4032 247.858 97.34 247.59 97.2138C247.324 97.0875 247.114 96.9079 246.959 96.6748C246.806 96.4385 246.73 96.1617 246.73 95.8444C246.73 95.375 246.895 95.0092 247.226 94.747C247.559 94.4815 248.03 94.331 248.639 94.2954L250.149 94.2031V93.7272C250.149 93.4035 250.049 93.1558 249.848 92.9842C249.65 92.8127 249.356 92.7269 248.964 92.7269C248.65 92.7269 248.389 92.7835 248.182 92.8968C247.975 93.0101 247.842 93.1704 247.784 93.3776H246.939C246.975 93.0992 247.085 92.8548 247.269 92.6443C247.454 92.4339 247.693 92.272 247.988 92.1587C248.286 92.0422 248.621 91.9839 248.993 91.9839C249.42 91.9839 249.781 92.0535 250.076 92.1927C250.374 92.3319 250.599 92.5326 250.751 92.7949C250.906 93.0538 250.984 93.3646 250.984 93.7272V97.3109H250.188V96.5388H250.11C249.942 96.8172 249.718 97.0309 249.44 97.1798C249.161 97.3287 248.847 97.4032 248.498 97.4032ZM252.528 97.3109V92.0762H253.325V92.9017H253.402C253.532 92.6136 253.726 92.3886 253.985 92.2267C254.244 92.0649 254.574 91.9839 254.976 91.9839C255.565 91.9839 256.017 92.1523 256.331 92.4889C256.648 92.8224 256.806 93.2999 256.806 93.9214V97.3109H255.971V94.1254C255.971 93.6528 255.869 93.3031 255.665 93.0765C255.465 92.8499 255.155 92.7366 254.738 92.7366C254.459 92.7366 254.217 92.7965 254.009 92.9163C253.805 93.0328 253.647 93.2028 253.533 93.4261C253.42 93.6463 253.364 93.9085 253.364 94.2128V97.3109H252.528Z" fill="white"/>
</g>
<defs>
<filter id="filter0_dd_86_4504" x="-25.0806" y="4.76746" width="361.161" height="156.995" filterUnits="userSpaceOnUse" color-interpolation-filters="sRGB">
<feFlood flood-opacity="0" result="BackgroundImageFix"/>
<feColorMatrix in="SourceAlpha" type="matrix" values="0 0 0 0 0 0 0 0 0 0 0 0 0 0 0 0 0 0 127 0" result="hardAlpha"/>
<feOffset dy="5.01613"/>
<feGaussianBlur stdDeviation="6.01935"/>
<feComposite in2="hardAlpha" operator="out"/>
<feColorMatrix type="matrix" values="0 0 0 0 0.894118 0 0 0 0 0.258824 0 0 0 0 0.25098 0 0 0 0.75 0"/>
<feBlend mode="normal" in2="BackgroundImageFix" result="effect1_dropShadow_86_4504"/>
<feColorMatrix in="SourceAlpha" type="matrix" values="0 0 0 0 0 0 0 0 0 0 0 0 0 0 0 0 0 0 127 0" result="hardAlpha"/>
<feOffset dy="18.0581"/>
<feGaussianBlur stdDeviation="12.5403"/>
<feComposite in2="hardAlpha" operator="out"/>
<feColorMatrix type="matrix" values="0 0 0 0 0.894118 0 0 0 0 0.258824 0 0 0 0 0.25098 0 0 0 0.44 0"/>
<feBlend mode="normal" in2="effect1_dropShadow_86_4504" result="effect2_dropShadow_86_4504"/>
<feBlend mode="normal" in="SourceGraphic" in2="effect2_dropShadow_86_4504" result="shape"/>
</filter>
<filter id="filter1_d_86_4504" x="27.0867" y="20.0642" width="123.396" height="68.4374" filterUnits="userSpaceOnUse" color-interpolation-filters="sRGB">
<feFlood flood-opacity="0" result="BackgroundImageFix"/>
<feColorMatrix in="SourceAlpha" type="matrix" values="0 0 0 0 0 0 0 0 0 0 0 0 0 0 0 0 0 0 127 0" result="hardAlpha"/>
<feOffset dx="4.0129" dy="9.02903"/>
<feGaussianBlur stdDeviation="9.02903"/>
<feComposite in2="hardAlpha" operator="out"/>
<feColorMatrix type="matrix" values="0 0 0 0 0 0 0 0 0 0 0 0 0 0 0 0 0 0 0.37 0"/>
<feBlend mode="normal" in2="BackgroundImageFix" result="effect1_dropShadow_86_4504"/>
<feBlend mode="normal" in="SourceGraphic" in2="effect1_dropShadow_86_4504" result="shape"/>
</filter>
<filter id="filter2_b_86_4504" x="32.7186" y="20.6801" width="104.107" height="49.1477" filterUnits="userSpaceOnUse" color-interpolation-filters="sRGB">
<feFlood flood-opacity="0" result="BackgroundImageFix"/>
<feGaussianBlur in="BackgroundImage" stdDeviation="4.20659"/>
<feComposite in2="SourceAlpha" operator="in" result="effect1_backgroundBlur_86_4504"/>
<feBlend mode="normal" in="SourceGraphic" in2="effect1_backgroundBlur_86_4504" result="shape"/>
</filter>
<filter id="filter3_d_86_4504" x="194.955" y="63.2722" width="112.361" height="81.2613" filterUnits="userSpaceOnUse" color-interpolation-filters="sRGB">
<feFlood flood-opacity="0" result="BackgroundImageFix"/>
<feColorMatrix in="SourceAlpha" type="matrix" values="0 0 0 0 0 0 0 0 0 0 0 0 0 0 0 0 0 0 127 0" result="hardAlpha"/>
<feOffset dx="4.0129" dy="9.02903"/>
<feGaussianBlur stdDeviation="9.02903"/>
<feComposite in2="hardAlpha" operator="out"/>
<feColorMatrix type="matrix" values="0 0 0 0 0 0 0 0 0 0 0 0 0 0 0 0 0 0 0.37 0"/>
<feBlend mode="normal" in2="BackgroundImageFix" result="effect1_dropShadow_86_4504"/>
<feBlend mode="normal" in="SourceGraphic" in2="effect1_dropShadow_86_4504" result="shape"/>
</filter>
<filter id="filter4_b_86_4504" x="200.587" y="63.8881" width="93.0715" height="61.9715" filterUnits="userSpaceOnUse" color-interpolation-filters="sRGB">
<feFlood flood-opacity="0" result="BackgroundImageFix"/>
<feGaussianBlur in="BackgroundImage" stdDeviation="4.20659"/>
<feComposite in2="SourceAlpha" operator="in" result="effect1_backgroundBlur_86_4504"/>
<feBlend mode="normal" in="SourceGraphic" in2="effect1_backgroundBlur_86_4504" result="shape"/>
</filter>
<linearGradient id="paint0_linear_86_4504" x1="311" y1="164.529" x2="311" y2="477.535" gradientUnits="userSpaceOnUse">
<stop stop-color="white" stop-opacity="0"/>
<stop offset="0.179035" stop-color="white"/>
<stop offset="0.809177" stop-color="white"/>
<stop offset="1" stop-color="white" stop-opacity="0"/>
</linearGradient>
<linearGradient id="paint1_linear_86_4504" x1="311" y1="123.397" x2="311" y2="436.403" gradientUnits="userSpaceOnUse">
<stop stop-color="white" stop-opacity="0"/>
<stop offset="0.179035" stop-color="white"/>
<stop offset="0.809177" stop-color="white"/>
<stop offset="1" stop-color="white" stop-opacity="0"/>
</linearGradient>
<linearGradient id="paint2_linear_86_4504" x1="311" y1="82.2646" x2="311" y2="395.271" gradientUnits="userSpaceOnUse">
<stop stop-color="white" stop-opacity="0"/>
<stop offset="0.179035" stop-color="white"/>
<stop offset="0.809177" stop-color="white"/>
<stop offset="1" stop-color="white" stop-opacity="0"/>
</linearGradient>
<linearGradient id="paint3_linear_86_4504" x1="311" y1="41.1323" x2="311" y2="354.139" gradientUnits="userSpaceOnUse">
<stop stop-color="white" stop-opacity="0"/>
<stop offset="0.179035" stop-color="white"/>
<stop offset="0.809177" stop-color="white"/>
<stop offset="1" stop-color="white" stop-opacity="0"/>
</linearGradient>
<linearGradient id="paint4_linear_86_4504" x1="311" y1="0" x2="311" y2="313.006" gradientUnits="userSpaceOnUse">
<stop stop-color="white" stop-opacity="0"/>
<stop offset="0.179035" stop-color="white"/>
<stop offset="0.809177" stop-color="white"/>
<stop offset="1" stop-color="white" stop-opacity="0"/>
</linearGradient>
<linearGradient id="paint5_linear_86_4504" x1="-6.51368e-07" y1="142.458" x2="311" y2="142.458" gradientUnits="userSpaceOnUse">
<stop stop-color="#6E6E70" stop-opacity="0"/>
<stop offset="0.135417" stop-color="#6E6E70"/>
<stop offset="0.869792" stop-color="#6E6E70"/>
<stop offset="1" stop-color="#6E6E70" stop-opacity="0"/>
</linearGradient>
<linearGradient id="paint6_linear_86_4504" x1="-6.21487e-07" y1="142.458" x2="311" y2="142.458" gradientUnits="userSpaceOnUse">
<stop stop-color="#E44240" stop-opacity="0"/>
<stop offset="0.135417" stop-color="#E44240"/>
<stop offset="0.869792" stop-color="#E44240"/>
<stop offset="1" stop-color="#E44240" stop-opacity="0"/>
</linearGradient>
</defs>
</svg>
