<svg width="27" height="41" viewBox="0 0 27 41" fill="none" xmlns="http://www.w3.org/2000/svg">
<path fill-rule="evenodd" clip-rule="evenodd" d="M13.8384 -0.0637714C13.8384 -0.0396331 13.6855 -0.0230659 13.4632 -0.0230659C13.2409 -0.0230659 13.088 -0.00649878 13.088 0.0176396C13.088 0.0408824 12.963 0.0583451 12.7962 0.0583451C12.6295 0.0583451 12.5044 0.0758077 12.5044 0.0990506C12.5044 0.122293 12.3793 0.139756 12.2126 0.139756C12.0458 0.139756 11.9208 0.157219 11.9208 0.180462C11.9208 0.203094 11.8096 0.221167 11.6706 0.221167C11.5317 0.221167 11.4205 0.23924 11.4205 0.261873C11.4205 0.284505 11.3093 0.302578 11.1704 0.302578C11.0314 0.302578 10.9202 0.320651 10.9202 0.343284C10.9202 0.365672 10.8265 0.383989 10.7118 0.383989C10.5972 0.383989 10.5034 0.402307 10.5034 0.424695C10.5034 0.447083 10.4096 0.4654 10.2949 0.4654C10.1803 0.4654 10.0865 0.483718 10.0865 0.506106C10.0865 0.528494 9.9927 0.546811 9.87805 0.546811C9.76341 0.546811 9.66961 0.565129 9.66961 0.587517C9.66961 0.609905 9.59458 0.628222 9.50286 0.628222C9.41115 0.628222 9.33611 0.64654 9.33611 0.668928C9.33611 0.691316 9.26107 0.709633 9.16936 0.709633C9.07765 0.709633 9.00261 0.727951 9.00261 0.750339C9.00261 0.772727 8.92757 0.791044 8.83586 0.791044C8.74414 0.791044 8.66911 0.809362 8.66911 0.83175C8.66911 0.854138 8.59407 0.872455 8.50235 0.872455C8.41064 0.872455 8.3356 0.890773 8.3356 0.913161C8.3356 0.935549 8.26057 0.953866 8.16885 0.953866C8.07714 0.953866 8.0021 0.972184 8.0021 0.994572C8.0021 1.01696 7.94582 1.03528 7.87704 1.03528C7.80825 1.03528 7.75197 1.05359 7.75197 1.07598C7.75197 1.09837 7.67694 1.11669 7.58522 1.11669C7.49351 1.11669 7.41847 1.13501 7.41847 1.15739C7.41847 1.17978 7.36219 1.1981 7.29341 1.1981C7.22462 1.1981 7.16834 1.21642 7.16834 1.2388C7.16834 1.26119 7.11206 1.27951 7.04328 1.27951C6.97449 1.27951 6.91822 1.29783 6.91822 1.32022C6.91822 1.3426 6.86194 1.36092 6.79315 1.36092C6.72437 1.36092 6.66809 1.37924 6.66809 1.40163C6.66809 1.42401 6.61181 1.44233 6.54303 1.44233C6.47424 1.44233 6.41796 1.46065 6.41796 1.48304C6.41796 1.50543 6.36168 1.52374 6.2929 1.52374C6.22411 1.52374 6.16784 1.54206 6.16784 1.56445C6.16784 1.58684 6.11156 1.60515 6.04277 1.60515C5.97399 1.60515 5.91771 1.62347 5.91771 1.64586C5.91771 1.66825 5.86143 1.68657 5.79264 1.68657C5.72386 1.68657 5.66758 1.70488 5.66758 1.72727C5.66758 1.74966 5.6113 1.76798 5.54252 1.76798C5.47373 1.76798 5.41745 1.78629 5.41745 1.80868C5.41745 1.83107 5.37993 1.84939 5.33408 1.84939C5.28822 1.84939 5.2507 1.8677 5.2507 1.89009C5.2507 1.91248 5.19442 1.9308 5.12564 1.9308C5.05685 1.9308 5.00058 1.94912 5.00058 1.9715C5.00058 1.99389 4.96306 2.01221 4.9172 2.01221C4.87134 2.01221 4.83382 2.03053 4.83382 2.05291C4.83382 2.0753 4.79631 2.09362 4.75045 2.09362C4.70459 2.09362 4.66707 2.11194 4.66707 2.13433C4.66707 2.15671 4.61079 2.17503 4.54201 2.17503C4.47322 2.17503 4.41695 2.19335 4.41695 2.21574C4.41695 2.23812 4.37943 2.25644 4.33357 2.25644C4.28771 2.25644 4.25019 2.27476 4.25019 2.29715C4.25019 2.31954 4.21268 2.33785 4.16682 2.33785C4.12096 2.33785 4.08344 2.35617 4.08344 2.37856C4.08344 2.40095 4.04592 2.41926 4.00007 2.41926C3.95421 2.41926 3.91669 2.43758 3.91669 2.45997C3.91669 2.48236 3.8833 2.50068 3.84253 2.50068C3.80172 2.50068 3.74131 2.53731 3.70825 2.58209C3.67519 2.62686 3.61479 2.6635 3.57398 2.6635C3.5332 2.6635 3.49981 2.68181 3.49981 2.7042C3.49981 2.72659 3.46229 2.74491 3.41644 2.74491C3.37058 2.74491 3.33306 2.76323 3.33306 2.78561C3.33306 2.808 3.29967 2.82632 3.2589 2.82632C3.21809 2.82632 3.15768 2.86295 3.12462 2.90773C3.09156 2.95251 3.03529 2.98914 2.99956 2.98914C2.96383 2.98914 2.90755 3.02578 2.8745 3.07055C2.84144 3.11533 2.78853 3.15196 2.75694 3.15196C2.72538 3.15196 2.64692 3.20692 2.58268 3.27408C2.51844 3.34124 2.44378 3.3962 2.41676 3.3962C2.38979 3.3962 2.29562 3.46947 2.20749 3.55902C2.11936 3.64857 2.02644 3.72184 2.00093 3.72184C1.94065 3.72184 1.66555 3.99046 1.66555 4.04932C1.66555 4.07423 1.59051 4.16496 1.4988 4.25101C1.40708 4.33706 1.33204 4.43634 1.33204 4.47172C1.33204 4.50705 1.31329 4.53595 1.29036 4.53595C1.26743 4.53595 1.24867 4.57259 1.24867 4.61736C1.24867 4.66214 1.22991 4.69877 1.20698 4.69877C1.18405 4.69877 1.16529 4.73541 1.16529 4.78018C1.16529 4.82496 1.14653 4.86159 1.12361 4.86159C1.10068 4.86159 1.08192 4.89823 1.08192 4.94301C1.08192 4.98778 1.06316 5.02442 1.04023 5.02442C1.0173 5.02442 0.998542 5.07937 0.998542 5.14653C0.998542 5.2137 0.979782 5.26865 0.956854 5.26865C0.931216 5.26865 0.915166 5.47218 0.915166 5.79782C0.915166 6.12347 0.931216 6.32699 0.956854 6.32699C0.979782 6.32699 0.998542 6.40026 0.998542 6.48981C0.998542 6.57937 1.0173 6.65264 1.04023 6.65264C1.06316 6.65264 1.08192 6.68927 1.08192 6.73405C1.08192 6.77882 1.10068 6.81546 1.12361 6.81546C1.14653 6.81546 1.16529 6.85209 1.16529 6.89687C1.16529 6.94165 1.18405 6.97828 1.20698 6.97828C1.22991 6.97828 1.24867 7.01089 1.24867 7.0507C1.24867 7.09055 1.28619 7.14953 1.33204 7.18181C1.3779 7.21409 1.41542 7.26904 1.41542 7.30392C1.41542 7.33881 1.45294 7.39376 1.4988 7.42604C1.54465 7.45832 1.58217 7.50835 1.58217 7.53721C1.58217 7.60059 2.60448 8.6065 2.66893 8.6065C2.69386 8.6065 2.78637 8.67977 2.8745 8.76932C2.96262 8.85887 3.0568 8.93214 3.08377 8.93214C3.11078 8.93214 3.18544 8.9871 3.24969 9.05426C3.31393 9.12142 3.39238 9.17638 3.42394 9.17638C3.45554 9.17638 3.50844 9.21301 3.5415 9.25779C3.57456 9.30256 3.63084 9.3392 3.66656 9.3392C3.70229 9.3392 3.75857 9.37583 3.79163 9.42061C3.82469 9.46539 3.88509 9.50202 3.9259 9.50202C3.96668 9.50202 4.00007 9.52034 4.00007 9.54273C4.00007 9.56511 4.03346 9.58343 4.07423 9.58343C4.11504 9.58343 4.17545 9.62007 4.20851 9.66484C4.24156 9.70962 4.29784 9.74625 4.33357 9.74625C4.3693 9.74625 4.42558 9.78289 4.45863 9.82767C4.49169 9.87244 4.5521 9.90908 4.59291 9.90908C4.63368 9.90908 4.66707 9.92739 4.66707 9.94978C4.66707 9.97217 4.70459 9.99049 4.75045 9.99049C4.79631 9.99049 4.83382 10.0088 4.83382 10.0312C4.83382 10.0536 4.87134 10.0719 4.9172 10.0719C4.96306 10.0719 5.00058 10.0902 5.00058 10.1126C5.00058 10.135 5.03397 10.1533 5.07474 10.1533C5.11555 10.1533 5.17596 10.1899 5.20901 10.2347C5.24207 10.2795 5.30248 10.3161 5.34329 10.3161C5.38406 10.3161 5.41745 10.3344 5.41745 10.3568C5.41745 10.3792 5.45497 10.3975 5.50083 10.3975C5.54669 10.3975 5.58421 10.4159 5.58421 10.4382C5.58421 10.4606 5.62172 10.479 5.66758 10.479C5.71344 10.479 5.75096 10.4973 5.75096 10.5197C5.75096 10.542 5.78848 10.5604 5.83433 10.5604C5.88019 10.5604 5.91771 10.5787 5.91771 10.6011C5.91771 10.6235 5.95523 10.6418 6.00108 10.6418C6.04694 10.6418 6.08446 10.6601 6.08446 10.6825C6.08446 10.7049 6.12198 10.7232 6.16784 10.7232C6.21369 10.7232 6.25121 10.7415 6.25121 10.7639C6.25121 10.7863 6.28873 10.8046 6.33459 10.8046C6.38044 10.8046 6.41796 10.8229 6.41796 10.8453C6.41796 10.8677 6.45548 10.886 6.50134 10.886C6.54719 10.886 6.58471 10.9043 6.58471 10.9267C6.58471 10.9491 6.62223 10.9674 6.66809 10.9674C6.71395 10.9674 6.75147 10.9857 6.75147 11.0081C6.75147 11.0305 6.80774 11.0488 6.87653 11.0488C6.94531 11.0488 7.00159 11.0671 7.00159 11.0895C7.00159 11.1119 7.03911 11.1302 7.08497 11.1302C7.13082 11.1302 7.16834 11.1486 7.16834 11.1709C7.16834 11.1933 7.20586 11.2117 7.25172 11.2117C7.29758 11.2117 7.33509 11.23 7.33509 11.2524C7.33509 11.2747 7.37261 11.2931 7.41847 11.2931C7.46433 11.2931 7.50185 11.3114 7.50185 11.3338C7.50185 11.3562 7.55813 11.3745 7.62691 11.3745C7.69569 11.3745 7.75197 11.3928 7.75197 11.4152C7.75197 11.4376 7.78949 11.4559 7.83535 11.4559C7.88121 11.4559 7.91873 11.4742 7.91873 11.4966C7.91873 11.519 7.95624 11.5373 8.0021 11.5373C8.04796 11.5373 8.08548 11.5556 8.08548 11.578C8.08548 11.6004 8.14176 11.6187 8.21054 11.6187C8.27933 11.6187 8.3356 11.6004 8.3356 11.578C8.3356 11.5556 8.29808 11.5373 8.25223 11.5373C8.20637 11.5373 8.16885 11.519 8.16885 11.4966C8.16885 11.4742 8.13546 11.4559 8.09469 11.4559C8.05388 11.4559 7.99347 11.4193 7.96041 11.3745C7.92735 11.3297 7.87108 11.2931 7.83535 11.2931C7.79962 11.2931 7.74334 11.2564 7.71029 11.2117C7.67723 11.1669 7.62095 11.1302 7.58522 11.1302C7.5495 11.1302 7.49322 11.0936 7.46016 11.0488C7.4271 11.0041 7.37082 10.9674 7.33509 10.9674C7.29937 10.9674 7.24309 10.9308 7.21003 10.886C7.17697 10.8412 7.11657 10.8046 7.07576 10.8046C7.03498 10.8046 7.00159 10.7863 7.00159 10.7639C7.00159 10.7415 6.9682 10.7232 6.92743 10.7232C6.88662 10.7232 6.82621 10.6866 6.79315 10.6418C6.76009 10.597 6.70382 10.5604 6.66809 10.5604C6.63236 10.5604 6.57608 10.5237 6.54303 10.479C6.50997 10.4342 6.45369 10.3975 6.41796 10.3975C6.38224 10.3975 6.32596 10.3609 6.2929 10.3161C6.25984 10.2714 6.20356 10.2347 6.16784 10.2347C6.13211 10.2347 6.07583 10.1981 6.04277 10.1533C6.00971 10.1085 5.95343 10.0719 5.91771 10.0719C5.88198 10.0719 5.8257 10.0353 5.79264 9.99049C5.75959 9.94571 5.70668 9.90908 5.67509 9.90908C5.64353 9.90908 5.56507 9.85412 5.50083 9.78696C5.43659 9.7198 5.36193 9.66484 5.33491 9.66484C5.30794 9.66484 5.21377 9.59157 5.12564 9.50202C5.03751 9.41247 4.94488 9.3392 4.91978 9.3392C4.85975 9.3392 4.25019 8.74323 4.25019 8.68453C4.25019 8.65958 4.19392 8.58782 4.12513 8.52509C4.05635 8.46236 4.00007 8.38575 4.00007 8.35494C4.00007 8.32409 3.96255 8.27243 3.91669 8.24015C3.87083 8.20787 3.83332 8.15292 3.83332 8.11803C3.83332 8.08315 3.7958 8.0282 3.74994 7.99592C3.70408 7.96364 3.66656 7.90466 3.66656 7.86481C3.66656 7.825 3.6478 7.79239 3.62488 7.79239C3.60195 7.79239 3.58319 7.75576 3.58319 7.71098C3.58319 7.6662 3.56443 7.62957 3.5415 7.62957C3.51857 7.62957 3.49981 7.57462 3.49981 7.50745C3.49981 7.44029 3.48105 7.38534 3.45813 7.38534C3.43311 7.38534 3.41644 7.22251 3.41644 6.97828C3.41644 6.73405 3.43311 6.57123 3.45813 6.57123C3.48105 6.57123 3.49981 6.51627 3.49981 6.44911C3.49981 6.38194 3.51857 6.32699 3.5415 6.32699C3.56443 6.32699 3.58319 6.29439 3.58319 6.25458C3.58319 6.21473 3.62071 6.15574 3.66656 6.12347C3.71242 6.09119 3.74994 6.04087 3.74994 6.01165C3.74994 5.94672 4.1045 5.59429 4.16982 5.59429C4.19562 5.59429 4.26933 5.53934 4.33357 5.47218C4.39781 5.40501 4.47627 5.35006 4.50783 5.35006C4.53942 5.35006 4.59233 5.31343 4.62538 5.26865C4.65844 5.22387 4.71885 5.18724 4.75966 5.18724C4.80043 5.18724 4.83382 5.16892 4.83382 5.14653C4.83382 5.12415 4.87134 5.10583 4.9172 5.10583C4.96306 5.10583 5.00058 5.08751 5.00058 5.06512C5.00058 5.04273 5.03809 5.02442 5.08395 5.02442C5.12981 5.02442 5.16733 5.0061 5.16733 4.98371C5.16733 4.96132 5.20485 4.94301 5.2507 4.94301C5.29656 4.94301 5.33408 4.92469 5.33408 4.9023C5.33408 4.87991 5.39036 4.86159 5.45914 4.86159C5.52793 4.86159 5.58421 4.84328 5.58421 4.82089C5.58421 4.7985 5.62172 4.78018 5.66758 4.78018C5.71344 4.78018 5.75096 4.76187 5.75096 4.73948C5.75096 4.71709 5.80724 4.69877 5.87602 4.69877C5.94481 4.69877 6.00108 4.68045 6.00108 4.65807C6.00108 4.63568 6.05736 4.61736 6.12615 4.61736C6.19493 4.61736 6.25121 4.59904 6.25121 4.57666C6.25121 4.55427 6.32625 4.53595 6.41796 4.53595C6.50968 4.53595 6.58471 4.51763 6.58471 4.49524C6.58471 4.47286 6.64099 4.45454 6.70978 4.45454C6.77856 4.45454 6.83484 4.43622 6.83484 4.41383C6.83484 4.39145 6.90988 4.37313 7.00159 4.37313C7.09331 4.37313 7.16834 4.35481 7.16834 4.33242C7.16834 4.31003 7.24338 4.29172 7.33509 4.29172C7.42681 4.29172 7.50185 4.2734 7.50185 4.25101C7.50185 4.22862 7.59564 4.21031 7.71029 4.21031C7.82493 4.21031 7.91873 4.19199 7.91873 4.1696C7.91873 4.14721 7.99376 4.1289 8.08548 4.1289C8.17719 4.1289 8.25223 4.11058 8.25223 4.08819C8.25223 4.06556 8.36341 4.04748 8.50235 4.04748C8.6413 4.04748 8.75248 4.02941 8.75248 4.00678C8.75248 3.98415 8.86366 3.96607 9.00261 3.96607C9.14155 3.96607 9.25274 3.948 9.25274 3.92537C9.25274 3.90274 9.36392 3.88466 9.50286 3.88466C9.64181 3.88466 9.75299 3.86659 9.75299 3.84396C9.75299 3.82023 9.89194 3.80325 10.0865 3.80325C10.2811 3.80325 10.42 3.78628 10.42 3.76255C10.42 3.73881 10.5589 3.72184 10.7535 3.72184C10.9481 3.72184 11.087 3.70487 11.087 3.68113C11.087 3.65671 11.2538 3.64043 11.5039 3.64043C11.754 3.64043 11.9208 3.62415 11.9208 3.59972C11.9208 3.57506 12.1014 3.55902 12.3793 3.55902C12.6573 3.55902 12.8379 3.54298 12.8379 3.51831C12.8379 3.49328 13.0463 3.47761 13.3798 3.47761C13.7133 3.47761 13.9218 3.46194 13.9218 3.4369C13.9218 3.41451 13.9593 3.3962 14.0052 3.3962C14.0872 3.3962 14.0885 3.36905 14.0885 1.64586V-0.104477H13.9635C13.8947 -0.104477 13.8384 -0.0861595 13.8384 -0.0637714ZM19.3412 5.06512C19.3412 5.08751 19.3787 5.10583 19.4246 5.10583C19.4704 5.10583 19.5079 5.12415 19.5079 5.14653C19.5079 5.16892 19.5413 5.18724 19.5821 5.18724C19.6229 5.18724 19.6833 5.22387 19.7164 5.26865C19.7494 5.31343 19.8099 5.35006 19.8507 5.35006C19.8914 5.35006 19.9248 5.36838 19.9248 5.39077C19.9248 5.41315 19.9623 5.43147 20.0082 5.43147C20.0541 5.43147 20.0916 5.44979 20.0916 5.47218C20.0916 5.49457 20.125 5.51288 20.1657 5.51288C20.2066 5.51288 20.267 5.54952 20.3 5.59429C20.3331 5.63907 20.3935 5.6757 20.4343 5.6757C20.4751 5.6757 20.5085 5.69402 20.5085 5.71641C20.5085 5.7388 20.5418 5.75712 20.5826 5.75712C20.6234 5.75712 20.6838 5.79375 20.7169 5.83853C20.75 5.8833 20.8062 5.91994 20.842 5.91994C20.8777 5.91994 20.934 5.95657 20.967 6.00135C21.0001 6.04612 21.0564 6.08276 21.0921 6.08276C21.1278 6.08276 21.1841 6.11939 21.2171 6.16417C21.2502 6.20895 21.3065 6.24558 21.3422 6.24558C21.3779 6.24558 21.4342 6.28222 21.4673 6.32699C21.5003 6.37177 21.5532 6.4084 21.5848 6.4084C21.6164 6.4084 21.6949 6.46336 21.7591 6.53052C21.8233 6.59768 21.8984 6.65264 21.9258 6.65264C21.9533 6.65264 22.0284 6.70759 22.0926 6.77475C22.1568 6.84192 22.2312 6.89687 22.2579 6.89687C22.2846 6.89687 22.3978 6.98846 22.5095 7.1004C22.6212 7.21234 22.7327 7.30392 22.7574 7.30392C22.8169 7.30392 23.5934 8.06333 23.5934 8.12154C23.5934 8.14641 23.6496 8.21813 23.7184 8.28086C23.7872 8.34358 23.8435 8.42019 23.8435 8.451C23.8435 8.48186 23.881 8.53352 23.9269 8.56579C23.9727 8.59807 24.0102 8.65706 24.0102 8.69691C24.0102 8.73672 24.029 8.76932 24.0519 8.76932C24.0749 8.76932 24.0936 8.80596 24.0936 8.85073C24.0936 8.89551 24.1124 8.93214 24.1353 8.93214C24.1582 8.93214 24.177 8.96878 24.177 9.01356C24.177 9.05833 24.1957 9.09497 24.2187 9.09497C24.2416 9.09497 24.2604 9.16824 24.2604 9.25779C24.2604 9.34734 24.2791 9.42061 24.302 9.42061C24.3264 9.42061 24.3437 9.55628 24.3437 9.74625C24.3437 9.93623 24.3264 10.0719 24.302 10.0719C24.2791 10.0719 24.2604 10.1269 24.2604 10.194C24.2604 10.2612 24.2416 10.3161 24.2187 10.3161C24.1957 10.3161 24.177 10.3528 24.177 10.3975C24.177 10.4423 24.1582 10.479 24.1353 10.479C24.1124 10.479 24.0936 10.5068 24.0936 10.5408C24.0936 10.6116 23.5771 11.1302 23.5066 11.1302C23.481 11.1302 23.4075 11.1852 23.3432 11.2524C23.279 11.3195 23.1964 11.3745 23.1598 11.3745C23.1231 11.3745 23.0931 11.3928 23.0931 11.4152C23.0931 11.4376 23.0556 11.4559 23.0097 11.4559C22.9639 11.4559 22.9264 11.4742 22.9264 11.4966C22.9264 11.519 22.8888 11.5373 22.843 11.5373C22.7971 11.5373 22.7596 11.5556 22.7596 11.578C22.7596 11.6004 22.7221 11.6187 22.6762 11.6187C22.6304 11.6187 22.5928 11.637 22.5928 11.6594C22.5928 11.6818 22.5553 11.7001 22.5095 11.7001C22.4636 11.7001 22.4261 11.7184 22.4261 11.7408C22.4261 11.7632 22.3886 11.7815 22.3427 11.7815C22.2969 11.7815 22.2593 11.7998 22.2593 11.8222C22.2593 11.8446 22.2218 11.8629 22.176 11.8629C22.1301 11.8629 22.0926 11.8813 22.0926 11.9036C22.0926 11.926 22.0363 11.9444 21.9675 11.9444C21.8987 11.9444 21.8425 11.9627 21.8425 11.9851C21.8425 12.0074 21.8049 12.0258 21.7591 12.0258C21.7132 12.0258 21.6757 12.0441 21.6757 12.0665C21.6757 12.0889 21.6194 12.1072 21.5507 12.1072C21.4819 12.1072 21.4256 12.1255 21.4256 12.1479C21.4256 12.1703 21.3505 12.1886 21.2588 12.1886C21.1671 12.1886 21.0921 12.2069 21.0921 12.2293C21.0921 12.2517 21.0358 12.27 20.967 12.27C20.8982 12.27 20.842 12.2883 20.842 12.3107C20.842 12.3331 20.7669 12.3514 20.6752 12.3514C20.5835 12.3514 20.5085 12.3697 20.5085 12.3921C20.5085 12.4145 20.4147 12.4328 20.3 12.4328C20.1854 12.4328 20.0916 12.4511 20.0916 12.4735C20.0916 12.4959 19.9978 12.5142 19.8831 12.5142C19.7685 12.5142 19.6747 12.5325 19.6747 12.5549C19.6747 12.5776 19.5635 12.5956 19.4246 12.5956C19.2856 12.5956 19.1744 12.6137 19.1744 12.6363C19.1744 12.6596 19.0494 12.6771 18.8826 12.6771C18.7159 12.6771 18.5908 12.6945 18.5908 12.7178C18.5908 12.741 18.4658 12.7585 18.299 12.7585C18.1322 12.7585 18.0072 12.7759 18.0072 12.7992C18.0072 12.8229 17.8682 12.8399 17.6737 12.8399C17.4791 12.8399 17.3402 12.8568 17.3402 12.8806C17.3402 12.9043 17.2012 12.9213 17.0067 12.9213C16.8121 12.9213 16.6732 12.9383 16.6732 12.962C16.6732 12.9857 16.5342 13.0027 16.3397 13.0027C16.1451 13.0027 16.0062 13.0197 16.0062 13.0434C16.0062 13.0675 15.8533 13.0841 15.631 13.0841C15.4087 13.0841 15.2558 13.1007 15.2558 13.1248C15.2558 13.1485 15.1168 13.1655 14.9223 13.1655C14.7277 13.1655 14.5888 13.1825 14.5888 13.2062C14.5888 13.23 14.4498 13.2469 14.2553 13.2469C14.0607 13.2469 13.9218 13.2639 13.9218 13.2876C13.9218 13.3118 13.7689 13.3283 13.5466 13.3283C13.3243 13.3283 13.1714 13.3449 13.1714 13.369C13.1714 13.3923 13.0463 13.4097 12.8796 13.4097C12.7128 13.4097 12.5878 13.4272 12.5878 13.4505C12.5878 13.4737 12.4627 13.4912 12.2959 13.4912C12.1292 13.4912 12.0041 13.5086 12.0041 13.5319C12.0041 13.5545 11.893 13.5726 11.754 13.5726C11.6151 13.5726 11.5039 13.5906 11.5039 13.6133C11.5039 13.6359 11.3927 13.654 11.2538 13.654C11.1148 13.654 11.0036 13.6721 11.0036 13.6947C11.0036 13.7171 10.9098 13.7354 10.7952 13.7354C10.6805 13.7354 10.5867 13.7537 10.5867 13.7761C10.5867 13.7985 10.4929 13.8168 10.3783 13.8168C10.2637 13.8168 10.1699 13.8351 10.1699 13.8575C10.1699 13.8799 10.0948 13.8982 10.0031 13.8982C9.9114 13.8982 9.83637 13.9165 9.83637 13.9389C9.83637 13.9613 9.74257 13.9796 9.62793 13.9796C9.51329 13.9796 9.41949 13.9979 9.41949 14.0203C9.41949 14.0427 9.34445 14.061 9.25274 14.061C9.16102 14.061 9.08599 14.0794 9.08599 14.1017C9.08599 14.1241 9.01095 14.1424 8.91923 14.1424C8.82752 14.1424 8.75248 14.1608 8.75248 14.1832C8.75248 14.2055 8.67744 14.2239 8.58573 14.2239C8.49402 14.2239 8.41898 14.2422 8.41898 14.2646C8.41898 14.287 8.34394 14.3053 8.25223 14.3053C8.16051 14.3053 8.08548 14.3236 8.08548 14.346C8.08548 14.3684 8.0292 14.3867 7.96041 14.3867C7.89163 14.3867 7.83535 14.405 7.83535 14.4274C7.83535 14.4498 7.77907 14.4681 7.71029 14.4681C7.6415 14.4681 7.58522 14.4864 7.58522 14.5088C7.58522 14.5312 7.51018 14.5495 7.41847 14.5495C7.32676 14.5495 7.25172 14.5678 7.25172 14.5902C7.25172 14.6126 7.19544 14.6309 7.12666 14.6309C7.05787 14.6309 7.00159 14.6492 7.00159 14.6716C7.00159 14.694 6.94531 14.7123 6.87653 14.7123C6.80774 14.7123 6.75147 14.7306 6.75147 14.753C6.75147 14.7754 6.69519 14.7937 6.6264 14.7937C6.55762 14.7937 6.50134 14.8121 6.50134 14.8344C6.50134 14.8568 6.44506 14.8751 6.37627 14.8751C6.30749 14.8751 6.25121 14.8935 6.25121 14.9159C6.25121 14.9382 6.19493 14.9566 6.12615 14.9566C6.05736 14.9566 6.00108 14.9749 6.00108 14.9973C6.00108 15.0197 5.96356 15.038 5.91771 15.038C5.87185 15.038 5.83433 15.0563 5.83433 15.0787C5.83433 15.1011 5.77805 15.1194 5.70927 15.1194C5.64048 15.1194 5.58421 15.1377 5.58421 15.1601C5.58421 15.1825 5.54669 15.2008 5.50083 15.2008C5.45497 15.2008 5.41745 15.2191 5.41745 15.2415C5.41745 15.2639 5.36118 15.2822 5.29239 15.2822C5.22361 15.2822 5.16733 15.3005 5.16733 15.3229C5.16733 15.3453 5.12981 15.3636 5.08395 15.3636C5.03809 15.3636 5.00058 15.3819 5.00058 15.4043C5.00058 15.4267 4.9443 15.445 4.87551 15.445C4.80673 15.445 4.75045 15.4633 4.75045 15.4857C4.75045 15.5081 4.71293 15.5264 4.66707 15.5264C4.62122 15.5264 4.5837 15.5448 4.5837 15.5671C4.5837 15.5895 4.54618 15.6078 4.50032 15.6078C4.45446 15.6078 4.41695 15.6262 4.41695 15.6486C4.41695 15.6709 4.37943 15.6893 4.33357 15.6893C4.28771 15.6893 4.25019 15.7076 4.25019 15.73C4.25019 15.7524 4.21268 15.7707 4.16682 15.7707C4.12096 15.7707 4.08344 15.789 4.08344 15.8114C4.08344 15.8338 4.04592 15.8521 4.00007 15.8521C3.95421 15.8521 3.91669 15.8704 3.91669 15.8928C3.91669 15.9152 3.87917 15.9335 3.83332 15.9335C3.78746 15.9335 3.74994 15.9518 3.74994 15.9742C3.74994 15.9966 3.71655 16.0149 3.67578 16.0149C3.63496 16.0149 3.57456 16.0515 3.5415 16.0963C3.50844 16.1411 3.44804 16.1777 3.40722 16.1777C3.36645 16.1777 3.33306 16.196 3.33306 16.2184C3.33306 16.2408 3.29967 16.2591 3.2589 16.2591C3.21809 16.2591 3.15768 16.2958 3.12462 16.3405C3.09156 16.3853 3.03529 16.422 2.99956 16.422C2.96383 16.422 2.90755 16.4586 2.8745 16.5034C2.84144 16.5481 2.78895 16.5848 2.75781 16.5848C2.72667 16.5848 2.62912 16.658 2.54099 16.7476C2.45286 16.8372 2.36028 16.9104 2.33522 16.9104C2.27073 16.9104 1.58217 17.5902 1.58217 17.6539C1.58217 17.6829 1.54465 17.733 1.4988 17.7652C1.45294 17.7975 1.41542 17.8525 1.41542 17.8874C1.41542 17.9222 1.3779 17.9772 1.33204 18.0095C1.2831 18.0439 1.24867 18.1149 1.24867 18.1813C1.24867 18.2435 1.22991 18.2944 1.20698 18.2944C1.18405 18.2944 1.16529 18.3494 1.16529 18.4165C1.16529 18.4837 1.14653 18.5386 1.12361 18.5386C1.10068 18.5386 1.08192 18.6119 1.08192 18.7015C1.08192 18.791 1.06316 18.8643 1.04023 18.8643C1.01643 18.8643 0.998542 18.9864 0.998542 19.1492C0.998542 19.312 1.01643 19.4342 1.04023 19.4342C1.06316 19.4342 1.08192 19.5074 1.08192 19.597C1.08192 19.6865 1.10068 19.7598 1.12361 19.7598C1.14653 19.7598 1.16529 19.8148 1.16529 19.8819C1.16529 19.9491 1.18405 20.004 1.20698 20.004C1.22991 20.004 1.24867 20.059 1.24867 20.1262C1.24867 20.1933 1.26743 20.2483 1.29036 20.2483C1.31329 20.2483 1.33204 20.2809 1.33204 20.3207C1.33204 20.3605 1.36956 20.4195 1.41542 20.4518C1.46128 20.4841 1.4988 20.539 1.4988 20.5739C1.4988 20.6088 1.53632 20.6638 1.58217 20.696C1.62803 20.7283 1.66555 20.7783 1.66555 20.8071C1.66555 20.8709 2.85499 22.0393 2.91993 22.0393C2.94532 22.0393 3.01869 22.0943 3.08293 22.1614C3.14718 22.2286 3.22221 22.2835 3.24969 22.2835C3.27716 22.2835 3.3522 22.3385 3.41644 22.4057C3.48068 22.4728 3.55913 22.5278 3.59069 22.5278C3.62229 22.5278 3.67519 22.5644 3.70825 22.6092C3.74131 22.654 3.79759 22.6906 3.83332 22.6906C3.86904 22.6906 3.92532 22.7272 3.95838 22.772C3.99144 22.8168 4.04772 22.8534 4.08344 22.8534C4.11917 22.8534 4.17545 22.8901 4.20851 22.9348C4.24156 22.9796 4.29784 23.0162 4.33357 23.0162C4.3693 23.0162 4.42558 23.0529 4.45863 23.0977C4.49169 23.1424 4.5521 23.1791 4.59291 23.1791C4.63368 23.1791 4.66707 23.1974 4.66707 23.2198C4.66707 23.2422 4.70459 23.2605 4.75045 23.2605C4.79631 23.2605 4.83382 23.2788 4.83382 23.3012C4.83382 23.3236 4.86722 23.3419 4.90799 23.3419C4.9488 23.3419 5.0092 23.3785 5.04226 23.4233C5.07532 23.4681 5.13573 23.5047 5.17654 23.5047C5.21731 23.5047 5.2507 23.523 5.2507 23.5454C5.2507 23.5678 5.28822 23.5861 5.33408 23.5861C5.37993 23.5861 5.41745 23.6044 5.41745 23.6268C5.41745 23.6492 5.45497 23.6675 5.50083 23.6675C5.54669 23.6675 5.58421 23.6859 5.58421 23.7082C5.58421 23.7306 5.62172 23.7489 5.66758 23.7489C5.71344 23.7489 5.75096 23.7673 5.75096 23.7897C5.75096 23.812 5.78848 23.8304 5.83433 23.8304C5.88019 23.8304 5.91771 23.8487 5.91771 23.8711C5.91771 23.8935 5.95523 23.9118 6.00108 23.9118C6.04694 23.9118 6.08446 23.9301 6.08446 23.9525C6.08446 23.9749 6.12198 23.9932 6.16784 23.9932C6.21369 23.9932 6.25121 24.0115 6.25121 24.0339C6.25121 24.0563 6.28873 24.0746 6.33459 24.0746C6.38044 24.0746 6.41796 24.0929 6.41796 24.1153C6.41796 24.1377 6.45548 24.156 6.50134 24.156C6.54719 24.156 6.58471 24.1743 6.58471 24.1967C6.58471 24.2191 6.64099 24.2374 6.70978 24.2374C6.77856 24.2374 6.83484 24.2557 6.83484 24.2781C6.83484 24.3005 6.87236 24.3188 6.91822 24.3188C6.96407 24.3188 7.00159 24.3371 7.00159 24.3595C7.00159 24.3819 7.03911 24.4002 7.08497 24.4002C7.13082 24.4002 7.16834 24.4186 7.16834 24.4409C7.16834 24.4633 7.20586 24.4816 7.25172 24.4816C7.29758 24.4816 7.33509 24.5 7.33509 24.5224C7.33509 24.5447 7.39137 24.5631 7.46016 24.5631C7.52894 24.5631 7.58522 24.5814 7.58522 24.6038C7.58522 24.6262 7.62274 24.6445 7.6686 24.6445C7.71445 24.6445 7.75197 24.6628 7.75197 24.6852C7.75197 24.7076 7.78949 24.7259 7.83535 24.7259C7.88121 24.7259 7.91873 24.7442 7.91873 24.7666C7.91873 24.789 7.975 24.8073 8.04379 24.8073C8.11257 24.8073 8.16885 24.8256 8.16885 24.848C8.16885 24.8704 8.20483 24.8887 8.24877 24.8887C8.29271 24.8887 8.33702 24.9116 8.34728 24.9396C8.35749 24.9676 8.38004 24.9776 8.39738 24.9619C8.43707 24.9259 8.31905 24.8073 8.24356 24.8073C8.21258 24.8073 8.16022 24.7707 8.12716 24.7259C8.09411 24.6811 8.03783 24.6445 8.0021 24.6445C7.96637 24.6445 7.9101 24.6078 7.87704 24.5631C7.84398 24.5183 7.7877 24.4816 7.75197 24.4816C7.71625 24.4816 7.65997 24.445 7.62691 24.4002C7.59385 24.3555 7.53345 24.3188 7.49263 24.3188C7.45186 24.3188 7.41847 24.3005 7.41847 24.2781C7.41847 24.2557 7.38508 24.2374 7.34431 24.2374C7.3035 24.2374 7.24309 24.2008 7.21003 24.156C7.17697 24.1112 7.12069 24.0746 7.08497 24.0746C7.04924 24.0746 6.99296 24.038 6.9599 23.9932C6.92685 23.9484 6.87057 23.9118 6.83484 23.9118C6.79911 23.9118 6.74284 23.8751 6.70978 23.8304C6.67672 23.7856 6.62044 23.7489 6.58471 23.7489C6.54899 23.7489 6.49271 23.7123 6.45965 23.6675C6.42659 23.6228 6.37031 23.5861 6.33459 23.5861C6.29886 23.5861 6.24258 23.5495 6.20952 23.5047C6.17646 23.4599 6.12019 23.4233 6.08446 23.4233C6.04873 23.4233 5.99245 23.3867 5.9594 23.3419C5.92634 23.2971 5.87344 23.2605 5.84184 23.2605C5.81028 23.2605 5.73182 23.2055 5.66758 23.1384C5.60334 23.0712 5.5283 23.0162 5.50083 23.0162C5.47336 23.0162 5.39832 22.9613 5.33408 22.8941C5.26984 22.827 5.19638 22.772 5.17091 22.772C5.11042 22.772 4.33357 22.0135 4.33357 21.9544C4.33357 21.9295 4.27729 21.8578 4.20851 21.7951C4.13972 21.7324 4.08344 21.6557 4.08344 21.6249C4.08344 21.5941 4.04592 21.5424 4.00007 21.5101C3.95421 21.4779 3.91669 21.4189 3.91669 21.379C3.91669 21.3392 3.89793 21.3066 3.875 21.3066C3.85208 21.3066 3.83332 21.27 3.83332 21.2252C3.83332 21.1804 3.81456 21.1438 3.79163 21.1438C3.7687 21.1438 3.74994 21.1072 3.74994 21.0624C3.74994 21.0176 3.73118 20.981 3.70825 20.981C3.68532 20.981 3.66656 20.9077 3.66656 20.8182C3.66656 20.7286 3.6478 20.6553 3.62488 20.6553C3.60057 20.6553 3.58319 20.5197 3.58319 20.3297C3.58319 20.1397 3.60057 20.004 3.62488 20.004C3.6478 20.004 3.66656 19.9491 3.66656 19.8819C3.66656 19.8148 3.68532 19.7598 3.70825 19.7598C3.73118 19.7598 3.74994 19.7232 3.74994 19.6784C3.74994 19.6336 3.7687 19.597 3.79163 19.597C3.81456 19.597 3.83332 19.5692 3.83332 19.5352C3.83332 19.4644 4.34979 18.9457 4.42028 18.9457C4.44592 18.9457 4.51946 18.8907 4.5837 18.8236C4.64794 18.7564 4.73052 18.7015 4.76717 18.7015C4.80385 18.7015 4.83382 18.6831 4.83382 18.6608C4.83382 18.6384 4.87134 18.6201 4.9172 18.6201C4.96306 18.6201 5.00058 18.6017 5.00058 18.5793C5.00058 18.557 5.03809 18.5386 5.08395 18.5386C5.12981 18.5386 5.16733 18.5203 5.16733 18.4979C5.16733 18.4755 5.20485 18.4572 5.2507 18.4572C5.29656 18.4572 5.33408 18.4389 5.33408 18.4165C5.33408 18.3941 5.3716 18.3758 5.41745 18.3758C5.46331 18.3758 5.50083 18.3575 5.50083 18.3351C5.50083 18.3127 5.53835 18.2944 5.58421 18.2944C5.63006 18.2944 5.66758 18.2761 5.66758 18.2537C5.66758 18.2313 5.7051 18.213 5.75096 18.213C5.79681 18.213 5.83433 18.1947 5.83433 18.1723C5.83433 18.1499 5.89061 18.1316 5.9594 18.1316C6.02818 18.1316 6.08446 18.1133 6.08446 18.0909C6.08446 18.0685 6.12198 18.0502 6.16784 18.0502C6.21369 18.0502 6.25121 18.0319 6.25121 18.0095C6.25121 17.9871 6.30749 17.9688 6.37627 17.9688C6.44506 17.9688 6.50134 17.9504 6.50134 17.9281C6.50134 17.9057 6.55762 17.8874 6.6264 17.8874C6.69519 17.8874 6.75147 17.869 6.75147 17.8466C6.75147 17.8243 6.8265 17.8059 6.91822 17.8059C7.00993 17.8059 7.08497 17.7876 7.08497 17.7652C7.08497 17.7429 7.14125 17.7245 7.21003 17.7245C7.27882 17.7245 7.33509 17.7062 7.33509 17.6838C7.33509 17.6614 7.41013 17.6431 7.50185 17.6431C7.59356 17.6431 7.6686 17.6248 7.6686 17.6024C7.6686 17.58 7.7624 17.5617 7.87704 17.5617C7.99168 17.5617 8.08548 17.5434 8.08548 17.521C8.08548 17.4986 8.17927 17.4803 8.29392 17.4803C8.40856 17.4803 8.50235 17.462 8.50235 17.4396C8.50235 17.4172 8.59615 17.3989 8.71079 17.3989C8.82544 17.3989 8.91923 17.3806 8.91923 17.3582C8.91923 17.3349 9.0443 17.3175 9.21105 17.3175C9.3778 17.3175 9.50286 17.3 9.50286 17.2768C9.50286 17.2535 9.62793 17.2361 9.79468 17.2361C9.96143 17.2361 10.0865 17.2186 10.0865 17.1954C10.0865 17.1716 10.2254 17.1547 10.42 17.1547C10.6146 17.1547 10.7535 17.1377 10.7535 17.114C10.7535 17.0902 10.8924 17.0732 11.087 17.0732C11.2816 17.0732 11.4205 17.0563 11.4205 17.0325C11.4205 17.0088 11.5595 16.9918 11.754 16.9918C11.9486 16.9918 12.0875 16.9749 12.0875 16.9511C12.0875 16.927 12.2404 16.9104 12.4627 16.9104C12.685 16.9104 12.8379 16.8939 12.8379 16.8697C12.8379 16.846 12.9768 16.829 13.1714 16.829C13.366 16.829 13.5049 16.812 13.5049 16.7883C13.5049 16.7642 13.6578 16.7476 13.8801 16.7476C14.1024 16.7476 14.2553 16.731 14.2553 16.7069C14.2553 16.6837 14.3803 16.6662 14.5471 16.6662C14.7138 16.6662 14.8389 16.6487 14.8389 16.6255C14.8389 16.6018 14.9779 16.5848 15.1724 16.5848C15.367 16.5848 15.5059 16.5678 15.5059 16.5441C15.5059 16.5208 15.631 16.5034 15.7977 16.5034C15.9645 16.5034 16.0895 16.4859 16.0895 16.4627C16.0895 16.44 16.2007 16.422 16.3397 16.422C16.4786 16.422 16.5898 16.4039 16.5898 16.3813C16.5898 16.3589 16.6836 16.3405 16.7982 16.3405C16.9129 16.3405 17.0067 16.3222 17.0067 16.2998C17.0067 16.2772 17.1179 16.2591 17.2568 16.2591C17.3957 16.2591 17.5069 16.2411 17.5069 16.2184C17.5069 16.196 17.6007 16.1777 17.7154 16.1777C17.83 16.1777 17.9238 16.1594 17.9238 16.137C17.9238 16.1146 17.9988 16.0963 18.0906 16.0963C18.1823 16.0963 18.2573 16.078 18.2573 16.0556C18.2573 16.0332 18.3511 16.0149 18.4658 16.0149C18.5804 16.0149 18.6742 15.9966 18.6742 15.9742C18.6742 15.9518 18.7492 15.9335 18.8409 15.9335C18.9327 15.9335 19.0077 15.9152 19.0077 15.8928C19.0077 15.8704 19.0827 15.8521 19.1744 15.8521C19.2662 15.8521 19.3412 15.8338 19.3412 15.8114C19.3412 15.789 19.3975 15.7707 19.4663 15.7707C19.535 15.7707 19.5913 15.7524 19.5913 15.73C19.5913 15.7076 19.6664 15.6893 19.7581 15.6893C19.8498 15.6893 19.9248 15.6709 19.9248 15.6486C19.9248 15.6262 19.9811 15.6078 20.0499 15.6078C20.1187 15.6078 20.175 15.5895 20.175 15.5671C20.175 15.5448 20.25 15.5264 20.3417 15.5264C20.4334 15.5264 20.5085 15.5081 20.5085 15.4857C20.5085 15.4633 20.5647 15.445 20.6335 15.445C20.7023 15.445 20.7586 15.4267 20.7586 15.4043C20.7586 15.3819 20.8149 15.3636 20.8836 15.3636C20.9524 15.3636 21.0087 15.3453 21.0087 15.3229C21.0087 15.3005 21.065 15.2822 21.1338 15.2822C21.2026 15.2822 21.2588 15.2639 21.2588 15.2415C21.2588 15.2191 21.3151 15.2008 21.3839 15.2008C21.4527 15.2008 21.509 15.1825 21.509 15.1601C21.509 15.1377 21.5652 15.1194 21.634 15.1194C21.7028 15.1194 21.7591 15.1011 21.7591 15.0787C21.7591 15.0563 21.7966 15.038 21.8425 15.038C21.8883 15.038 21.9258 15.0197 21.9258 14.9973C21.9258 14.9749 21.9821 14.9566 22.0509 14.9566C22.1197 14.9566 22.176 14.9382 22.176 14.9159C22.176 14.8935 22.2135 14.8751 22.2593 14.8751C22.3052 14.8751 22.3427 14.8568 22.3427 14.8344C22.3427 14.8121 22.399 14.7937 22.4678 14.7937C22.5366 14.7937 22.5928 14.7754 22.5928 14.753C22.5928 14.7306 22.6304 14.7123 22.6762 14.7123C22.7221 14.7123 22.7596 14.694 22.7596 14.6716C22.7596 14.6492 22.8159 14.6309 22.8847 14.6309C22.9534 14.6309 23.0097 14.6126 23.0097 14.5902C23.0097 14.5678 23.0472 14.5495 23.0931 14.5495C23.139 14.5495 23.1765 14.5312 23.1765 14.5088C23.1765 14.4864 23.214 14.4681 23.2599 14.4681C23.3057 14.4681 23.3432 14.4498 23.3432 14.4274C23.3432 14.405 23.3807 14.3867 23.4266 14.3867C23.4725 14.3867 23.51 14.3684 23.51 14.346C23.51 14.3236 23.5475 14.3053 23.5934 14.3053C23.6392 14.3053 23.6767 14.287 23.6767 14.2646C23.6767 14.2422 23.7289 14.2239 23.7926 14.2239C23.8606 14.2239 23.9332 14.1902 23.9685 14.1424C24.0016 14.0977 24.062 14.061 24.1028 14.061C24.1436 14.061 24.177 14.0427 24.177 14.0203C24.177 13.9979 24.2145 13.9796 24.2604 13.9796C24.3062 13.9796 24.3437 13.9613 24.3437 13.9389C24.3437 13.9165 24.3771 13.8982 24.4179 13.8982C24.4587 13.8982 24.5191 13.8616 24.5522 13.8168C24.5852 13.772 24.6456 13.7354 24.6865 13.7354C24.7272 13.7354 24.7606 13.7171 24.7606 13.6947C24.7606 13.6723 24.7906 13.654 24.8273 13.654C24.8639 13.654 24.9465 13.599 25.0107 13.5319C25.075 13.4647 25.1496 13.4097 25.1767 13.4097C25.2036 13.4097 25.2978 13.3365 25.3859 13.2469C25.4741 13.1574 25.5667 13.0841 25.5918 13.0841C25.6563 13.0841 26.2614 12.4859 26.2614 12.4221C26.2614 12.3931 26.2989 12.343 26.3448 12.3107C26.3906 12.2784 26.4281 12.2235 26.4281 12.1886C26.4281 12.1537 26.4656 12.0987 26.5115 12.0665C26.5574 12.0342 26.5949 11.9752 26.5949 11.9354C26.5949 11.8955 26.6136 11.8629 26.6366 11.8629C26.6595 11.8629 26.6783 11.808 26.6783 11.7408C26.6783 11.6737 26.697 11.6187 26.7199 11.6187C26.7429 11.6187 26.7616 11.5638 26.7616 11.4966C26.7616 11.4294 26.7804 11.3745 26.8033 11.3745C26.8288 11.3745 26.845 11.1845 26.845 10.886C26.845 10.5875 26.8288 10.3975 26.8033 10.3975C26.7804 10.3975 26.7616 10.3243 26.7616 10.2347C26.7616 10.1452 26.7429 10.0719 26.7199 10.0719C26.697 10.0719 26.6783 10.0353 26.6783 9.99049C26.6783 9.94571 26.6595 9.90908 26.6366 9.90908C26.6136 9.90908 26.5949 9.87244 26.5949 9.82767C26.5949 9.78289 26.5761 9.74625 26.5532 9.74625C26.5303 9.74625 26.5115 9.70962 26.5115 9.66484C26.5115 9.62007 26.4927 9.58343 26.4698 9.58343C26.4469 9.58343 26.4281 9.55416 26.4281 9.51834C26.4281 9.48256 26.3719 9.40193 26.3031 9.3392C26.2343 9.27647 26.178 9.20483 26.178 9.18004C26.178 9.12118 24.9839 7.95521 24.9236 7.95521C24.8982 7.95521 24.8249 7.90026 24.7606 7.8331C24.6964 7.76593 24.6213 7.71098 24.5939 7.71098C24.5664 7.71098 24.4914 7.65603 24.4271 7.58886C24.3629 7.5217 24.2844 7.46675 24.2529 7.46675C24.2213 7.46675 24.1684 7.43011 24.1353 7.38534C24.1022 7.34056 24.046 7.30392 24.0102 7.30392C23.9745 7.30392 23.9182 7.26729 23.8852 7.22251C23.8521 7.17774 23.7958 7.1411 23.7601 7.1411C23.7244 7.1411 23.6681 7.10447 23.635 7.05969C23.602 7.01492 23.5416 6.97828 23.5008 6.97828C23.46 6.97828 23.4266 6.95996 23.4266 6.93757C23.4266 6.91519 23.3932 6.89687 23.3524 6.89687C23.3116 6.89687 23.2512 6.86023 23.2182 6.81546C23.1851 6.77068 23.1247 6.73405 23.0839 6.73405C23.0431 6.73405 23.0097 6.71573 23.0097 6.69334C23.0097 6.67095 22.9722 6.65264 22.9264 6.65264C22.8805 6.65264 22.843 6.63432 22.843 6.61193C22.843 6.58954 22.8096 6.57123 22.7688 6.57123C22.728 6.57123 22.6676 6.53459 22.6345 6.48981C22.6015 6.44504 22.5411 6.4084 22.5003 6.4084C22.4595 6.4084 22.4261 6.39009 22.4261 6.3677C22.4261 6.34531 22.3886 6.32699 22.3427 6.32699C22.2969 6.32699 22.2593 6.30867 22.2593 6.28629C22.2593 6.2639 22.2218 6.24558 22.176 6.24558C22.1301 6.24558 22.0926 6.22726 22.0926 6.20488C22.0926 6.18249 22.0551 6.16417 22.0092 6.16417C21.9634 6.16417 21.9258 6.14585 21.9258 6.12347C21.9258 6.10108 21.8883 6.08276 21.8425 6.08276C21.7966 6.08276 21.7591 6.06444 21.7591 6.04205C21.7591 6.01967 21.7216 6.00135 21.6757 6.00135C21.6299 6.00135 21.5923 5.98303 21.5923 5.96064C21.5923 5.93825 21.5548 5.91994 21.509 5.91994C21.4631 5.91994 21.4256 5.90162 21.4256 5.87923C21.4256 5.85684 21.3881 5.83853 21.3422 5.83853C21.2964 5.83853 21.2588 5.82021 21.2588 5.79782C21.2588 5.77543 21.2026 5.75712 21.1338 5.75712C21.065 5.75712 21.0087 5.7388 21.0087 5.71641C21.0087 5.69402 20.9712 5.6757 20.9253 5.6757C20.8795 5.6757 20.842 5.65739 20.842 5.635C20.842 5.61261 20.8044 5.59429 20.7586 5.59429C20.7127 5.59429 20.6752 5.57598 20.6752 5.55359C20.6752 5.5312 20.6377 5.51288 20.5918 5.51288C20.546 5.51288 20.5085 5.49457 20.5085 5.47218C20.5085 5.44979 20.4709 5.43147 20.4251 5.43147C20.3792 5.43147 20.3417 5.41315 20.3417 5.39077C20.3417 5.36838 20.2854 5.35006 20.2166 5.35006C20.1479 5.35006 20.0916 5.33174 20.0916 5.30935C20.0916 5.28697 20.0541 5.26865 20.0082 5.26865C19.9623 5.26865 19.9248 5.25033 19.9248 5.22794C19.9248 5.20556 19.8873 5.18724 19.8414 5.18724C19.7956 5.18724 19.7581 5.16892 19.7581 5.14653C19.7581 5.12415 19.7206 5.10583 19.6747 5.10583C19.6288 5.10583 19.5913 5.08751 19.5913 5.06512C19.5913 5.04273 19.535 5.02442 19.4663 5.02442C19.3975 5.02442 19.3412 5.04273 19.3412 5.06512ZM19.3412 18.8061C19.3412 18.8507 19.4607 18.9457 19.5166 18.9457C19.5476 18.9457 19.6 18.9823 19.633 19.0271C19.6661 19.0719 19.7265 19.1085 19.7673 19.1085C19.8081 19.1085 19.8414 19.1268 19.8414 19.1492C19.8414 19.1716 19.879 19.1899 19.9248 19.1899C19.9707 19.1899 20.0082 19.2082 20.0082 19.2306C20.0082 19.253 20.0416 19.2713 20.0824 19.2713C20.1232 19.2713 20.1836 19.308 20.2166 19.3528C20.2497 19.3975 20.3101 19.4342 20.3509 19.4342C20.3917 19.4342 20.4251 19.4525 20.4251 19.4749C20.4251 19.4973 20.4585 19.5156 20.4992 19.5156C20.5401 19.5156 20.6005 19.5522 20.6335 19.597C20.6666 19.6418 20.7229 19.6784 20.7586 19.6784C20.7943 19.6784 20.8506 19.715 20.8836 19.7598C20.9167 19.8046 20.9771 19.8412 21.0179 19.8412C21.0587 19.8412 21.0921 19.8595 21.0921 19.8819C21.0921 19.9043 21.1221 19.9226 21.1587 19.9226C21.1954 19.9226 21.278 19.9776 21.3422 20.0447C21.4065 20.1119 21.4849 20.1669 21.5165 20.1669C21.5481 20.1669 21.601 20.2035 21.634 20.2483C21.6671 20.2931 21.72 20.3297 21.7516 20.3297C21.7831 20.3297 21.8616 20.3846 21.9258 20.4518C21.9901 20.519 22.0647 20.5739 22.0918 20.5739C22.1187 20.5739 22.2129 20.6472 22.301 20.7367C22.3892 20.8263 22.4817 20.8996 22.5066 20.8996C22.571 20.8996 23.6767 21.987 23.6767 22.0503C23.6767 22.0792 23.7143 22.1292 23.7601 22.1614C23.806 22.1937 23.8435 22.2487 23.8435 22.2835C23.8435 22.3184 23.881 22.3734 23.9269 22.4057C23.9727 22.4379 24.0102 22.4969 24.0102 22.5368C24.0102 22.5766 24.029 22.6092 24.0519 22.6092C24.0749 22.6092 24.0936 22.6458 24.0936 22.6906C24.0936 22.7354 24.1124 22.772 24.1353 22.772C24.1582 22.772 24.177 22.827 24.177 22.8941C24.177 22.9613 24.1957 23.0162 24.2187 23.0162C24.2441 23.0162 24.2604 23.2062 24.2604 23.5047C24.2604 23.8032 24.2441 23.9932 24.2187 23.9932C24.1957 23.9932 24.177 24.0298 24.177 24.0746C24.177 24.1194 24.1582 24.156 24.1353 24.156C24.1124 24.156 24.0936 24.1886 24.0936 24.2284C24.0936 24.2683 24.0561 24.3272 24.0102 24.3595C23.9644 24.3918 23.9269 24.4422 23.9269 24.4716C23.9269 24.537 23.6561 24.8073 23.5906 24.8073C23.5647 24.8073 23.4908 24.8622 23.4266 24.9294C23.3624 24.9966 23.2839 25.0515 23.2523 25.0515C23.2208 25.0515 23.1678 25.0882 23.1348 25.1329C23.1017 25.1777 23.0413 25.2143 23.0005 25.2143C22.9597 25.2143 22.9264 25.2327 22.9264 25.2551C22.9264 25.2774 22.8888 25.2958 22.843 25.2958C22.7971 25.2958 22.7596 25.3141 22.7596 25.3365C22.7596 25.3589 22.7221 25.3772 22.6762 25.3772C22.6304 25.3772 22.5928 25.3955 22.5928 25.4179C22.5928 25.4403 22.5366 25.4586 22.4678 25.4586C22.399 25.4586 22.3427 25.4769 22.3427 25.4993C22.3427 25.5217 22.3052 25.54 22.2593 25.54C22.2135 25.54 22.176 25.5583 22.176 25.5807C22.176 25.6031 22.1197 25.6214 22.0509 25.6214C21.9821 25.6214 21.9258 25.6397 21.9258 25.6621C21.9258 25.6845 21.8696 25.7028 21.8008 25.7028C21.732 25.7028 21.6757 25.7211 21.6757 25.7435C21.6757 25.7659 21.6382 25.7842 21.5923 25.7842C21.5465 25.7842 21.509 25.8025 21.509 25.8249C21.509 25.8473 21.4527 25.8656 21.3839 25.8656C21.3151 25.8656 21.2588 25.884 21.2588 25.9063C21.2588 25.9287 21.2026 25.947 21.1338 25.947C21.065 25.947 21.0087 25.9654 21.0087 25.9877C21.0087 26.0101 20.9337 26.0285 20.842 26.0285C20.7502 26.0285 20.6752 26.0468 20.6752 26.0692C20.6752 26.0915 20.6002 26.1099 20.5085 26.1099C20.4167 26.1099 20.3417 26.1282 20.3417 26.1506C20.3417 26.173 20.2667 26.1913 20.175 26.1913C20.0832 26.1913 20.0082 26.2096 20.0082 26.232C20.0082 26.2544 19.9332 26.2727 19.8414 26.2727C19.7497 26.2727 19.6747 26.291 19.6747 26.3134C19.6747 26.3358 19.5809 26.3541 19.4663 26.3541C19.3516 26.3541 19.2578 26.3724 19.2578 26.3948C19.2578 26.4172 19.164 26.4355 19.0494 26.4355C18.9347 26.4355 18.8409 26.4538 18.8409 26.4762C18.8409 26.4988 18.7298 26.5169 18.5908 26.5169C18.4519 26.5169 18.3407 26.535 18.3407 26.5576C18.3407 26.5809 18.2156 26.5983 18.0489 26.5983C17.8821 26.5983 17.7571 26.6158 17.7571 26.639C17.7571 26.6623 17.632 26.6797 17.4652 26.6797C17.2985 26.6797 17.1734 26.6972 17.1734 26.7204C17.1734 26.7446 17.0206 26.7612 16.7982 26.7612C16.5759 26.7612 16.423 26.7777 16.423 26.8019C16.423 26.8265 16.2424 26.8426 15.9645 26.8426C15.6865 26.8426 15.5059 26.8586 15.5059 26.8833C15.5059 26.9081 15.3114 26.924 15.0057 26.924C14.7 26.924 14.5054 26.9398 14.5054 26.9647C14.5054 26.989 14.3446 27.0054 14.1064 27.0054C13.8162 27.0054 13.6912 27.0212 13.6478 27.0636C13.5981 27.1121 13.5883 27.4016 13.5883 28.8139V30.5061H13.9635C14.1858 30.5061 14.3387 30.4895 14.3387 30.4654C14.3387 30.4416 14.4776 30.4247 14.6722 30.4247C14.8667 30.4247 15.0057 30.4077 15.0057 30.3839C15.0057 30.3607 15.1307 30.3432 15.2975 30.3432C15.4642 30.3432 15.5893 30.3258 15.5893 30.3025C15.5893 30.2799 15.7005 30.2618 15.8394 30.2618C15.9784 30.2618 16.0895 30.2438 16.0895 30.2211C16.0895 30.1985 16.2007 30.1804 16.3397 30.1804C16.4786 30.1804 16.5898 30.1623 16.5898 30.1397C16.5898 30.1173 16.6836 30.099 16.7982 30.099C16.9129 30.099 17.0067 30.0807 17.0067 30.0583C17.0067 30.0357 17.1179 30.0176 17.2568 30.0176C17.3957 30.0176 17.5069 29.9995 17.5069 29.9769C17.5069 29.9545 17.582 29.9362 17.6737 29.9362C17.7654 29.9362 17.8404 29.9179 17.8404 29.8955C17.8404 29.8731 17.9342 29.8548 18.0489 29.8548C18.1635 29.8548 18.2573 29.8365 18.2573 29.8141C18.2573 29.7917 18.3323 29.7734 18.4241 29.7734C18.5158 29.7734 18.5908 29.755 18.5908 29.7327C18.5908 29.7103 18.6659 29.6919 18.7576 29.6919C18.8493 29.6919 18.9243 29.6736 18.9243 29.6512C18.9243 29.6289 18.9994 29.6105 19.0911 29.6105C19.1828 29.6105 19.2578 29.5922 19.2578 29.5698C19.2578 29.5474 19.3329 29.5291 19.4246 29.5291C19.5163 29.5291 19.5913 29.5108 19.5913 29.4884C19.5913 29.466 19.6664 29.4477 19.7581 29.4477C19.8498 29.4477 19.9248 29.4294 19.9248 29.407C19.9248 29.3846 19.9811 29.3663 20.0499 29.3663C20.1187 29.3663 20.175 29.348 20.175 29.3256C20.175 29.3032 20.2312 29.2849 20.3 29.2849C20.3688 29.2849 20.4251 29.2666 20.4251 29.2442C20.4251 29.2218 20.5001 29.2035 20.5918 29.2035C20.6835 29.2035 20.7586 29.1852 20.7586 29.1628C20.7586 29.1404 20.8149 29.1221 20.8836 29.1221C20.9524 29.1221 21.0087 29.1038 21.0087 29.0814C21.0087 29.059 21.065 29.0407 21.1338 29.0407C21.2026 29.0407 21.2588 29.0223 21.2588 29C21.2588 28.9776 21.3151 28.9593 21.3839 28.9593C21.4527 28.9593 21.509 28.9409 21.509 28.9185C21.509 28.8962 21.5465 28.8778 21.5923 28.8778C21.6382 28.8778 21.6757 28.8595 21.6757 28.8371C21.6757 28.8147 21.732 28.7964 21.8008 28.7964C21.8696 28.7964 21.9258 28.7781 21.9258 28.7557C21.9258 28.7333 21.9821 28.715 22.0509 28.715C22.1197 28.715 22.176 28.6967 22.176 28.6743C22.176 28.6519 22.2135 28.6336 22.2593 28.6336C22.3052 28.6336 22.3427 28.6153 22.3427 28.5929C22.3427 28.5705 22.399 28.5522 22.4678 28.5522C22.5366 28.5522 22.5928 28.5339 22.5928 28.5115C22.5928 28.4891 22.6304 28.4708 22.6762 28.4708C22.7221 28.4708 22.7596 28.4525 22.7596 28.4301C22.7596 28.4077 22.8159 28.3894 22.8847 28.3894C22.9534 28.3894 23.0097 28.3711 23.0097 28.3487C23.0097 28.3263 23.0472 28.308 23.0931 28.308C23.139 28.308 23.1765 28.2896 23.1765 28.2673C23.1765 28.2449 23.214 28.2266 23.2599 28.2266C23.3057 28.2266 23.3432 28.2082 23.3432 28.1858C23.3432 28.1635 23.3807 28.1451 23.4266 28.1451C23.4725 28.1451 23.51 28.1268 23.51 28.1044C23.51 28.082 23.5475 28.0637 23.5934 28.0637C23.6392 28.0637 23.6767 28.0454 23.6767 28.023C23.6767 28.0006 23.7143 27.9823 23.7601 27.9823C23.806 27.9823 23.8435 27.964 23.8435 27.9416C23.8435 27.9192 23.881 27.9009 23.9269 27.9009C23.9727 27.9009 24.0102 27.8826 24.0102 27.8602C24.0102 27.8378 24.0478 27.8195 24.0936 27.8195C24.1395 27.8195 24.177 27.8012 24.177 27.7788C24.177 27.7564 24.2104 27.7381 24.2511 27.7381C24.292 27.7381 24.3524 27.7015 24.3854 27.6567C24.4185 27.6119 24.4789 27.5753 24.5197 27.5753C24.5605 27.5753 24.5939 27.5569 24.5939 27.5346C24.5939 27.5122 24.6273 27.4939 24.668 27.4939C24.7088 27.4939 24.7692 27.4572 24.8023 27.4124C24.8354 27.3677 24.8883 27.331 24.9199 27.331C24.9514 27.331 25.0299 27.2761 25.0941 27.2089C25.1584 27.1418 25.2326 27.0868 25.2591 27.0868C25.2855 27.0868 25.4177 26.9769 25.5527 26.8426C25.6877 26.7082 25.8193 26.5983 25.8452 26.5983C25.9063 26.5983 26.0113 26.4952 26.0113 26.4352C26.0113 26.4095 26.0863 26.318 26.178 26.232C26.2697 26.1459 26.3448 26.0507 26.3448 26.0203C26.3448 25.9899 26.3823 25.9386 26.4281 25.9063C26.474 25.8741 26.5115 25.8151 26.5115 25.7752C26.5115 25.7354 26.5303 25.7028 26.5532 25.7028C26.5761 25.7028 26.5949 25.6662 26.5949 25.6214C26.5949 25.5766 26.6136 25.54 26.6366 25.54C26.6595 25.54 26.6783 25.485 26.6783 25.4179C26.6783 25.3507 26.697 25.2958 26.7199 25.2958C26.7429 25.2958 26.7616 25.2042 26.7616 25.0922C26.7616 24.9803 26.7804 24.8887 26.8033 24.8887C26.8263 24.8887 26.845 24.7971 26.845 24.6852C26.845 24.5732 26.8263 24.4816 26.8033 24.4816C26.7804 24.4816 26.7616 24.3901 26.7616 24.2781C26.7616 24.1662 26.7429 24.0746 26.7199 24.0746C26.697 24.0746 26.6783 24.0196 26.6783 23.9525C26.6783 23.8853 26.6595 23.8304 26.6366 23.8304C26.6136 23.8304 26.5949 23.7754 26.5949 23.7082C26.5949 23.6411 26.5761 23.5861 26.5532 23.5861C26.5303 23.5861 26.5115 23.5495 26.5115 23.5047C26.5115 23.4599 26.4927 23.4233 26.4698 23.4233C26.4469 23.4233 26.4281 23.3907 26.4281 23.3509C26.4281 23.311 26.3906 23.2521 26.3448 23.2198C26.2989 23.1875 26.2614 23.1358 26.2614 23.105C26.2614 23.0742 26.2051 22.9976 26.1363 22.9348C26.0675 22.8721 26.0113 22.8004 26.0113 22.7755C26.0113 22.717 25.2346 21.9579 25.1747 21.9579C25.1497 21.9579 25.0572 21.8846 24.9691 21.7951C24.8809 21.7055 24.7868 21.6323 24.7598 21.6323C24.7328 21.6323 24.6581 21.5773 24.5939 21.5101C24.5296 21.443 24.4512 21.388 24.4196 21.388C24.388 21.388 24.3351 21.3514 24.302 21.3066C24.269 21.2618 24.2127 21.2252 24.177 21.2252C24.1413 21.2252 24.085 21.1886 24.0519 21.1438C24.0189 21.099 23.9626 21.0624 23.9269 21.0624C23.8911 21.0624 23.8349 21.0257 23.8018 20.981C23.7687 20.9362 23.7125 20.8996 23.6767 20.8996C23.641 20.8996 23.5847 20.8629 23.5517 20.8182C23.5186 20.7734 23.4582 20.7367 23.4174 20.7367C23.3766 20.7367 23.3432 20.7184 23.3432 20.696C23.3432 20.6736 23.3098 20.6553 23.2691 20.6553C23.2283 20.6553 23.1678 20.6187 23.1348 20.5739C23.1017 20.5291 23.0413 20.4925 23.0005 20.4925C22.9597 20.4925 22.9264 20.4742 22.9264 20.4518C22.9264 20.4294 22.8888 20.4111 22.843 20.4111C22.7971 20.4111 22.7596 20.3928 22.7596 20.3704C22.7596 20.348 22.7262 20.3297 22.6854 20.3297C22.6446 20.3297 22.5842 20.2931 22.5512 20.2483C22.5181 20.2035 22.4577 20.1669 22.4169 20.1669C22.3761 20.1669 22.3427 20.1485 22.3427 20.1262C22.3427 20.1038 22.3052 20.0855 22.2593 20.0855C22.2135 20.0855 22.176 20.0671 22.176 20.0447C22.176 20.0224 22.1385 20.004 22.0926 20.004C22.0467 20.004 22.0092 19.9857 22.0092 19.9633C22.0092 19.9409 21.9717 19.9226 21.9258 19.9226C21.88 19.9226 21.8425 19.9043 21.8425 19.8819C21.8425 19.8595 21.8049 19.8412 21.7591 19.8412C21.7132 19.8412 21.6757 19.8229 21.6757 19.8005C21.6757 19.7781 21.6382 19.7598 21.5923 19.7598C21.5465 19.7598 21.509 19.7415 21.509 19.7191C21.509 19.6967 21.4714 19.6784 21.4256 19.6784C21.3797 19.6784 21.3422 19.6601 21.3422 19.6377C21.3422 19.6153 21.3047 19.597 21.2588 19.597C21.213 19.597 21.1755 19.5787 21.1755 19.5563C21.1755 19.5339 21.1379 19.5156 21.0921 19.5156C21.0462 19.5156 21.0087 19.4973 21.0087 19.4749C21.0087 19.4525 20.9524 19.4342 20.8836 19.4342C20.8149 19.4342 20.7586 19.4158 20.7586 19.3935C20.7586 19.3711 20.7211 19.3528 20.6752 19.3528C20.6294 19.3528 20.5918 19.3344 20.5918 19.312C20.5918 19.2897 20.5543 19.2713 20.5085 19.2713C20.4626 19.2713 20.4251 19.253 20.4251 19.2306C20.4251 19.2082 20.3876 19.1899 20.3417 19.1899C20.2958 19.1899 20.2583 19.1716 20.2583 19.1492C20.2583 19.1268 20.202 19.1085 20.1333 19.1085C20.0645 19.1085 20.0082 19.0902 20.0082 19.0678C20.0082 19.0454 19.9707 19.0271 19.9248 19.0271C19.879 19.0271 19.8414 19.0088 19.8414 18.9864C19.8414 18.964 19.8039 18.9457 19.7581 18.9457C19.7122 18.9457 19.6747 18.9274 19.6747 18.905C19.6747 18.8826 19.6184 18.8643 19.5496 18.8643C19.4809 18.8643 19.4246 18.846 19.4246 18.8236C19.4246 18.8012 19.4058 18.7829 19.3829 18.7829C19.36 18.7829 19.3412 18.7933 19.3412 18.8061ZM12.1709 33.1519C12.1709 33.1743 12.0958 33.1926 12.0041 33.1926C11.9124 33.1926 11.8374 33.2109 11.8374 33.2333C11.8374 33.2557 11.7811 33.274 11.7123 33.274C11.6435 33.274 11.5873 33.2924 11.5873 33.3147C11.5873 33.3371 11.531 33.3554 11.4622 33.3554C11.3934 33.3554 11.3371 33.3738 11.3371 33.3962C11.3371 33.4185 11.2996 33.4369 11.2538 33.4369C11.2079 33.4369 11.1704 33.4552 11.1704 33.4776C11.1704 33.5 11.137 33.5183 11.0962 33.5183C11.0554 33.5183 10.995 33.5549 10.9619 33.5997C10.9289 33.6445 10.8726 33.6811 10.8369 33.6811C10.8011 33.6811 10.7449 33.7177 10.7118 33.7625C10.6788 33.8073 10.6274 33.8439 10.5976 33.8439C10.5271 33.8439 10.0031 34.3556 10.0031 34.4244C10.0031 34.4534 9.9656 34.5036 9.91974 34.5359C9.87389 34.5682 9.83637 34.6231 9.83637 34.658C9.83637 34.6929 9.79885 34.7479 9.75299 34.7801C9.70713 34.8124 9.66961 34.8714 9.66961 34.9113C9.66961 34.9511 9.65086 34.9837 9.62793 34.9837C9.605 34.9837 9.58624 35.0203 9.58624 35.0651C9.58624 35.1099 9.56748 35.1465 9.54455 35.1465C9.52162 35.1465 9.50286 35.1831 9.50286 35.2279C9.50286 35.2727 9.4841 35.3093 9.46117 35.3093C9.43825 35.3093 9.41949 35.3643 9.41949 35.4314C9.41949 35.4986 9.40073 35.5535 9.3778 35.5535C9.35487 35.5535 9.33611 35.6085 9.33611 35.6757C9.33611 35.7428 9.31735 35.7978 9.29442 35.7978C9.2715 35.7978 9.25274 35.871 9.25274 35.9606C9.25274 36.0502 9.23398 36.1234 9.21105 36.1234C9.18478 36.1234 9.16936 36.3948 9.16936 36.8561C9.16936 37.3174 9.18478 37.5888 9.21105 37.5888C9.23398 37.5888 9.25274 37.6804 9.25274 37.7923C9.25274 37.9043 9.2715 37.9959 9.29442 37.9959C9.31735 37.9959 9.33611 38.0691 9.33611 38.1587C9.33611 38.2482 9.35487 38.3215 9.3778 38.3215C9.40073 38.3215 9.41949 38.3582 9.41949 38.4029C9.41949 38.4477 9.43825 38.4843 9.46117 38.4843C9.4841 38.4843 9.50286 38.521 9.50286 38.5658C9.50286 38.6105 9.52162 38.6472 9.54455 38.6472C9.56748 38.6472 9.58624 38.6838 9.58624 38.7286C9.58624 38.7733 9.605 38.81 9.62793 38.81C9.65086 38.81 9.66961 38.8466 9.66961 38.8914C9.66961 38.9362 9.68837 38.9728 9.7113 38.9728C9.73423 38.9728 9.75299 39.0005 9.75299 39.0344C9.75299 39.1091 10.6055 39.9497 10.6813 39.9497C10.7109 39.9497 10.7621 39.9864 10.7952 40.0311C10.8282 40.0759 10.8887 40.1126 10.9295 40.1126C10.9702 40.1126 11.0036 40.1309 11.0036 40.1533C11.0036 40.1757 11.0411 40.194 11.087 40.194C11.1329 40.194 11.1704 40.2123 11.1704 40.2347C11.1704 40.2571 11.2267 40.2754 11.2954 40.2754C11.3642 40.2754 11.4205 40.2937 11.4205 40.3161C11.4205 40.3385 11.4768 40.3568 11.5456 40.3568C11.6144 40.3568 11.6706 40.3751 11.6706 40.3975C11.6706 40.4199 11.7457 40.4382 11.8374 40.4382C11.9291 40.4382 12.0041 40.4565 12.0041 40.4789C12.0041 40.5043 12.2543 40.5196 12.6711 40.5196C13.088 40.5196 13.3381 40.5043 13.3381 40.4789C13.3381 40.4565 13.4132 40.4382 13.5049 40.4382C13.5966 40.4382 13.6716 40.4199 13.6716 40.3975C13.6716 40.3751 13.7279 40.3568 13.7967 40.3568C13.8655 40.3568 13.9218 40.3385 13.9218 40.3161C13.9218 40.2937 13.9781 40.2754 14.0468 40.2754C14.1156 40.2754 14.1719 40.2571 14.1719 40.2347C14.1719 40.2123 14.2053 40.194 14.2461 40.194C14.2869 40.194 14.3473 40.1573 14.3803 40.1126C14.4134 40.0678 14.4663 40.0311 14.4979 40.0311C14.5295 40.0311 14.6079 39.9762 14.6722 39.909C14.7364 39.8419 14.8102 39.7869 14.8362 39.7869C14.8976 39.7869 15.1724 39.5185 15.1724 39.4586C15.1724 39.4333 15.2287 39.3612 15.2975 39.2985C15.3663 39.2357 15.4225 39.1591 15.4225 39.1283C15.4225 39.0974 15.4601 39.0458 15.5059 39.0135C15.5549 38.979 15.5893 38.9081 15.5893 38.8417C15.5893 38.7795 15.608 38.7286 15.631 38.7286C15.6539 38.7286 15.6727 38.7103 15.6727 38.6879C15.6727 38.5673 15.4912 38.7003 15.0057 39.1763C14.7088 39.4674 14.4373 39.7055 14.4023 39.7055C14.3673 39.7055 14.3387 39.7238 14.3387 39.7462C14.3387 39.7686 14.3011 39.7869 14.2553 39.7869C14.2094 39.7869 14.1719 39.8052 14.1719 39.8276C14.1719 39.85 14.1344 39.8683 14.0885 39.8683C14.0427 39.8683 14.0052 39.8866 14.0052 39.909C14.0052 39.9314 13.9489 39.9497 13.8801 39.9497C13.8113 39.9497 13.755 39.9681 13.755 39.9904C13.755 40.0159 13.5049 40.0311 13.088 40.0311C12.6711 40.0311 12.421 40.0159 12.421 39.9904C12.421 39.9681 12.346 39.9497 12.2543 39.9497C12.1625 39.9497 12.0875 39.9314 12.0875 39.909C12.0875 39.8866 12.05 39.8683 12.0041 39.8683C11.9583 39.8683 11.9208 39.85 11.9208 39.8276C11.9208 39.8052 11.8832 39.7869 11.8374 39.7869C11.7915 39.7869 11.754 39.7686 11.754 39.7462C11.754 39.7238 11.724 39.7055 11.6873 39.7055C11.6507 39.7055 11.5681 39.6506 11.5039 39.5834C11.4396 39.5162 11.3651 39.4613 11.3383 39.4613C11.2753 39.4613 11.1704 39.3588 11.1704 39.2974C11.1704 39.2711 11.1141 39.1984 11.0453 39.1356C10.9765 39.0729 10.9202 38.9923 10.9202 38.9565C10.9202 38.9207 10.9015 38.8914 10.8786 38.8914C10.8556 38.8914 10.8369 38.8548 10.8369 38.81C10.8369 38.7652 10.8181 38.7286 10.7952 38.7286C10.7723 38.7286 10.7535 38.6919 10.7535 38.6472C10.7535 38.6024 10.7347 38.5658 10.7118 38.5658C10.6889 38.5658 10.6701 38.5108 10.6701 38.4436C10.6701 38.3765 10.6514 38.3215 10.6284 38.3215C10.6055 38.3215 10.5867 38.2849 10.5867 38.2401C10.5867 38.1953 10.568 38.1587 10.5451 38.1587C10.5221 38.1587 10.5034 38.0854 10.5034 37.9959C10.5034 37.9063 10.4846 37.833 10.4617 37.833C10.4388 37.833 10.42 37.7415 10.42 37.6295C10.42 37.5176 10.4012 37.426 10.3783 37.426C10.3524 37.426 10.3366 37.1953 10.3366 36.8154C10.3366 36.4355 10.3524 36.2048 10.3783 36.2048C10.4012 36.2048 10.42 36.1132 10.42 36.0013C10.42 35.8894 10.4388 35.7978 10.4617 35.7978C10.4846 35.7978 10.5034 35.7245 10.5034 35.635C10.5034 35.5454 10.5221 35.4721 10.5451 35.4721C10.568 35.4721 10.5867 35.4172 10.5867 35.35C10.5867 35.2829 10.6055 35.2279 10.6284 35.2279C10.6514 35.2279 10.6701 35.1913 10.6701 35.1465C10.6701 35.1017 10.6889 35.0651 10.7118 35.0651C10.7347 35.0651 10.7535 35.0284 10.7535 34.9837C10.7535 34.9389 10.7723 34.9023 10.7952 34.9023C10.8181 34.9023 10.8369 34.8656 10.8369 34.8208C10.8369 34.7761 10.8556 34.7394 10.8786 34.7394C10.9015 34.7394 10.9202 34.7028 10.9202 34.658C10.9202 34.6132 10.939 34.5766 10.9619 34.5766C10.9849 34.5766 11.0036 34.544 11.0036 34.5042C11.0036 34.4643 11.0411 34.4054 11.087 34.3731C11.1329 34.3408 11.1704 34.2904 11.1704 34.261C11.1704 34.1915 11.443 33.9253 11.5141 33.9253C11.5442 33.9253 11.5959 33.8887 11.6289 33.8439C11.662 33.7991 11.7224 33.7625 11.7632 33.7625C11.804 33.7625 11.8374 33.7442 11.8374 33.7218C11.8374 33.6994 11.8749 33.6811 11.9208 33.6811C11.9666 33.6811 12.0041 33.6628 12.0041 33.6404C12.0041 33.618 12.0604 33.5997 12.1292 33.5997C12.198 33.5997 12.2543 33.5814 12.2543 33.559C12.2543 33.5366 12.3481 33.5183 12.4627 33.5183C12.5773 33.5183 12.6711 33.5 12.6711 33.4776C12.6711 33.4543 12.7962 33.4369 12.963 33.4369C13.1297 33.4369 13.2548 33.4543 13.2548 33.4776C13.2548 33.5 13.3486 33.5183 13.4632 33.5183C13.5779 33.5183 13.6716 33.5366 13.6716 33.559C13.6716 33.5814 13.7092 33.5997 13.755 33.5997C13.8009 33.5997 13.8384 33.618 13.8384 33.6404C13.8384 33.6628 13.8759 33.6811 13.9218 33.6811C13.9676 33.6811 14.0052 33.6994 14.0052 33.7218C14.0052 33.7442 14.0427 33.7625 14.0885 33.7625C14.1344 33.7625 14.1719 33.7808 14.1719 33.8032C14.1719 33.8256 14.2004 33.8439 14.2352 33.8439C14.3122 33.8439 14.8389 34.3503 14.8389 34.4244C14.8389 34.4534 14.8764 34.5036 14.9223 34.5359C14.9681 34.5682 15.0057 34.6272 15.0057 34.667C15.0057 34.7068 15.0244 34.7394 15.0473 34.7394C15.0703 34.7394 15.089 34.7761 15.089 34.8208C15.089 34.8656 15.1078 34.9023 15.1307 34.9023C15.1537 34.9023 15.1724 34.9389 15.1724 34.9837C15.1724 35.0284 15.1912 35.0651 15.2141 35.0651C15.237 35.0651 15.2558 35.12 15.2558 35.1872C15.2558 35.2544 15.2745 35.3093 15.2975 35.3093C15.3204 35.3093 15.3392 35.3381 15.3392 35.3733C15.3392 35.435 15.4332 35.5535 15.4821 35.5535C15.4952 35.5535 15.5059 35.2971 15.5059 34.9837C15.5059 34.6309 15.49 34.4138 15.4642 34.4138C15.4386 34.4138 15.4225 34.2103 15.4225 33.8846C15.4225 33.559 15.4065 33.3554 15.3808 33.3554C15.3579 33.3554 15.3392 33.3188 15.3392 33.274C15.3392 33.2278 15.3114 33.1926 15.2748 33.1926C15.1913 33.1926 15.0057 33.3739 15.0057 33.4554C15.0057 33.4911 14.9697 33.5183 14.9223 33.5183C14.8764 33.5183 14.8389 33.5366 14.8389 33.559C14.8389 33.5814 14.7826 33.5997 14.7138 33.5997C14.6451 33.5997 14.5888 33.5814 14.5888 33.559C14.5888 33.5366 14.5513 33.5183 14.5054 33.5183C14.4595 33.5183 14.422 33.5 14.422 33.4776C14.422 33.4552 14.3845 33.4369 14.3387 33.4369C14.2928 33.4369 14.2553 33.4185 14.2553 33.3962C14.2553 33.3738 14.199 33.3554 14.1302 33.3554C14.0614 33.3554 14.0052 33.3371 14.0052 33.3147C14.0052 33.2924 13.9489 33.274 13.8801 33.274C13.8113 33.274 13.755 33.2557 13.755 33.2333C13.755 33.2109 13.68 33.1926 13.5883 33.1926C13.4966 33.1926 13.4215 33.1743 13.4215 33.1519C13.4215 33.1266 13.1853 33.1112 12.7962 33.1112C12.4071 33.1112 12.1709 33.1266 12.1709 33.1519ZM0.665039 33.3554C0.665039 33.4188 0.692845 33.4369 0.790103 33.4369C0.858888 33.4369 0.915166 33.4552 0.915166 33.4776C0.915166 33.5 0.990204 33.5183 1.08192 33.5183C1.17363 33.5183 1.24867 33.5366 1.24867 33.559C1.24867 33.5814 1.28619 33.5997 1.33204 33.5997C1.3779 33.5997 1.41542 33.618 1.41542 33.6404C1.41542 33.6628 1.45294 33.6811 1.4988 33.6811C1.54465 33.6811 1.58217 33.6994 1.58217 33.7218C1.58217 33.7442 1.61094 33.7625 1.64608 33.7625C1.72908 33.7625 1.99905 34.0261 1.99905 34.1072C1.99905 34.1415 2.01781 34.1696 2.04074 34.1696C2.06813 34.1696 2.08243 35.1193 2.08243 36.9375C2.08243 38.7557 2.06813 39.7055 2.04074 39.7055C2.01781 39.7055 1.99905 39.7421 1.99905 39.7869C1.99905 39.8317 1.98029 39.8683 1.95736 39.8683C1.93443 39.8683 1.91567 39.905 1.91567 39.9497C1.91567 40.004 1.88787 40.0311 1.8323 40.0311C1.78644 40.0311 1.74892 40.0495 1.74892 40.0719C1.74892 40.0942 1.69264 40.1126 1.62386 40.1126C1.55507 40.1126 1.4988 40.1309 1.4988 40.1533C1.4988 40.1757 1.405 40.194 1.29036 40.194C1.10972 40.194 1.08192 40.2048 1.08192 40.2754C1.08192 40.355 1.10972 40.3568 2.33255 40.3568C3.55538 40.3568 3.58319 40.355 3.58319 40.2754C3.58319 40.2048 3.55538 40.194 3.37475 40.194C3.26011 40.194 3.16631 40.1757 3.16631 40.1533C3.16631 40.1309 3.09982 40.1126 3.01853 40.1126C2.83994 40.1126 2.66606 39.9628 2.66606 39.8091C2.66606 39.7521 2.6473 39.7055 2.62437 39.7055C2.59702 39.7055 2.58268 38.8642 2.58268 37.2632C2.58268 35.9199 2.59339 34.8208 2.60648 34.8208C2.6488 34.8208 2.74943 34.9357 2.74943 34.984C2.74943 35.0097 2.82447 35.1011 2.91618 35.1872C3.0079 35.2732 3.08293 35.3646 3.08293 35.3902C3.08293 35.4158 3.17673 35.5259 3.29137 35.635C3.40602 35.744 3.49981 35.8542 3.49981 35.8797C3.49981 35.9053 3.57485 35.9967 3.66656 36.0827C3.75828 36.1688 3.83332 36.2601 3.83332 36.2857C3.83332 36.3113 3.92711 36.4214 4.04175 36.5305C4.1564 36.6395 4.25019 36.7497 4.25019 36.7752C4.25019 36.8008 4.32523 36.8922 4.41695 36.9782C4.50866 37.0643 4.5837 37.1556 4.5837 37.1812C4.5837 37.2068 4.67749 37.3169 4.79214 37.426C4.90678 37.535 5.00058 37.6452 5.00058 37.6708C5.00058 37.6964 5.07561 37.7877 5.16733 37.8738C5.25904 37.9598 5.33408 38.0512 5.33408 38.0768C5.33408 38.1023 5.42788 38.2125 5.54252 38.3215C5.65716 38.4306 5.75096 38.5407 5.75096 38.5663C5.75096 38.5919 5.82599 38.6832 5.91771 38.7693C6.00942 38.8553 6.08446 38.9467 6.08446 38.9723C6.08446 38.9978 6.17826 39.108 6.2929 39.217C6.40754 39.3261 6.50134 39.4362 6.50134 39.4618C6.50134 39.4874 6.57638 39.5787 6.66809 39.6648C6.7598 39.7509 6.83484 39.8413 6.83484 39.8658C6.83484 39.8903 6.97604 40.0482 7.14867 40.2168C7.42497 40.4866 7.46979 40.516 7.52386 40.4632C7.57688 40.4115 7.58522 39.9573 7.58522 37.1236C7.58522 34.9643 7.59948 33.8439 7.62691 33.8439C7.64984 33.8439 7.6686 33.8156 7.6686 33.781C7.6686 33.6821 7.86236 33.5183 7.97938 33.5183C8.03774 33.5183 8.08548 33.5 8.08548 33.4776C8.08548 33.4549 8.19666 33.4369 8.3356 33.4369C8.55792 33.4369 8.58573 33.4278 8.58573 33.3554C8.58573 33.2758 8.55792 33.274 7.33509 33.274C6.11227 33.274 6.08446 33.2758 6.08446 33.3554C6.08446 33.4278 6.11227 33.4369 6.33459 33.4369C6.47353 33.4369 6.58471 33.4549 6.58471 33.4776C6.58471 33.5 6.62223 33.5183 6.66809 33.5183C6.71395 33.5183 6.75147 33.5366 6.75147 33.559C6.75147 33.5814 6.78898 33.5997 6.83484 33.5997C6.89041 33.5997 6.91822 33.6268 6.91822 33.6811C6.91822 33.7259 6.93698 33.7625 6.9599 33.7625C6.98283 33.7625 7.00159 33.8358 7.00159 33.9253C7.00159 34.0149 7.02035 34.0881 7.04328 34.0881C7.07054 34.0881 7.08497 34.848 7.08497 36.2862C7.08497 37.4952 7.07517 38.4843 7.06321 38.4843C7.02077 38.4843 6.58471 38.0376 6.58471 37.9941C6.58471 37.9698 6.49092 37.8607 6.37627 37.7516C6.26163 37.6426 6.16784 37.5324 6.16784 37.5069C6.16784 37.4813 6.0928 37.3899 6.00108 37.3039C5.90937 37.2178 5.83433 37.1262 5.83433 37.1004C5.83433 37.0745 5.75929 36.9829 5.66758 36.8968C5.57587 36.8108 5.50083 36.7194 5.50083 36.6938C5.50083 36.6683 5.40703 36.5581 5.29239 36.4491C5.17775 36.34 5.08395 36.2299 5.08395 36.2043C5.08395 36.1787 5.00891 36.0874 4.9172 36.0013C4.82549 35.9153 4.75045 35.8239 4.75045 35.7983C4.75045 35.7727 4.65665 35.6626 4.54201 35.5535C4.42737 35.4445 4.33357 35.3346 4.33357 35.3093C4.33357 35.284 4.23977 35.1741 4.12513 35.0651C4.01049 34.956 3.91669 34.8459 3.91669 34.8203C3.91669 34.7947 3.84165 34.7034 3.74994 34.6173C3.65823 34.5313 3.58319 34.4399 3.58319 34.4143C3.58319 34.3888 3.48939 34.2786 3.37475 34.1696C3.26011 34.0605 3.16631 33.9504 3.16631 33.9248C3.16631 33.8992 3.09127 33.8078 2.99956 33.7218C2.90785 33.6357 2.83281 33.5443 2.83281 33.5186C2.83281 33.451 2.72467 33.3554 2.64817 33.3554C2.61215 33.3554 2.58268 33.3371 2.58268 33.3147C2.58268 33.2888 2.2353 33.274 1.62386 33.274C0.692845 33.274 0.665039 33.2764 0.665039 33.3554ZM16.3397 33.2973C16.3397 33.3654 16.4769 33.4369 16.6077 33.4369C16.6896 33.4369 16.7565 33.4552 16.7565 33.4776C16.7565 33.5 16.8128 33.5183 16.8816 33.5183C16.9504 33.5183 17.0067 33.5366 17.0067 33.559C17.0067 33.5814 17.0442 33.5997 17.0901 33.5997C17.1456 33.5997 17.1734 33.6268 17.1734 33.6811C17.1734 33.7259 17.1922 33.7625 17.2151 33.7625C17.238 33.7625 17.2568 33.8175 17.2568 33.8846C17.2568 33.9518 17.2756 34.0067 17.2985 34.0067C17.3259 34.0067 17.3402 34.9701 17.3402 36.8154C17.3402 38.6607 17.3259 39.6241 17.2985 39.6241C17.2756 39.6241 17.2568 39.6705 17.2568 39.7272C17.2568 39.8647 17.003 40.1126 16.8621 40.1126C16.8041 40.1126 16.7565 40.1309 16.7565 40.1533C16.7565 40.1757 16.6896 40.194 16.6077 40.194C16.4769 40.194 16.3397 40.2654 16.3397 40.3335C16.3397 40.3463 17.3527 40.3568 18.5908 40.3568C20.0638 40.3568 20.842 40.3427 20.842 40.3161C20.842 40.2937 20.9358 40.2754 21.0504 40.2754C21.165 40.2754 21.2588 40.2571 21.2588 40.2347C21.2588 40.2123 21.3151 40.194 21.3839 40.194C21.4527 40.194 21.509 40.1757 21.509 40.1533C21.509 40.1309 21.5611 40.1126 21.6248 40.1126C21.6928 40.1126 21.7655 40.0789 21.8008 40.0311C21.8338 39.9864 21.8852 39.9497 21.9149 39.9497C21.9907 39.9497 22.5928 39.3538 22.5928 39.2787C22.5928 39.2448 22.6116 39.217 22.6345 39.217C22.6575 39.217 22.6762 39.1804 22.6762 39.1356C22.6762 39.0909 22.695 39.0542 22.7179 39.0542C22.7408 39.0542 22.7596 38.9809 22.7596 38.8914C22.7596 38.8018 22.7784 38.7286 22.8013 38.7286C22.8256 38.7286 22.843 38.5929 22.843 38.4029C22.843 38.213 22.8256 38.0773 22.8013 38.0773C22.7784 38.0773 22.7596 38.0223 22.7596 37.9552C22.7596 37.888 22.7408 37.833 22.7179 37.833C22.695 37.833 22.6762 37.7855 22.6762 37.7273C22.6762 37.6622 22.6281 37.5775 22.5512 37.5074C22.4824 37.4447 22.4261 37.3719 22.4261 37.3457C22.4261 37.281 22.3199 37.1818 22.2507 37.1818C22.2197 37.1818 22.1673 37.1451 22.1343 37.1004C22.1012 37.0556 22.0408 37.0189 22 37.0189C21.9592 37.0189 21.9258 37.0006 21.9258 36.9782C21.9258 36.9558 21.8883 36.9375 21.8425 36.9375C21.7966 36.9375 21.7591 36.9192 21.7591 36.8968C21.7591 36.8744 21.7028 36.8561 21.634 36.8561C21.5652 36.8561 21.509 36.8378 21.509 36.8154C21.509 36.793 21.4527 36.7747 21.3839 36.7747C21.3151 36.7747 21.2588 36.7564 21.2588 36.734C21.2588 36.7116 21.2964 36.6933 21.3422 36.6933C21.3881 36.6933 21.4256 36.675 21.4256 36.6526C21.4256 36.6302 21.4631 36.6119 21.509 36.6119C21.5548 36.6119 21.5923 36.5936 21.5923 36.5712C21.5923 36.5488 21.6208 36.5305 21.6557 36.5305C21.7381 36.5305 22.2593 36.0215 22.2593 35.941C22.2593 35.907 22.2781 35.8792 22.301 35.8792C22.324 35.8792 22.3427 35.8426 22.3427 35.7978C22.3427 35.753 22.3615 35.7164 22.3844 35.7164C22.4073 35.7164 22.4261 35.6431 22.4261 35.5535C22.4261 35.464 22.4449 35.3907 22.4678 35.3907C22.491 35.3907 22.5095 35.2822 22.5095 35.1465C22.5095 35.0108 22.491 34.9023 22.4678 34.9023C22.4449 34.9023 22.4261 34.829 22.4261 34.7394C22.4261 34.6499 22.4073 34.5766 22.3844 34.5766C22.3615 34.5766 22.3427 34.5257 22.3427 34.4635C22.3427 34.3971 22.3083 34.3261 22.2593 34.2917C22.2135 34.2594 22.176 34.209 22.176 34.1796C22.176 34.1101 21.9033 33.8439 21.8322 33.8439C21.8021 33.8439 21.7505 33.8073 21.7174 33.7625C21.6843 33.7177 21.6239 33.6811 21.5831 33.6811C21.5424 33.6811 21.509 33.6628 21.509 33.6404C21.509 33.618 21.4714 33.5997 21.4256 33.5997C21.3797 33.5997 21.3422 33.5814 21.3422 33.559C21.3422 33.5366 21.3047 33.5183 21.2588 33.5183C21.213 33.5183 21.1755 33.5 21.1755 33.4776C21.1755 33.4552 21.1192 33.4369 21.0504 33.4369C20.9816 33.4369 20.9253 33.4185 20.9253 33.3962C20.9253 33.3713 20.7308 33.3554 20.4251 33.3554C20.1194 33.3554 19.9248 33.3396 19.9248 33.3147C19.9248 33.2882 19.2995 33.274 18.1322 33.274C17.1463 33.274 16.3397 33.2845 16.3397 33.2973ZM23.7601 33.3554C23.7601 33.426 23.7879 33.4369 23.9685 33.4369C24.0832 33.4369 24.177 33.4552 24.177 33.4776C24.177 33.5 24.2245 33.5183 24.2826 33.5183C24.3475 33.5183 24.4439 33.5727 24.5327 33.6594C24.6215 33.7461 24.6772 33.8402 24.6772 33.9036C24.6772 33.9603 24.696 34.0067 24.7189 34.0067C24.7463 34.0067 24.7606 34.9565 24.7606 36.7747C24.7606 38.5929 24.7463 39.5427 24.7189 39.5427C24.696 39.5427 24.6772 39.6074 24.6772 39.6865C24.6772 39.8648 24.4477 40.1126 24.2826 40.1126C24.2245 40.1126 24.177 40.1309 24.177 40.1533C24.177 40.1757 24.0832 40.194 23.9685 40.194C23.7879 40.194 23.7601 40.2048 23.7601 40.2754C23.7601 40.3553 23.7879 40.3568 25.243 40.3568C26.4726 40.3568 26.7361 40.3469 26.7854 40.2986C26.8807 40.2057 26.8594 40.194 26.5949 40.194C26.4559 40.194 26.3448 40.1759 26.3448 40.1533C26.3448 40.1309 26.2972 40.1126 26.2392 40.1126C26.1742 40.1126 26.0779 40.0582 25.989 39.9714C25.8589 39.8444 25.8445 39.8078 25.8445 39.6051C25.8445 39.4812 25.8257 39.3799 25.8028 39.3799C25.7755 39.3799 25.7611 38.4979 25.7611 36.8154C25.7611 35.1329 25.7755 34.251 25.8028 34.251C25.8257 34.251 25.8445 34.1496 25.8445 34.0257C25.8445 33.823 25.8589 33.7864 25.989 33.6594C26.0779 33.5727 26.1742 33.5183 26.2392 33.5183C26.2972 33.5183 26.3448 33.5 26.3448 33.4776C26.3448 33.4552 26.4386 33.4369 26.5532 33.4369C26.7338 33.4369 26.7616 33.426 26.7616 33.3554C26.7616 33.2755 26.7338 33.274 25.2609 33.274C23.7879 33.274 23.7601 33.2755 23.7601 33.3554ZM19.8414 33.6404C19.8414 33.6628 19.9165 33.6811 20.0082 33.6811C20.0999 33.6811 20.175 33.6994 20.175 33.7218C20.175 33.7442 20.2312 33.7625 20.3 33.7625C20.3688 33.7625 20.4251 33.7808 20.4251 33.8032C20.4251 33.8256 20.4626 33.8439 20.5085 33.8439C20.5543 33.8439 20.5918 33.8622 20.5918 33.8846C20.5918 33.907 20.6204 33.9253 20.6553 33.9253C20.7378 33.9253 21.1755 34.3526 21.1755 34.4332C21.1755 34.4673 21.1942 34.4952 21.2171 34.4952C21.2401 34.4952 21.2588 34.5318 21.2588 34.5766C21.2588 34.6214 21.2776 34.658 21.3005 34.658C21.3258 34.658 21.3422 34.8344 21.3422 35.1058C21.3422 35.3772 21.3258 35.5535 21.3005 35.5535C21.2776 35.5535 21.2588 35.5902 21.2588 35.635C21.2588 35.6797 21.2401 35.7164 21.2171 35.7164C21.1942 35.7164 21.1755 35.749 21.1755 35.7888C21.1755 35.8286 21.1379 35.8876 21.0921 35.9199C21.0462 35.9522 21.0087 36.0112 21.0087 36.051C21.0087 36.0933 20.9779 36.1234 20.9345 36.1234C20.8937 36.1234 20.8333 36.1601 20.8003 36.2048C20.7672 36.2496 20.7068 36.2862 20.666 36.2862C20.6252 36.2862 20.5918 36.3046 20.5918 36.3269C20.5918 36.3493 20.5543 36.3677 20.5085 36.3677C20.4626 36.3677 20.4251 36.386 20.4251 36.4084C20.4251 36.4343 20.0697 36.4491 19.4425 36.4491C18.6464 36.4491 18.4485 36.438 18.4003 36.3909C18.3512 36.343 18.3407 36.1095 18.3407 35.0651C18.3407 33.6606 18.3367 33.6811 18.6087 33.6811C18.6906 33.6811 18.7576 33.6628 18.7576 33.6404C18.7576 33.6153 18.966 33.5997 19.2995 33.5997C19.633 33.5997 19.8414 33.6153 19.8414 33.6404ZM19.9248 36.9782C19.9248 37.0009 20.036 37.0189 20.175 37.0189C20.3139 37.0189 20.4251 37.037 20.4251 37.0596C20.4251 37.082 20.4814 37.1004 20.5501 37.1004C20.6189 37.1004 20.6752 37.1187 20.6752 37.1411C20.6752 37.1634 20.7127 37.1818 20.7586 37.1818C20.8044 37.1818 20.842 37.2001 20.842 37.2225C20.842 37.2449 20.8706 37.2632 20.9056 37.2632C20.9883 37.2632 21.3422 37.6087 21.3422 37.6895C21.3422 37.7237 21.361 37.7516 21.3839 37.7516C21.4068 37.7516 21.4256 37.7883 21.4256 37.833C21.4256 37.8778 21.4443 37.9145 21.4673 37.9145C21.4902 37.9145 21.509 37.9694 21.509 38.0366C21.509 38.1037 21.5277 38.1587 21.5507 38.1587C21.5754 38.1587 21.5923 38.308 21.5923 38.525C21.5923 38.7421 21.5754 38.8914 21.5507 38.8914C21.5277 38.8914 21.509 38.928 21.509 38.9728C21.509 39.0176 21.4902 39.0542 21.4673 39.0542C21.4443 39.0542 21.4256 39.0909 21.4256 39.1356C21.4256 39.1804 21.4068 39.217 21.3839 39.217C21.361 39.217 21.3422 39.2451 21.3422 39.2794C21.3422 39.3556 21.0745 39.6241 20.9985 39.6241C20.9684 39.6241 20.9167 39.6607 20.8836 39.7055C20.8483 39.7533 20.7757 39.7869 20.7077 39.7869C20.644 39.7869 20.5918 39.8052 20.5918 39.8276C20.5918 39.85 20.5543 39.8683 20.5085 39.8683C20.4626 39.8683 20.4251 39.8866 20.4251 39.909C20.4251 39.9323 20.3 39.9497 20.1333 39.9497C19.9665 39.9497 19.8414 39.9672 19.8414 39.9904C19.8414 40.0131 19.7303 40.0311 19.5913 40.0311C19.4524 40.0311 19.3412 40.0131 19.3412 39.9904C19.3412 39.9667 19.2022 39.9497 19.0077 39.9497C18.8131 39.9497 18.6742 39.9328 18.6742 39.909C18.6742 39.8866 18.6447 39.8683 18.6087 39.8683C18.5244 39.8683 18.4241 39.7703 18.4241 39.688C18.4241 39.6529 18.4053 39.6241 18.3824 39.6241C18.3163 39.6241 18.3264 37.072 18.3928 36.9984C18.434 36.9527 18.5995 36.9403 19.1849 36.9391C19.6514 36.9381 19.9248 36.9525 19.9248 36.9782Z" fill="#111113"/>
</svg>
