<svg width="37" height="38" viewBox="0 0 37 38" fill="none" xmlns="http://www.w3.org/2000/svg">
<circle opacity="0.07" cx="18.5" cy="19.0449" r="18.5" fill="white"/>
<path fill-rule="evenodd" clip-rule="evenodd" d="M16.7426 8.61038C14.2829 8.81176 11.8709 9.2668 9.89614 9.90183L9 10.1901V16.1132C9 22.7709 9.05391 23.2609 9.98059 25.0352C11.3036 27.5685 14.0013 29.6363 17.3778 30.7054L18.6995 31.1239L20.0275 30.7123C23.4657 29.6469 26.1729 27.5682 27.4978 24.9762C28.4402 23.1324 28.4947 22.6446 28.4976 16.019L28.5 10.1793L27.3562 9.82219C24.2781 8.86107 19.8525 8.35586 16.7426 8.61038ZM20.7574 12.8596V16.6859H24.4136H28.0699V18.5991V20.5122H24.4136H20.7574V25.2556V29.9989L19.7654 30.2968C18.7777 30.5933 18.7696 30.5934 17.7939 30.3243L16.8143 30.0541L16.7766 25.2831L16.7388 20.5122H13.0845H9.43015V18.5991V16.6859H13.0864H16.7426V12.8596V9.03326H18.75H20.7574V12.8596Z" fill="white"/>
</svg>
