<svg width="39" height="41" viewBox="0 0 39 41" fill="none" xmlns="http://www.w3.org/2000/svg">
<path fill-rule="evenodd" clip-rule="evenodd" d="M18.0676 0.24459C17.7512 0.269531 17.4925 0.335637 17.4925 0.391452C17.4925 0.502597 17.8593 0.690746 18.0115 0.657692C18.0638 0.646312 18.5406 0.607931 19.0709 0.572457L20.035 0.507924V0.872356C20.035 1.26693 19.6409 1.61018 19.4824 1.35374C19.4243 1.25979 19.368 1.26887 19.2953 1.38365C19.234 1.48051 19.1904 1.49189 19.1893 1.4115C19.1881 1.3219 19.004 1.29575 18.653 1.33522C18.1649 1.39031 18.1138 1.37057 18.0642 1.10845C18.0114 0.829981 18.0092 0.830707 17.9932 1.13569C17.9636 1.70123 17.2716 2.06566 16.9113 1.70534C16.7062 1.50024 16.7309 1.16354 16.9576 1.07661C17.2345 0.970305 17.2467 0.976116 17.3741 1.27553C17.4884 1.54395 17.4897 1.54359 17.461 1.24526C17.4357 0.981443 17.3761 0.944152 16.9977 0.954686C16.4733 0.969215 15.9736 1.31827 15.292 2.14629L14.7879 2.75868L15.2927 2.28008C15.7494 1.847 15.8673 1.81564 15.805 2.14351C15.7933 2.20477 15.8699 2.18334 15.9752 2.09605C16.0804 2.00863 16.2011 1.9717 16.2432 2.01396C16.2855 2.05609 16.4058 2.02304 16.5107 1.94035C16.6597 1.8229 16.6534 1.86492 16.4819 2.13358C16.3612 2.32245 16.2804 2.49172 16.3023 2.50976C16.3244 2.5278 16.5602 2.4428 16.8266 2.32088C17.2285 2.13685 17.2436 2.01735 16.8568 2.07849C16.807 2.08636 16.766 2.05125 16.766 2.0004C16.766 1.94967 17.1202 1.92025 17.553 1.93526C18.0192 1.95136 18.34 1.91262 18.34 1.84034C18.34 1.76745 18.5842 1.73961 18.9457 1.77133C19.4119 1.81213 19.6181 1.77193 19.8403 1.5971C20.0937 1.39782 20.1477 1.39188 20.2786 1.54964C20.3607 1.64856 20.6004 1.72956 20.8114 1.72956C21.0223 1.72956 21.498 1.8085 21.8684 1.90499C22.708 2.12365 23.0425 2.10246 23.1306 1.82484C23.2173 1.5517 23.3499 1.55037 23.5617 1.82036C23.7084 2.00754 23.7055 2.01481 23.5361 1.88284C23.3815 1.76237 23.3443 1.766 23.3443 1.90136C23.3443 2.01178 23.4422 2.05173 23.6291 2.01783C23.8401 1.97957 24.0654 2.10803 24.4993 2.51375C25.2491 3.21513 25.3342 3.21271 24.7057 2.50794C23.3712 1.01171 23.3386 0.984712 22.9167 1.02527C22.5887 1.05675 22.513 1.11801 22.4946 1.36634C22.4818 1.54117 22.4983 1.57955 22.5339 1.45714C22.6104 1.19332 22.9234 1.17988 23.0217 1.43632C23.1344 1.72992 22.7741 2.01686 22.4081 1.92497C21.7773 1.76673 21.9002 0.881437 22.5933 0.589892C22.933 0.447025 22.8852 0.42959 21.7413 0.278127C20.74 0.145672 20.4958 0.14543 20.3375 0.276795C20.1923 0.397384 20.1118 0.401864 20.0057 0.295804C19.8715 0.161533 19.3096 0.146641 18.0676 0.24459ZM16.9855 0.480441C17.0728 0.515431 17.1773 0.511072 17.2175 0.470876C17.2577 0.43068 17.1863 0.402106 17.0587 0.407312C16.9176 0.413124 16.8889 0.441818 16.9855 0.480441ZM21.4879 0.592555C21.7876 0.630693 22.0471 0.675853 22.0648 0.693046C22.0825 0.710238 22.028 0.887732 21.9438 1.08738C21.8332 1.34926 21.7232 1.4385 21.5484 1.40786C21.4153 1.38438 21.1565 1.35193 20.9736 1.33558C20.7906 1.31912 20.6408 1.25822 20.6406 1.20022C20.6405 1.14211 20.5653 1.15688 20.4736 1.23303C20.3426 1.34176 20.293 1.319 20.2428 1.12673C20.2076 0.992098 20.2085 0.768233 20.245 0.628998C20.2978 0.426805 20.3746 0.390846 20.6271 0.449688C20.8009 0.490127 21.1883 0.554538 21.4879 0.592555ZM16.2095 0.791237C16.0107 0.941005 15.6079 1.33607 15.3141 1.66902C14.8172 2.23238 14.8344 2.22293 15.5612 1.53281C15.9908 1.12492 16.4513 0.731547 16.5844 0.658661C16.7176 0.585775 16.7691 0.524511 16.6987 0.522453C16.6285 0.520516 16.4083 0.641469 16.2095 0.791237ZM23.2435 0.660477C23.3767 0.734453 23.57 0.855285 23.6732 0.92926C23.7763 1.00312 23.7324 0.941005 23.5756 0.791237C23.4188 0.641469 23.2254 0.520516 23.1459 0.522453C23.0663 0.524511 23.1103 0.586622 23.2435 0.660477ZM24.0305 1.32832C24.0305 1.51865 25.1874 2.69839 25.3695 2.69391C25.4714 2.69137 25.4293 2.62599 25.2684 2.53663C25.117 2.45249 24.7764 2.12159 24.5117 1.80135C24.2471 1.48099 24.0305 1.26815 24.0305 1.32832ZM16.7642 1.76697C16.7652 1.82085 16.7153 1.83356 16.6533 1.7953C16.5913 1.75692 16.5119 1.77205 16.4768 1.82884C16.3845 1.97812 15.8803 1.91746 15.8246 1.75026C15.7795 1.61514 15.9326 1.55908 16.2424 1.59734C16.3206 1.60703 16.4227 1.55315 16.4694 1.47772C16.5543 1.34031 16.76 1.54213 16.7642 1.76697ZM12.966 2.52307C12.1558 3.44844 12.073 3.65039 12.28 4.1951C12.3909 4.48677 12.3808 4.49476 11.9798 4.42962C11.3172 4.32211 11.0253 4.60336 10.6598 5.70101C10.485 6.22587 10.3769 6.746 10.4195 6.85702C10.52 7.11903 11.0302 7.24518 11.2503 7.06248C11.3866 6.9494 11.4486 6.96999 11.5514 7.16213C11.7721 7.57451 11.7035 8.31935 11.4037 8.76417C11.0692 9.2607 10.9067 9.28564 10.8562 8.84844C10.7896 8.27153 10.0518 8.26583 9.90734 8.84106C9.86122 9.02485 9.9341 9.43976 10.0913 9.88713C10.3742 10.6928 10.4173 11.1169 10.2281 11.2338C10.16 11.276 10.107 11.8563 10.107 12.5598C10.107 13.5884 10.141 13.8241 10.2983 13.8844C10.5413 13.9776 10.4413 14.5029 10.0221 15.3347C9.6945 15.9848 9.72053 16.4147 10.0996 16.6177C10.4046 16.7809 10.6484 16.6767 10.8144 16.3123C10.9744 15.9613 11.0945 15.9421 11.344 16.2281C11.6726 16.6049 11.8379 17.0253 11.9261 17.7082L12.0125 18.3772L12.0283 17.8099C12.0484 17.0922 11.8867 16.6642 11.4076 16.1676C11.0042 15.7494 10.4856 15.6454 10.2454 15.9348C10.1411 16.0604 10.171 16.0934 10.382 16.0861C10.7356 16.0739 10.7407 16.4273 10.3876 16.4777C9.98992 16.5342 9.78966 16.0885 10.0406 15.7054C10.2519 15.383 10.7645 15.3115 11.2349 15.5386C11.4904 15.662 11.4914 15.6599 11.2643 15.4781C11.135 15.3745 10.9943 15.2898 10.9516 15.2898C10.8328 15.2898 10.852 14.8844 10.9782 14.7239C11.0397 14.6457 11.0528 14.3838 11.0075 14.1419L10.925 13.7022L11.5693 13.7393L12.2137 13.7764L12.3695 14.866C12.6506 16.832 13.1616 18.1766 14.166 19.5936C15.3134 21.2124 17.2163 22.5661 18.603 22.75C19.0008 22.8028 19.1524 22.8653 19.0462 22.9326C18.9356 23.0027 18.9896 23.0354 19.2178 23.0367C19.4008 23.0377 19.6658 23.1535 19.8062 23.294C20.0169 23.5046 20.0477 23.6367 19.9822 24.0462C19.9387 24.3193 19.9422 24.5035 19.9902 24.4554C20.0383 24.4074 20.1906 24.4713 20.3288 24.5976C20.5538 24.8032 20.7078 24.819 21.812 24.75C23.217 24.6622 23.3644 24.5879 24.2537 23.519C24.7978 22.8651 24.7941 22.8672 23.9489 23.6856C23.2336 24.3784 23.0228 24.5165 22.6644 24.5266C22.1192 24.5421 21.8537 24.3208 21.8416 23.841L21.832 23.4623L21.7058 23.8089C21.6112 24.069 21.5535 24.1144 21.4751 23.9905C21.3932 23.8613 21.3701 23.8715 21.3687 24.0374C21.3666 24.2761 21.1294 24.3329 21.1162 24.0979C21.1115 24.0147 21.0609 24.0555 21.0036 24.1887L20.8996 24.4309L20.8868 24.1887C20.8743 23.9525 20.8703 23.9529 20.727 24.2012C20.6461 24.3413 20.5118 24.4321 20.4285 24.403C20.2162 24.3288 20.2398 23.63 20.4657 23.3077C20.5693 23.1596 20.5992 23.0385 20.5322 23.0385C20.4652 23.0385 20.3595 23.1292 20.2974 23.2401C20.1941 23.4247 20.1583 23.421 19.8721 23.1959L19.5596 22.95L20.456 22.8688C22.2088 22.7099 23.5876 22.095 24.8861 20.8927C26.6144 19.2927 27.4083 17.646 28.0105 14.412C28.1083 13.8864 28.0973 13.8369 27.8822 13.8369C27.7527 13.8369 27.5351 13.8967 27.3986 13.9697C27.2055 14.073 27.1619 14.0678 27.2025 13.9461C27.2856 13.6968 27.9037 13.5773 28.7205 13.6526C29.548 13.7289 29.842 13.8102 29.842 13.9625C29.842 14.0173 29.6652 14.0115 29.4493 13.9495C29.2334 13.8876 28.8928 13.8433 28.6926 13.8512L28.3286 13.8656L28.6918 13.9432C28.8916 13.986 29.0618 14.0885 29.0701 14.1711C29.0785 14.2536 29.0962 14.3349 29.1094 14.3515C29.1227 14.3681 29.1563 14.5043 29.1843 14.6542C29.221 14.8509 29.1764 14.9278 29.024 14.9308C28.8636 14.9341 28.8856 14.9767 29.1155 15.1082C29.3466 15.2403 29.3681 15.2823 29.2064 15.2856C29.0899 15.2879 28.9945 15.3679 28.9945 15.4633C28.9945 15.5587 28.8926 15.669 28.7683 15.7085C28.6438 15.7479 28.4396 15.8969 28.3143 16.0394C28.1242 16.2556 28.1665 16.2449 28.5685 15.9758C29.1438 15.5908 29.5141 15.5673 29.842 15.8952C30.1289 16.1821 30.1361 16.0859 29.9005 15.1082C29.7455 14.4652 29.7465 14.366 29.9085 14.2446C30.06 14.1311 30.0696 14.0096 29.9639 13.5382C29.8938 13.2251 29.8724 12.6979 29.9163 12.3665C29.9708 11.9551 29.9443 11.667 29.8323 11.4578C29.6896 11.1911 29.7034 11.0195 29.9391 10.1296C30.1335 9.39557 30.176 9.04458 30.0898 8.88343C29.8187 8.3771 29.2366 8.50387 29.2366 9.06928C29.2366 9.55369 28.8079 9.34291 28.4674 8.69129C28.3631 8.49152 28.2758 8.38255 28.2734 8.44914C28.2643 8.69879 28.7631 9.36724 29.0592 9.50224C29.3125 9.61762 29.4024 9.60648 29.5697 9.43916C29.7598 9.2492 29.7595 9.23612 29.5652 9.23612C29.3134 9.23612 29.2828 8.80643 29.5279 8.71235C29.7038 8.64492 30.0841 8.97763 30.0841 9.19907C30.0841 9.26808 29.9672 9.4733 29.8241 9.65515C29.6089 9.92866 29.5003 9.97297 29.1942 9.91171C28.991 9.87103 28.6857 9.71605 28.516 9.56726L28.2075 9.29666L28.4914 9.61932C28.6475 9.79681 28.9113 9.97624 29.0775 10.0179C29.2774 10.0681 29.3567 10.1535 29.3119 10.2703C29.2748 10.3674 29.2946 10.4469 29.3561 10.4469C29.4176 10.4469 29.3929 10.6598 29.301 10.9203C29.2091 11.1806 29.1635 11.4231 29.1996 11.4592C29.3013 11.5609 28.7007 11.6811 28.313 11.6368C28.0098 11.6021 27.9559 11.5351 27.8917 11.1128L27.8181 10.6285L27.8009 11.0825C27.7747 11.7777 27.5825 11.6222 27.4934 10.8337C27.1503 7.80079 25.7562 5.2689 23.6353 3.82643C22.3326 2.94041 21.3265 2.64693 19.8705 2.72854C17.5488 2.85869 15.7851 3.95949 14.2334 6.24718C13.4904 7.34265 12.8577 9.10899 12.5882 10.8403C12.5493 11.0901 12.4707 11.2944 12.4134 11.2944C12.1705 11.2944 12.669 8.91588 13.1742 7.66543C14.0954 5.38465 15.9115 3.51152 17.9495 2.74004C18.814 2.41278 20.3467 2.30102 21.4879 2.48179C21.9215 2.55044 21.971 2.54244 21.7301 2.44256C21.5636 2.37355 20.9063 2.27608 20.2694 2.22596C19.6326 2.17596 19.0463 2.09471 18.9668 2.04544C18.7933 1.93829 18.34 2.06384 18.34 2.21906C18.34 2.28419 18.4551 2.28516 18.6225 2.22148C18.7779 2.1624 18.9663 2.15198 19.0411 2.19823C19.116 2.24448 18.8662 2.35369 18.4861 2.44099C16.4871 2.90022 14.3579 4.80628 13.2496 7.12859C12.8792 7.90455 12.3505 9.8134 12.2234 10.8332C12.161 11.3334 12.1137 11.4075 11.826 11.4544C11.6463 11.4837 11.8496 11.4881 12.2777 11.4641C12.8272 11.4334 13.0183 11.4583 12.9275 11.5491C12.7745 11.7021 11.0362 11.7578 10.561 11.625C10.0758 11.4893 10.1536 11.3487 10.7266 11.326C11.3594 11.3007 11.3988 11.2544 11.0687 10.9242L10.7995 10.6551L11.0889 10.4347L11.3783 10.2144L11.0756 10.2806C10.8376 10.3327 10.8116 10.3191 10.9545 10.2171C11.1037 10.1105 11.082 10.0855 10.8334 10.077C10.5772 10.0681 10.6096 10.0315 11.0436 9.83858C11.5469 9.61496 12.0478 9.00705 12.039 8.63075C12.0367 8.53087 11.9529 8.63983 11.8528 8.8729C11.7527 9.10596 11.5506 9.39073 11.4035 9.50587C10.8478 9.94065 9.98592 9.65104 9.98592 9.02957C9.98592 8.72131 10.2849 8.45907 10.5292 8.5529C10.7652 8.64346 10.7662 8.9809 10.5308 9.07122C10.4309 9.1096 10.3491 9.18382 10.3491 9.23612C10.3491 9.40841 10.709 9.47354 11.016 9.35683C11.8023 9.0579 12.0864 7.53443 11.4886 6.82397C11.3162 6.61911 11.0847 6.45772 10.974 6.46547C10.805 6.47721 10.8079 6.4886 10.9917 6.53618C11.2183 6.5949 11.2318 6.94432 11.0102 7.01817C10.9408 7.04118 10.7796 6.98354 10.6517 6.89008C10.4518 6.74394 10.4395 6.67578 10.5632 6.40421C10.7545 5.98432 11.1866 5.99135 11.6217 6.42116C11.8599 6.65653 11.9207 6.68316 11.829 6.51196C11.7576 6.37878 11.5777 6.16775 11.4291 6.04305C11.1808 5.83456 11.1758 5.80683 11.3679 5.69932C11.5642 5.58938 11.5636 5.57243 11.3565 5.4154C11.2142 5.30752 11.1923 5.24699 11.2946 5.24456C11.3818 5.24239 11.4194 5.18621 11.3783 5.11962C11.3371 5.05303 11.4174 4.99854 11.5565 4.99854C11.6957 4.99854 11.8364 4.92856 11.8692 4.84309C11.9633 4.59803 12.4953 4.61486 13.0494 4.88062C13.3289 5.01465 13.4486 5.04383 13.3154 4.94563C12.719 4.50553 12.5815 4.37102 12.797 4.43858C12.9114 4.47442 13.0395 4.4479 13.0817 4.37962C13.1238 4.31145 13.2291 4.28276 13.3158 4.31605C13.4122 4.35298 13.461 4.29753 13.4417 4.17294C13.4244 4.06095 13.4616 3.93612 13.5243 3.89544C13.5871 3.85476 13.5494 3.78732 13.4404 3.74555C13.3047 3.69337 13.2694 3.71662 13.3285 3.81941C13.3762 3.90234 13.3674 3.9262 13.3089 3.8728C13.166 3.74253 13.1433 3.18244 13.2807 3.18244C13.341 3.18244 13.3518 3.1144 13.3048 3.0311C13.2365 2.91002 13.252 2.91002 13.3824 3.0311C13.4721 3.1144 13.6571 3.18123 13.7937 3.17978C14.0258 3.17723 14.0223 3.16174 13.7392 2.93993L13.4365 2.70287L13.8202 2.84452C14.1038 2.94901 14.2776 2.95095 14.4861 2.85179C14.7352 2.7335 14.7164 2.72527 14.3262 2.78241C13.9488 2.83762 13.8545 2.80191 13.6819 2.53857C13.4261 2.14811 13.6078 1.72956 14.0332 1.72956C14.419 1.72956 14.5416 2.07256 14.2007 2.1986C14.0203 2.26531 13.9852 2.32306 14.087 2.3859C14.1679 2.4359 14.3049 2.4181 14.3913 2.34643C14.4778 2.27463 14.5872 2.25465 14.6345 2.30199C14.6819 2.34933 14.682 2.28081 14.6349 2.14968C14.3369 1.32105 13.941 1.40968 12.966 2.52307ZM25.5741 1.73924C25.3199 1.88732 25.3071 2.19133 25.5419 2.5014C25.7294 2.749 26.0887 2.69282 26.0887 2.41604C26.0887 2.30151 25.9917 2.26603 25.786 2.30526C25.3394 2.39062 25.3653 1.91395 25.8163 1.74917C25.9994 1.68234 26.0675 1.62495 25.9676 1.62168C25.8677 1.61853 25.6906 1.67132 25.5741 1.73924ZM19.9673 1.90729C19.8382 2.00512 19.7937 2.08685 19.8689 2.0889C19.944 2.09108 20.0732 2.01105 20.1561 1.91117C20.3475 1.68052 20.2693 1.67895 19.9673 1.90729ZM26.3006 1.85039C26.6569 2.25005 26.3242 3.00943 25.7542 3.09745C25.4613 3.14261 25.4651 3.14575 25.786 3.12432C25.9858 3.11101 26.2237 3.07783 26.3148 3.05047C26.4966 2.99599 26.6145 3.38463 26.4475 3.48791C26.3903 3.52326 26.3651 3.44021 26.3914 3.30351C26.4181 3.16464 26.3878 3.08667 26.3225 3.12699C26.2583 3.1667 26.2371 3.24988 26.2755 3.31187C26.3138 3.37386 26.2738 3.42543 26.1867 3.4264C26.0678 3.42786 26.072 3.45595 26.2032 3.53912C26.3111 3.60729 26.4661 3.60281 26.6071 3.52738C26.9079 3.36647 27.0125 3.48476 26.808 3.75463C26.6712 3.93515 26.6714 3.94617 26.8092 3.82377C26.919 3.7263 27.0437 3.71577 27.186 3.79192C27.4732 3.94557 27.3643 4.35032 26.9047 4.83848L26.5424 5.22326L27.123 4.92929C27.8789 4.5467 28.1003 4.55445 28.204 4.96706C28.2498 5.14952 28.341 5.3321 28.4068 5.37266C28.6523 5.52449 28.5863 5.91907 28.2511 6.30432C28.0606 6.52298 27.9048 6.79455 27.9048 6.90775C27.9048 7.02544 28.0002 6.93572 28.1276 6.69817C28.2564 6.45796 28.4953 6.23446 28.6937 6.16824C28.9831 6.07186 29.0717 6.09668 29.2579 6.3266C29.5931 6.74043 29.5244 6.46898 29.0509 5.5079C28.5806 4.55324 28.3071 4.33082 27.7425 4.44378C27.4476 4.50275 27.3991 4.48725 27.5151 4.37126C27.7604 4.12597 27.6823 3.66601 27.316 3.19987C27.1253 2.95724 26.8838 2.59124 26.7792 2.38662C26.6746 2.18201 26.4901 1.9395 26.3691 1.8476C26.181 1.70474 26.171 1.70522 26.3006 1.85039ZM22.9312 3.02771C23.5592 3.34105 24.1079 3.75064 24.7545 4.38857C26.1846 5.79969 26.9016 7.05135 27.4268 9.05366C27.5492 9.52028 27.6524 9.80093 27.656 9.67731C27.6704 9.19241 27.2597 7.91278 26.7567 6.87518C26.1462 5.61626 25.2068 4.42671 24.2578 3.71117C23.5567 3.18268 22.4492 2.57635 22.1881 2.57816C22.1026 2.57877 22.437 2.78108 22.9312 3.02771ZM21.9722 3.30945C23.1469 3.6539 24.1191 4.36751 25.1675 5.65464C26.1867 6.90594 26.8259 8.47469 27.1888 10.615C27.3124 11.3445 27.3062 11.4625 27.1394 11.5559C26.8786 11.7019 26.8724 14.0622 27.1326 14.162C27.3591 14.2489 27.3425 14.5952 27.0604 15.6725C26.0035 19.708 22.8564 22.4238 19.5506 22.1535C16.3874 21.8947 13.6867 18.8737 13.0172 14.8452C12.9132 14.2193 12.9094 13.909 13.0034 13.7333C13.1811 13.4014 13.1771 11.2944 12.9988 11.2944C12.791 11.2944 12.981 10.0721 13.3847 8.81236C13.9944 6.90921 15.1765 5.20788 16.5785 4.21556C17.5792 3.50716 17.9199 3.3488 18.8934 3.13861C19.8756 2.92661 20.8517 2.98085 21.9722 3.30945ZM13.4179 3.26295C13.4623 3.34044 13.4329 3.4258 13.3526 3.45256C13.2572 3.4844 13.2738 3.52702 13.4004 3.57557C13.6048 3.65402 13.6342 3.39226 13.4408 3.21622C13.3839 3.1644 13.3734 3.18535 13.4179 3.26295ZM13.83 3.74689C13.9133 3.78054 14.0495 3.78054 14.1327 3.74689C14.216 3.71335 14.1478 3.68586 13.9813 3.68586C13.8149 3.68586 13.7468 3.71335 13.83 3.74689ZM13.3509 4.07923C13.3314 4.08976 13.225 4.16737 13.1143 4.25176C12.9749 4.35794 12.8887 4.36509 12.833 4.27501C12.7888 4.20345 12.8247 4.15999 12.913 4.17827C13.0011 4.19655 13.0603 4.14546 13.0445 4.06458C13.0275 3.97801 13.0918 3.9469 13.201 3.98879C13.303 4.0279 13.3704 4.06858 13.3509 4.07923ZM22.5399 5.16405C22.4925 5.28791 22.5241 5.32823 22.6353 5.28549C22.7471 5.24263 22.8146 5.33077 22.841 5.55415C22.8729 5.82378 22.9059 5.85417 23.0162 5.71506C23.1213 5.58224 23.0908 5.47933 22.8816 5.26103C22.6572 5.027 22.5989 5.01041 22.5399 5.16405ZM17.2201 5.4809C16.8525 5.867 16.8073 6.03166 17.0443 6.12259C17.2443 6.19935 17.2396 6.8385 17.0385 6.90545C16.944 6.93693 16.8871 6.84092 16.8871 6.65023C16.8871 6.27938 16.6962 6.13712 16.4606 6.33265C16.3349 6.4369 16.3198 6.53836 16.4057 6.6989C16.5568 6.98124 16.3435 7.13767 16.092 6.92906C15.9444 6.80654 15.9264 6.81525 15.9892 6.97919C16.077 7.20802 16.2952 7.23707 16.4867 7.04553C16.5824 6.94989 16.6888 6.95073 16.8714 7.04832C17.0806 7.16031 17.1498 7.14155 17.2767 6.93851C17.4721 6.62553 17.5839 6.63013 17.8527 6.96212C18.0388 7.19179 18.0983 7.20717 18.2655 7.0683C18.4252 6.93572 18.4955 6.93463 18.6487 7.06188C18.8036 7.19034 18.8707 7.18344 19.0318 7.02229C19.2115 6.84261 19.2062 6.83245 18.9651 6.89552C18.746 6.95279 18.7032 6.91235 18.7032 6.6472C18.7032 6.30347 18.814 6.24742 19.0423 6.47576C19.1499 6.58328 19.1482 6.53606 19.0363 6.29476C18.9083 6.01907 18.864 5.99643 18.7504 6.14935C18.6765 6.24887 18.5267 6.33035 18.4175 6.33035C18.2847 6.33035 18.2189 6.43399 18.2189 6.64309C18.2189 6.81513 18.1603 6.93633 18.0888 6.91247C18.0172 6.88862 17.9627 6.82966 17.9677 6.78135C17.9727 6.73304 17.9768 6.55737 17.9768 6.39089C17.9768 6.2025 18.0454 6.08821 18.1584 6.08821C18.4238 6.08821 18.381 5.92548 18.0373 5.62655C17.8708 5.48175 17.7346 5.30849 17.7346 5.24154C17.7346 5.03729 17.5694 5.11417 17.2201 5.4809ZM17.7346 5.6073C17.7346 5.75562 17.7953 5.81519 17.904 5.77341C18.2098 5.65609 18.2176 5.92694 17.9131 6.0899C17.6833 6.21291 17.5465 6.21763 17.312 6.11072C16.982 5.96035 16.9025 5.72499 17.1817 5.72499C17.2771 5.72499 17.3899 5.61517 17.4326 5.48102C17.5247 5.19081 17.7346 5.27847 17.7346 5.6073ZM22.053 5.56359C21.8942 5.72232 21.9763 5.82233 22.2144 5.7601C22.3475 5.72523 22.4565 5.64859 22.4565 5.58975C22.4565 5.46468 22.1704 5.44615 22.053 5.56359ZM23.304 5.83892C23.304 5.97597 23.3585 6.08821 23.4251 6.08821C23.4917 6.08821 23.5462 6.00975 23.5462 5.91374C23.5462 5.81773 23.4917 5.70561 23.4251 5.66445C23.3585 5.62328 23.304 5.70186 23.304 5.83892ZM15.3132 5.95042C15.3132 6.01835 15.3676 6.10758 15.4342 6.14874C15.5008 6.18991 15.5553 6.15492 15.5553 6.07113C15.5553 5.95854 15.5908 5.95418 15.6911 6.05455C15.7659 6.12925 15.9021 6.16158 15.9938 6.12634C16.1844 6.05322 16.2231 6.27744 16.0396 6.39089C15.973 6.43205 15.9185 6.52916 15.9185 6.60664C15.9185 6.68401 16.0065 6.62178 16.1142 6.46813C16.2224 6.31352 16.263 6.14511 16.205 6.09075C16.0298 5.92682 15.3132 5.81397 15.3132 5.95042ZM20.474 5.93166C20.4533 5.95248 20.5349 6.25505 20.6554 6.60398C20.776 6.95291 20.8764 7.49859 20.8785 7.81653C20.8821 8.32395 20.9206 8.40907 21.1931 8.5127C21.3639 8.5776 21.7589 8.62264 22.0709 8.61259C22.4271 8.60121 22.5143 8.57566 22.3052 8.54406C22.1221 8.51634 21.9722 8.44442 21.9722 8.38437C21.9722 8.32431 21.896 8.30434 21.8028 8.34017C21.7097 8.37589 21.597 8.34599 21.5523 8.27383C21.5076 8.20155 21.4068 8.17467 21.3282 8.21402C21.2495 8.25336 21.291 8.19973 21.4202 8.09488C21.5914 7.95601 21.9531 7.89995 22.752 7.88833C23.5557 7.8767 23.7356 7.84862 23.4251 7.78324L23.0013 7.694L23.4251 7.69013C23.6582 7.68807 23.9851 7.72996 24.1515 7.78324L24.4542 7.88022L24.1515 7.9008C23.8947 7.91823 23.8827 7.9347 24.0725 8.00928C24.2755 8.08919 24.2783 8.11207 24.1027 8.25784C23.9744 8.36427 23.9094 8.37262 23.9094 8.2823C23.9094 8.2076 23.8516 8.14646 23.7812 8.14646C23.7107 8.14646 23.6866 8.20094 23.7278 8.26753C23.7689 8.33412 23.7313 8.39308 23.6441 8.39853C23.2836 8.42117 22.7593 8.53014 22.7008 8.59455C22.5873 8.7195 24.1131 8.53873 24.3808 8.3955C24.6125 8.27153 24.6336 8.18835 24.5654 7.67342C24.5055 7.22279 24.5457 6.96127 24.743 6.51523L24.9978 5.93916L24.6929 5.9974C24.5252 6.02949 24.3603 6.01096 24.3264 5.95624C24.2382 5.81349 23.9094 5.96386 23.9094 6.14693C23.9094 6.23144 23.9911 6.36849 24.091 6.45143C24.2055 6.54647 24.2726 6.55458 24.2726 6.47334C24.2726 6.40263 24.2173 6.31038 24.1496 6.26861C24.0819 6.22671 24.0595 6.13918 24.0998 6.07392C24.1462 5.99885 24.2339 6.00575 24.3386 6.09281C24.4296 6.16836 24.561 6.19499 24.6305 6.15201C24.7873 6.05515 24.7925 6.02283 24.5298 6.78317C24.4093 7.1321 24.2719 7.37897 24.2247 7.33175C24.1774 7.28441 24.1694 7.32582 24.207 7.42365C24.2649 7.57475 24.0531 7.59908 22.806 7.58455C21.7144 7.57196 21.3102 7.52523 21.2327 7.40294C21.1535 7.27812 21.1254 7.29688 21.1162 7.48055C21.1096 7.61373 21.0344 7.45028 20.9491 7.11733C20.8639 6.78438 20.758 6.4277 20.7138 6.32466C20.6513 6.17913 20.7083 6.14196 20.9698 6.1577C21.4369 6.18591 21.4559 6.19996 21.2155 6.34004C21.0989 6.40796 21.0036 6.51475 21.0036 6.57734C21.0036 6.63994 21.1077 6.60204 21.2351 6.49296C21.553 6.22078 21.4319 6.00115 20.9311 5.9428C20.7006 5.9158 20.4949 5.91083 20.474 5.93166ZM19.1511 6.12671C19.1846 6.18119 19.2943 6.19427 19.3948 6.15564C19.5304 6.10358 19.5564 6.14063 19.4952 6.29875C19.4499 6.41595 19.3868 6.67541 19.3551 6.87518C19.2997 7.22412 19.3042 7.2217 19.4683 6.81465C19.5622 6.58158 19.6788 6.2973 19.7274 6.18301C19.8008 6.01048 19.754 5.9796 19.4529 6.0014C19.2533 6.0158 19.1175 6.07222 19.1511 6.12671ZM22.1107 6.04813C22.3038 6.09947 22.4917 6.65967 22.3777 6.84419C22.2474 7.05498 21.9763 6.92373 22.0039 6.66331C22.0252 6.46196 21.9695 6.39089 21.7906 6.39089C21.5958 6.39089 21.5557 6.45918 21.5859 6.73982C21.6187 7.04675 21.5911 7.08028 21.3564 7.01902C21.166 6.96914 21.1271 6.98657 21.2202 7.07968C21.2946 7.15402 21.4451 7.16963 21.5706 7.116C21.6916 7.0643 21.9333 7.03319 22.1077 7.04687C22.4443 7.07326 22.6225 6.83039 22.5003 6.51196C22.4513 6.38423 22.5101 6.33035 22.6986 6.33035C22.8872 6.33035 22.946 6.38423 22.897 6.51196C22.8088 6.74188 22.9255 7.05679 23.099 7.05679C23.1936 7.05679 23.1941 7.0195 23.101 6.9264C23.0195 6.84492 23.0056 6.6403 23.0639 6.38157C23.1165 6.14886 23.1099 5.96713 23.0492 5.96713C22.9896 5.96713 22.9408 6.02162 22.9408 6.08821C22.9408 6.1548 22.8351 6.20928 22.7058 6.20928C22.5765 6.20928 22.4371 6.1548 22.396 6.08821C22.3548 6.02162 22.229 5.97343 22.1164 5.98118C21.9316 5.99389 21.931 6.00043 22.1107 6.04813ZM11.9231 6.33035C11.9944 6.46353 12.0799 6.5725 12.1132 6.5725C12.1465 6.5725 12.1155 6.46353 12.0442 6.33035C11.9729 6.19717 11.8874 6.08821 11.8541 6.08821C11.8208 6.08821 11.8518 6.19717 11.9231 6.33035ZM16.766 6.51196C16.766 6.61185 16.7148 6.69357 16.6521 6.69357C16.4994 6.69357 16.3901 6.50446 16.4868 6.40772C16.6232 6.27139 16.766 6.32478 16.766 6.51196ZM17.8557 6.45143C17.8557 6.51802 17.7435 6.5725 17.6064 6.5725C17.4694 6.5725 17.3908 6.51802 17.4319 6.45143C17.4731 6.38484 17.5852 6.33035 17.6812 6.33035C17.7772 6.33035 17.8557 6.38484 17.8557 6.45143ZM23.3848 6.41111C23.2737 6.52201 23.2825 7.0614 23.3948 7.03754C23.4447 7.02701 23.5809 7.06006 23.6975 7.11103C23.9607 7.22618 24.2732 7.11624 24.2708 6.90921C24.2693 6.79322 24.2419 6.79673 24.1619 6.92313C24.0992 7.02205 23.9688 7.05909 23.8474 7.01248C23.6818 6.94892 23.6692 6.8977 23.785 6.75798C24.0187 6.47649 23.644 6.15189 23.3848 6.41111ZM18.5821 6.5725C18.5821 6.63909 18.5277 6.69357 18.4611 6.69357C18.3945 6.69357 18.34 6.63909 18.34 6.5725C18.34 6.50591 18.3945 6.45143 18.4611 6.45143C18.5277 6.45143 18.5821 6.50591 18.5821 6.5725ZM21.949 6.58158C21.9251 6.65313 21.8538 6.71173 21.7906 6.71173C21.7274 6.71173 21.6561 6.65313 21.6322 6.58158C21.6084 6.51003 21.6796 6.45143 21.7906 6.45143C21.9016 6.45143 21.9728 6.51003 21.949 6.58158ZM23.6672 6.5725C23.6672 6.63909 23.6128 6.69357 23.5462 6.69357C23.4796 6.69357 23.4251 6.63909 23.4251 6.5725C23.4251 6.50591 23.4796 6.45143 23.5462 6.45143C23.6128 6.45143 23.6672 6.50591 23.6672 6.5725ZM28.566 6.69878C28.3699 6.91562 28.3674 6.93645 28.5472 6.86743C28.6601 6.82421 28.7523 6.84322 28.7523 6.90981C28.7523 6.9764 28.841 7.06491 28.9493 7.10643C29.1605 7.18755 29.4788 6.98923 29.4788 6.77663C29.4788 6.70556 29.403 6.75096 29.3102 6.87773C29.1665 7.07435 29.1129 7.08428 28.9456 6.94541C28.7957 6.82106 28.7819 6.74333 28.8867 6.61693C29.1077 6.35069 28.813 6.42588 28.566 6.69878ZM15.7125 7.4653C15.7188 8.28993 15.7225 8.29913 16.1175 8.46415C16.5899 8.66162 18.3204 8.68523 18.9756 8.50326C19.3315 8.40446 19.427 8.31959 19.4176 8.1105C19.4022 7.76968 19.2156 7.17896 19.1995 7.42002C19.1895 7.57172 18.922 7.60163 17.5731 7.60163C16.5849 7.60163 15.9546 7.55465 15.9479 7.48055C15.942 7.41396 15.8851 7.19603 15.8215 6.99626C15.7251 6.69261 15.7071 6.76961 15.7125 7.4653ZM27.8184 7.7227C27.8193 8.05565 27.8428 8.17745 27.8707 7.99342C27.8984 7.80939 27.8977 7.53697 27.869 7.38805C27.8403 7.23913 27.8175 7.38975 27.8184 7.7227ZM12.0633 7.54109C12.0633 7.70756 12.0908 7.77573 12.1243 7.69243C12.158 7.60925 12.158 7.47305 12.1243 7.38975C12.0908 7.30657 12.0633 7.37461 12.0633 7.54109ZM28.175 7.78324C28.175 8.0163 28.2 8.11171 28.2304 7.99511C28.2609 7.87852 28.2609 7.68795 28.2304 7.57136C28.2 7.45476 28.175 7.55017 28.175 7.78324ZM18.6979 7.73977C18.9709 7.79437 19.0382 7.84765 18.9249 7.91956C18.7957 8.00141 18.7998 8.02284 18.9454 8.02768C19.0453 8.03095 18.909 8.13883 18.6427 8.26753C18.1284 8.51597 16.396 8.62772 16.766 8.3886C16.9175 8.29078 16.9075 8.2685 16.7055 8.25506C16.5723 8.2461 16.4174 8.24707 16.3612 8.257C16.305 8.26692 16.2822 8.20566 16.3106 8.12067C16.4033 7.8422 17.9645 7.59315 18.6979 7.73977ZM22.4277 7.74534C22.3119 7.77561 22.094 7.7767 21.9434 7.74776C21.7928 7.71882 21.8875 7.694 22.1538 7.69267C22.4202 7.69134 22.5434 7.71507 22.4277 7.74534ZM18.1887 7.86339C18.272 7.89705 18.4082 7.89705 18.4913 7.86339C18.5746 7.82985 18.5065 7.80237 18.34 7.80237C18.1735 7.80237 18.1055 7.82985 18.1887 7.86339ZM12.0537 8.21704C12.0595 8.35809 12.0882 8.38679 12.1269 8.29029C12.1619 8.20288 12.1575 8.09839 12.1173 8.05819C12.0771 8.018 12.0485 8.08943 12.0537 8.21704ZM23.9699 9.09265C23.8367 9.12292 23.0467 9.27123 22.2144 9.42245C21.382 9.57367 20.8181 9.70261 20.9614 9.70891C21.1045 9.71521 21.8591 9.61145 22.6381 9.47827C23.4171 9.34509 24.0763 9.23612 24.103 9.23612C24.1297 9.23612 24.1515 10.8979 24.1515 12.9289V16.6216L23.8791 16.6301C23.6211 16.6382 23.6195 16.6436 23.8488 16.7337C24.0002 16.7932 24.3406 16.7429 24.7569 16.5998C25.1231 16.4739 25.558 16.3864 25.7232 16.4054C26.1914 16.4592 26.1994 16.0598 25.7323 15.9572C25.2131 15.8431 25.2078 15.4109 25.7255 15.4109C26.008 15.4109 26.0887 15.3571 26.0887 15.1687C26.0887 14.9803 26.008 14.9266 25.7255 14.9266C25.4188 14.9266 25.3623 14.8795 25.3623 14.6239C25.3623 14.3683 25.4188 14.3212 25.7255 14.3212C26.008 14.3212 26.0887 14.2675 26.0887 14.0791C26.0887 13.8907 26.008 13.8369 25.7255 13.8369C25.443 13.8369 25.3623 13.7832 25.3623 13.5948C25.3623 13.3651 25.4176 13.3318 25.8466 13.304C26.1231 13.2859 26.1614 12.7448 25.8853 12.7568C25.7581 12.7624 25.729 12.7922 25.8163 12.8274C26.0696 12.9296 25.9853 13.1105 25.6846 13.1105C25.4459 13.1105 25.3991 13.0453 25.3859 12.6954C25.3721 12.3271 25.4114 12.2714 25.7363 12.2C26.1226 12.1152 26.191 11.792 25.8466 11.6782C25.6909 11.6267 25.6887 11.6469 25.8311 11.8195C25.978 11.9974 25.9635 12.0208 25.7061 12.0208C25.4498 12.0208 25.4154 11.9667 25.4189 11.5668C25.4224 11.1602 25.4584 11.1086 25.7629 11.0738C26.2141 11.0221 26.1604 10.644 25.6941 10.5902C25.5117 10.5691 25.3623 10.5055 25.3623 10.4487C25.3623 10.16 25.5396 9.96256 25.799 9.96256C26.0273 9.96256 26.0887 9.89839 26.0887 9.65988C26.0887 9.40429 26.0322 9.35719 25.7255 9.35719C25.5257 9.35719 25.3623 9.30646 25.3623 9.24435C25.3623 9.18236 25.2124 9.14798 25.0293 9.16808C24.8463 9.1883 24.5874 9.16711 24.4542 9.12122C24.321 9.07533 24.1031 9.0625 23.9699 9.09265ZM15.7369 9.30537C15.4706 9.40078 15.1434 9.53517 15.01 9.60406C14.8766 9.67307 14.5769 9.71375 14.3441 9.69462C13.9899 9.66557 13.9208 9.69947 13.9208 9.90202C13.9208 10.1003 14.0139 10.151 14.4354 10.1813C14.8968 10.2148 14.9499 10.2506 14.9499 10.5281C14.9499 10.8263 14.9301 10.8345 14.4051 10.7558C14.0844 10.7078 13.8603 10.7214 13.8603 10.7893C13.8603 10.8525 13.9284 10.8966 14.0116 10.8874C14.0949 10.8782 14.163 10.9251 14.163 10.9917C14.163 11.0583 14.0954 11.1053 14.0129 11.0962C13.9304 11.0871 13.8927 11.1279 13.9293 11.187C13.9657 11.2461 14.1269 11.2944 14.2874 11.2944C14.497 11.2944 14.5595 11.2433 14.5095 11.1128C14.4623 10.9897 14.5156 10.9311 14.675 10.9311C14.8666 10.9311 14.9139 11.0234 14.9297 11.4291L14.9492 11.9271L14.4155 11.8471C13.8267 11.7588 13.5905 11.9241 13.885 12.2185C14.0657 12.3993 14.5156 12.3208 14.3972 12.1292C14.3604 12.0696 14.4833 12.0225 14.6704 12.0247C14.9956 12.0283 15.0002 12.0363 14.7755 12.2063C14.5705 12.3613 14.5666 12.384 14.7452 12.384C14.8721 12.384 14.9499 12.4802 14.9499 12.6366C14.9499 12.8594 14.8893 12.8843 14.4354 12.8485C13.9793 12.8124 13.9165 12.8388 13.8821 13.0802C13.8468 13.3286 13.8922 13.3526 14.3966 13.3526C14.8768 13.3526 14.9499 13.386 14.9499 13.6052C14.9499 13.828 14.8893 13.8529 14.4354 13.8171C13.9876 13.7817 13.9161 13.8098 13.8841 14.0334C13.8408 14.3368 14.0465 14.4357 14.4656 14.313C14.6321 14.2642 14.7003 14.2189 14.617 14.2122C14.3753 14.193 14.4423 13.958 14.6894 13.958C14.8584 13.958 14.9158 14.0534 14.9241 14.3488C14.9303 14.5638 14.8705 14.7809 14.7913 14.8313C14.6821 14.9007 14.6839 14.9233 14.7986 14.9248C14.8819 14.9257 14.9499 14.9811 14.9499 15.0477C14.9499 15.1142 14.841 15.1687 14.7078 15.1687C14.5746 15.1687 14.4792 15.1007 14.4959 15.0174C14.5131 14.9314 14.3782 14.8491 14.1837 14.8268C13.8858 14.7927 13.8462 14.8243 13.881 15.069C13.9165 15.3192 13.9777 15.3467 14.4354 15.3179C14.9323 15.2865 15.0371 15.3675 14.9472 15.7136C14.9298 15.7801 14.92 15.9299 14.9252 16.0465C14.9306 16.1631 14.8533 16.2584 14.7537 16.2584C14.654 16.2584 14.6026 16.2096 14.6394 16.15C14.7111 16.0342 14.4412 15.8952 14.1447 15.8952C14.027 15.8952 13.978 15.9897 14.0033 16.1676C14.0349 16.3888 14.1104 16.4347 14.4052 16.4118C14.6049 16.3963 14.9459 16.4672 15.1631 16.5694C15.3804 16.6717 15.6108 16.7227 15.6752 16.6829C15.7397 16.643 15.8943 16.665 16.0188 16.7315C16.157 16.8055 16.3818 16.8117 16.5963 16.7475L16.9477 16.6424L16.6147 16.632L16.2817 16.6216V12.9289C16.2817 10.8979 16.2954 9.23624 16.312 9.23624C16.3286 9.23636 16.8054 9.31809 17.3714 9.41773C17.9374 9.51737 18.5367 9.59256 18.7032 9.58469C18.964 9.57246 16.6727 9.13357 16.3423 9.13248C16.2757 9.13224 16.0033 9.21009 15.7369 9.30537ZM24.4995 11.2036C24.4911 12.219 24.4462 13.8399 24.3997 14.8055C24.3259 16.3376 24.3123 16.1026 24.2938 12.9591C24.2801 10.6243 24.3152 9.35719 24.3937 9.35719C24.4697 9.35719 24.5091 10.0432 24.4995 11.2036ZM24.7569 12.9289C24.7569 15.5311 24.7192 16.5005 24.6183 16.5005C24.5167 16.5005 24.5 15.9747 24.5558 14.5331C24.5978 13.4511 24.6329 11.8437 24.634 10.9614C24.635 10.0792 24.6631 9.35719 24.6964 9.35719C24.7297 9.35719 24.7569 10.9644 24.7569 12.9289ZM25.001 16.3049C24.9177 16.3882 24.878 15.3123 24.878 12.9733C24.878 11.0732 24.9188 9.47778 24.9688 9.42778C25.0188 9.37777 25.0741 10.877 25.0918 12.7594C25.1125 14.9587 25.08 16.2258 25.001 16.3049ZM15.7975 13.0571C15.7975 15.272 15.7542 16.5005 15.6764 16.5005C15.5984 16.5005 15.5553 15.2471 15.5553 12.9823C15.5553 10.6676 15.5967 9.48953 15.6764 9.5388C15.7525 9.5859 15.7975 10.892 15.7975 13.0571ZM16.1607 12.9217C16.1607 15.0868 16.1158 16.3929 16.0396 16.44C15.9599 16.4893 15.9185 15.3112 15.9185 12.9965C15.9185 10.7317 15.9616 9.47827 16.0396 9.47827C16.1175 9.47827 16.1607 10.7068 16.1607 12.9217ZM25.8992 9.58663C25.9802 9.71763 25.6284 9.87055 25.4704 9.77296C25.4088 9.73482 25.3896 9.65298 25.428 9.59099C25.5166 9.44751 25.8116 9.44473 25.8992 9.58663ZM14.3446 9.90202C14.3446 10.0019 14.2628 10.0836 14.163 10.0836C13.9738 10.0836 13.9228 9.9404 14.0621 9.80117C14.2013 9.66181 14.3446 9.71291 14.3446 9.90202ZM15.4342 13.0499C15.4342 15.1889 15.3909 16.3795 15.3132 16.3795C15.2354 16.3795 15.1921 15.1889 15.1921 13.0499C15.1921 10.9109 15.2354 9.72041 15.3132 9.72041C15.3909 9.72041 15.4342 10.9109 15.4342 13.0499ZM19.6718 9.86522L19.9745 10.0301L20.0068 12.9419C20.0427 16.1584 20.0626 16.0685 19.2481 16.3542C18.985 16.4463 18.9515 16.4839 19.127 16.4905C19.2602 16.4956 19.5367 16.3975 19.7414 16.2726C20.0653 16.0751 20.1519 16.0667 20.4073 16.2083C20.5688 16.2977 20.7827 16.3727 20.8825 16.375C20.9824 16.3773 20.8735 16.2838 20.6404 16.1673L20.2166 15.9557L20.1841 13.137C20.1658 11.5417 20.201 10.226 20.2653 10.1058C20.352 9.94379 20.3309 9.89004 20.1768 9.87914C20.0655 9.87139 19.8383 9.82793 19.6718 9.78265L19.3691 9.70031L19.6718 9.86522ZM14.9499 9.96256C14.9499 10.0292 14.8715 10.0836 14.7755 10.0836C14.6795 10.0836 14.5673 10.0292 14.5262 9.96256C14.485 9.89597 14.5636 9.84149 14.7006 9.84149C14.8377 9.84149 14.9499 9.89597 14.9499 9.96256ZM27.6863 10.2652C27.6887 10.465 27.7158 10.5321 27.7466 10.4143C27.7773 10.2965 27.7753 10.133 27.7421 10.0511C27.7089 9.9691 27.6839 10.0655 27.6863 10.2652ZM16.5239 10.8706C16.5239 11.4847 16.5456 11.5365 16.8024 11.5365C17.1881 11.5365 17.3714 11.3156 17.3714 10.8506C17.3714 10.4502 17.1213 10.2047 16.7135 10.2047C16.5645 10.2047 16.5239 10.347 16.5239 10.8706ZM23.2586 10.5831C23.1477 11.1378 23.1585 11.1733 23.438 11.1733C23.6151 11.1733 23.6718 11.2289 23.6234 11.3549C23.5769 11.4761 23.6285 11.5365 23.7781 11.5365C23.9941 11.5365 23.9933 11.5115 23.7572 10.8706C23.6223 10.5044 23.4719 10.2047 23.4232 10.2047C23.3742 10.2047 23.3003 10.3749 23.2586 10.5831ZM17.0687 10.8706C17.0687 11.1343 17.0033 11.3565 16.9174 11.3852C16.8107 11.4208 16.766 11.2688 16.766 10.8706C16.766 10.4724 16.8107 10.3205 16.9174 10.356C17.0033 10.3847 17.0687 10.6069 17.0687 10.8706ZM17.566 10.5173C17.3318 11.1274 17.6724 11.7995 18.0862 11.5437C18.2491 11.443 18.3031 10.681 18.1634 10.4548C18.0425 10.2593 17.6492 10.3005 17.566 10.5173ZM18.4611 10.7567C18.4611 10.9936 18.5117 11.1563 18.5735 11.1181C18.6353 11.0799 18.7075 11.1721 18.7339 11.3228C18.7759 11.5638 18.7932 11.5713 18.8768 11.3842C18.9623 11.1932 18.6665 10.3258 18.5159 10.3258C18.4858 10.3258 18.4611 10.5197 18.4611 10.7567ZM21.7223 10.356C21.6494 10.6417 21.7011 11.5366 21.7906 11.5363C21.8572 11.536 21.9148 11.2636 21.9188 10.9308C21.9227 10.5981 21.8819 10.3258 21.828 10.3258C21.7741 10.3258 21.7265 10.3395 21.7223 10.356ZM22.1409 10.5173C22.1813 10.6227 22.2144 10.8951 22.2144 11.1227C22.2144 11.3503 22.2594 11.5365 22.3145 11.5365C22.3696 11.5365 22.3952 11.3594 22.3717 11.143C22.3336 10.7935 22.3461 10.7744 22.4835 10.972C22.5685 11.0942 22.7002 11.2826 22.776 11.3907C22.8883 11.5504 22.9221 11.4693 22.9576 10.9563C22.9817 10.6095 22.9604 10.3257 22.9105 10.3257C22.8606 10.3258 22.818 10.4757 22.8158 10.6587L22.8121 10.9917L22.5637 10.6587C22.2946 10.2982 22.0217 10.2069 22.1409 10.5173ZM18.0784 10.7389C18.14 11.0567 17.9861 11.5566 17.8522 11.4738C17.6703 11.3614 17.7024 10.416 17.886 10.4771C17.9693 10.5047 18.0557 10.6227 18.0784 10.7389ZM19.0176 10.549C18.9239 10.7006 19.0812 11.5365 19.2034 11.5365C19.2612 11.5365 19.3086 11.2913 19.3086 10.9917C19.3086 10.4942 19.176 10.2926 19.0176 10.549ZM19.4902 11.0522C19.4902 11.4558 19.5407 11.6576 19.6415 11.6576C19.7424 11.6576 19.7929 11.4558 19.7929 11.0522C19.7929 10.6487 19.7424 10.4469 19.6415 10.4469C19.5407 10.4469 19.4902 10.6487 19.4902 11.0522ZM20.5593 11.0825C20.5496 11.5678 20.5664 11.6323 20.6305 11.3549L20.7143 10.9917L20.8156 11.2924L20.9168 11.5931L21.0434 11.2924L21.1702 10.9917L21.2162 11.3267C21.2917 11.8755 21.4344 11.6036 21.3866 11.0022C21.3391 10.4042 21.1938 10.2806 21.0545 10.7193L20.9679 10.9917L20.8461 10.7193C20.655 10.2913 20.573 10.3952 20.5593 11.0825ZM23.5462 10.9383C23.5462 11.001 23.4917 11.0522 23.4251 11.0522C23.3585 11.0522 23.304 10.9672 23.304 10.8635C23.304 10.7597 23.3585 10.7084 23.4251 10.7495C23.4917 10.7907 23.5462 10.8756 23.5462 10.9383ZM25.9071 10.8101C25.9483 10.8767 25.8697 10.9311 25.7326 10.9311C25.5956 10.9311 25.4833 10.8767 25.4833 10.8101C25.4833 10.7435 25.5618 10.689 25.6578 10.689C25.7538 10.689 25.8659 10.7435 25.9071 10.8101ZM23.0619 11.4154C23.0619 11.482 23.1196 11.5365 23.1901 11.5365C23.2605 11.5365 23.2846 11.482 23.2435 11.4154C23.2023 11.3489 23.1447 11.2944 23.1153 11.2944C23.0858 11.2944 23.0619 11.3489 23.0619 11.4154ZM10.8108 11.4981C10.8981 11.5331 11.0026 11.5288 11.0428 11.4886C11.083 11.4484 11.0115 11.4198 10.8839 11.425C10.7429 11.4308 10.7142 11.4595 10.8108 11.4981ZM29.842 11.6434C29.842 11.7023 29.7195 11.7833 29.5696 11.8235C29.1586 11.9335 27.3227 11.9141 27.2515 11.799C27.2172 11.7436 27.609 11.7212 28.1221 11.7492C28.6353 11.7772 29.1912 11.7443 29.3577 11.676C29.7442 11.5175 29.842 11.511 29.842 11.6434ZM12.7276 11.8713C12.8039 11.9202 12.8856 12.2607 12.9092 12.6278L12.9522 13.2952L11.7295 13.2937L10.5069 13.2921L10.5679 12.75C10.6309 12.1906 10.8748 11.7939 11.0157 12.0219C11.0578 12.0901 11.1422 12.115 11.2032 12.0774C11.303 12.0156 12.1652 11.8223 12.4679 11.7938C12.5345 11.7875 12.6514 11.8224 12.7276 11.8713ZM14.2235 12.0208C14.2235 12.0874 14.169 12.1419 14.1024 12.1419C14.0358 12.1419 13.9813 12.0874 13.9813 12.0208C13.9813 11.9542 14.0358 11.8997 14.1024 11.8997C14.169 11.8997 14.2235 11.9542 14.2235 12.0208ZM29.0905 12.2327C29.0026 12.3385 29.0057 12.384 29.1008 12.384C29.1755 12.384 29.2302 12.425 29.2223 12.4748C29.184 12.7177 29.2534 12.7894 29.3691 12.6262C29.4696 12.4843 29.4862 12.5172 29.4445 12.7775C29.4102 12.9921 29.4452 13.1105 29.5432 13.1105C29.6267 13.1105 29.7281 13.1967 29.7685 13.302C29.8724 13.5726 29.8641 13.5948 29.6604 13.5948C29.5605 13.5948 29.4788 13.5455 29.4788 13.4852C29.4788 13.4249 29.2745 13.3958 29.0247 13.4205C28.7751 13.4452 28.2575 13.4905 27.8745 13.5213L27.1784 13.5772V12.8293V12.0813H28.1972C28.9986 12.0813 29.1892 12.1137 29.0905 12.2327ZM11.1447 12.3321C10.9138 12.5631 10.9061 12.6774 11.1101 12.8468C11.2304 12.9465 11.2647 12.9019 11.2614 12.6497C11.2583 12.4035 11.3162 12.3235 11.4976 12.3235C11.7833 12.3235 11.9 12.7268 11.6625 12.8933C11.5313 12.9854 11.5349 12.9981 11.681 12.9583C11.9181 12.8936 11.9822 12.5406 11.7972 12.3177C11.6081 12.0897 11.3821 12.0948 11.1447 12.3321ZM16.5715 12.3334C16.6119 12.4388 16.645 12.7384 16.645 12.9993C16.645 13.2602 16.69 13.4737 16.7451 13.4737C16.8002 13.4737 16.8245 13.2966 16.7992 13.0802L16.7533 12.6867L17.1228 13.1059L17.4925 13.525V12.8335C17.4925 12.4532 17.4489 12.1419 17.3957 12.1419C17.3425 12.1419 17.32 12.3463 17.3456 12.5959L17.3922 13.0499L17.0599 12.5959C16.7232 12.1362 16.4367 11.9822 16.5715 12.3334ZM17.7736 12.3109C17.8092 12.4039 17.9055 12.7035 17.9873 12.9768C18.0692 13.2501 18.1734 13.4737 18.2189 13.4737C18.2644 13.4737 18.3687 13.2501 18.4505 12.9768C18.5324 12.7035 18.6286 12.4039 18.6642 12.3109C18.6999 12.2179 18.6688 12.1419 18.5951 12.1419C18.5214 12.1419 18.4602 12.2644 18.4593 12.4143C18.4582 12.5642 18.4113 12.7594 18.355 12.8482C18.2733 12.977 18.237 12.9689 18.1752 12.808C18.1327 12.6971 18.0979 12.5018 18.0979 12.3741C18.0979 12.2415 18.0143 12.1419 17.9033 12.1419C17.7866 12.1419 17.7346 12.2094 17.7736 12.3109ZM18.8784 12.2733C18.8339 12.3455 18.8963 12.5885 19.0174 12.8134C19.2322 13.2123 19.164 13.5812 18.9406 13.228C18.8462 13.0786 18.8277 13.0841 18.8261 13.2618C18.8249 13.4076 18.9187 13.4737 19.127 13.4737C19.365 13.4737 19.4297 13.4122 19.4297 13.1858C19.4297 13.0275 19.3479 12.8302 19.2481 12.7473C18.9651 12.5125 19.0161 12.2306 19.3237 12.3283C19.4969 12.3833 19.554 12.3661 19.4982 12.2759C19.3919 12.1039 18.9842 12.1022 18.8784 12.2733ZM20.5192 12.2427C20.2803 12.3225 20.4039 12.481 20.654 12.4155C20.8914 12.3535 20.9065 12.3889 20.865 12.9112C20.8336 13.3059 20.8657 13.4737 20.9725 13.4737C21.0726 13.4737 21.1247 13.2831 21.1247 12.9159C21.1247 12.4568 21.1586 12.3711 21.3165 12.4317C21.4322 12.4762 21.4897 12.4499 21.4615 12.3653C21.4178 12.2344 20.7892 12.1527 20.5192 12.2427ZM21.7906 12.8074C21.7906 13.2589 21.8393 13.4731 21.9419 13.4733C22.0447 13.4736 22.0933 13.26 22.0933 12.8078C22.0933 12.3558 22.0446 12.1419 21.9419 12.1419C21.8393 12.1419 21.7906 12.3557 21.7906 12.8074ZM22.4607 12.376C22.1716 12.9164 22.3846 13.4737 22.8803 13.4737C23.2148 13.4737 23.4251 13.251 23.4251 12.8967C23.4251 12.4481 23.2041 12.1419 22.8803 12.1419C22.7133 12.1419 22.5319 12.2432 22.4607 12.376ZM23.1224 12.8095C23.1224 13.2113 23.082 13.2921 22.8803 13.2921C22.7043 13.2921 22.6273 13.1983 22.5988 12.949C22.5449 12.4776 22.6577 12.2373 22.9102 12.286C23.0701 12.3167 23.1224 12.4458 23.1224 12.8095ZM11.3951 12.4681C11.2588 12.6044 11.3122 12.7473 11.4993 12.7473C11.5992 12.7473 11.681 12.696 11.681 12.6333C11.681 12.4806 11.4918 12.3713 11.3951 12.4681ZM28.2277 12.4648C28.0604 12.632 28.1549 12.7703 28.3346 12.6211C28.4889 12.4931 28.5546 12.4977 28.7039 12.647C28.8654 12.8084 28.8647 12.8459 28.6978 12.9843C28.5443 13.1118 28.4735 13.1099 28.3088 12.9739C28.1363 12.8315 28.1161 12.8337 28.1677 12.9894C28.2485 13.2341 28.7554 13.2204 28.9137 12.9693C29.1349 12.6187 28.5234 12.169 28.2277 12.4648ZM29.68 12.8986C29.6465 12.9819 29.619 12.9137 29.619 12.7473C29.619 12.5808 29.6465 12.5127 29.68 12.5959C29.7136 12.6792 29.7136 12.8154 29.68 12.8986ZM23.6672 12.7544C23.6672 12.8249 23.7217 12.849 23.7883 12.8078C23.8549 12.7666 23.9094 12.709 23.9094 12.6796C23.9094 12.6502 23.8549 12.6262 23.7883 12.6262C23.7217 12.6262 23.6672 12.6839 23.6672 12.7544ZM28.3891 12.8078C28.3891 12.9188 28.4477 12.99 28.5193 12.9662C28.5908 12.9423 28.6494 12.871 28.6494 12.8078C28.6494 12.7446 28.5908 12.6733 28.5193 12.6494C28.4477 12.6256 28.3891 12.6968 28.3891 12.8078ZM19.6113 12.8683C19.5701 12.9349 19.5942 12.9894 19.6647 12.9894C19.7351 12.9894 19.7929 12.9349 19.7929 12.8683C19.7929 12.8017 19.7689 12.7473 19.7395 12.7473C19.7101 12.7473 19.6524 12.8017 19.6113 12.8683ZM14.2235 13.0499C14.2235 13.1498 14.169 13.2315 14.1024 13.2315C14.0358 13.2315 13.9813 13.1498 13.9813 13.0499C13.9813 12.9501 14.0358 12.8683 14.1024 12.8683C14.169 12.8683 14.2235 12.9501 14.2235 13.0499ZM10.3082 13.3829C10.2747 13.4662 10.2472 13.398 10.2472 13.2315C10.2472 13.0651 10.2747 12.997 10.3082 13.0802C10.3419 13.1635 10.3419 13.2997 10.3082 13.3829ZM14.9499 13.1105C14.9499 13.1771 14.8442 13.2315 14.7149 13.2315C14.5856 13.2315 14.4463 13.1771 14.4051 13.1105C14.3626 13.0418 14.4644 12.9894 14.6401 12.9894C14.8105 12.9894 14.9499 13.0439 14.9499 13.1105ZM12.778 13.5543C12.8332 13.6099 12.3139 13.6553 11.6238 13.6553C10.9338 13.6553 10.3892 13.6353 10.4136 13.611C10.6512 13.3736 12.5529 13.3279 12.778 13.5543ZM12.8628 15.2396C13.2726 17.3703 13.9 18.7209 15.1129 20.0833C16.8508 22.0355 19.3258 22.8569 21.6477 22.2521C23.4809 21.7746 25.2363 20.2673 26.3719 18.1956C26.8704 17.2862 27.4737 15.5152 27.599 14.5935C27.6466 14.2438 27.7349 13.9884 27.7954 14.0257C28.0599 14.1891 27.4564 16.6752 26.8271 18.014C26.2973 19.1415 25.1564 20.6057 24.3069 21.2484C23.1834 22.0986 21.29 22.7878 20.0602 22.7943C19.3212 22.7982 17.7999 22.4152 17.1205 22.0543C14.6502 20.7419 12.8015 17.798 12.4734 14.6542C12.3383 13.359 12.5672 13.7034 12.8628 15.2396ZM14.2361 14.1149C14.0806 14.2704 13.9231 14.1503 14.0381 13.964C14.0827 13.892 14.1746 13.8673 14.2424 13.9092C14.3251 13.9603 14.323 14.028 14.2361 14.1149ZM25.8466 14.0791C25.8466 14.1457 25.7376 14.2001 25.6044 14.2001C25.4712 14.2001 25.3623 14.1457 25.3623 14.0791C25.3623 14.0125 25.4712 13.958 25.6044 13.958C25.7376 13.958 25.8466 14.0125 25.8466 14.0791ZM16.5844 14.745C16.5844 15.1969 16.6331 15.4109 16.7358 15.4109C16.8384 15.4109 16.8871 15.1969 16.8871 14.745C16.8871 14.293 16.8384 14.0791 16.7358 14.0791C16.6331 14.0791 16.5844 14.293 16.5844 14.745ZM17.2313 14.7451C17.1983 15.2749 17.227 15.4111 17.3714 15.4111C17.5108 15.411 17.553 15.2561 17.553 14.7453C17.553 13.8484 17.2871 13.8483 17.2313 14.7451ZM18.1584 14.6899C18.1584 15.2923 18.1632 15.3001 18.5123 15.265C18.707 15.2454 18.8908 15.1475 18.9209 15.0477C18.9651 14.901 18.9446 14.8952 18.8152 15.0174C18.5285 15.2879 18.4359 15.179 18.4801 14.6239C18.5137 14.2 18.4829 14.0791 18.3408 14.0791C18.2023 14.0791 18.1584 14.2263 18.1584 14.6899ZM19.0139 14.3515C19.2039 14.9611 19.3087 15.1687 19.4266 15.1687C19.6053 15.1687 19.5795 14.9621 19.3587 14.625C19.253 14.4637 19.2018 14.275 19.2448 14.2055C19.2878 14.136 19.2342 14.0791 19.126 14.0791C18.9773 14.0791 18.9498 14.1459 19.0139 14.3515ZM19.5851 14.412C19.5691 14.6993 19.581 14.7118 19.6712 14.5028C19.8075 14.1874 19.8144 14.0791 19.6982 14.0791C19.6461 14.0791 19.5953 14.229 19.5851 14.412ZM20.5003 14.6239C20.4766 14.9236 20.4983 15.1687 20.5487 15.1687C20.5991 15.1687 20.6426 14.9916 20.6451 14.7752L20.6498 14.3817L20.8362 14.8055L21.0224 15.2293L21.1847 14.866L21.3472 14.5028L21.357 14.8963C21.3632 15.1434 21.4283 15.2898 21.5322 15.2898C21.6607 15.2898 21.6767 15.1754 21.6037 14.7763C21.552 14.4939 21.5353 14.2214 21.5665 14.171C21.5977 14.1203 21.5442 14.0791 21.4476 14.0791C21.3511 14.0791 21.2341 14.229 21.1879 14.412L21.1039 14.745L20.9288 14.412C20.6784 13.9358 20.5501 13.9993 20.5003 14.6239ZM21.9537 14.6843C21.9803 15.0697 22.0513 15.2898 22.1487 15.2898C22.247 15.2898 22.2811 15.1808 22.2437 14.9854C22.1973 14.7425 22.2251 14.6962 22.3816 14.7562C22.4894 14.7976 22.5776 14.7711 22.5776 14.6974C22.5776 14.6237 22.4958 14.5634 22.396 14.5634C22.2961 14.5634 22.2144 14.4816 22.2144 14.3817C22.2144 14.1628 22.3556 14.1477 22.5534 14.3454C22.6663 14.4584 22.6986 14.4449 22.6986 14.2849C22.6986 14.1334 22.5948 14.0791 22.3052 14.0789H21.9117L21.9537 14.6843ZM23.2494 14.2102C22.9281 15.0924 22.8477 15.4109 22.9461 15.4109C23.0098 15.4109 23.0619 15.3291 23.0619 15.2293C23.0619 15.1253 23.171 15.0477 23.317 15.0477C23.494 15.0477 23.5508 15.1032 23.5023 15.2293C23.46 15.3399 23.5022 15.4109 23.6105 15.4109C23.8248 15.4109 23.826 15.39 23.6468 14.759C23.479 14.1677 23.3366 13.9709 23.2494 14.2102ZM23.4251 14.745C23.4251 14.8449 23.3706 14.9266 23.304 14.9266C23.2374 14.9266 23.1829 14.8449 23.1829 14.745C23.1829 14.6451 23.2374 14.5634 23.304 14.5634C23.3706 14.5634 23.4251 14.6451 23.4251 14.745ZM14.3213 15.0567C14.2975 15.1283 14.2262 15.1869 14.163 15.1869C14.0998 15.1869 14.0284 15.1283 14.0046 15.0567C13.9807 14.9852 14.0519 14.9266 14.163 14.9266C14.274 14.9266 14.3452 14.9852 14.3213 15.0567ZM17.7952 15.1687C17.754 15.2353 17.7781 15.2898 17.8486 15.2898C17.919 15.2898 17.9768 15.2353 17.9768 15.1687C17.9768 15.1021 17.9528 15.0477 17.9234 15.0477C17.894 15.0477 17.8363 15.1021 17.7952 15.1687ZM22.5373 15.1284C22.4928 15.1727 22.4565 15.2653 22.4565 15.3342C22.4565 15.41 22.5129 15.4029 22.5997 15.3161C22.6785 15.2373 22.7149 15.1446 22.6805 15.1102C22.6461 15.0757 22.5816 15.084 22.5373 15.1284ZM25.9071 15.1687C25.9496 15.2374 25.8478 15.2898 25.6721 15.2898C25.5017 15.2898 25.3623 15.2353 25.3623 15.1687C25.3623 15.1021 25.468 15.0477 25.5973 15.0477C25.7266 15.0477 25.8659 15.1021 25.9071 15.1687ZM11.802 16.1302C11.802 16.1929 11.8559 16.2774 11.9218 16.3181C11.9903 16.3605 12.0106 16.3119 11.9693 16.2041C11.8888 15.9944 11.802 15.9561 11.802 16.1302ZM14.3627 16.1979C14.3627 16.2611 14.3041 16.3324 14.2326 16.3562C14.161 16.3801 14.1024 16.3089 14.1024 16.1979C14.1024 16.0868 14.161 16.0156 14.2326 16.0395C14.3041 16.0633 14.3627 16.1347 14.3627 16.1979ZM25.8466 16.1373C25.9881 16.2287 25.9547 16.2551 25.6952 16.2566C25.5122 16.2575 25.3623 16.2039 25.3623 16.1373C25.3623 15.9843 25.6096 15.9843 25.8466 16.1373ZM28.7523 16.1711C28.3222 16.386 28.0262 17.0528 28.0261 17.8075C28.0259 18.3271 28.0823 18.5051 28.3231 18.7458C28.6264 19.0493 28.9275 19.1282 29.0465 18.9357C29.0831 18.8766 29.0182 18.8358 28.9023 18.8449C28.5866 18.8698 28.627 18.3864 28.9446 18.3411C29.5925 18.2485 29.5577 19.2099 28.9079 19.3525C28.7224 19.3932 28.4998 19.4486 28.4131 19.4756C28.3264 19.5026 28.2864 19.4745 28.3242 19.4133C28.4012 19.2889 28.1683 19.1025 28.0649 19.2058C28.0287 19.2421 28.1548 19.4199 28.3454 19.6009C28.5358 19.7819 28.6017 19.8976 28.4918 19.858C28.2082 19.7562 28.1128 19.8994 28.3492 20.0723C28.5173 20.1952 28.494 20.2105 28.1959 20.1721C27.9653 20.1425 27.74 20.2141 27.5416 20.3801C27.3022 20.5804 27.2918 20.6076 27.4917 20.5102C27.782 20.3691 28.3011 20.4656 28.193 20.6406C28.1531 20.7051 27.9857 20.7239 27.8209 20.6825C27.6282 20.6341 27.5491 20.6523 27.5991 20.7333C27.7333 20.9504 27.4951 20.8717 26.9946 20.5334L26.5125 20.2077L26.9086 20.6617C27.2606 21.0653 27.3503 21.4641 27.047 21.2765C26.9839 21.2375 26.9613 21.1587 26.9968 21.1013C27.0322 21.0439 27.0172 20.9698 26.9635 20.9366C26.9097 20.9034 26.8678 21.0307 26.8702 21.2196C26.8728 21.4085 26.9213 21.5343 26.9781 21.4992C27.035 21.4641 27.0212 21.5479 26.9476 21.6854C26.7743 22.0091 26.6099 22.1066 26.51 21.945C26.4556 21.8568 26.3704 21.8658 26.2409 21.9732C26.1368 22.0597 26.0327 22.1168 26.0095 22.1002C25.9865 22.0836 25.8722 22.0708 25.7558 22.0717C25.5746 22.0733 25.5703 22.0907 25.7255 22.191C25.9559 22.3399 26.1237 22.3456 26.0347 22.2016C25.9538 22.0706 26.2819 22.1016 26.4181 22.238C26.47 22.2898 26.4307 22.3141 26.3309 22.2918C26.188 22.2601 26.1575 22.3566 26.1877 22.7444C26.2317 23.3051 26.0237 23.5646 25.5808 23.5019C25.3958 23.4756 25.2883 23.3672 25.2618 23.1802C25.2285 22.9448 25.2686 22.9052 25.5039 22.9409C25.659 22.9644 25.771 23.0546 25.7527 23.1412C25.7344 23.2277 25.7754 23.2642 25.8435 23.2219C26.0121 23.1178 26.0002 22.7563 25.8223 22.5784C25.6101 22.3662 25.1741 22.4009 24.9895 22.645C24.853 22.8253 24.8545 22.8343 24.9988 22.7056C25.0921 22.6224 25.2479 22.5542 25.3447 22.5542C25.49 22.5542 25.4858 22.593 25.3205 22.7757C24.9555 23.1791 25.1509 23.6439 25.6855 23.6439C25.8789 23.6439 26.1984 23.3652 26.7616 22.7056C27.4728 21.8726 27.5556 21.723 27.4992 21.3737C27.4388 20.9994 27.4545 20.98 27.8216 20.9764C28.3591 20.9711 28.5114 20.818 29.1192 19.6733C29.5403 18.8799 29.6251 18.6256 29.5231 18.4625C29.3187 18.1361 28.8084 18.1354 28.5791 18.4611C28.4113 18.6992 28.3642 18.7136 28.2593 18.5588C28.0554 18.2577 28.1919 17.0236 28.4703 16.6503C28.789 16.2229 29.0846 16.1613 29.1365 16.5113C29.217 17.0542 29.907 17.1301 30.0605 16.613C30.0898 16.5143 30.0375 16.5367 29.9387 16.6651C29.7496 16.9106 29.3487 16.898 29.2642 16.6439C29.2349 16.5561 29.3255 16.4546 29.4661 16.4178C29.7681 16.3389 29.7965 16.1923 29.5294 16.0897C29.2532 15.9838 29.0938 16.0005 28.7523 16.1711ZM21.4576 16.467C21.674 16.4939 22.0283 16.4939 22.2446 16.467C22.461 16.4402 22.284 16.4182 21.8511 16.4182C21.4183 16.4182 21.2413 16.4402 21.4576 16.467ZM27.9604 16.5086C27.9164 16.5796 27.9065 16.6637 27.9382 16.6955C27.9699 16.7272 28.0282 16.6691 28.0677 16.5663C28.1495 16.3529 28.0798 16.3154 27.9604 16.5086ZM17.7649 16.5872C17.948 16.615 18.2477 16.615 18.4308 16.5872C18.6139 16.5595 18.4641 16.5369 18.0979 16.5369C17.7316 16.5369 17.5818 16.5595 17.7649 16.5872ZM19.8339 16.8345C19.7114 17.0495 19.5432 17.2258 19.4599 17.2262C19.3768 17.2266 19.3086 17.3359 19.3086 17.4691C19.3086 17.6346 19.3893 17.7113 19.5637 17.7113C19.7465 17.7113 19.798 17.7655 19.7453 17.9028C19.7049 18.0081 19.6718 18.2028 19.6718 18.3354C19.6718 18.4989 19.6042 18.5635 19.4622 18.5361C19.3313 18.511 19.2518 18.3827 19.2504 18.1944C19.2487 17.9744 19.1825 17.8929 19.0059 17.8929C18.8175 17.8929 18.7638 17.9736 18.7638 18.2561C18.7638 18.5524 18.7146 18.6176 18.4974 18.6104C18.3509 18.6054 18.2588 18.6463 18.2927 18.7012C18.3806 18.8434 18.7523 18.8245 18.9069 18.6699C19.0008 18.576 19.1137 18.5845 19.3059 18.7002C19.5446 18.8438 19.5941 18.8317 19.7586 18.5891C19.9715 18.2754 20.22 18.2352 20.321 18.4982C20.401 18.7069 20.8294 18.7428 20.9479 18.5509C21 18.4666 21.1089 18.4956 21.2621 18.6341C21.4863 18.837 21.508 18.8347 21.7626 18.5801C21.9936 18.3491 22.008 18.2807 21.8717 18.0625C21.7302 17.8357 21.7382 17.8187 21.9544 17.8872C22.0861 17.9291 22.229 17.9066 22.2719 17.8373C22.3147 17.7679 22.4004 17.7113 22.4626 17.7113C22.5831 17.7113 21.918 18.8609 21.6218 19.1642C21.4894 19.3 21.1828 19.3425 20.4068 19.3329L19.3691 19.3202L20.2166 19.3935L21.0642 19.4668L19.914 19.5478C19.2813 19.5924 18.6548 19.6656 18.5216 19.7107C18.3262 19.7765 18.3145 19.7672 18.4611 19.6618C18.561 19.5898 18.7789 19.5248 18.9454 19.5172C19.2183 19.5046 19.2235 19.4955 18.9988 19.4245C18.5668 19.2881 18.1256 18.8597 17.9267 18.3835C17.8211 18.1307 17.7346 17.9101 17.7346 17.8932C17.7346 17.8084 18.3536 17.8774 18.4099 17.9686C18.4459 18.0268 18.4235 18.0745 18.3601 18.0745C18.2967 18.0745 18.2137 18.1554 18.1758 18.2543C18.1181 18.4048 18.1457 18.4099 18.3445 18.2858C18.4752 18.2042 18.5821 18.1026 18.5821 18.0602C18.5821 17.9027 18.2661 17.7304 17.826 17.6482L17.3726 17.5634L17.6992 18.2731C17.9275 18.7692 18.0234 19.1719 18.0181 19.6124C18.0108 20.2128 18.0297 20.2514 18.4229 20.438C18.9345 20.6806 20.6059 20.7118 21.3346 20.4922C21.9732 20.2998 22.2817 19.9895 22.1206 19.7016C21.9657 19.4246 22.1554 18.5912 22.4731 18.1534C22.6494 17.9107 22.6855 17.7707 22.5951 17.6804C22.5047 17.59 22.4179 17.5926 22.3014 17.6894C22.1867 17.7844 22.0973 17.7879 22.01 17.7006C21.9227 17.6133 21.8216 17.6369 21.6811 17.7775C21.4914 17.9672 21.4915 17.99 21.6832 18.1301C21.9321 18.3122 21.8081 18.5588 21.4677 18.5588C21.2663 18.5588 21.2333 18.5041 21.2923 18.2687C21.339 18.083 21.307 17.9564 21.2036 17.9167C20.9609 17.8235 20.7377 18.0101 20.7824 18.2689C20.8068 18.4096 20.7518 18.4982 20.6404 18.4982C20.5135 18.4982 20.4588 18.3704 20.4588 18.0745C20.4588 17.7452 20.506 17.6545 20.6707 17.6676C20.9678 17.6912 20.9347 17.3983 20.615 17.1743C20.4677 17.0713 20.2819 16.8646 20.202 16.7152C20.0568 16.444 20.0561 16.4442 19.8339 16.8345ZM23.0944 16.5844C23.2122 16.6152 23.3757 16.6131 23.4577 16.58C23.5396 16.5468 23.4433 16.5217 23.2435 16.5241C23.0437 16.5266 22.9766 16.5537 23.0944 16.5844ZM20.1561 17.1884C20.1561 17.4544 20.1829 17.4766 20.3428 17.3438C20.4843 17.2264 20.5636 17.2229 20.6697 17.3289C20.7759 17.4351 20.761 17.4691 20.6083 17.4691C20.4975 17.4691 20.3461 17.5826 20.2718 17.7213C20.1479 17.9529 20.1197 17.9579 19.9251 17.7819C19.8086 17.6764 19.6494 17.5902 19.5714 17.5902C19.4935 17.5902 19.4297 17.5294 19.4297 17.455C19.4297 17.3794 19.5364 17.3477 19.6718 17.3832C19.8738 17.4359 19.914 17.3868 19.914 17.0874C19.914 16.8789 19.9647 16.7598 20.035 16.8032C20.1016 16.8444 20.1561 17.0178 20.1561 17.1884ZM12.3034 17.2875C12.3034 17.4207 12.3501 17.6386 12.4074 17.7718L12.5114 18.014V17.7718C12.5114 17.6386 12.4647 17.4207 12.4074 17.2875L12.3034 17.0454V17.2875ZM10.7698 17.9815C10.6383 18.0523 10.5239 18.1158 10.5155 18.1226C10.5071 18.1295 10.4662 18.2462 10.4247 18.382C10.3715 18.5554 10.5286 18.9134 10.9522 19.5842C11.6302 20.658 11.7416 20.7578 12.1472 20.6561C12.4099 20.5902 12.4276 20.6133 12.3591 20.9335C12.2781 21.3119 12.3391 21.4299 13.2549 22.6664C13.5546 23.071 13.923 23.4353 14.0737 23.4759C14.5657 23.6086 14.9156 23.0526 14.5625 22.6995C14.4495 22.5865 14.4558 22.5542 14.591 22.5542C14.6865 22.5542 15.1196 22.9292 15.5535 23.3873C15.9873 23.8456 16.4785 24.3026 16.645 24.403C16.8255 24.5119 17.4288 24.6186 18.1394 24.6677C18.7949 24.7128 19.3942 24.7728 19.4712 24.801C19.5482 24.8291 19.6829 24.8064 19.7705 24.7506C19.9002 24.6678 19.8942 24.573 19.7384 24.2373C19.6332 24.0107 19.5753 23.9345 19.6098 24.0676C19.6714 24.3063 19.6698 24.3064 19.4904 24.0748C19.3594 23.9054 19.3081 23.8886 19.3068 24.0142C19.3052 24.1613 19.2866 24.1603 19.1875 24.0071C19.0899 23.856 19.0684 23.8662 19.0598 24.0676L19.0494 24.3098L18.9454 24.0676C18.8605 23.8703 18.8398 23.8633 18.8328 24.0302C18.8282 24.1428 18.7613 24.2738 18.6845 24.3213C18.5979 24.3749 18.5775 24.3546 18.6312 24.268C18.6832 24.1836 18.6375 24.1282 18.5158 24.1282C18.3862 24.1282 18.339 24.0632 18.3838 23.9466C18.4221 23.8467 18.4007 23.7649 18.3362 23.7649C18.2717 23.7649 18.2189 23.8382 18.2189 23.9278C18.2189 24.2846 17.7625 24.527 17.2259 24.4551C16.7769 24.3948 16.5929 24.2622 15.7763 23.4096C15.2618 22.8725 14.7625 22.4331 14.6666 22.4331C14.5709 22.4331 14.3638 22.5414 14.2067 22.6736L13.9208 22.914L14.2235 22.8855C14.4544 22.8637 14.5262 22.9139 14.5262 23.0973C14.5262 23.3732 14.17 23.4874 13.9303 23.2885C13.842 23.2153 13.7339 22.8839 13.6898 22.5522C13.6368 22.1524 13.5524 21.9488 13.4395 21.9488C13.193 21.9488 13.0909 21.7228 13.2503 21.5305C13.3473 21.4138 13.3495 21.3413 13.2578 21.2848C13.1863 21.2406 13.1428 21.2734 13.1611 21.3575C13.1794 21.4418 13.0985 21.5316 12.9812 21.5573C12.7994 21.597 12.7711 21.5212 12.7891 21.0439C12.8063 20.5883 12.8759 20.4288 13.163 20.1873C13.5402 19.8699 13.4728 19.7792 13.0804 20.0761C12.7627 20.3163 12.6546 20.2996 12.7087 20.0187C12.7399 19.8571 12.7014 19.8037 12.5855 19.8481C12.4679 19.8933 12.4314 19.8383 12.4644 19.6665C12.5009 19.4776 12.4645 19.438 12.3082 19.4965C12.1246 19.5653 12.1224 19.5506 12.2863 19.3452C12.3862 19.2201 12.4036 19.1563 12.3249 19.2034C12.0999 19.3384 12.0339 19.1026 12.2258 18.849C12.3214 18.7227 12.3967 18.4831 12.3931 18.3166C12.3868 18.0245 12.3829 18.0261 12.2829 18.3599C12.1167 18.9146 11.8161 19.1642 11.3137 19.1642C10.7822 19.1642 10.559 18.9448 10.6128 18.4752C10.6437 18.206 10.7212 18.127 10.9848 18.0968C11.2715 18.0637 11.3177 18.1016 11.3177 18.3692C11.3177 18.5698 11.2509 18.6799 11.129 18.6799C11.0252 18.6799 10.9739 18.7343 11.015 18.8009C11.139 19.0014 11.5082 18.9377 11.7462 18.6747C11.9279 18.4738 11.9335 18.4413 11.7759 18.5018C11.6461 18.5516 11.5554 18.493 11.5021 18.3252C11.3915 17.9767 11.0642 17.823 10.7698 17.9815ZM19.1572 18.2661C19.0419 18.3815 18.8105 18.1947 18.8966 18.0556C18.9477 17.9729 19.0153 17.975 19.1023 18.0619C19.1736 18.1332 19.1983 18.2251 19.1572 18.2661ZM21.1373 18.2314C20.9818 18.3869 20.8243 18.2668 20.9393 18.0805C20.9839 18.0085 21.0758 17.9838 21.1436 18.0257C21.2263 18.0768 21.2242 18.1445 21.1373 18.2314ZM20.1864 18.1546C20.1032 18.1883 19.967 18.1883 19.8837 18.1546C19.8005 18.1211 19.8686 18.0936 20.035 18.0936C20.2015 18.0936 20.2697 18.1211 20.1864 18.1546ZM27.6818 18.3166C27.6818 18.4831 27.7093 18.5513 27.7428 18.468C27.7765 18.3848 27.7765 18.2486 27.7428 18.1653C27.7093 18.0821 27.6818 18.1502 27.6818 18.3166ZM27.7837 18.7938C27.7837 18.8565 27.8376 18.941 27.9035 18.9817C27.972 19.0241 27.9923 18.9755 27.9511 18.8678C27.8705 18.6581 27.7837 18.6197 27.7837 18.7938ZM12.1047 19.3906C12.1047 19.4707 12.1864 19.5879 12.2863 19.651C12.3862 19.7142 12.4134 19.7684 12.3469 19.7715C12.2803 19.7746 12.313 19.8436 12.4194 19.9247C12.5259 20.0059 12.6349 20.1169 12.6615 20.1715C12.7391 20.3305 12.3524 20.4906 12.0696 20.4167C11.8429 20.3573 11.8327 20.3269 11.987 20.1726C12.084 20.0756 12.2268 20.0354 12.3041 20.0832C12.3949 20.1393 12.412 20.1171 12.3523 20.0205C12.2956 19.9289 12.1362 19.8996 11.9402 19.945C11.7335 19.9929 11.6776 19.9808 11.782 19.9111C11.983 19.7768 11.9882 19.6424 11.7968 19.5242C11.6199 19.4148 11.7655 19.1318 11.9645 19.1982C12.0416 19.2238 12.1047 19.3104 12.1047 19.3906ZM21.7977 19.7073C22.0113 19.8709 21.994 19.8747 21.609 19.7499C21.0835 19.5796 21.0166 19.5274 21.3235 19.5274C21.4551 19.5274 21.6684 19.6084 21.7977 19.7073ZM20.974 19.7212C21.4191 19.8102 21.3886 20.12 20.9127 20.3446C20.5347 20.5231 19.2063 20.5434 18.9454 20.3749C18.8455 20.3104 18.8113 20.2567 18.8693 20.2556C18.9274 20.2547 18.9077 20.1727 18.8255 20.0737C18.7058 19.9295 18.7089 19.8822 18.8409 19.8374C19.3321 19.6706 20.4236 19.6112 20.974 19.7212ZM26.6133 21.7619C26.6133 21.8589 26.6597 21.9096 26.7162 21.8746C26.7728 21.8396 26.7878 21.7603 26.7494 21.6983C26.6516 21.54 26.6133 21.5578 26.6133 21.7619ZM14.4656 22.0118C14.4656 22.0341 14.6345 22.1365 14.841 22.2394C15.1248 22.381 15.1829 22.3864 15.0792 22.2615C14.9556 22.1124 14.4656 21.9131 14.4656 22.0118ZM13.8448 22.2818C13.6911 22.4778 13.6968 22.4804 13.9208 22.3161C14.054 22.2184 14.1857 22.1231 14.2134 22.1042C14.2412 22.0853 14.2069 22.0699 14.1374 22.0699C14.0679 22.0699 13.9362 22.1652 13.8448 22.2818ZM24.9394 22.1897C24.897 22.2582 24.9455 22.2785 25.0533 22.2372C25.263 22.1567 25.3014 22.0699 25.1273 22.0699C25.0645 22.0699 24.98 22.1238 24.9394 22.1897ZM24.2933 22.6857C23.9928 22.959 23.8505 23.0193 23.7342 22.9228C23.6197 22.8277 23.5339 22.8499 23.4109 23.0068C23.2556 23.2047 23.2609 23.2072 23.4856 23.0406C23.7254 22.8628 23.7255 22.8638 23.4971 23.1314C23.2379 23.4353 23.169 23.4666 23.2132 23.2606C23.2624 23.0315 22.0176 22.9878 21.9302 23.2155C21.8712 23.369 21.8981 23.3745 22.0981 23.2495C22.2743 23.1395 22.3914 23.1355 22.5477 23.2342C22.8211 23.4067 22.8208 23.8104 22.5473 23.863C22.4153 23.8883 22.3354 23.8292 22.3354 23.7061C22.3354 23.5975 22.2809 23.5422 22.2144 23.5833C22.0423 23.6896 22.0641 23.8395 22.2835 24.059C22.7214 24.497 23.3446 24.1658 24.2175 23.0314C24.522 22.6358 24.7542 22.3136 24.7337 22.3156C24.7132 22.3175 24.515 22.4841 24.2933 22.6857ZM15.7508 22.8949C15.712 22.9578 15.9148 23.2609 16.2014 23.5686C16.6281 24.027 16.7986 24.1282 17.1438 24.1282C17.5872 24.1282 17.8557 23.9536 17.8557 23.6654C17.8557 23.5239 17.8224 23.5209 17.669 23.6481C17.3856 23.8834 17.1414 23.6039 17.3453 23.2776C17.5231 22.9927 17.4284 22.9643 17.1684 23.2244C17.0376 23.355 16.9382 23.3733 16.8329 23.2859C16.5934 23.0871 16.5034 23.2995 16.724 23.5433C16.8343 23.6652 16.8659 23.7649 16.7943 23.7649C16.7226 23.7649 16.4743 23.5435 16.2426 23.2729C16.0109 23.0022 15.7896 22.8321 15.7508 22.8949ZM16.3408 23.0409C16.3062 23.097 16.3294 23.1747 16.3925 23.2137C16.4556 23.2527 16.543 23.2265 16.5869 23.1557C16.6423 23.066 16.7186 23.07 16.8374 23.1685C16.9601 23.2705 17.0082 23.2721 17.0082 23.1744C17.0082 23.0996 16.9673 23.0344 16.9174 23.0292C16.8675 23.0241 16.7314 23.0017 16.6152 22.9795C16.499 22.9573 16.3755 22.9849 16.3408 23.0409ZM17.7952 23.0478C17.9283 23.1258 18.1055 23.2751 18.1887 23.3793C18.272 23.4837 18.3392 23.5178 18.3382 23.4551C18.3347 23.2414 18.1588 23.0712 17.8557 22.9885C17.5797 22.9132 17.5743 22.9184 17.7952 23.0478ZM20.8523 22.9976C20.9356 23.0312 21.0718 23.0312 21.155 22.9976C21.2383 22.964 21.1701 22.9366 21.0036 22.9366C20.8371 22.9366 20.7691 22.964 20.8523 22.9976ZM18.4308 23.1187C18.5141 23.1523 18.6503 23.1523 18.7335 23.1187C18.8168 23.0851 18.7486 23.0576 18.5821 23.0576C18.4157 23.0576 18.3476 23.0851 18.4308 23.1187ZM4.62878 28.2507C3.22057 28.4832 2.35829 29.5287 2.35829 31.0038C2.35829 32.0223 2.82454 32.9041 3.62011 33.3897C4.16095 33.72 4.31169 33.7534 5.25461 33.7521C6.69429 33.75 7.43151 33.3432 7.9945 32.2401C8.25106 31.7374 8.29016 30.5649 8.07151 29.9297C7.65913 28.7313 6.15661 27.9985 4.62878 28.2507ZM21.9423 28.2507C20.5311 28.4837 19.6718 29.5284 19.6718 31.0117C19.6718 32.554 20.6949 33.6579 22.2382 33.7804C24.1641 33.9334 25.516 32.8282 25.529 31.0899C25.5358 30.1725 25.3411 29.6042 24.845 29.0936C24.1512 28.3795 23.0678 28.065 21.9423 28.2507ZM8.53304 28.4773C8.53304 28.5385 8.69976 28.6252 8.9034 28.67C9.10717 28.7148 9.44823 28.9257 9.66132 29.1389C10.0258 29.5032 10.9545 30.9389 10.9545 31.1377C10.9545 31.1877 10.6331 31.6674 10.2402 32.2038C9.64074 33.0222 9.45259 33.1962 9.06903 33.2869C8.8178 33.3463 8.59067 33.4594 8.56452 33.5381C8.53001 33.6414 8.79783 33.6777 9.52378 33.6683C10.752 33.6524 10.9723 33.5696 10.5402 33.2865C10.3685 33.1741 10.2281 33.0364 10.2281 32.9806C10.2281 32.8369 11.1108 31.5137 11.2068 31.5137C11.2505 31.5137 11.5899 31.9925 11.9609 32.5779L12.6355 33.642L15.175 33.6373C17.609 33.6327 18.286 33.5588 17.537 33.3795C16.9443 33.2376 16.8871 33.1255 16.8871 32.1043V31.1504H17.3472C17.8486 31.1504 18.0979 31.3193 18.0979 31.6589C18.0979 31.7788 18.1523 31.8769 18.2189 31.8769C18.2855 31.8769 18.34 31.6045 18.34 31.2715V30.6661H17.6136H16.8871V29.6335V28.601L17.6438 28.6784C18.4062 28.7563 18.9454 29.0619 18.9454 29.4159C18.9454 29.5042 18.9998 29.5765 19.0664 29.5765C19.2002 29.5765 19.2248 29.0622 19.1112 28.6382C19.0393 28.3697 19.0093 28.3657 17.0546 28.3657C15.813 28.3657 15.071 28.411 15.071 28.4868C15.071 28.5534 15.1761 28.6079 15.3046 28.6079C15.8487 28.6079 15.9185 28.8681 15.9185 30.8958C15.9185 32.7194 15.9065 32.8142 15.6461 33.0521C15.4962 33.189 15.117 33.3376 14.8032 33.3825C13.8858 33.5139 13.4449 33.1902 12.4477 31.6531L11.7921 30.6423L12.1707 30.0522C12.6449 29.3131 13.2891 28.7403 13.7491 28.6483C14.4642 28.5052 14.0707 28.3657 12.9522 28.3657C12.2661 28.3657 11.802 28.4147 11.802 28.4868C11.802 28.5534 11.8771 28.6079 11.9689 28.6079C12.3465 28.6079 12.4321 28.9326 12.1818 29.4159C11.6447 30.4534 11.6657 30.4544 10.9601 29.3544L10.3258 28.3657H9.42947C8.93646 28.3657 8.53304 28.4159 8.53304 28.4773ZM26.0887 28.4737C26.0887 28.5331 26.2225 28.6153 26.3861 28.6563C26.7953 28.759 26.8521 29.1641 26.7988 31.598L26.7546 33.6149L27.6929 33.6351C28.4079 33.6505 28.6313 33.6165 28.6313 33.4925C28.6313 33.401 28.5027 33.3298 28.3372 33.3298C27.7175 33.3298 27.6627 33.1279 27.6627 30.8463C27.6627 29.6896 27.7094 28.7144 27.7665 28.6791C27.942 28.5706 28.6543 28.8295 28.9533 29.1103C29.5317 29.6537 29.1111 30.6973 28.2436 30.8708C28.0572 30.908 27.9048 30.9651 27.9048 30.9974C27.9048 31.1122 28.9157 32.3066 29.3452 32.6996C30.2934 33.5666 30.5034 33.6195 32.9899 33.6177C34.5159 33.6167 35.3809 33.5654 35.7039 33.4569C36.2867 33.2612 37.2063 32.4362 37.427 31.911C37.7723 31.0894 37.5118 29.7244 36.9072 29.1876C36.7788 29.0737 36.4033 28.8591 36.0728 28.7109C35.5599 28.481 35.2014 28.4338 33.6255 28.3889C32.3107 28.3515 31.7792 28.3754 31.7792 28.472C31.7792 28.5467 31.8633 28.6079 31.9662 28.6079C32.0691 28.6079 32.2871 28.7417 32.4505 28.9051C32.7394 29.1939 32.7478 29.2529 32.7478 30.9969C32.7478 32.9497 32.6686 33.2322 32.08 33.3799C31.5909 33.5027 30.9939 33.1369 29.9471 32.0733L28.9879 31.0985L29.4136 30.8801C30.642 30.2499 30.4906 28.7888 29.1648 28.4813C28.5517 28.339 26.0887 28.3329 26.0887 28.4737ZM6.48435 29.0582C7.69218 30.353 7.35378 32.9809 5.91809 33.4547C5.0529 33.7403 4.08528 33.2409 3.62169 32.2696C3.29866 31.5927 3.32578 30.1584 3.6746 29.481C4.05501 28.7422 4.55323 28.461 5.37435 28.5219C5.95514 28.565 6.08106 28.6258 6.48435 29.0582ZM23.7994 29.0599C24.3576 29.6582 24.5602 30.3464 24.4858 31.3926C24.3587 33.1831 23.282 33.9968 21.9197 33.3316C21.2885 33.0234 20.9037 32.4483 20.7672 31.6093C20.56 30.3361 20.9111 29.178 21.6441 28.7175C21.9448 28.5285 22.1808 28.4843 22.6879 28.5219C23.269 28.565 23.3945 28.6257 23.7994 29.0599ZM34.8782 28.7862C35.4849 28.9664 36.0793 29.4685 36.3871 30.0608C36.4737 30.2273 36.5449 30.6953 36.5455 31.101C36.5467 32.0172 36.123 32.8311 35.488 33.1324C35.0021 33.3629 33.9504 33.3943 33.7406 33.1845C33.5838 33.0277 33.5236 28.841 33.676 28.6886C33.805 28.5596 34.2319 28.5943 34.8782 28.7862ZM10.0162 36.6972C9.60188 36.7371 9.49812 36.8882 9.80431 37.0058C9.91655 37.0488 9.98592 37.2329 9.98592 37.4882V37.9008L9.46058 37.8416C8.99639 37.7893 8.90461 37.8211 8.6736 38.115C8.36923 38.5018 8.33411 39.0973 8.5937 39.4679C8.82362 39.7962 9.40186 39.9296 9.76121 39.7373C9.96389 39.6289 10.0468 39.6268 10.0811 39.7293C10.1327 39.8843 10.7124 39.9225 10.7124 39.7709C10.7124 39.7176 10.6597 39.6213 10.5954 39.5571C10.531 39.4926 10.463 38.8144 10.4441 38.0497L10.4097 36.6593L10.0162 36.6972ZM17.9017 36.7745C17.8173 36.9943 17.9398 37.2041 18.1526 37.2041C18.3735 37.2041 18.4727 36.901 18.3063 36.7346C18.1219 36.5502 17.9826 36.5639 17.9017 36.7745ZM36.1378 36.7294C35.8078 36.784 35.7609 36.8203 35.9259 36.8937C36.109 36.975 36.1378 37.1673 36.1378 38.3067C36.1378 39.1052 36.09 39.6256 36.0167 39.6256C35.9501 39.6256 35.8957 39.6801 35.8957 39.7467C35.8957 39.8133 36.1408 39.8677 36.4405 39.8677C36.9486 39.8677 37.1775 39.7095 36.834 39.5956C36.7289 39.5608 36.6641 39.1042 36.6221 38.1024L36.5616 36.6593L36.1378 36.7294ZM1.62761 38.1424C1.34429 38.8583 1.0387 39.5045 0.948384 39.5784C0.680085 39.7982 0.756966 39.8677 1.26862 39.8677C1.53499 39.8677 1.75292 39.8133 1.75292 39.7467C1.75292 39.6801 1.67119 39.6256 1.57131 39.6256C1.35882 39.6256 1.33994 39.4606 1.51501 39.1333C1.61005 38.9557 1.77035 38.8991 2.17861 38.8991C2.6623 38.8991 2.72526 38.9323 2.79887 39.2257C2.85057 39.4319 2.82914 39.5695 2.74064 39.5991C2.3779 39.7199 2.66702 39.8677 3.26634 39.8677C3.63259 39.8677 3.93224 39.8133 3.93224 39.7467C3.93224 39.6801 3.85536 39.6256 3.76141 39.6256C3.65777 39.6256 3.36247 39.0775 3.01124 38.2332C2.69257 37.4675 2.36688 36.8409 2.28734 36.8409C2.20779 36.8409 1.91092 37.4265 1.62761 38.1424ZM22.2446 37.0094C22.4283 37.1488 22.4565 37.3911 22.4565 38.8255C22.4565 40.2029 22.4253 40.4927 22.2704 40.5522C22.168 40.5914 21.9866 40.5352 21.8674 40.4272C21.5947 40.1805 21.3668 40.1749 21.3668 40.4151C21.3668 40.7053 21.9033 40.891 22.3616 40.7597C22.9476 40.5916 23.058 40.2514 23.0601 38.6098C23.0616 37.3821 23.0931 37.1466 23.2737 37.0094C23.4574 36.8701 23.3889 36.8486 22.7592 36.8486C22.1295 36.8486 22.061 36.8701 22.2446 37.0094ZM2.39812 38.1424L2.5985 38.657H2.17571C1.70025 38.657 1.67676 38.5894 1.9361 37.9686C2.14604 37.4661 2.13297 37.4613 2.39812 38.1424ZM37.5883 37.8975C37.2197 38.1556 37.2864 38.5971 37.742 38.9154C38.195 39.2316 38.3259 39.3925 38.2415 39.529C38.1239 39.7192 37.7221 39.6207 37.5371 39.3564L37.3485 39.0874V39.4115C37.3485 39.6842 37.4138 39.7479 37.7596 39.8128C38.3194 39.9179 38.6804 39.7067 38.6804 39.2742C38.6804 39.0084 38.5716 38.8593 38.1961 38.6109C37.9297 38.4346 37.7118 38.2349 37.7118 38.1671C37.7118 37.9389 38.1055 37.885 38.2572 38.0926C38.4507 38.3571 38.5593 38.3473 38.5593 38.0653C38.5593 37.771 37.9252 37.6614 37.5883 37.8975ZM4.31653 38.0896C4.03673 38.3876 3.96723 38.9962 4.16979 39.3748C4.36738 39.7441 4.94091 39.9133 5.43852 39.749C5.67558 39.6707 5.86942 39.5508 5.86942 39.4821C5.86942 39.4109 5.77861 39.3949 5.65754 39.4447C5.2132 39.6276 5.07554 39.6321 4.85555 39.4707C4.55129 39.2475 4.52236 38.3782 4.80966 38.091C5.00532 37.8953 5.0328 37.8986 5.29965 38.1492C5.64701 38.4755 5.86942 38.4898 5.86942 38.1857C5.86942 37.7157 4.73387 37.6455 4.31653 38.0896ZM6.34948 37.9962C6.22804 38.1424 6.22635 38.2147 6.34112 38.3291C6.4559 38.4434 6.53593 38.4118 6.70798 38.1841C6.96308 37.8464 7.3223 37.908 7.3223 38.2893C7.3223 38.4609 7.16115 38.6105 6.78704 38.7863C6.49259 38.9247 6.22199 39.1156 6.18542 39.2107C5.99982 39.6946 6.62964 40.0322 7.11938 39.7112C7.3694 39.5474 7.41129 39.5477 7.51638 39.7142C7.5992 39.8457 7.71858 39.8735 7.9215 39.8091C8.17248 39.7295 8.1835 39.7034 8.00794 39.6051C7.8566 39.5205 7.8066 39.3195 7.8066 38.7962C7.8066 38.4134 7.74122 38.0347 7.66131 37.9548C7.44943 37.7429 6.53569 37.7718 6.34948 37.9962ZM11.3728 38.1067C10.8138 38.6656 11.0657 39.6454 11.8101 39.809C12.1872 39.8918 12.8917 39.6855 12.8917 39.4924C12.8917 39.4354 12.7555 39.4506 12.589 39.5266C12.1829 39.7116 11.732 39.5028 11.6537 39.0935C11.6211 38.9231 11.6231 38.7552 11.6579 38.7204C11.6928 38.6856 12.0118 38.657 12.3671 38.657C13.0676 38.657 13.1534 38.5485 12.8242 38.0786C12.5518 37.6896 11.7748 37.7046 11.3728 38.1067ZM13.3233 37.9178C13.2864 37.9775 13.3377 38.0574 13.4372 38.0957C13.6939 38.1943 13.6933 39.4832 13.4365 39.5818C13.0634 39.725 13.2749 39.8677 13.8603 39.8677C14.4457 39.8677 14.6572 39.725 14.284 39.5818C13.9002 39.4345 14.1743 37.9306 14.5849 37.9306C15.0311 37.9306 15.3061 39.4219 14.8894 39.5818C14.7895 39.6201 14.7078 39.7002 14.7078 39.7596C14.7078 39.9085 15.7652 39.8967 15.858 39.7467C15.8992 39.6801 15.8452 39.6256 15.738 39.6256C15.4281 39.6256 15.5316 38.3171 15.8587 38.1008C16.2395 37.8491 16.435 38.0708 16.4976 38.8255C16.5428 39.371 16.5158 39.5152 16.3572 39.5761C15.9845 39.7191 16.1621 39.8677 16.7055 39.8677C17.0052 39.8677 17.2503 39.8133 17.2503 39.7467C17.2503 39.6801 17.1959 39.6256 17.1293 39.6256C17.0627 39.6256 17.0082 39.3223 17.0082 38.9517C17.0082 38.0071 16.8755 37.8095 16.2412 37.8095C15.9571 37.8095 15.6594 37.8749 15.5795 37.9548C15.4666 38.0677 15.4019 38.0677 15.2889 37.9548C15.0986 37.7644 14.4367 37.7682 14.2326 37.9608C14.1042 38.0819 14.061 38.0819 14.0167 37.9608C13.9531 37.7876 13.424 37.7549 13.3233 37.9178ZM17.553 37.9306C17.5119 37.9972 17.5632 38.0516 17.667 38.0516C17.9348 38.0516 17.9422 39.479 17.6748 39.5815C17.3454 39.7079 17.6194 39.8677 18.1655 39.8677C18.6938 39.8677 18.879 39.7189 18.5216 39.5818C18.3839 39.529 18.34 39.3058 18.34 38.6608V37.8095H17.9839C17.788 37.8095 17.5942 37.864 17.553 37.9306ZM19.2426 38.1067C18.4669 38.8824 19.3892 40.1646 20.4169 39.7389C20.8741 39.5496 20.8626 39.3662 20.4043 39.5393C20.1044 39.6525 20.0074 39.6381 19.7989 39.4494C19.4955 39.1748 19.4617 38.4001 19.7409 38.1208C19.9933 37.8686 20.121 37.8809 20.2772 38.1727C20.4168 38.4336 20.6988 38.4932 20.8253 38.2885C20.9782 38.0411 20.6156 37.8095 20.0752 37.8095C19.6681 37.8095 19.4685 37.8807 19.2426 38.1067ZM24.1793 37.8905C23.9093 37.9991 23.6469 38.6523 23.7269 39.0165C23.9374 39.9745 25.3355 40.1336 25.7917 39.2514C26.036 38.7788 26.0144 38.61 25.6542 38.182C25.3929 37.8715 25.2569 37.8111 24.8369 37.819C24.5598 37.8243 24.2639 37.8565 24.1793 37.8905ZM26.24 37.9402C26.391 38.0283 26.4519 38.2168 26.4519 38.5968C26.4519 39.6138 26.9268 40.0765 27.6381 39.7524C27.8623 39.6502 27.972 39.6456 28.0025 39.737C28.0574 39.9016 28.7523 39.9106 28.7523 39.7467C28.7523 39.6801 28.6706 39.6256 28.5707 39.6256C28.4254 39.6256 28.3891 39.444 28.3891 38.7175V37.8095H27.9422C27.5389 37.8095 27.517 37.8253 27.7173 37.9718C27.8997 38.1051 27.9284 38.248 27.8781 38.7717C27.8196 39.3809 27.6651 39.6197 27.3267 39.6238C27.1054 39.6264 26.9362 39.0994 26.9362 38.407V37.8095L26.4822 37.8131C26.115 37.8161 26.0687 37.8405 26.24 37.9402ZM28.9945 37.9306C28.9945 37.9972 29.049 38.0516 29.1155 38.0516C29.1838 38.0516 29.2366 38.3946 29.2366 38.8386C29.2366 39.2826 29.1838 39.6256 29.1155 39.6256C29.049 39.6256 28.9945 39.6801 28.9945 39.7467C28.9945 39.8133 29.2669 39.8677 29.5998 39.8677C29.9328 39.8677 30.2052 39.8133 30.2052 39.7467C30.2052 39.6801 30.1208 39.6256 30.0175 39.6256C29.8656 39.6256 29.8368 39.4931 29.8662 38.9294C29.9019 38.2456 29.9089 38.2332 30.2636 38.2332C30.511 38.2332 30.6377 38.1665 30.6659 38.0214C30.7198 37.7453 30.181 37.7299 29.9111 37.9997C29.7382 38.1727 29.7209 38.1727 29.7209 37.9997C29.7209 37.8691 29.6072 37.8095 29.3577 37.8095C29.1579 37.8095 28.9945 37.864 28.9945 37.9306ZM30.8711 37.9306C30.8299 37.9972 30.8813 38.0516 30.985 38.0516C31.1366 38.0516 31.1738 38.2066 31.1738 38.8386C31.1738 39.4706 31.1366 39.6256 30.985 39.6256C30.8813 39.6256 30.8299 39.6801 30.8711 39.7467C30.9639 39.8967 32.0213 39.9085 32.0213 39.7596C32.0213 39.7002 31.9396 39.6201 31.8397 39.5818C31.4858 39.446 31.6731 38.1647 32.069 38.0128C32.4043 37.8841 32.6267 38.2652 32.6267 38.9683C32.6267 39.4718 32.5842 39.6256 32.4451 39.6256C32.3452 39.6256 32.2635 39.6801 32.2635 39.7467C32.2635 39.8968 33.3137 39.9085 33.4058 39.7594C33.4427 39.6997 33.3914 39.6198 33.2919 39.5815C33.1624 39.5319 33.111 39.327 33.111 38.8611C33.111 38.3843 33.0518 38.1566 32.8895 38.0099C32.6283 37.7734 32.0159 37.746 31.7882 37.9608C31.6599 38.0819 31.6167 38.0819 31.5724 37.9608C31.5063 37.7805 30.9779 37.7578 30.8711 37.9306ZM33.8379 37.9906C33.7128 38.1412 33.71 38.2147 33.8248 38.3291C33.9396 38.4434 34.0196 38.4118 34.1917 38.1841C34.4468 37.8464 34.806 37.908 34.806 38.2893C34.806 38.4615 34.6434 38.6111 34.2612 38.7908C33.8015 39.0069 33.7163 39.1012 33.7163 39.3945C33.7163 39.8344 34.1741 39.9922 34.6141 39.704C34.8661 39.5389 34.9136 39.5371 34.9726 39.6907C35.01 39.7881 35.148 39.8677 35.2794 39.8677C35.5601 39.8677 35.7233 39.6691 35.5029 39.5956C35.4088 39.5643 35.3277 39.2256 35.2903 38.7075L35.2298 37.87L34.6136 37.8341C34.1652 37.8079 33.954 37.8505 33.8379 37.9906ZM12.4074 38.1727C12.5257 38.3937 12.4994 38.4149 12.1089 38.4149C11.6474 38.4149 11.5525 38.2595 11.8928 38.0613C12.1945 37.8856 12.2615 37.9 12.4074 38.1727ZM25.1738 38.1997C25.5726 38.769 25.2152 39.749 24.6717 39.5764C24.0884 39.3913 24.2179 37.9306 24.8174 37.9306C24.9098 37.9306 25.0701 38.0516 25.1738 38.1997ZM9.86061 38.2858C10.161 38.8471 9.91945 39.6256 9.44496 39.6256C9.25633 39.6256 9.12642 39.5365 9.07387 39.371C8.97023 39.0443 8.96963 38.3478 9.07291 38.1807C9.20609 37.9653 9.72622 38.0347 9.86061 38.2858ZM7.30002 39.111C7.25196 39.529 6.71693 39.681 6.71693 39.2768C6.71693 39.0539 6.99456 38.7909 7.23949 38.7817C7.29385 38.7798 7.32109 38.928 7.30002 39.111ZM34.7837 39.111C34.7564 39.3494 34.6681 39.455 34.4731 39.4827C34.1372 39.5304 34.0982 39.1852 34.4125 38.9466C34.733 38.7033 34.826 38.7444 34.7837 39.111Z" fill="#111113"/>
</svg>
