<svg width="37" height="38" viewBox="0 0 37 38" fill="none" xmlns="http://www.w3.org/2000/svg">
<circle opacity="0.07" cx="18.5" cy="19.1987" r="18.5" fill="white"/>
<path d="M29.6048 19.4791C29.5696 20.0477 29.5519 20.6046 29.4951 21.1557C29.365 22.4546 29.0512 23.7291 28.5629 24.9421C28.0743 26.2008 27.3875 27.3755 26.528 28.4229C26.2126 28.812 25.8752 29.1832 25.5175 29.5348C24.8409 30.1776 24.0871 30.7361 23.273 31.1979C22.4469 31.6522 21.5639 31.9974 20.6467 32.2247C20.3299 32.3045 20.0069 32.3582 19.6812 32.3852C19.2626 32.4345 18.8414 32.4577 18.4199 32.4548C17.9675 32.4432 17.5151 32.3717 17.0607 32.3349C16.4686 32.2667 15.8876 32.125 15.3314 31.9134C14.3306 31.5733 13.3931 31.0736 12.5562 30.434C12.0856 30.0881 11.6417 29.708 11.2283 29.297C10.5584 28.6006 9.96737 27.8341 9.46568 27.0112C8.95313 26.1817 8.53599 25.2983 8.22204 24.3774C7.96617 23.6965 7.78176 22.9915 7.6717 22.2735C7.63058 21.9408 7.55615 21.614 7.4974 21.2853C7.48736 21.2407 7.48016 21.1954 7.47586 21.1499C7.40343 20.3786 7.38054 19.6035 7.40731 18.8294C7.45734 18.0123 7.55938 17.1992 7.71283 16.3947C7.85561 15.713 8.04337 15.0412 8.27492 14.3836C8.683 13.211 9.2623 12.1035 9.99447 11.0962C10.2941 10.6823 10.631 10.2936 10.9737 9.91075C11.6426 9.1703 12.4148 8.52764 13.2671 8.00211C14.3052 7.34584 15.4583 6.88675 16.667 6.64846C17.1138 6.55348 17.5692 6.50359 18.0262 6.49956C18.2358 6.49956 18.4453 6.45508 18.6549 6.45508C18.9824 6.45999 19.3093 6.48324 19.6342 6.52469C19.9926 6.56991 20.3483 6.63447 20.6996 6.71807C21.7706 6.98194 22.7911 7.41558 23.7215 8.00211C24.3452 8.39174 24.9284 8.84128 25.4626 9.34416C25.8745 9.74055 26.2599 10.163 26.6162 10.6089C27.1742 11.3096 27.6566 12.066 28.0557 12.8656C28.5348 13.8179 28.9028 14.8208 29.1524 15.8552C29.3453 16.6043 29.4666 17.3695 29.5147 18.141C29.5382 18.5896 29.5754 19.0402 29.6048 19.4791ZM18.4708 32.0487C18.7411 32.0487 19.0133 32.0642 19.2816 32.0487C19.5486 32.0215 19.814 31.9809 20.0768 31.9269C21.0796 31.7482 22.0449 31.4044 22.9322 30.9097C23.7789 30.454 24.5508 29.8744 25.2217 29.1906C25.6581 28.7375 26.0706 28.2624 26.4575 27.7673C27.0159 27.0376 27.4822 26.2434 27.8461 25.4023C28.6534 23.5677 29.0726 21.5896 29.078 19.5894C29.078 19.1852 29.0271 18.781 29.0173 18.3769C29.0024 17.9381 28.9539 17.5012 28.8723 17.0696C28.7138 16.0854 28.4512 15.1204 28.0889 14.1902C27.8263 13.5221 27.5106 12.8755 27.145 12.2564C26.4955 11.1528 25.6665 10.1623 24.691 9.32482C24.4144 9.07426 24.1206 8.84294 23.8116 8.63252C23.2156 8.23867 22.585 7.89825 21.9275 7.61535C21.0432 7.2476 20.105 7.02173 19.1484 6.94626C18.3873 6.88502 17.6212 6.92469 16.8707 7.06422C15.7878 7.25818 14.7485 7.64127 13.8018 8.19549C12.761 8.81354 11.8311 9.59769 11.0501 10.516C10.4918 11.1716 9.99676 11.8773 9.57144 12.6239C9.01759 13.6301 8.59323 14.7006 8.30821 15.8107C8.13209 16.4919 8.01029 17.1857 7.94393 17.8857C7.86461 18.5053 7.82536 19.1292 7.82643 19.7537C7.82643 20.0303 7.85776 20.3068 7.88518 20.5814C7.93218 21.0532 7.95764 21.5289 8.04382 21.9931C8.18076 22.6941 8.35796 23.3868 8.57457 24.068C8.97807 25.3166 9.57248 26.4969 10.3372 27.5682C10.9493 28.4363 11.6795 29.2171 12.5072 29.8887C13.2274 30.4827 14.0309 30.9705 14.8927 31.3371C16.0167 31.8339 17.2398 32.0739 18.4708 32.0391V32.0487Z" fill="white"/>
<path d="M28.7293 19.5081C28.7293 19.7402 28.7293 19.9723 28.7293 20.2043C28.6944 20.7803 28.629 21.3542 28.5335 21.9234C28.3926 22.8369 28.1488 23.732 27.8069 24.5921C27.4085 25.6457 26.8648 26.64 26.1911 27.5469C25.8885 27.9575 25.5615 28.3501 25.2119 28.7226C24.5406 29.4217 23.774 30.025 22.9342 30.5153C22.1576 30.9712 21.3128 31.3027 20.4312 31.4976C19.8953 31.6148 19.3501 31.6859 18.8018 31.7103C17.775 31.7688 16.7461 31.6376 15.7681 31.3236C14.8538 31.031 13.9938 30.5934 13.222 30.0279C12.5666 29.5583 11.965 29.0195 11.428 28.421C10.9003 27.831 10.4338 27.1903 10.0356 26.5084C9.42276 25.4784 8.96118 24.3676 8.66462 23.2094C8.54711 22.7066 8.4296 22.2 8.33559 21.6895C8.2788 21.3839 8.27096 21.0706 8.23571 20.7593C8.17015 20.1952 8.1505 19.6267 8.17695 19.0595C8.19654 18.6457 8.24942 18.2338 8.29642 17.8219C8.34147 17.4351 8.37672 17.0619 8.4531 16.6887C8.62179 15.8161 8.87832 14.9622 9.21887 14.14C9.52839 13.4005 9.90189 12.6889 10.3352 12.0128C11.1834 10.6852 12.3084 9.5513 13.6353 8.68668C14.5491 8.09688 15.5637 7.67559 16.6298 7.44325C17.4806 7.26294 18.3543 7.21143 19.2209 7.29048C19.7899 7.34784 20.3524 7.45659 20.9013 7.61536C21.9495 7.91498 22.9337 8.40054 23.8057 9.04829C24.4688 9.52907 25.0728 10.0846 25.6055 10.7036C26.3673 11.5865 26.9995 12.5708 27.4837 13.6275C27.9282 14.5838 28.2569 15.5886 28.463 16.621C28.5766 17.1998 28.6627 17.78 28.7215 18.3614C28.7587 18.7482 28.7215 19.1349 28.7215 19.5217L28.7293 19.5081ZM13.4649 28.769L13.3199 28.6221L13.2788 28.684L13.4747 28.7632C13.5922 29.0069 13.8546 28.9412 14.0622 29.0475C14.2334 28.9886 14.3976 28.9114 14.5518 28.8174C14.6739 28.7354 14.7727 28.624 14.8389 28.4937C14.905 28.3634 14.9363 28.2185 14.9298 28.0729C14.9226 27.9146 14.8751 27.7607 14.7915 27.6255C14.708 27.4903 14.5912 27.3781 14.452 27.2994C14.4343 27.2878 14.4049 27.2994 14.3834 27.2994L13.9369 26.8817C13.6979 27.4405 13.2083 27.8138 12.9576 28.3455C13.0085 28.3978 13.0458 28.4422 13.0869 28.479C13.1314 28.5125 13.1778 28.5435 13.2259 28.5718L13.2083 28.3784L14.1073 27.2181L14.3971 27.2916L14.6595 27.6281L14.7536 27.9395C14.7193 28.0536 14.6775 28.1653 14.6282 28.274C14.3364 28.8 14.0446 28.9218 13.4649 28.769ZM25.7838 25.8974C25.7891 25.8974 25.7943 25.8963 25.7992 25.8943C25.8041 25.8922 25.8085 25.8892 25.8122 25.8854C25.8158 25.8816 25.8187 25.8771 25.8205 25.8722C25.8224 25.8672 25.8232 25.862 25.8229 25.8568C26.0012 25.7562 25.9874 25.5667 26.0442 25.4255C25.9502 25.091 25.9032 25.0001 25.7759 24.944C25.5683 24.8493 25.3842 24.9305 25.1884 25.0678C25.1316 24.797 25.0062 24.6327 24.7673 24.5979C24.3423 24.7004 24.2679 25.0871 24.0642 25.3714C24.6341 25.5783 25.063 25.9883 25.5977 26.2397L25.7838 25.8974ZM8.91726 17.0484C8.98189 17.1451 9.00148 17.2031 9.04261 17.2301C9.29747 17.4146 9.56587 17.5801 9.84559 17.7252C10.3814 17.9551 10.9409 18.1269 11.5142 18.2376C12.0829 18.3697 12.66 18.4634 13.2416 18.518C13.475 18.5261 13.7071 18.5559 13.9349 18.607C14.4872 18.7598 14.8006 19.1755 15.0199 19.6686C15.0856 19.8286 15.1405 19.9927 15.1844 20.1598C15.2501 20.3765 15.3615 20.5769 15.5114 20.7479C15.6613 20.9189 15.8463 21.0566 16.054 21.1519C16.2636 21.2544 16.4672 21.3704 16.665 21.4922C17.3172 21.8944 17.5131 22.4784 17.4112 23.2017C17.3486 23.6006 17.3113 24.0029 17.2996 24.4064C17.2895 24.8342 17.3117 25.2621 17.3662 25.6866C17.4336 26.1191 17.5244 26.5477 17.6384 26.9706C17.715 27.219 17.8546 27.444 18.0438 27.6242C17.9733 27.1331 17.8793 26.7173 17.8617 26.2977C17.7893 25.2897 17.834 24.2769 17.9949 23.279C18.0433 23.0535 18.0637 22.8229 18.0556 22.5925C18.0539 22.3314 17.9853 22.075 17.8562 21.8471C17.7271 21.6192 17.5417 21.4272 17.3172 21.2892C16.9733 21.0857 16.613 20.9104 16.24 20.7651C16.0726 20.7123 15.923 20.6152 15.8077 20.4842C15.6923 20.3533 15.6156 20.1936 15.5859 20.0225C15.5272 19.7402 15.4567 19.4617 15.3764 19.1852C15.1413 18.3904 14.4892 18.0095 13.7567 17.963C13.1691 17.9244 12.564 17.8992 11.9705 17.8257C11.4259 17.7597 10.8875 17.6504 10.3607 17.4989C9.90238 17.3674 9.44997 17.2166 8.91726 17.0484ZM28.0772 17.0484C27.9146 17.0967 27.8363 17.118 27.7618 17.1431C27.1176 17.3836 26.4548 17.5724 25.7799 17.7078C25.0694 17.8449 24.349 17.9264 23.6255 17.9514C23.404 17.9541 23.1831 17.9761 22.9655 18.0172C22.6618 18.0618 22.3774 18.1916 22.1462 18.3911C21.915 18.5906 21.7467 18.8515 21.6611 19.1427C21.5736 19.4291 21.503 19.7203 21.4496 20.0148C21.4198 20.1626 21.3554 20.3015 21.2615 20.4203C21.1677 20.5392 21.047 20.6347 20.9091 20.6994C20.7132 20.7941 20.5174 20.8637 20.3333 20.9585C20.0762 21.0701 19.8302 21.2054 19.5989 21.3626C18.98 21.8384 18.9056 22.5016 18.9996 23.2152C19.0661 23.7277 19.1445 24.2421 19.1837 24.7622C19.2091 25.1447 19.2091 25.5284 19.1837 25.9109C19.1641 26.2551 19.1073 26.5974 19.0642 26.9416C19.0387 27.135 19.0074 27.3458 18.978 27.5682C19.1484 27.516 19.1739 27.3748 19.2405 27.2781C19.5773 26.6477 19.6322 25.9515 19.6792 25.2631C19.7124 24.8473 19.6792 24.4277 19.6792 24.01C19.6792 23.8166 19.6654 23.6232 19.6557 23.4202C19.6419 23.1069 19.6126 22.7956 19.6165 22.4842C19.624 22.354 19.6659 22.2281 19.7379 22.1188C19.9886 21.7229 20.3574 21.4135 20.7935 21.2331C21.06 21.1242 21.2969 20.9551 21.4853 20.7395C21.6738 20.524 21.8084 20.2678 21.8785 19.9916C21.967 19.6418 22.1381 19.3178 22.378 19.046C22.5973 18.7856 22.9076 18.6158 23.2475 18.5703C23.792 18.5006 24.3404 18.4523 24.8789 18.3575C25.6636 18.2336 26.4316 18.0228 27.1684 17.7291C27.5345 17.5989 27.8516 17.3614 28.0772 17.0484ZM16.8726 18.3073C16.8413 18.6708 16.7963 18.9938 16.7943 19.3148C16.7857 19.6399 16.872 19.9606 17.0428 20.2386C17.2137 20.5167 17.4619 20.7404 17.7579 20.8831C17.9008 20.9604 18.0399 21.0436 18.2455 21.1635C18.3568 21.1946 18.4737 21.2011 18.5878 21.1824C18.702 21.1637 18.8105 21.1202 18.9056 21.0552C18.9839 21.003 19.0622 20.9527 19.1445 20.9082C19.8378 20.533 20.2373 19.9858 20.1786 19.1678C20.157 18.8816 20.1257 18.5973 20.0963 18.2976C19.4819 18.2112 18.912 17.9319 18.4708 17.5009C18.0473 17.9424 17.4832 18.2271 16.8726 18.3073ZM21.0227 25.7929L21.0932 25.8162C21.2978 25.5642 21.4837 25.2979 21.6494 25.0194C22.205 23.9548 22.4459 22.7572 22.3447 21.5638C22.3447 21.4574 22.3447 21.3858 22.4073 21.3375C22.752 21.293 23.083 21.2795 23.4003 21.206C24.3735 20.9855 25.2873 20.5608 26.0795 19.9606C26.2779 19.7991 26.444 19.6023 26.5691 19.3805C26.3008 19.5081 26.054 19.6609 25.7955 19.7905C24.8042 20.319 23.7081 20.6278 22.5836 20.6955C22.4446 20.6898 22.3062 20.7165 22.1796 20.7735C22.053 20.8305 21.9418 20.9161 21.855 21.0235C21.7682 21.1309 21.7082 21.2569 21.68 21.3914C21.6518 21.526 21.656 21.6652 21.6925 21.7977C21.7174 21.9109 21.7306 22.0262 21.7317 22.142C21.7535 22.558 21.7332 22.9752 21.6709 23.3873C21.6259 23.66 21.5926 23.9346 21.5417 24.2053C21.4295 24.6831 21.2735 25.1497 21.0756 25.5996C21.0521 25.6614 21.0383 25.7253 21.0227 25.7929ZM10.4625 19.3496L10.4253 19.3844C10.4427 19.4329 10.4686 19.478 10.5017 19.5178C10.7535 19.7775 11.0267 20.0162 11.3184 20.2314C12.2468 20.8461 13.3185 21.2174 14.4324 21.3104C14.5111 21.3259 14.5884 21.3479 14.6635 21.3762C14.6635 21.5696 14.6635 21.7223 14.6635 21.8848C14.6583 22.2782 14.6786 22.6716 14.7242 23.0624C14.8431 23.8413 15.1123 24.5903 15.5174 25.2689C15.6499 25.4602 15.798 25.6406 15.96 25.8084L15.9952 25.7833L15.9463 25.6247C15.7798 25.1335 15.5546 24.6578 15.4684 24.1454C15.3728 23.7402 15.3151 23.3272 15.2961 22.9116C15.3098 22.4707 15.3117 22.0279 15.3098 21.587C15.3121 21.4606 15.2943 21.3346 15.2569 21.2137C15.1159 20.8076 14.7614 20.7032 14.3893 20.6858C14.004 20.6617 13.6215 20.6061 13.2455 20.5195C12.443 20.3472 11.6747 20.0453 10.9717 19.6261C10.8092 19.5275 10.6368 19.4424 10.4625 19.3496ZM23.3885 9.87402C23.2931 9.97613 23.2257 10.1006 23.1927 10.2356C22.9968 10.7442 22.8167 11.2567 22.6051 11.7537C22.2347 12.5425 21.7677 13.2835 21.2146 13.9601C20.9381 14.2963 20.7907 14.718 20.7982 15.151C20.8057 15.584 20.9677 16.0005 21.2557 16.3271C21.6024 16.7351 21.9314 17.1509 21.9588 17.7407C22.0839 17.5745 22.1557 17.3751 22.1647 17.1682C22.1738 16.9614 22.1198 16.7566 22.0098 16.5804C21.8903 16.387 21.7591 16.1936 21.6592 15.9809C21.4007 15.4433 21.3243 14.9057 21.6729 14.3623C21.9608 13.9137 22.2311 13.4554 22.4896 12.9893C22.888 12.2953 23.1853 11.5492 23.3729 10.7732C23.43 10.4775 23.4393 10.1746 23.4003 9.87595L23.3885 9.87402ZM15.0532 17.7368C15.0885 17.5666 15.112 17.4216 15.1472 17.2785C15.2353 16.942 15.4762 16.6984 15.6819 16.4315C15.9913 16.0273 16.2694 15.6116 16.2205 15.0778C16.1908 14.6462 16.0266 14.2341 15.7504 13.8982C15.1905 13.1842 14.7135 12.4104 14.3286 11.5912C14.1036 11.0954 13.9074 10.5872 13.741 10.0693C13.7254 10.0249 13.6999 9.98231 13.6451 9.87595C13.5692 10.1935 13.5658 10.5238 13.6353 10.8428C13.7538 11.3379 13.9259 11.8189 14.1484 12.2777C14.5029 13.0207 14.9114 13.7374 15.3705 14.4223C15.52 14.6324 15.5957 14.8851 15.5859 15.1417C15.5747 15.4883 15.4743 15.8263 15.2941 16.124C15.1315 16.3889 14.922 16.6345 14.8554 16.9497C14.8241 17.0871 14.8257 17.2297 14.86 17.3664C14.8944 17.503 14.9605 17.6298 15.0532 17.7368ZM22.8343 17.3056C23.3219 17.4989 23.792 17.3694 24.3267 17.2031C23.9878 16.9594 23.6118 16.9788 23.3082 16.8163C23.3415 16.7525 23.3631 16.6984 23.3944 16.65C23.7903 16.0636 24.0787 15.4129 24.2464 14.7278C24.311 14.4842 24.3071 14.2231 24.3658 13.9775C24.4512 13.4872 24.4372 12.985 24.3247 12.5001C24.3247 12.4634 24.2738 12.4324 24.2287 12.3744C24.1727 13.0294 24.0507 13.6772 23.8644 14.3082C23.6422 15.027 23.3072 15.7069 22.8715 16.3232C22.753 16.4583 22.6847 16.6293 22.6779 16.8079C22.6711 16.9865 22.7263 17.1621 22.8343 17.3056ZM14.2972 17.1605C14.3317 16.9923 14.3287 16.8187 14.2885 16.6518C14.2482 16.4848 14.1717 16.3285 14.0642 16.1936C13.8312 15.861 13.6343 15.5052 13.4766 15.132C13.0886 14.2986 12.8633 13.4005 12.8127 12.4846C12.7989 12.4278 12.7771 12.3731 12.7481 12.3222C12.6017 12.8197 12.5578 13.3411 12.6188 13.8557C12.742 14.9062 13.11 15.9143 13.694 16.8008C13.3963 16.9942 13.0085 16.9285 12.7363 17.2069C13.0696 17.3284 13.4211 17.3937 13.7763 17.4003C13.8769 17.4103 13.9785 17.3933 14.0701 17.3511C14.1618 17.3089 14.2403 17.2431 14.2972 17.1605ZM17.1214 26.9281C17.1077 26.8894 17.092 26.8527 17.0802 26.814C16.9047 26.2763 16.7814 25.7233 16.712 25.1625C16.6788 24.8995 16.6709 24.6307 16.6298 24.3697C16.5622 23.8885 16.5622 23.4005 16.6298 22.9193C16.6506 22.7591 16.6304 22.5962 16.571 22.4456C16.5023 22.3121 16.403 22.1963 16.2812 22.1072C16.2342 22.0665 16.1343 22.082 16.0599 22.0723C15.9005 22.9111 15.9266 23.7739 16.1363 24.6017C16.3047 25.4352 16.5338 26.2532 17.1214 26.9281ZM14.2306 19.9452C14.2365 19.8628 14.2255 19.7801 14.1985 19.7019C14.1715 19.6238 14.1289 19.5518 14.0732 19.4902C14.0175 19.4285 13.9499 19.3785 13.8744 19.3431C13.7988 19.3076 13.7169 19.2875 13.6333 19.2838C13.2867 19.2355 12.938 19.2007 12.5953 19.1407C11.6427 18.9844 10.7187 18.6899 9.85342 18.2667C9.73004 18.2048 9.5949 18.168 9.40884 18.0984C10.2099 19.0479 12.7618 19.9916 14.2306 19.9452ZM20.9894 22.0723C20.9091 22.0669 20.8286 22.0788 20.7534 22.1072C20.6783 22.1357 20.6104 22.18 20.5544 22.2371C20.4984 22.2942 20.4558 22.3627 20.4294 22.4378C20.4031 22.5129 20.3937 22.5928 20.4018 22.6718C20.4018 22.9251 20.4626 23.1785 20.4508 23.4299C20.4253 23.9713 20.3685 24.5108 20.3294 25.0504C20.2953 25.4877 20.2085 25.9194 20.0709 26.3363C20.0082 26.5297 19.9651 26.7231 19.9044 26.9494C20.584 26.3944 21.2557 23.8901 20.9894 22.0801V22.0723ZM22.8225 19.9684C23.1222 19.9336 23.4218 19.9104 23.7156 19.8582C24.4069 19.7468 25.0818 19.5519 25.725 19.278C26.256 19.0611 26.7627 18.7902 27.237 18.4697C27.3716 18.3741 27.4794 18.2464 27.5503 18.0984C27.3055 18.2125 27.0685 18.3363 26.8218 18.4349C26.0592 18.7573 25.2623 18.9941 24.4461 19.1407C24.0995 19.1949 23.7528 19.2413 23.4042 19.2722C23.3105 19.2799 23.2195 19.3067 23.1369 19.351C23.0543 19.3953 22.9819 19.456 22.9244 19.5294C22.8658 19.5864 22.8251 19.6588 22.807 19.738C22.789 19.8172 22.7944 19.8999 22.8225 19.9761V19.9684ZM13.1456 10.9183H13.0869C13.0693 10.9649 13.0581 11.0137 13.0536 11.0633C13.0567 11.432 13.0835 11.8002 13.1339 12.1656C13.2376 12.7546 13.397 13.3327 13.6098 13.8924C13.841 14.4606 14.1263 15.0058 14.4617 15.5207C14.5127 15.6019 14.5636 15.6792 14.6811 15.6406C14.7963 15.5301 14.8653 15.3809 14.8743 15.2226C14.8834 15.0643 14.8319 14.9084 14.7301 14.7858C14.685 14.7182 14.6439 14.6485 14.6028 14.5789C14.0053 13.6395 13.5692 12.6091 13.3121 11.5293C13.2651 11.3224 13.2044 11.1213 13.1456 10.9183ZM23.8821 10.9415C23.7841 11.2721 23.6862 11.599 23.5903 11.9316C23.3308 12.9056 22.9107 13.8307 22.3466 14.6698C22.265 14.7749 22.2077 14.8963 22.1786 15.0256C22.1495 15.1549 22.1494 15.2889 22.1782 15.4182L22.4093 15.7044C23.4375 14.2502 23.9761 12.6993 23.8821 10.9415ZM16.4065 11.6647L17.5816 12.9178C17.6835 12.9178 17.7422 12.9352 17.801 12.9352C18.0908 12.9352 18.2044 12.8656 18.2945 12.5929C18.3247 12.494 18.3373 12.3906 18.3317 12.2874C18.3317 11.7382 18.318 11.1871 18.3102 10.6224C18.1339 10.6591 18.1143 10.8003 18.0732 10.9105C17.9478 11.2861 17.8721 11.6761 17.848 12.0708C17.848 12.1714 17.8734 12.2855 17.7481 12.357C17.3466 12.0979 17.0254 11.6898 16.4065 11.6647ZM19.9416 29.0243C20.1786 29.442 20.1374 29.908 20.3666 30.3103L20.5938 30.2136C20.4606 29.6837 20.3313 29.1713 20.2021 28.6666L20.347 28.4113L19.9142 28.5428C19.7771 29.034 19.6419 29.5271 19.4911 30.0666C19.1151 29.6431 18.9036 29.1713 18.5687 28.7748H18.1398L18.3493 28.9682C18.3728 29.4265 18.3963 29.8771 18.4198 30.3219C18.4138 30.3564 18.4138 30.3917 18.4198 30.4263C18.4512 30.4804 18.4943 30.5288 18.5628 30.6197C18.6196 30.5133 18.6803 30.4495 18.6823 30.3857C18.6819 30.2356 18.6708 30.0856 18.649 29.9371C18.6126 29.698 18.6126 29.4548 18.649 29.2157C18.9486 29.6296 19.2091 29.9893 19.5107 30.4128C19.7085 29.9371 19.7673 29.4826 19.9416 29.0243ZM19.2091 12.4228C19.1739 12.1482 19.1562 11.9432 19.119 11.7401C19.0753 11.4674 19.0178 11.1969 18.9467 10.9299C18.9342 10.8586 18.9072 10.7905 18.8675 10.7297C18.8278 10.669 18.7762 10.6167 18.7156 10.576C18.7039 10.6236 18.696 10.6721 18.6921 10.721C18.6882 11.2896 18.6882 11.8697 18.6882 12.4286C18.6834 12.5271 18.7057 12.625 18.7526 12.7122C18.7994 12.7993 18.8692 12.8723 18.9545 12.9236C19.0629 12.9551 19.1778 12.9573 19.2873 12.9301C19.3968 12.9029 19.4969 12.8472 19.5773 12.7689C19.8476 12.4808 20.1198 12.1888 20.3881 11.9045C20.441 11.8503 20.4821 11.7846 20.5722 11.6686C19.9866 11.715 19.64 12.0631 19.2091 12.4228ZM18.6216 16.8357C18.646 16.9103 18.6754 16.9833 18.7097 17.0542C18.7381 17.1047 18.7737 17.151 18.8155 17.1915C19.0366 17.417 19.3115 17.584 19.6151 17.6773C19.9186 17.7705 20.241 17.787 20.5526 17.7252C20.6836 17.7161 20.8098 17.6735 20.919 17.6017C21.0282 17.5298 21.1166 17.4311 21.1754 17.3152C21.1754 17.1779 21.2224 17.0174 21.0442 16.9053L20.9071 16.9923C20.7859 17.0782 20.6479 17.1382 20.5019 17.1685C20.3559 17.1988 20.2051 17.1987 20.0591 17.1683C19.8102 17.1115 19.5666 17.0345 19.3305 16.9381C19.166 16.8763 19.0152 16.7854 18.8546 16.7119C18.8169 16.7024 18.778 16.6985 18.7391 16.7003L18.6216 16.8357ZM15.8013 17.2108C15.9091 17.6285 16.2459 17.7039 16.5847 17.7426C17.091 17.801 17.6003 17.6623 18.0046 17.3558C18.1817 17.2345 18.3056 17.0514 18.3513 16.8434L18.2338 16.6945L17.7833 16.8879C17.5659 16.9729 17.3505 17.0619 17.1292 17.1354C16.9644 17.1966 16.787 17.2174 16.6123 17.1958C16.4376 17.1742 16.2709 17.111 16.1265 17.0116C16.0636 16.978 15.9981 16.9496 15.9306 16.9265L15.8013 17.2108ZM23.9408 25.9128C23.5883 26.0289 23.3866 26.2029 23.0908 26.6303C23.5981 26.9145 23.9291 27.4154 24.4402 27.7364L24.5578 27.543L24.0348 27.0402C24.1288 26.988 24.1974 26.9165 24.2581 26.9223C24.501 26.9397 24.7418 26.9822 25.0043 27.017C25.0983 26.9726 25.2354 26.9532 25.2765 26.7618C25.1003 26.7618 24.9397 26.7618 24.781 26.7463C24.6224 26.7308 24.4637 26.6902 24.3031 26.6612L24.2738 26.201L23.9408 25.9128ZM18.7117 15.7643C18.6906 15.8174 18.6884 15.876 18.7055 15.9305C18.7226 15.9849 18.7579 16.032 18.8057 16.0641C19.1378 16.3391 19.5229 16.545 19.9377 16.6693C20.0626 16.6972 20.1927 16.6933 20.3157 16.6577C20.3744 16.643 20.4267 16.6097 20.4645 16.5629C20.5024 16.5162 20.5237 16.4585 20.5252 16.3986C20.2706 16.2652 20.016 16.1337 19.7634 15.9983C19.5871 15.9055 19.4148 15.8049 19.2405 15.7141C19.1588 15.6645 19.063 15.6426 18.9675 15.6517C18.8721 15.6607 18.7823 15.7003 18.7117 15.7643ZM18.2025 15.6908C17.9283 15.5787 17.7128 15.7083 17.4974 15.8262C17.2134 15.9848 16.9294 16.1472 16.6474 16.3097C16.5789 16.3483 16.5142 16.3928 16.432 16.445L16.6572 16.7042C17.3486 16.6713 17.8323 16.3348 18.271 15.9616C18.2772 15.9063 18.2772 15.8505 18.271 15.7953C18.253 15.7576 18.23 15.7224 18.2025 15.6908ZM16.6494 30.434L17.8852 28.7806L17.4935 28.7149L17.5581 28.947C17.2898 29.2892 17.0763 29.6876 16.7375 30.0511L16.5417 28.5776C16.3732 28.4384 16.3732 28.4384 16.2146 28.448C16.2616 28.6878 16.3164 28.9315 16.3576 29.1771C16.4124 29.5174 16.4516 29.8597 16.5064 30.202C16.5221 30.2561 16.5769 30.3083 16.6494 30.434ZM23.0732 28.9218C23.2691 28.8019 23.2221 28.6627 23.1986 28.5467C23.1359 28.2315 23.0497 27.9201 22.9831 27.6049C22.9342 27.3709 22.8245 27.1447 22.9185 26.8314C22.7814 26.9272 22.6655 27.0496 22.5777 27.1911L22.754 27.2259C22.801 27.4618 22.8323 27.6881 22.893 27.9085C22.9744 28.1334 23.0238 28.3683 23.0399 28.6066C22.5601 28.3533 22.2076 27.9878 21.7395 27.7673L21.4477 27.9259C21.5773 27.9484 21.6972 28.0083 21.7924 28.098C22.2134 28.3649 22.6482 28.6414 23.0732 28.9179V28.9218ZM12.1194 26.8391L12.0704 26.7792L12.8303 25.4893L12.6756 25.2283L11.6964 26.9532L11.8335 27.0789L13.6333 26.5781L13.4237 26.3073C13.3905 26.5007 13.2436 26.5413 13.1182 26.5877C13.0069 26.6216 12.8938 26.6493 12.7794 26.6709C12.564 26.725 12.3427 26.783 12.1194 26.8391ZM26.9021 22.753C26.5378 22.5481 26.3517 22.5713 26.0619 22.8536L25.7172 23.1843L25.4959 23.163C25.3196 22.9232 25.3999 22.7202 25.5409 22.5248L25.7994 22.4436L25.5076 22.3334C25.2902 22.6447 25.1433 22.9348 25.3881 23.2655C25.7309 23.4589 25.8739 23.4434 26.1422 23.1939C26.2695 23.076 26.3929 22.9522 26.5064 22.8439H26.7904C26.8318 22.9257 26.8672 23.0104 26.8962 23.0972C26.9628 23.339 26.7552 23.5072 26.667 23.7489C27.0666 23.4917 27.1332 23.1591 26.9021 22.753ZM12.421 25.06L12.515 24.9866L11.7962 23.5091L11.5338 23.6368L11.7551 23.7122L11.9725 24.1608C11.5279 24.478 11.007 24.6346 10.5389 24.9343L10.6623 25.1587L12.1096 24.4393L12.421 25.06ZM11.1793 22.492C11.0254 22.5227 10.8873 22.6057 10.7889 22.7265C10.6905 22.8473 10.6381 22.9983 10.6407 23.1533C10.6363 23.3283 10.5871 23.4992 10.4978 23.6503C10.4526 23.6613 10.4068 23.6697 10.3607 23.6755C10.3039 23.6755 10.2451 23.6755 10.1981 23.6755C10.1035 23.6055 10.0312 23.5101 9.9899 23.4008C9.94859 23.2914 9.93996 23.1726 9.96505 23.0586C9.96505 23.0199 9.93176 22.9774 9.89651 22.8942C9.80642 23.4995 9.9298 23.7219 10.4312 23.8862L10.7524 23.7257C11.0168 23.3873 10.8953 22.9948 11.1127 22.6738L11.4555 22.7859C11.5808 23.1437 11.5808 23.1437 11.4378 23.4279L11.7081 23.3119C11.6611 22.9348 11.5886 22.6157 11.1793 22.492ZM14.967 29.7688C15.0105 29.7126 15.0504 29.6539 15.0865 29.5928C15.2491 29.2718 15.4253 28.9566 15.5644 28.6259C15.592 28.5408 15.6434 28.4652 15.7127 28.4077C15.782 28.3502 15.8664 28.3132 15.9561 28.3011L15.4723 28.04C15.3744 28.6317 14.969 29.0843 14.7927 29.6373L14.967 29.7688ZM24.9906 23.6658L24.7849 24.0873C24.9212 24.0988 25.0558 24.1247 25.1864 24.1647C25.5781 24.331 25.9502 24.5166 26.3321 24.6926C26.3709 24.7042 26.4111 24.7107 26.4516 24.712L26.4634 24.4741C26.0501 24.2807 25.6467 24.0873 25.253 23.8824C25.1575 23.8202 25.0695 23.7475 24.9906 23.6658ZM20.5526 18.8487C20.6862 18.868 20.8226 18.8486 20.9452 18.793C21.0679 18.7374 21.1717 18.648 21.244 18.5354C21.3177 18.4556 21.3653 18.3558 21.3807 18.2488C21.396 18.1419 21.3784 18.0329 21.3302 17.936C21.2081 18.027 21.0813 18.1115 20.9502 18.1893C20.8228 18.2545 20.692 18.3133 20.5585 18.3653L20.5526 18.8487ZM15.6408 17.963C15.5174 18.4465 15.7426 18.7366 16.3654 18.8951C16.4476 18.7417 16.4652 18.5624 16.4144 18.3962L15.6408 17.963ZM15.8875 19.5778C15.9442 19.6962 16.0299 19.7988 16.137 19.8761C16.2441 19.9535 16.369 20.0031 16.5005 20.0206L16.4046 19.483L15.8875 19.1987V19.5778ZM20.4704 19.9645C20.7544 20.0129 20.8719 19.835 20.9894 19.6861C21.0464 19.6207 21.0827 19.5402 21.0939 19.4546C21.105 19.369 21.0905 19.282 21.0521 19.2045L20.6173 19.4559C20.5992 19.4846 20.5841 19.5151 20.5722 19.5468C20.5389 19.6803 20.5076 19.8117 20.4704 19.9665V19.9645Z" fill="white"/>
<path d="M25.7838 25.8974C25.4273 25.9709 25.2452 25.6923 24.9887 25.5454C25.0416 25.4588 25.0998 25.3755 25.163 25.2959C25.2186 25.22 25.3014 25.1679 25.3946 25.1502C25.4878 25.1326 25.5843 25.1508 25.6644 25.2011C25.7507 25.2387 25.8204 25.3057 25.8607 25.3899C25.901 25.4741 25.9091 25.5698 25.8837 25.6594C25.8672 25.725 25.8469 25.7896 25.823 25.8528C25.8238 25.8584 25.8235 25.864 25.8219 25.8694C25.8203 25.8748 25.8176 25.8798 25.8138 25.884C25.8101 25.8882 25.8055 25.8916 25.8003 25.8939C25.7951 25.8962 25.7894 25.8974 25.7838 25.8974Z" fill="white"/>
<path d="M19.1034 20.214C19.0238 20.3281 18.9132 20.4177 18.7843 20.4725C18.6554 20.5272 18.5134 20.5449 18.3748 20.5234C18.179 20.4847 17.9596 20.4325 17.9087 20.1695C18.0355 20.1059 18.1797 20.0842 18.32 20.1076C18.4504 20.0996 18.5812 20.0996 18.7117 20.1076C18.837 20.1211 18.9898 20.0612 19.1034 20.214Z" fill="white"/>
<path d="M17.0803 18.8545L17.3603 18.607C17.8891 18.5373 17.9714 18.5644 18.1437 18.8487C18.1388 18.8741 18.1288 18.8984 18.1143 18.92C18.0997 18.9415 18.0809 18.96 18.059 18.9742C18.0371 18.9885 18.0125 18.9982 17.9866 19.0029C17.9608 19.0076 17.9343 19.0071 17.9087 19.0015C17.6482 18.9802 17.3721 19.0885 17.0803 18.8545Z" fill="white"/>
<path d="M19.6165 18.5857L19.8476 18.8313C19.8084 18.8893 19.7868 18.9551 19.7594 18.959C19.5185 18.9822 19.2737 19.0034 19.0309 19.0073C18.9643 19.0073 18.8957 18.9454 18.79 18.8913L19.0798 18.5857H19.6165Z" fill="white"/>
<path d="M18.1887 19.6241C18.5353 19.4308 18.5804 19.4308 18.8115 19.6551C18.5706 19.8523 18.4394 19.8504 18.1887 19.6241Z" fill="white"/>
<path d="M24.125 26.8179L23.9448 26.9803L23.3572 26.4427L23.5844 26.1971C23.839 26.141 23.9761 26.2783 24.121 26.4369L24.125 26.8179Z" fill="white"/>
<path d="M25.0729 25.1374L24.9182 25.4991L24.3463 25.1626C24.456 24.8648 24.4579 24.8648 24.8144 24.8706L25.0729 25.1374Z" fill="white"/>
</svg>
