<svg width="34" height="42" viewBox="0 0 34 42" fill="none" xmlns="http://www.w3.org/2000/svg">
<path d="M16.7603 41.537C15.9495 40.9421 15.1062 40.3512 14.2953 39.7207C12.3512 38.2049 10.5376 36.5287 8.87379 34.7097C6.50814 32.1322 4.48203 29.3246 2.92825 26.1836C1.76514 23.8577 0.937938 21.3784 0.471374 18.8201C0.273977 17.7421 0.157431 16.6508 0.122709 15.5554C-0.0110814 10.7785 0.103451 6.00158 0.0649356 1.22467C0.0649356 1.14257 0.0740577 1.06047 0.0791255 0.983441C0.48455 0.903369 33.2601 0.882084 33.8571 0.969251V1.35339C33.8571 5.91441 33.8834 10.4754 33.8449 15.0365C33.8198 17.0274 33.5474 19.0075 33.034 20.9313C32.2373 23.9367 30.9629 26.7945 29.2595 29.3956C28.0083 31.3212 26.5834 33.1281 25.0026 34.7938C22.6996 37.2418 20.1137 39.4075 17.2995 41.2451C17.1982 41.31 17.0968 41.3718 16.9955 41.4296C16.9377 41.462 16.8738 41.4853 16.7603 41.537ZM31.0383 3.32578C31.2765 3.4545 31.2512 3.68458 31.2512 3.90047C31.2512 4.92923 31.2512 5.95901 31.2512 6.98879C31.2512 7.13981 31.2563 7.29286 31.2613 7.44388C31.2786 7.91417 31.3019 8.38548 31.308 8.85577C31.2926 8.9765 31.2616 9.09473 31.2157 9.20747C31.0475 9.21558 30.8985 9.22977 30.7495 9.23079C30.2265 9.23079 29.7035 9.23079 29.1805 9.23079C29.0378 9.22264 28.895 9.2441 28.7611 9.29381C28.6271 9.34353 28.5049 9.42042 28.4021 9.51965C28.621 9.53384 28.768 9.54702 28.9159 9.55208C29.589 9.57337 30.263 9.59871 30.936 9.61188C31.164 9.61188 31.4134 9.67371 31.614 9.4487C31.6323 9.08078 31.6526 8.69664 31.6738 8.28007L32.4036 8.15844C32.4269 8.03884 32.4482 7.93241 32.4634 7.85437C32.2141 7.51077 31.8492 7.8189 31.6526 7.677V4.93025C31.8614 4.89984 32.0235 4.88058 32.1847 4.85119C32.4259 4.80558 32.4502 4.76909 32.4958 4.38394L31.7164 4.24913C31.4438 3.89946 31.6627 3.4616 31.5289 3.06834C31.3637 2.90008 31.1995 2.88893 31.0383 3.08151C31.0454 3.18287 31.0505 3.26497 31.0566 3.34808H30.788C30.7673 3.38777 30.752 3.43004 30.7424 3.47376C30.7424 5.05694 30.7343 6.63911 30.7424 8.22229C30.7466 8.35475 30.7813 8.48446 30.8437 8.60136C30.8762 8.66319 30.9867 8.68245 31.1032 8.74326C31.1204 8.57096 31.1407 8.45744 31.1417 8.34392C31.1417 7.85538 31.1539 7.36685 31.1417 6.87831C31.1326 6.52762 31.0779 6.17794 31.0698 5.82826C31.0576 5.27182 31.0252 4.71334 31.086 4.16197C31.1174 3.87006 31.1336 3.6035 31.0383 3.32983V3.32578ZM26.3527 15.2645C26.3165 15.3279 26.2895 15.3962 26.2726 15.4672C26.2442 16.0875 25.9432 16.5578 25.4496 16.9045C25.1191 17.1366 24.7715 17.3464 24.4198 17.545C23.9941 17.7852 23.5512 17.995 23.1234 18.2332C22.4965 18.5669 21.9368 19.0136 21.4724 19.5509C20.6879 20.4884 20.5156 21.7807 21.2696 22.8794C21.3842 23.0456 21.5028 23.2098 21.6224 23.374C21.8899 23.7419 22.1697 24.1028 22.4251 24.4798C22.7057 24.8857 22.8527 25.3689 22.8457 25.8623C22.8444 26.1174 22.7499 26.3632 22.5802 26.5536C22.2011 27.0046 21.7278 27.1303 21.1693 26.9863C20.5064 26.814 19.9915 26.4218 19.5567 25.9059C18.8026 25.0119 18.3151 23.9801 18.0019 22.8652C17.9482 22.6726 17.8925 22.4801 17.8479 22.3219L17.0198 21.6925C16.5262 21.5212 16.5383 22.1993 16.1177 22.176C16.0164 22.101 15.9049 22.0118 15.7599 21.8983C15.4944 22.1628 15.3292 22.479 15.1467 22.775C14.9643 23.071 14.5933 23.2818 14.571 23.6771C14.6663 23.9071 14.8579 23.9517 15.0403 23.9599C15.6251 23.9852 16.0944 24.2457 16.5556 24.5862C17.4343 25.2369 17.783 26.1208 17.6239 27.1536C17.4973 27.9389 17.583 28.7438 17.8722 29.4848C18.0009 29.8233 18.0354 30.1334 17.8073 30.4426C17.7544 30.5285 17.7135 30.6213 17.6857 30.7183C17.5245 31.1612 17.3674 31.6051 17.2053 32.0471C17.1586 32.1737 17.0857 32.2954 17.2336 32.4363C17.9259 32.3268 18.1945 31.7268 18.5574 31.2119L18.906 31.3923L19.2902 31.2382C19.5638 31.517 19.9044 31.5423 20.2389 31.5869C20.4087 31.5975 20.5779 31.6171 20.7456 31.6457C21.2524 31.7673 21.4754 32.044 21.5139 32.568C21.52 32.6521 21.524 32.7373 21.5352 32.8204C21.6082 33.3424 21.4622 33.6698 21.0061 33.8988C20.776 34.0026 20.5364 34.0837 20.2905 34.1411C20.1122 34.1907 19.9206 34.1897 19.7452 34.2424C19.6193 34.2891 19.5061 34.3648 19.4148 34.4634C19.3692 34.51 19.3864 34.6185 19.3692 34.7401L19.8628 35.034C20.1497 34.9894 20.2682 34.7168 20.5379 34.7979L20.6605 35.1972C21.4511 35.2175 21.5109 35.179 21.8352 34.4076C22.119 34.2232 22.4504 34.0083 22.8163 33.7691C22.6075 33.3069 22.8832 32.9106 23.1701 32.489C23.1336 32.2863 23.0981 32.0754 23.0545 31.8636C23.0312 31.7491 22.9603 31.6335 22.9714 31.5251C23.0241 31.0467 22.7423 30.8946 22.3511 30.7548C22.0085 30.6331 21.6984 30.4122 21.3903 30.2125C21.2423 30.1162 21.1044 29.9774 21.1602 29.7584C22.2173 29.8598 22.6116 29.8304 22.9359 29.6459C22.9167 29.425 22.7393 29.4017 22.5771 29.3581C22.2031 29.2567 21.8251 29.1645 21.4622 29.0449C20.8541 28.8493 20.5135 28.3719 20.2338 27.8388C20.2163 27.7755 20.2098 27.7096 20.2145 27.6441C20.4507 27.4627 20.6341 27.6137 20.8287 27.706C21.5514 28.0475 22.4606 27.8529 22.938 27.2438C23.0679 27.0548 23.1857 26.8578 23.2907 26.6539C23.9606 26.585 24.1492 26.1096 24.1776 25.5136C24.179 25.4631 24.1831 25.4127 24.1897 25.3626C24.2566 24.9339 24.3793 24.5406 24.7887 24.3014C24.8577 24.2609 24.885 24.1514 24.9367 24.0663C24.5313 23.8636 24.2039 24.2426 23.7873 24.1545C23.7958 24.0422 23.8172 23.9313 23.8512 23.824C24.1147 23.2412 24.5739 22.8622 25.1455 22.6017C25.2874 22.5368 25.482 22.5196 25.4911 22.3067C25.4516 22.2723 25.4273 22.2317 25.404 22.2317C24.6306 22.2429 23.8907 22.3534 23.2978 22.921C23.1691 23.0446 23.0596 23.2169 22.8397 23.1784C22.6592 22.8743 22.6734 22.8743 22.7059 22.6645C22.737 22.455 22.816 22.2554 22.9367 22.0814C23.0575 21.9074 23.2168 21.7635 23.4022 21.6611C23.7762 21.4361 23.9515 21.0945 24.0458 20.6344C23.9387 20.6391 23.8324 20.6548 23.7285 20.681C23.5258 20.758 23.3333 20.8837 23.1204 20.9354C22.9147 20.9853 22.7236 21.0829 22.5625 21.2202C22.4014 21.3575 22.2748 21.5308 22.193 21.726C22.1332 21.8537 22.1048 22.03 21.8889 22.0513C21.4835 21.7047 21.4713 21.2405 21.5555 20.7651C21.6661 20.1777 21.9675 19.6433 22.4129 19.2448C22.8346 18.8464 23.3333 18.5647 23.839 18.29C23.9611 18.216 24.101 18.1765 24.2437 18.1756C24.3865 18.1747 24.5269 18.2125 24.6499 18.2849C25.1567 18.5434 25.3817 18.4988 25.782 18.1167C25.8915 18.0153 25.9847 17.8866 26.1013 17.7933C26.2706 17.6585 26.454 17.542 26.6354 17.4244C26.7289 17.3704 26.8254 17.3217 26.9243 17.2785L26.5341 16.873C26.5979 16.569 26.6963 16.2963 26.7044 16.0186C26.7125 15.7409 26.7652 15.3993 26.3527 15.2645ZM18.2644 16.9876C18.6516 16.4504 18.6982 16.2963 18.6607 15.8635L18.1986 15.2676C17.9036 15.1216 17.562 14.9371 17.2073 14.7821C17.0046 14.6949 16.7826 14.5844 16.584 14.6077C16.1537 14.6752 15.7284 14.7714 15.3109 14.8956C15.2269 14.935 15.1504 14.9889 15.0849 15.0547C15.0373 15.3243 14.9947 15.5676 14.945 15.8493C15.0555 15.9679 15.1842 16.0977 15.3038 16.2355C15.4446 16.3795 15.5709 16.537 15.6809 16.7058C15.8359 16.9784 15.7883 17.1649 15.5349 17.4356L14.8376 17.0301C14.6541 17.1143 14.5234 17.1832 14.5589 17.395L14.8873 17.5785C14.8437 18.0325 14.6612 18.2484 14.2629 18.3194C14.0709 18.3532 13.8737 18.3435 13.686 18.2909C13.4983 18.2382 13.3248 18.1441 13.1784 18.0153C13.0608 17.92 12.9605 17.7944 12.7608 17.8673C12.4973 18.1886 12.7334 18.5251 12.7851 18.8627C12.3169 19.4029 11.8729 19.9553 11.3864 20.4671C11.0631 20.8077 10.6982 21.1138 10.236 21.278C10.0964 21.3429 9.96301 21.4206 9.83769 21.5101C10.1245 21.6773 10.1245 21.6854 10.2887 21.6814C11.2009 21.6631 12.0594 21.4787 12.8054 20.9111C12.9301 20.8158 13.0345 20.6465 13.2696 20.7337C13.299 20.9435 13.3304 21.1655 13.371 21.4513L14.0267 21.1645C14.2036 21.5473 14.254 21.9765 14.1707 22.3898C14.1149 22.7041 14.0186 23.0112 13.9477 23.3223C13.9304 23.4378 13.9203 23.5543 13.9173 23.671C14.3004 23.445 14.4666 23.1257 14.6653 22.8449C14.8831 22.5442 15.0811 22.2297 15.2582 21.9033C15.4163 21.5993 15.5248 21.2709 15.6515 20.9638C16.0447 21.0215 15.9424 21.5273 16.3448 21.5861C16.4086 21.4614 16.4796 21.3327 16.5414 21.2009C16.6032 21.0692 16.5211 20.8867 16.7238 20.8026C16.8705 21.026 17.0324 21.239 17.2083 21.4401C17.3845 21.6212 17.5901 21.7709 17.8164 21.8831C18.0384 21.9844 18.2715 22.175 18.5685 22.0412C18.5452 21.9672 18.5442 21.9084 18.5148 21.876C18.4025 21.7512 18.2834 21.6328 18.158 21.5212C17.8448 21.2496 17.7272 20.8979 17.6908 20.4854L18.0719 20.2715C18.0992 19.8924 18.1884 19.5296 18.1337 19.191C18.0648 18.7603 18.1448 18.4309 18.4783 18.1775C18.456 17.7558 18.5867 17.3403 18.2644 16.9876ZM12.3392 32.5244C12.4015 32.4508 12.4571 32.3718 12.5054 32.2883C12.7081 31.8758 13.0365 31.6953 13.4814 31.6964C13.7004 31.6964 13.9193 31.7014 14.1382 31.7106C14.3823 31.7388 14.629 31.6876 14.8416 31.5646L15.3221 30.8399C15.4457 30.3635 14.8994 30.2003 14.868 29.802C14.942 29.5111 15.021 29.2223 15.3292 29.0996C15.7346 29.2709 15.5197 29.8872 16.0164 29.9855C16.1856 29.7503 16.1491 29.4888 16.142 29.2476C16.1305 28.8738 16.2455 28.507 16.4684 28.2067C16.579 28.0378 16.7063 27.8806 16.8485 27.7374C17.1526 27.4577 17.2306 27.0867 17.2124 26.7238C17.1941 26.361 17.1252 25.9728 16.6752 25.8268C16.5829 25.8512 16.4836 25.8694 16.3883 25.9008C15.8745 26.0701 15.3525 26.1907 14.8052 26.1603C14.7374 26.1586 14.6697 26.1619 14.6024 26.1704C13.7977 26.2515 13.0294 26.4157 12.5753 27.0918C12.253 27.185 11.9763 27.2205 11.7442 27.3421C11.3388 27.5529 10.9415 27.7658 10.4965 27.8844C10.4164 27.9056 10.3516 27.9857 10.2685 28.0496C10.609 28.4104 11.0134 28.0962 11.3682 28.2351L11.5841 28.5898H12.0716C12.1942 28.7925 12.2875 29.0185 12.4385 29.1898C12.6027 29.3763 12.8358 29.502 13.0122 29.6804C13.1215 29.81 13.2176 29.9502 13.299 30.099C13.2362 30.4781 13.0304 30.6058 12.7172 30.5906C12.5327 30.5804 12.3493 30.5531 12.1638 30.549C11.879 30.5429 11.5851 30.5095 11.3094 30.5591C10.8262 30.633 10.3348 30.6353 9.85087 30.5662C9.58441 30.5479 9.3167 30.5635 9.05421 30.6129C8.97444 30.6252 8.90153 30.6651 8.84818 30.7257C8.79484 30.7862 8.76444 30.8636 8.7623 30.9443L9.52855 31.3416V31.7106C10.0536 32.116 10.5229 31.8747 10.9475 31.6092L11.9347 31.9791C12.1304 32.3836 12.1304 32.3836 12.3392 32.5244ZM17.1292 8.60441C18.0475 8.29223 19.0175 8.53954 19.9865 8.40169C19.9976 7.92735 20.0128 7.48949 20.0189 7.05568C20.0189 6.60059 20.0189 6.14348 20.0189 5.68839C20.0189 5.24952 20.024 4.81065 20.0189 4.37076C20.0138 3.93088 20.0615 3.46971 19.9865 3.05313C19.9084 3.00854 19.8851 2.97914 19.8507 2.97813C19.126 2.97103 18.4023 2.9538 17.6776 2.97002C17.4455 2.97509 17.2134 3.07138 17.0289 3.37544C17.0289 5.01437 17.0289 6.73236 17.0289 8.45034C17.0319 8.48886 17.0836 8.53042 17.1292 8.60339V8.60441ZM9.13529 3.043C9.04407 3.00144 8.99846 2.96292 8.95285 2.96292C8.27782 2.94873 7.6038 2.93252 6.92573 2.9315C6.78278 2.92274 6.64028 2.95465 6.51471 3.02353C6.38915 3.09241 6.28566 3.19545 6.21624 3.32071C6.12907 4.65354 6.1686 8.09154 6.28313 8.50204C6.74025 8.47264 7.20446 8.43818 7.6707 8.41487C8.15214 8.38953 8.64067 8.46048 9.13428 8.34493L9.13529 3.043ZM24.9073 3.02171C24.8901 3.05516 24.8769 3.07036 24.8769 3.08658C24.8688 4.77213 24.8597 6.45768 24.8617 8.14323C24.8617 8.26081 24.9479 8.37737 24.9914 8.48582C25.8641 8.36115 26.674 8.47771 27.503 8.61251C27.5469 8.51799 27.5782 8.41816 27.5963 8.31554C27.6095 7.57868 27.646 6.84081 27.5841 6.08571H27.2801L27.1179 6.44856L27.422 6.87831C27.0814 6.85094 26.8138 6.82358 26.5533 6.81142C26.2929 6.79925 25.9969 6.80027 25.6867 6.79419C25.9705 6.34518 26.0739 5.00525 25.9006 4.38698C25.6067 4.29272 25.5317 4.62922 25.2651 4.70524C25.3198 4.47617 25.3665 4.27447 25.405 4.11636H26.9821C26.9821 4.36265 27.0277 4.60793 26.8523 4.83497C26.7236 4.63226 26.7327 4.32819 26.4003 4.35961C26.3638 4.4184 26.3152 4.46097 26.3141 4.50151C26.2979 5.10965 26.2854 5.71778 26.2766 6.32592C26.2764 6.40496 26.3001 6.48222 26.3446 6.54753C26.3891 6.61285 26.4523 6.66315 26.526 6.69182C26.6251 6.6856 26.7199 6.64913 26.7977 6.58733C26.8754 6.52553 26.9324 6.44136 26.9608 6.34619C27.1635 5.67015 27.3774 4.99613 27.5578 4.31907C27.6092 4.08888 27.6191 3.85137 27.5872 3.61769C27.5446 3.23355 27.3459 3.07138 26.9456 3.03996C26.6111 3.01462 26.2756 2.97002 25.9401 2.97103C25.6046 2.97205 25.2347 2.88995 24.9073 3.02577V3.02171ZM3.43401 2.9538C3.41089 3.04997 3.39362 3.14745 3.38232 3.24571C3.36914 4.73058 3.35293 6.21646 3.34989 7.70538C3.34989 7.93343 3.32252 8.18682 3.57591 8.40879C3.91343 8.41487 4.29959 8.40879 4.68475 8.43007C5.0699 8.45136 5.47938 8.50406 5.9142 8.54663C5.9592 8.35866 5.99004 8.16757 6.00643 7.97498C5.99832 6.39484 6.07028 4.81166 5.89494 3.2305C5.09625 2.76832 4.27324 2.96394 3.43401 2.9538ZM27.8902 8.69968C27.9535 8.69621 28.0162 8.68497 28.0767 8.66623C28.4063 8.53175 28.7628 8.47621 29.1176 8.50406C29.37 8.51318 29.6244 8.52231 29.8768 8.51521C30.0734 8.50913 30.268 8.47771 30.4576 8.45845C30.4935 8.38453 30.5194 8.30613 30.5346 8.22533C30.5441 6.55431 30.5495 4.88328 30.5508 3.21226C30.5416 3.15058 30.5228 3.09073 30.4951 3.03489C29.8373 2.85143 28.468 2.91731 27.9521 3.15145C27.7775 3.49845 27.7332 3.8966 27.8274 4.27346C28.0858 5.13296 28.2551 6.02287 28.7102 6.86412C28.5419 6.86412 28.4061 6.87122 28.2754 6.86412C28.1446 6.85703 27.9916 6.83067 27.8507 6.81243C27.7524 7.42462 27.7716 8.35 27.8902 8.69968ZM14.3217 8.42196C14.7372 8.42805 15.1406 8.42196 15.538 8.44426C15.9353 8.46656 16.3306 8.53852 16.7259 8.58717C16.8941 8.14425 16.8951 7.32732 16.7259 6.90872L16.2505 6.85196C16.1289 6.69283 15.9991 6.51951 15.8653 6.34518C15.7315 6.17085 15.6738 5.958 15.4346 5.89009C15.2268 6.23166 15.3383 6.53877 15.4994 6.86412C15.2146 6.84182 14.9825 6.91075 14.7058 6.79013C14.9602 6.54789 14.9359 6.257 14.946 5.97928C14.9541 5.74312 14.9531 5.50696 14.9623 5.26979C14.9683 5.10255 15.02 4.92822 14.9896 4.76909C14.9592 4.60996 14.8508 4.44678 14.7717 4.27447C15.1606 4.15803 15.5731 4.14476 15.9687 4.23596C16.2616 4.2917 16.4684 4.42955 16.5394 4.72956C16.5778 4.86927 16.572 5.01746 16.5229 5.15376C16.4737 5.29006 16.3835 5.40778 16.2647 5.49075L15.9332 5.75022C16.1927 6.08469 16.2454 6.55499 16.7522 6.68878C16.7868 6.60402 16.8116 6.51561 16.8262 6.42525C16.8394 5.51304 16.8546 4.60084 16.8485 3.6937C16.8485 3.52038 16.7573 3.34605 16.7188 3.20821C16.1015 2.92745 14.793 2.8565 14.2588 3.05415C14.1767 3.79404 14.2082 7.99019 14.3217 8.42196ZM12.1831 18.9133L11.8131 18.7532C11.4604 18.5961 11.0915 18.4653 10.756 18.2748C9.97857 17.8329 9.23563 17.3443 8.67412 16.6196C8.47141 16.3561 8.19978 16.1443 7.95247 15.9152C7.74975 15.7226 7.51968 15.5483 7.31696 15.3507C7.07168 15.1125 6.82235 14.8976 6.43922 14.9219C6.28009 15.1986 6.44733 15.4459 6.45341 15.6679C6.63991 15.9081 7.02607 15.8159 7.10817 16.2C6.99465 16.2913 6.871 16.4027 6.73721 16.494C6.60342 16.5852 6.44429 16.6683 6.47064 16.9095L6.75444 17.0676L7.05851 17.2359L7.57137 17.0504C8.16329 17.5349 8.28086 18.1005 7.91699 18.7137C7.80145 18.9113 7.67576 19.1029 7.54603 19.3117C7.81564 19.4323 7.98693 19.3046 8.15923 19.2103C8.33154 19.116 8.52411 18.9914 8.75318 18.8525C8.80589 19.0978 8.84541 19.2863 8.89711 19.5255C9.00829 19.5373 9.1204 19.5373 9.23158 19.5255C9.80931 19.3938 9.95526 19.4637 10.2178 20.0039C10.311 20.1975 10.4205 20.384 10.4965 20.5249C10.7712 20.6445 10.9161 20.535 11.0448 20.3881C11.3783 20.009 11.7148 19.6309 12.0412 19.2448C12.1017 19.1404 12.1493 19.0291 12.1831 18.9133ZM12.8388 21.3966C12.6097 21.4089 12.3948 21.5113 12.2408 21.6814C11.9368 21.9702 11.6246 22.2571 11.3003 22.5247C10.7213 23.0163 10.053 23.3917 9.33192 23.6304C8.61331 23.8626 7.92409 24.1889 7.22473 24.4808C7.11656 24.5275 7.01716 24.5923 6.9308 24.6724C6.86683 24.7194 6.82041 24.7864 6.79892 24.8628C6.77744 24.9392 6.78211 25.0206 6.81221 25.094C7.04634 25.2217 7.29264 25.2967 7.56731 25.2015C7.78928 25.1082 7.79942 24.7768 8.09538 24.7423C8.31025 24.9643 8.50688 25.238 8.90623 25.2035L9.16063 24.6967C9.51639 24.4251 9.99783 24.5872 10.3982 24.4119C10.4479 24.3906 10.5421 24.4707 10.5898 24.492C10.7337 24.7454 10.5614 25.0281 10.7398 25.242C11.0053 25.2592 11.1057 25.0677 11.203 24.8974C11.353 24.6349 11.4736 24.3551 11.6216 24.0865C11.6767 24.0148 11.7431 23.9525 11.8182 23.9021L12.2723 24.045L12.7192 23.5321L13.4825 23.4105C13.82 22.8703 13.9092 22.2895 13.7369 21.7635L13.1399 21.8233L12.8388 21.3966ZM8.56973 12.7489C9.8681 12.7661 11.1209 12.7732 12.4213 12.7489C12.4071 12.2015 12.4598 11.7059 12.3756 11.1707H11.0823C10.6617 11.1707 10.2401 11.1616 9.81945 11.1707C9.39882 11.1799 8.98731 11.117 8.56668 11.2184L8.56973 12.7489ZM20.6585 12.7367C20.7066 12.2138 20.7066 11.6876 20.6585 11.1647C19.3662 11.1728 18.1246 11.1484 16.8343 11.1839C16.8151 11.7015 16.8218 12.2198 16.8546 12.7367H20.6585ZM25.0614 11.19V12.7458C26.3253 12.7712 27.5608 12.7742 28.8349 12.7458C28.8409 12.2015 28.8622 11.7059 28.8186 11.192L25.0614 11.19ZM4.19621 11.2528C3.62862 11.1353 1.16161 11.1515 0.788618 11.2528C0.70652 11.8356 0.724764 12.4134 0.837269 12.7316H4.18202C4.23217 12.2402 4.23692 11.7452 4.19621 11.2528ZM12.1922 4.72145L13.077 4.93329V7.63139L12.0635 7.81991C12.0858 7.97498 12.101 8.08141 12.1172 8.19898L12.9412 8.26993C13.2453 8.64089 12.9899 9.12639 13.2453 9.4862C14.3602 9.7031 15.8866 9.67979 16.3022 9.43147C16.2274 9.3636 16.1396 9.31163 16.0441 9.2787C15.9486 9.24578 15.8475 9.23258 15.7468 9.23991C15.1386 9.2345 14.5305 9.22707 13.9223 9.21761C13.7581 9.21761 13.5798 9.2541 13.4156 9.0524V3.50417L13.7379 3.0207C13.521 2.94164 13.3689 2.93252 13.2199 3.0734L13.0811 4.20352L12.2003 4.38394C12.2013 4.51469 12.1973 4.60692 12.1922 4.72044V4.72145ZM10.3029 4.92417L11.132 4.74172C11.1148 4.58766 11.1026 4.48225 11.0925 4.39205L10.237 4.21771C10.2076 3.80519 10.1813 3.42612 10.1549 3.06327C9.96439 2.93556 9.80526 2.87981 9.63498 3.08455C9.93905 3.47477 9.96945 3.92074 9.93905 4.3809C9.92182 4.61604 9.88938 4.85119 9.89242 5.09039C9.9056 6.18605 9.92891 7.28171 9.94715 8.37737C9.95222 8.64799 9.94715 8.91658 9.74444 9.18822C9.6066 9.18822 9.44037 9.20139 9.27618 9.20139C8.66804 9.20139 8.0599 9.20139 7.45177 9.20139C7.30058 9.19711 7.14945 9.21141 7.00175 9.24396C6.92776 9.26221 6.87302 9.35647 6.72099 9.50141C7.20142 9.51154 7.56529 9.52168 7.92915 9.52675C8.29302 9.53181 8.6721 9.54702 9.04407 9.52675C9.41605 9.50647 9.77992 9.60378 10.1752 9.44363V8.52535C10.4276 8.05505 10.8502 8.32264 11.1624 8.13209V7.74288L10.3222 7.62429C10.1174 6.94419 10.1681 5.82015 10.3029 4.91808V4.92417ZM20.9291 9.60175C21.2707 9.1649 20.9504 8.70171 21.1784 8.27398L21.8383 8.17972C21.9832 8.02668 21.9964 7.88376 21.7977 7.71957L21.1946 7.68815C21.0933 7.41448 20.9919 5.93266 21.0325 5.32148C21.049 5.18861 21.0754 5.05715 21.1115 4.92822C21.4217 4.7924 21.746 4.98397 22.0014 4.70118C21.9619 4.59374 21.9183 4.4782 21.8818 4.38191L21.1207 4.27042C21.074 3.83864 21.0315 3.44133 20.9889 3.04705C20.8166 2.91934 20.6575 2.88691 20.4912 3.04705C20.5064 3.1109 20.5034 3.1707 20.5318 3.20213C20.7781 3.47275 20.8054 3.79607 20.8034 4.14372C20.7933 5.57893 20.8034 7.01311 20.8034 8.44832C20.8034 8.63278 20.8034 8.81725 20.8034 9.04936C20.6713 9.1124 20.5331 9.16165 20.3909 9.19632C20.1887 9.21419 19.9856 9.22028 19.7828 9.21457C19.2263 9.22268 18.6678 9.22775 18.1134 9.23991C17.9107 9.23991 17.7131 9.26727 17.5519 9.50141C18.6738 9.61605 19.8024 9.64959 20.9291 9.60175ZM23.8309 3.07847C23.7975 3.44234 23.761 3.83053 23.7296 4.15285C23.4154 4.4407 22.9826 4.20961 22.7413 4.57449L22.8964 4.84511L23.6606 4.90693C23.7924 5.40561 23.7316 5.86171 23.7316 6.31173C23.7316 6.76175 23.7873 7.21177 23.6921 7.62936C23.3799 7.77633 22.9998 7.58172 22.8417 7.96079C22.9684 8.35507 23.3485 8.13107 23.5927 8.28716C23.9495 8.61555 23.5765 9.14261 23.8694 9.4933C24.357 9.58452 26.6212 9.58046 27.0915 9.48012C26.7685 9.31191 26.4097 9.22396 26.0455 9.22369C25.5894 9.22369 25.1333 9.24193 24.6793 9.24396C24.5009 9.24396 24.3215 9.22572 24.0955 9.21254C24.0275 7.27765 24.059 5.39344 24.0509 3.56295L24.36 3.09773C24.1259 2.98826 24.1259 2.98826 23.8309 3.07847ZM2.74884 9.16794C2.63431 8.89327 2.64749 8.62468 2.64749 8.3571C2.62857 6.95838 2.60762 5.56001 2.58465 4.16197C2.56708 4.0286 2.53791 3.89701 2.49748 3.76871L2.22483 4.15791C1.93293 4.33326 1.59744 4.13967 1.35114 4.41434L1.39473 4.61706C1.68663 4.70321 2.00286 4.61706 2.26335 4.91302C2.24612 5.74211 2.44275 6.62087 2.30491 7.40029C2.01503 7.78849 1.50217 7.5128 1.34405 7.95775C1.54676 8.30338 1.94002 8.12296 2.18632 8.24763C2.54208 8.59934 2.1326 9.06963 2.44782 9.45174C2.60897 9.45174 2.79141 9.45174 2.97386 9.45174C3.1938 9.45174 3.41273 9.45174 3.63166 9.46289C4.15364 9.47809 4.67461 9.50141 5.19558 9.50546C5.29694 9.50546 5.39221 9.43654 5.54729 9.37775C5.42769 9.30376 5.38208 9.24193 5.32633 9.23585C4.70907 9.15984 4.0908 9.08585 3.46442 9.16389C3.22653 9.17955 2.98791 9.18091 2.74986 9.16794H2.74884ZM13.67 8.71184C13.9477 8.68752 14.0176 8.50913 14.0288 8.29628C14.043 8.0287 14.0379 7.7591 14.0389 7.48543C14.0389 6.81142 14.0318 6.13841 14.0389 5.46439C14.047 4.87653 14.0794 4.28968 14.0936 3.70181C14.0936 3.53964 14.1342 3.3572 13.9365 3.23963C13.8392 3.26089 13.7514 3.3134 13.6866 3.38915C13.6219 3.4649 13.5836 3.55975 13.5777 3.65924C13.5482 3.87551 13.5353 4.09373 13.5392 4.31197C13.5392 4.63023 13.5848 4.94849 13.5869 5.26675C13.5939 6.1597 13.5869 7.05163 13.5869 7.94458C13.5754 8.20313 13.6037 8.46192 13.671 8.71184H13.67ZM3.16238 3.27307C2.8279 3.36734 2.76912 3.56295 2.76912 3.80013C2.76912 5.21911 2.76912 6.631 2.77418 8.04593C2.77418 8.27196 2.79547 8.50812 2.93129 8.69968C3.19785 8.65711 3.17859 8.4848 3.17859 8.3125C3.17859 6.94723 3.18873 5.58197 3.19076 4.2167C3.19177 3.91567 3.17353 3.61566 3.16238 3.27307ZM20.4203 3.34098C20.2003 3.48998 20.2176 3.67749 20.2176 3.85993C20.2105 4.93633 20.1922 6.01374 20.2014 7.09116C20.2014 7.57564 20.2591 8.06114 20.3027 8.54562C20.3027 8.6044 20.3858 8.65812 20.4953 8.79495C20.5389 8.30034 20.5966 7.90403 20.6037 7.50773C20.6169 6.32896 20.6037 5.14918 20.6037 3.9704C20.6152 3.85321 20.6118 3.73504 20.5936 3.6187C20.5494 3.51834 20.491 3.42482 20.4203 3.34098ZM9.60052 8.72502C9.71201 8.2375 9.73836 3.93189 9.63599 3.37342L9.39679 3.34706C9.3826 3.47173 9.36233 3.56903 9.36132 3.66634C9.36132 5.18397 9.36132 6.70161 9.36132 8.21925C9.35192 8.31921 9.3619 8.42005 9.39071 8.51623C9.42517 8.59528 9.51842 8.64799 9.60052 8.72502ZM20.3443 9.02909C20.2267 8.70576 20.0595 8.63278 19.8375 8.63076C19.3175 8.63076 18.7976 8.60542 18.2776 8.61454C17.9932 8.62417 17.7099 8.65568 17.4303 8.7088C17.262 8.73718 17.1171 8.82536 17.1171 9.02402C17.2539 9.21153 17.4353 9.1649 17.5914 9.13754C18.2563 9.01895 18.9263 9.03618 19.5973 9.05138C19.8203 9.05544 20.0544 9.03618 20.3412 9.02301L20.3443 9.02909ZM9.45355 8.90746C9.33091 8.63988 9.12313 8.61758 8.89812 8.61758C8.41161 8.61758 7.92409 8.60643 7.43859 8.62265C7.14364 8.63278 6.85073 8.68752 6.55071 8.72401V9.02807C7.44771 9.02807 8.31735 9.02807 9.18597 9.02807C9.27314 9.01692 9.35929 8.948 9.45355 8.90746ZM13.8859 8.98348L16.5769 9.1497C16.6176 9.10305 16.6555 9.05397 16.6904 9.00274C16.7056 8.98044 16.6904 8.93989 16.6904 8.83246C15.8734 8.50913 15.0008 8.68144 14.1352 8.60542L13.8859 8.98348ZM28.1406 9.16997C28.6474 9.14869 29.0862 9.13348 29.52 9.11119C29.9538 9.08889 30.415 9.21254 30.8681 9.04024C30.8644 8.99202 30.8511 8.94504 30.8288 8.90211C30.8066 8.85918 30.7759 8.8212 30.7386 8.79043C30.7013 8.75966 30.6582 8.73675 30.6118 8.72307C30.5654 8.70939 30.5167 8.70523 30.4687 8.71083C29.8606 8.71083 29.2524 8.69867 28.6443 8.70069C28.4416 8.70069 28.2389 8.71995 28.0818 8.92469C28.1021 8.99969 28.1223 9.09091 28.1406 9.16997ZM24.659 8.9926C24.8424 9.01287 25.0066 9.04328 25.1658 9.04632C25.7881 9.05747 26.4125 9.02807 27.0236 9.19936C27.0686 9.21368 27.116 9.21898 27.163 9.21495C27.2101 9.21093 27.2558 9.19766 27.2977 9.17591C27.3396 9.15416 27.3768 9.12435 27.4072 9.0882C27.4376 9.05205 27.4605 9.01026 27.4747 8.96523C27.3733 8.74326 27.1757 8.70576 26.9679 8.69664C26.381 8.66826 25.7942 8.64191 25.2073 8.6338C24.9823 8.63076 24.7391 8.66015 24.659 8.9926ZM15.3849 4.46198C15.2949 4.80968 15.3158 5.1768 15.4447 5.51203C15.9738 5.60224 16.0336 5.56474 16.2221 5.01539C16.0893 4.36772 15.9363 4.25927 15.3849 4.46198ZM3.28907 8.88719C4.05026 9.14869 4.84894 8.88719 5.60506 9.10206L5.78041 8.85374C5.7277 8.8061 5.70642 8.76962 5.67905 8.76455C5.00569 8.63063 4.31825 8.58126 3.63267 8.61758C3.55231 8.61258 3.4729 8.63728 3.40956 8.68699C3.34621 8.73669 3.30333 8.80794 3.28907 8.88719ZM7.0656 23.9801C7.40413 24.1585 7.66563 24.0713 7.92105 23.8919C7.73861 23.4581 7.51562 23.3122 7.0656 23.3365V23.9801ZM9.47382 30.2064C9.93398 30.3372 9.93398 30.3372 10.2391 30.2135C10.0363 29.7219 9.83364 29.6145 9.35422 29.7787C9.39375 29.9155 9.43227 30.0564 9.47382 30.2064ZM27.9115 5.70866C27.7534 5.53332 27.9298 5.17857 27.5507 5.05796C27.348 5.29006 27.3682 5.54244 27.4118 5.8161C27.5862 5.87489 27.7372 5.91441 27.9115 5.70866ZM2.46403 3.69269C2.57249 3.53964 2.64039 3.44639 2.70526 3.35213C2.77013 3.25787 2.84209 3.14942 2.91912 3.02881C2.6779 2.88488 2.52485 2.92745 2.37079 3.12003C2.37079 3.23456 2.37079 3.36734 2.37079 3.50011C2.37585 3.54268 2.41133 3.58322 2.46403 3.69269Z" fill="#111113"/>
<path d="M15.8231 19.1951C15.6903 18.7177 15.6893 18.6802 15.8048 18.2484L16.1616 18.4156L16.787 17.4923C16.8279 17.5128 16.8641 17.5416 16.8934 17.5768C16.9227 17.6119 16.9444 17.6527 16.9572 17.6967C16.9701 17.7406 16.9737 17.7867 16.968 17.8321C16.9622 17.8775 16.9472 17.9212 16.9238 17.9605C16.7894 18.2685 16.6332 18.5666 16.4566 18.8525C16.3238 19.0623 16.1505 19.2599 15.8231 19.1951Z" fill="#111113"/>
<path d="M17.1696 15.7267C16.7642 16.0196 16.53 15.9943 16.1357 15.6254C16.1499 15.4814 16.1682 15.3071 16.1884 15.1105C16.6973 15.072 16.903 15.4085 17.1696 15.7267Z" fill="#111113"/>
<path d="M18.4361 6.48906L18.7057 6.73536C18.6247 6.86509 18.2294 6.89347 17.8047 6.79921C18.2192 6.0806 18.1686 5.30623 18.0865 4.51971L17.8321 4.29166C18.2507 4.14267 18.3388 4.14368 18.7655 4.30382C18.5071 4.48221 18.4615 4.73763 18.4615 5.01332C18.4584 5.50287 18.4453 5.98836 18.4361 6.48906Z" fill="#111113"/>
<path d="M8.10384 4.73771L7.78558 4.37891H7.35279C7.13791 4.67589 7.18251 4.97691 7.27272 5.26172C7.58895 5.4918 7.75821 5.27389 7.97309 5.02759C8.03027 5.27071 8.0358 5.52312 7.98931 5.7685C7.75011 5.66715 7.6001 5.34585 7.27981 5.57694C7.11562 5.94081 7.16731 6.32495 7.28589 6.70301C7.75213 6.84491 7.89403 6.80436 8.25384 6.41212C8.33797 6.61483 8.33797 6.61483 8.28729 6.87329H6.5166C6.90175 6.54084 6.94128 6.18508 6.85817 5.77965C6.81508 5.56387 6.81508 5.34169 6.85817 5.12591C6.92304 4.80663 6.88655 4.53196 6.59769 4.25627C7.10447 4.20559 7.57273 4.36574 7.95991 4.06775C8.16364 4.30188 8.15756 4.30188 8.10384 4.73771Z" fill="#111113"/>
<path d="M4.87986 5.82925C5.04304 5.40356 5.17886 5.04881 5.31569 4.69001L5.14541 4.25012C5.34813 4.13559 5.55692 4.17715 5.82957 4.20046C5.29339 4.86738 5.16873 5.65289 4.94169 6.39684C4.90621 6.51442 4.89101 6.67253 4.65282 6.68571C4.60823 6.56814 4.55147 6.43739 4.50991 6.30258C4.35889 5.80493 4.2251 5.30119 4.0609 4.80859C4.00009 4.62717 3.86934 4.47007 3.75684 4.27546C4.00921 4.20857 4.27679 4.25519 4.58593 4.27546C4.52005 4.43155 4.46937 4.54811 4.4116 4.68089C4.6214 5.00218 4.53525 5.43802 4.87986 5.82925Z" fill="#111113"/>
<path d="M29.8118 6.43028C29.9426 6.0806 29.749 5.8637 29.4895 5.67214C29.303 5.5353 29.1165 5.39645 28.9513 5.27381C28.9118 4.91805 28.8743 4.61803 29.1267 4.32714L29.901 4.18524C29.9355 4.36667 29.9649 4.52681 30.0105 4.76804L29.5341 4.48019L29.2635 4.59573C29.1561 4.83088 29.2422 4.98798 29.3912 5.11772C29.4926 5.2059 29.6071 5.27685 29.7166 5.3559C30.2112 5.71471 30.3044 6.15459 29.9953 6.72421C29.7004 6.88638 29.3872 6.75259 29.0507 6.78705V5.9762C29.1025 6.10717 29.161 6.23538 29.226 6.36034C29.3618 6.59042 29.5047 6.60258 29.8118 6.43028Z" fill="#111113"/>
</svg>
