<svg width="64" height="27" viewBox="0 0 64 27" fill="none" xmlns="http://www.w3.org/2000/svg">
<path fill-rule="evenodd" clip-rule="evenodd" d="M12.4234 0.0408943C11.8384 0.141715 11.2129 0.397781 10.6523 0.765932C9.6268 1.43932 8.83488 2.63408 8.58578 3.88367C8.52687 4.17922 8.49424 4.70403 8.52269 4.89888L8.54074 5.02238L8.88295 5.00788C10.4583 4.94116 11.9885 3.62437 12.5653 1.83896C12.7295 1.33084 12.7704 1.08398 12.7858 0.507964L12.7994 0L12.7148 0.00262341C12.6683 0.00406371 12.5371 0.0212702 12.4234 0.0408943ZM22.8246 1.53462C22.8154 1.54403 22.8079 6.05205 22.8079 11.5524V21.5531H24.3226H25.8374V18.1339V14.7146L28.2848 14.7047C30.8725 14.6941 30.8723 14.6941 31.5083 14.5683C33.529 14.1686 35.1583 12.8776 35.963 11.0383C36.77 9.1937 36.7376 6.78439 35.8817 4.98452C35.1456 3.43664 33.8612 2.33172 32.2129 1.82836C31.6871 1.66779 31.1851 1.5824 30.5421 1.54413C30.0593 1.5154 22.8519 1.5065 22.8246 1.53462ZM30.1688 4.20211C30.7346 4.28739 31.1295 4.40529 31.5584 4.61691C32.628 5.14471 33.2602 6.11822 33.4248 7.49098C33.4648 7.82398 33.443 8.73065 33.3877 9.03434C33.0696 10.7839 31.9817 11.7887 30.1188 12.0538C29.8445 12.0928 29.5612 12.0985 27.8278 12.0997L25.8499 12.1011L25.8436 8.11911L25.8372 4.13711L27.8591 4.14791C29.5873 4.15715 29.9227 4.16502 30.1688 4.20211ZM12.1796 5.26369C11.4713 5.35021 11.0794 5.46078 10.0514 5.86419C8.71895 6.38704 8.69054 6.38756 7.48507 5.91038C6.47576 5.51085 6.1154 5.40376 5.59535 5.34866C4.87513 5.27238 3.94773 5.46 3.19118 5.83502C1.40772 6.71906 0.274611 8.5155 0.0375077 10.8348C-0.0121162 11.3203 -0.0125668 12.2636 0.0365563 12.7978C0.223484 14.8307 0.978784 17.0451 2.07106 18.7625C3.08372 20.3547 3.88992 21.218 4.67441 21.5503C4.97801 21.679 5.16602 21.717 5.4946 21.7163C6.00001 21.7151 6.31931 21.6309 7.13454 21.284C7.95036 20.9368 8.32489 20.8495 8.99982 20.8495C9.68787 20.8495 9.99265 20.9234 10.9001 21.3098C11.4734 21.554 11.7598 21.6411 12.1267 21.6832C12.9099 21.7729 13.6329 21.5045 14.2952 20.8782C14.9388 20.2696 15.9329 18.8395 16.472 17.7466C16.7506 17.1819 17.1745 16.1181 17.1745 15.9838C17.1745 15.9602 17.1247 15.9207 17.0556 15.8893C16.672 15.7151 16.1101 15.3078 15.7427 14.9376C14.8293 14.0174 14.3703 12.8766 14.3703 11.5269C14.3703 11.0676 14.3988 10.8113 14.4961 10.3963C14.6787 9.61697 15.0745 8.88952 15.658 8.26075C15.908 7.99139 16.2358 7.70091 16.4788 7.5335C16.5654 7.47383 16.6402 7.42175 16.6451 7.41776C16.6657 7.40086 16.3438 6.98997 16.1356 6.76764C15.355 5.93356 14.3284 5.4358 13.0794 5.2857C12.7853 5.25036 12.3716 5.24023 12.1796 5.26369ZM43.063 6.85828C42.4269 6.92091 41.8823 7.03158 41.3915 7.19796C40.5051 7.49839 39.801 7.92943 39.2203 8.52708C38.5069 9.26124 38.1133 10.1238 38.0207 11.1559L38.0063 11.3167H39.3686H40.731L40.7711 11.1688C40.8786 10.7727 41.0481 10.4633 41.32 10.1672C41.75 9.69881 42.359 9.40458 43.0944 9.30988C43.4082 9.26947 44.1498 9.28995 44.4523 9.34738C45.3007 9.50841 45.9216 9.93322 46.2284 10.5626C46.4398 10.9965 46.4707 11.1824 46.4857 12.1147L46.4983 12.8999L44.6617 13.0102C42.6897 13.1286 42.1394 13.1703 41.7172 13.2336C38.8206 13.6683 37.3084 15.0918 37.3049 17.3872C37.3011 19.8892 39.1222 21.6172 41.85 21.7002C42.84 21.7302 43.6549 21.5575 44.4776 21.1432C45.38 20.6887 45.9806 20.1219 46.5028 19.2319C46.5257 19.193 46.5554 19.1612 46.5688 19.1612C46.5844 19.1612 46.5933 19.5958 46.5933 20.3571V21.5531H47.9954H49.3974V16.3847C49.3974 10.7686 49.4014 10.9405 49.2592 10.3784C48.7528 8.376 47.0233 7.10992 44.4651 6.86875C44.2037 6.84411 43.2773 6.83719 43.063 6.85828ZM50.5992 7.04969C50.5992 7.06519 51.7493 10.3484 53.1549 14.3457L55.7106 21.6135L55.4959 22.2841C55.2707 22.9876 55.1234 23.3295 54.9177 23.6255C54.5753 24.1184 54.1112 24.4147 53.508 24.5254C53.27 24.5691 52.6487 24.5809 52.2454 24.5495L52.0013 24.5305V25.7267C52.0013 26.7625 52.0063 26.925 52.0386 26.9377C52.1307 26.974 53.0048 27.011 53.441 26.997C54.4686 26.964 55.1779 26.8072 55.8445 26.4654C56.7598 25.9961 57.4253 25.2308 58.0477 23.9322C58.1901 23.6351 58.3794 23.2011 58.4684 22.9677C58.6378 22.5234 63.9687 7.18003 63.9886 7.07934L64 7.02147H62.4707H60.9414L60.8565 7.29796C60.8098 7.45004 60.0072 10.1124 59.073 13.2144C57.801 17.438 57.3656 18.8525 57.3391 18.847C57.3155 18.8421 56.7159 16.8881 55.5239 12.9306L53.7439 7.02147H52.1716C51.0476 7.02147 50.5992 7.02952 50.5992 7.04969ZM46.486 15.7855C46.4727 16.6412 46.4532 16.7941 46.3064 17.1936C45.9724 18.1031 45.1942 18.8197 44.2018 19.1316C42.7943 19.574 41.2482 19.2757 40.6222 18.441C40.3769 18.1139 40.2586 17.7499 40.2593 17.3245C40.2598 16.9876 40.309 16.755 40.4353 16.4919C40.7596 15.816 41.55 15.3853 42.7138 15.2505C42.9335 15.225 46.1045 15.0078 46.4019 14.9978L46.4984 14.9946L46.486 15.7855Z" fill="white"/>
</svg>
