<svg width="24" height="24" viewBox="0 0 24 24" fill="none" xmlns="http://www.w3.org/2000/svg">
<path d="M11.7491 15.2441C11.2598 15.2441 10.8496 15.6543 10.8496 16.1436C10.8496 16.6329 11.2598 17.0431 11.7491 17.0431C12.2204 17.0431 12.6486 16.6329 12.627 16.1652C12.6486 15.6507 12.242 15.2441 11.7491 15.2441Z" fill="#E44240"/>
<path d="M20.0767 18.4318C20.6416 17.4568 20.6452 16.2946 20.0839 15.3232L14.4496 5.56559C13.8919 4.58335 12.8844 4.00049 11.7547 4.00049C10.6249 4.00049 9.61752 4.58695 9.05984 5.56199L3.41828 15.3304C2.857 16.3126 2.8606 17.4819 3.42907 18.457C3.99035 19.4212 4.99417 20.0005 6.11673 20.0005H17.3711C18.4972 20.0005 19.5083 19.414 20.0767 18.4318ZM18.8534 17.7266C18.5404 18.2663 17.9863 18.5865 17.3675 18.5865H6.11313C5.50148 18.5865 4.951 18.2735 4.64517 17.7446C4.33575 17.2085 4.33215 16.5681 4.64158 16.0284L10.2831 6.26359C10.589 5.7275 11.1359 5.41088 11.7547 5.41088C12.3699 5.41088 12.9204 5.73109 13.2263 6.26718L18.8642 16.032C19.1664 16.5573 19.1628 17.1905 18.8534 17.7266Z" fill="#E44240"/>
<path d="M11.5303 8.92969C11.1022 9.05202 10.8359 9.4406 10.8359 9.91193C10.8575 10.1962 10.8755 10.484 10.8971 10.7682C10.9583 11.8512 11.0194 12.9126 11.0806 13.9956C11.1022 14.3626 11.3864 14.6288 11.7534 14.6288C12.1204 14.6288 12.4082 14.3446 12.4262 13.974C12.4262 13.7509 12.4262 13.5458 12.4478 13.3192C12.4874 12.6248 12.5306 11.9304 12.5701 11.236C12.5917 10.7862 12.6313 10.3365 12.6529 9.88674C12.6529 9.72483 12.6313 9.58092 12.5701 9.437C12.3866 9.03403 11.9585 8.82895 11.5303 8.92969Z" fill="#E44240"/>
</svg>
