<svg width="32" height="32" viewBox="0 0 32 32" fill="none" xmlns="http://www.w3.org/2000/svg">
<path d="M22.4609 10.4394C21.875 9.85355 20.9258 9.85355 20.3398 10.4394L16.4492 14.3286L12.5605 10.4394C11.9746 9.85361 11.0254 9.85361 10.4395 10.4394C9.85352 11.0252 9.85352 11.9749 10.4395 12.5607L14.3281 16.4498L10.4395 20.3388C9.85352 20.9247 9.85352 21.8744 10.4395 22.4602C11.0254 23.0459 11.9766 23.0459 12.5625 22.4602L16.4512 18.5715L20.3398 22.4602C20.9258 23.046 21.875 23.046 22.4609 22.4602C23.0469 21.8744 23.0469 20.9247 22.4609 20.3388L18.5723 16.4502L22.4609 12.5607C23.0469 11.9749 23.0469 11.0251 22.4609 10.4394Z" fill="#FFA4A4"/>
</svg>
