<svg width="11" height="8" viewBox="0 0 11 8" fill="none" xmlns="http://www.w3.org/2000/svg">
<path d="M8.86407 0.52011C9.02386 0.564426 9.09904 0.619608 9.49349 0.981916C9.76854 1.23458 9.96896 1.44652 10.0127 1.53103C10.1101 1.71888 10.1114 1.9901 10.0157 2.17385C9.96383 2.2736 9.17782 3.02697 7.20389 4.86896C4.54087 7.35393 4.45896 7.42701 4.28096 7.47532C4.05263 7.53731 3.99849 7.53728 3.77071 7.47491C3.59581 7.42704 3.52593 7.36735 2.21284 6.14418C1.25733 5.25408 0.816389 4.82172 0.766969 4.72638C0.684073 4.5665 0.671734 4.32407 0.7371 4.13912C0.790904 3.98683 1.58979 3.21107 1.80089 3.10609C1.99359 3.01031 2.32112 3.01336 2.52568 3.11283C2.61674 3.15711 2.95071 3.43967 3.36088 3.81946L4.04437 4.45229L6.10835 2.52731C7.24354 1.46854 8.21024 0.584174 8.25659 0.562032C8.4593 0.465242 8.62512 0.453809 8.86407 0.52011Z" fill="#F1F3F9"/>
</svg>
