<svg width="11" height="8" viewBox="0 0 11 8" fill="none" xmlns="http://www.w3.org/2000/svg">
<path fill-rule="evenodd" clip-rule="evenodd" d="M9.49349 0.98216C9.09904 0.619852 9.02386 0.56467 8.86407 0.520354C8.62512 0.454054 8.4593 0.465486 8.25659 0.562276C8.21024 0.584418 7.24354 1.46879 6.10835 2.52755L4.04438 4.45254L3.36088 3.8197C2.95071 3.43992 2.61674 3.15736 2.52568 3.11307C2.32112 3.01361 1.99359 3.01055 1.80089 3.10633C1.58979 3.21131 0.790904 3.98708 0.737101 4.13937C0.671735 4.32431 0.684073 4.56674 0.766969 4.72662C0.816389 4.82196 1.25733 5.25432 2.21284 6.14442C3.52593 7.3676 3.59581 7.42728 3.77071 7.47516C3.99849 7.53752 4.05263 7.53755 4.28096 7.47557C4.45896 7.42725 4.54087 7.35418 7.20389 4.86921C9.17782 3.02721 9.96383 2.27384 10.0157 2.17409C10.1114 1.99034 10.1101 1.71912 10.0127 1.53127C9.96896 1.44677 9.76854 1.23483 9.49349 0.98216Z" fill="#5773D6"/>
</svg>
