<svg width="23" height="24" viewBox="0 0 23 24" fill="none" xmlns="http://www.w3.org/2000/svg">
<path fill-rule="evenodd" clip-rule="evenodd" d="M11.5 23.8135C17.8513 23.8135 23 18.6648 23 12.3135C23 5.9622 17.8513 0.813477 11.5 0.813477C5.14873 0.813477 0 5.9622 0 12.3135C0 18.6648 5.14873 23.8135 11.5 23.8135ZM17.2421 8.45702C16.7381 7.99407 16.642 7.92356 16.4379 7.86694C16.1325 7.78222 15.9207 7.79683 15.6616 7.9205C15.6024 7.9488 14.3672 9.07882 12.9167 10.4317L10.2794 12.8914L9.406 12.0828C8.8819 11.5975 8.45515 11.2364 8.33881 11.1799C8.07743 11.0528 7.6589 11.0489 7.41268 11.1712C7.14295 11.3054 6.12214 12.2966 6.0534 12.4912C5.96987 12.7276 5.98564 13.0373 6.09156 13.2416C6.15471 13.3634 6.71814 13.9159 7.93907 15.0532C9.6169 16.6162 9.7062 16.6925 9.92967 16.7536C10.2207 16.8333 10.2899 16.8334 10.5817 16.7542C10.8091 16.6924 10.9138 16.599 14.3165 13.4238C16.8388 11.0701 17.8431 10.1075 17.9094 9.98005C18.0316 9.74525 18.03 9.39869 17.9056 9.15867C17.8497 9.05069 17.5936 8.77987 17.2421 8.45702Z" fill="white"/>
</svg>
