<svg width="311" height="79" viewBox="0 0 311 79" fill="none" xmlns="http://www.w3.org/2000/svg">
<rect x="1" y="3" width="309" height="75" rx="8" fill="#F9F9F9" stroke="#E44240" stroke-width="2"/>
<path d="M103.462 24.8896C104.182 24.8896 104.827 25.0104 105.396 25.252C105.971 25.4889 106.461 25.833 106.866 26.2842C107.276 26.7354 107.589 27.2799 107.803 27.918C108.017 28.5514 108.124 29.2669 108.124 30.0645C108.124 30.8574 108.017 31.5729 107.803 32.2109C107.589 32.849 107.279 33.3958 106.873 33.8516C106.467 34.3027 105.978 34.6491 105.403 34.8906C104.829 35.1276 104.182 35.2461 103.462 35.2461C102.737 35.2461 102.088 35.1276 101.514 34.8906C100.939 34.6491 100.45 34.3027 100.044 33.8516C99.6383 33.4004 99.3285 32.8558 99.1143 32.2178C98.9001 31.5798 98.793 30.862 98.793 30.0645C98.793 29.2669 98.9001 28.5514 99.1143 27.918C99.333 27.2799 99.6452 26.7354 100.051 26.2842C100.461 25.833 100.953 25.4889 101.527 25.252C102.102 25.0104 102.746 24.8896 103.462 24.8896ZM103.462 26.4551C102.879 26.4551 102.373 26.6032 101.944 26.8994C101.516 27.1911 101.183 27.6081 100.946 28.1504C100.714 28.6882 100.598 29.3262 100.598 30.0645C100.598 30.7982 100.712 31.4362 100.939 31.9785C101.172 32.5208 101.502 32.9401 101.931 33.2363C102.359 33.5326 102.869 33.6807 103.462 33.6807C104.045 33.6807 104.551 33.5326 104.979 33.2363C105.412 32.9401 105.745 32.5208 105.978 31.9785C106.21 31.4362 106.326 30.7982 106.326 30.0645C106.326 29.3262 106.208 28.6882 105.971 28.1504C105.738 27.6081 105.408 27.1911 104.979 26.8994C104.551 26.6032 104.045 26.4551 103.462 26.4551ZM109.97 35V27.5215H111.604V28.7178H111.72C111.897 28.3031 112.173 27.9749 112.547 27.7334C112.921 27.4919 113.385 27.3711 113.941 27.3711C114.775 27.3711 115.413 27.6126 115.855 28.0957C116.298 28.5788 116.519 29.2669 116.519 30.1602V35H114.823V30.5635C114.823 29.9938 114.7 29.5654 114.454 29.2783C114.208 28.9912 113.827 28.8477 113.312 28.8477C112.975 28.8477 112.684 28.9206 112.438 29.0664C112.191 29.2122 112 29.4196 111.863 29.6885C111.731 29.9574 111.665 30.2764 111.665 30.6455V35H109.97ZM121.666 28.7178C121.329 28.7178 121.028 28.793 120.764 28.9434C120.504 29.0938 120.297 29.3057 120.142 29.5791C119.987 29.8525 119.896 30.1715 119.868 30.5361H123.389C123.375 30.167 123.295 29.8457 123.149 29.5723C123.008 29.2988 122.81 29.0892 122.555 28.9434C122.304 28.793 122.008 28.7178 121.666 28.7178ZM123.402 32.9424H125.009C124.909 33.3936 124.708 33.7855 124.407 34.1182C124.106 34.4463 123.724 34.7015 123.259 34.8838C122.799 35.0615 122.274 35.1504 121.687 35.1504C120.953 35.1504 120.322 34.9954 119.793 34.6855C119.269 34.3757 118.866 33.9336 118.583 33.3594C118.3 32.7806 118.159 32.0902 118.159 31.2881C118.159 30.486 118.3 29.7933 118.583 29.21C118.87 28.6221 119.276 28.1686 119.8 27.8496C120.328 27.5306 120.953 27.3711 121.673 27.3711C122.384 27.3711 122.992 27.5215 123.498 27.8223C124.008 28.123 124.4 28.556 124.674 29.1211C124.947 29.6862 125.084 30.3607 125.084 31.1445V31.6914H119.861V31.7803C119.875 32.195 119.959 32.555 120.114 32.8604C120.274 33.1611 120.49 33.3936 120.764 33.5576C121.042 33.7217 121.365 33.8037 121.734 33.8037C122.154 33.8037 122.505 33.7308 122.787 33.585C123.074 33.4346 123.279 33.2204 123.402 32.9424ZM131.353 31.8213H126.861V30.2285H131.353V31.8213ZM133.861 25.6895H135.55V27.5693H137.149V28.9229H135.55V32.5938C135.55 32.9629 135.632 33.234 135.796 33.4072C135.96 33.5758 136.22 33.6602 136.575 33.6602C136.694 33.6602 136.794 33.6579 136.876 33.6533C136.958 33.6442 137.049 33.6351 137.149 33.626V34.9521C137.026 34.9749 136.887 34.9932 136.732 35.0068C136.582 35.0251 136.425 35.0342 136.261 35.0342C135.687 35.0342 135.224 34.9658 134.873 34.8291C134.522 34.6924 134.265 34.4759 134.101 34.1797C133.941 33.8789 133.861 33.487 133.861 33.0039V28.9229H132.679V27.5693H133.861V25.6895ZM138.865 35V27.5215H140.554V35H138.865ZM139.706 26.2842C139.524 26.2842 139.355 26.2386 139.2 26.1475C139.045 26.0563 138.922 25.9355 138.831 25.7852C138.74 25.6302 138.694 25.457 138.694 25.2656C138.694 25.0742 138.74 24.901 138.831 24.7461C138.922 24.5911 139.045 24.4681 139.2 24.377C139.355 24.2858 139.524 24.2402 139.706 24.2402C139.893 24.2402 140.062 24.2858 140.212 24.377C140.367 24.4681 140.49 24.5911 140.581 24.7461C140.672 24.901 140.718 25.0742 140.718 25.2656C140.718 25.457 140.672 25.6302 140.581 25.7852C140.49 25.9355 140.367 26.0563 140.212 26.1475C140.062 26.2386 139.893 26.2842 139.706 26.2842ZM142.659 35V27.5215H144.293V28.7314H144.409C144.569 28.3031 144.831 27.9704 145.195 27.7334C145.56 27.4919 145.991 27.3711 146.487 27.3711C147.002 27.3711 147.435 27.4941 147.786 27.7402C148.142 27.9818 148.397 28.3122 148.552 28.7314H148.668C148.791 28.458 148.964 28.221 149.188 28.0205C149.411 27.8154 149.671 27.6559 149.967 27.542C150.268 27.4281 150.591 27.3711 150.938 27.3711C151.434 27.3711 151.863 27.4714 152.223 27.6719C152.583 27.8678 152.858 28.1527 153.05 28.5264C153.241 28.8955 153.337 29.3398 153.337 29.8594V35H151.648V30.29C151.648 29.3285 151.193 28.8477 150.281 28.8477C149.985 28.8477 149.728 28.9137 149.509 29.0459C149.29 29.1735 149.119 29.3512 148.996 29.5791C148.878 29.8024 148.818 30.0576 148.818 30.3447V35H147.171V30.167C147.171 29.7568 147.05 29.4355 146.809 29.2031C146.567 28.9661 146.237 28.8477 145.817 28.8477C145.535 28.8477 145.284 28.9183 145.065 29.0596C144.847 29.2008 144.674 29.3923 144.546 29.6338C144.418 29.8753 144.354 30.1488 144.354 30.4541V35H142.659ZM158.484 28.7178C158.147 28.7178 157.846 28.793 157.582 28.9434C157.322 29.0938 157.115 29.3057 156.96 29.5791C156.805 29.8525 156.714 30.1715 156.687 30.5361H160.207C160.193 30.167 160.114 29.8457 159.968 29.5723C159.826 29.2988 159.628 29.0892 159.373 28.9434C159.122 28.793 158.826 28.7178 158.484 28.7178ZM160.221 32.9424H161.827C161.727 33.3936 161.526 33.7855 161.226 34.1182C160.925 34.4463 160.542 34.7015 160.077 34.8838C159.617 35.0615 159.093 35.1504 158.505 35.1504C157.771 35.1504 157.14 34.9954 156.611 34.6855C156.087 34.3757 155.684 33.9336 155.401 33.3594C155.119 32.7806 154.978 32.0902 154.978 31.2881C154.978 30.486 155.119 29.7933 155.401 29.21C155.688 28.6221 156.094 28.1686 156.618 27.8496C157.147 27.5306 157.771 27.3711 158.491 27.3711C159.202 27.3711 159.811 27.5215 160.316 27.8223C160.827 28.123 161.219 28.556 161.492 29.1211C161.766 29.6862 161.902 30.3607 161.902 31.1445V31.6914H156.68V31.7803C156.693 32.195 156.778 32.555 156.933 32.8604C157.092 33.1611 157.309 33.3936 157.582 33.5576C157.86 33.7217 158.184 33.8037 158.553 33.8037C158.972 33.8037 159.323 33.7308 159.605 33.585C159.893 33.4346 160.098 33.2204 160.221 32.9424ZM171.411 27.3984C172.04 27.3984 172.585 27.5534 173.045 27.8633C173.51 28.1732 173.868 28.6175 174.118 29.1963C174.369 29.7751 174.494 30.4632 174.494 31.2607C174.494 32.0583 174.369 32.7464 174.118 33.3252C173.872 33.8994 173.519 34.3438 173.059 34.6582C172.603 34.9681 172.061 35.123 171.432 35.123C170.894 35.123 170.427 35.0137 170.03 34.7949C169.634 34.5716 169.34 34.2617 169.148 33.8652H169.032V37.4883H167.337V27.5215H168.971V28.7588H169.087C169.301 28.335 169.613 28.0023 170.023 27.7607C170.438 27.5192 170.901 27.3984 171.411 27.3984ZM170.878 33.6807C171.27 33.6807 171.605 33.585 171.883 33.3936C172.165 33.1976 172.38 32.9196 172.525 32.5596C172.676 32.1995 172.751 31.7666 172.751 31.2607C172.751 30.7549 172.676 30.3219 172.525 29.9619C172.375 29.6019 172.161 29.3262 171.883 29.1348C171.605 28.9388 171.272 28.8408 170.885 28.8408C170.497 28.8408 170.162 28.9388 169.88 29.1348C169.602 29.3307 169.385 29.611 169.23 29.9756C169.08 30.3356 169.003 30.764 168.998 31.2607C169.003 31.7575 169.08 32.1882 169.23 32.5527C169.381 32.9128 169.597 33.1908 169.88 33.3867C170.162 33.5827 170.495 33.6807 170.878 33.6807ZM176.196 35V27.5215H177.83V28.6836H177.946C178.015 28.4375 178.142 28.2188 178.329 28.0273C178.521 27.8314 178.753 27.6787 179.026 27.5693C179.3 27.4554 179.598 27.3984 179.922 27.3984C180.045 27.3984 180.173 27.4053 180.305 27.4189C180.441 27.4326 180.549 27.4508 180.626 27.4736V29.0459C180.58 29.0322 180.507 29.0186 180.407 29.0049C180.307 28.9867 180.198 28.973 180.079 28.9639C179.961 28.9548 179.854 28.9502 179.758 28.9502C179.389 28.9502 179.063 29.0231 178.78 29.1689C178.502 29.3102 178.284 29.5107 178.124 29.7705C177.969 30.0303 177.892 30.3333 177.892 30.6797V35H176.196ZM182.041 35V27.5215H183.729V35H182.041ZM182.882 26.2842C182.7 26.2842 182.531 26.2386 182.376 26.1475C182.221 26.0563 182.098 25.9355 182.007 25.7852C181.916 25.6302 181.87 25.457 181.87 25.2656C181.87 25.0742 181.916 24.901 182.007 24.7461C182.098 24.5911 182.221 24.4681 182.376 24.377C182.531 24.2858 182.7 24.2402 182.882 24.2402C183.069 24.2402 183.237 24.2858 183.388 24.377C183.543 24.4681 183.666 24.5911 183.757 24.7461C183.848 24.901 183.894 25.0742 183.894 25.2656C183.894 25.457 183.848 25.6302 183.757 25.7852C183.666 25.9355 183.543 26.0563 183.388 26.1475C183.237 26.2386 183.069 26.2842 182.882 26.2842ZM192.295 30.0371H190.682C190.604 29.6725 190.426 29.374 190.148 29.1416C189.87 28.9092 189.499 28.793 189.034 28.793C188.451 28.793 187.995 29.0072 187.667 29.4355C187.343 29.8639 187.182 30.4655 187.182 31.2402C187.182 32.0241 187.346 32.6348 187.674 33.0723C188.002 33.5098 188.455 33.7285 189.034 33.7285C189.476 33.7285 189.839 33.626 190.121 33.4209C190.408 33.2158 190.595 32.9196 190.682 32.5322H192.295C192.236 33.0518 192.067 33.5098 191.789 33.9062C191.516 34.2982 191.146 34.6035 190.682 34.8223C190.221 35.041 189.674 35.1504 189.041 35.1504C188.289 35.1504 187.646 34.9954 187.113 34.6855C186.58 34.3757 186.172 33.929 185.89 33.3457C185.607 32.7624 185.466 32.0605 185.466 31.2402C185.466 30.429 185.607 29.7363 185.89 29.1621C186.172 28.5833 186.58 28.1413 187.113 27.8359C187.646 27.526 188.287 27.3711 189.034 27.3711C189.672 27.3711 190.224 27.485 190.688 27.7129C191.158 27.9362 191.527 28.2484 191.796 28.6494C192.069 29.0505 192.236 29.513 192.295 30.0371ZM197.053 28.7178C196.715 28.7178 196.415 28.793 196.15 28.9434C195.891 29.0938 195.683 29.3057 195.528 29.5791C195.373 29.8525 195.282 30.1715 195.255 30.5361H198.775C198.762 30.167 198.682 29.8457 198.536 29.5723C198.395 29.2988 198.197 29.0892 197.941 28.9434C197.691 28.793 197.395 28.7178 197.053 28.7178ZM198.789 32.9424H200.396C200.295 33.3936 200.095 33.7855 199.794 34.1182C199.493 34.4463 199.11 34.7015 198.646 34.8838C198.185 35.0615 197.661 35.1504 197.073 35.1504C196.34 35.1504 195.708 34.9954 195.18 34.6855C194.656 34.3757 194.252 33.9336 193.97 33.3594C193.687 32.7806 193.546 32.0902 193.546 31.2881C193.546 30.486 193.687 29.7933 193.97 29.21C194.257 28.6221 194.662 28.1686 195.187 27.8496C195.715 27.5306 196.34 27.3711 197.06 27.3711C197.771 27.3711 198.379 27.5215 198.885 27.8223C199.395 28.123 199.787 28.556 200.061 29.1211C200.334 29.6862 200.471 30.3607 200.471 31.1445V31.6914H195.248V31.7803C195.262 32.195 195.346 32.555 195.501 32.8604C195.66 33.1611 195.877 33.3936 196.15 33.5576C196.428 33.7217 196.752 33.8037 197.121 33.8037C197.54 33.8037 197.891 33.7308 198.174 33.585C198.461 33.4346 198.666 33.2204 198.789 32.9424ZM209.132 35.1504C208.384 35.1504 207.742 34.9954 207.204 34.6855C206.666 34.3711 206.254 33.9245 205.967 33.3457C205.68 32.7624 205.536 32.0674 205.536 31.2607C205.536 30.4541 205.682 29.7614 205.974 29.1826C206.265 28.5993 206.678 28.1527 207.211 27.8428C207.749 27.5283 208.389 27.3711 209.132 27.3711C209.875 27.3711 210.515 27.5283 211.053 27.8428C211.59 28.1527 212.003 28.5993 212.29 29.1826C212.582 29.7614 212.728 30.4541 212.728 31.2607C212.728 32.0674 212.582 32.7624 212.29 33.3457C212.003 33.9245 211.59 34.3711 211.053 34.6855C210.52 34.9954 209.879 35.1504 209.132 35.1504ZM209.132 33.7285C209.724 33.7285 210.18 33.5143 210.499 33.0859C210.823 32.653 210.984 32.0446 210.984 31.2607C210.984 30.4814 210.823 29.8753 210.499 29.4424C210.175 29.0094 209.72 28.793 209.132 28.793C208.539 28.793 208.081 29.0094 207.758 29.4424C207.434 29.8753 207.272 30.4814 207.272 31.2607C207.272 32.0446 207.434 32.653 207.758 33.0859C208.081 33.5143 208.539 33.7285 209.132 33.7285ZM214.983 35V28.9229H213.76V27.5693H214.983V26.7832C214.983 26.0358 215.179 25.4775 215.571 25.1084C215.963 24.7393 216.574 24.5547 217.403 24.5547C217.586 24.5547 217.754 24.5615 217.909 24.5752C218.064 24.5889 218.21 24.6071 218.347 24.6299V25.874C218.278 25.8649 218.194 25.8581 218.094 25.8535C217.993 25.8444 217.884 25.8398 217.766 25.8398C217.365 25.8398 217.077 25.9287 216.904 26.1064C216.736 26.2796 216.651 26.5417 216.651 26.8926V27.5693H218.278V28.9229H216.672V35H214.983ZM227.773 30.9189V33.4688C228.307 33.4232 228.696 33.2865 228.942 33.0586C229.193 32.8307 229.318 32.5482 229.318 32.2109C229.318 31.9922 229.271 31.8053 229.175 31.6504C229.084 31.4909 228.924 31.3542 228.696 31.2402C228.473 31.1217 228.165 31.0146 227.773 30.9189ZM226.974 29.1211V26.6738C226.513 26.7331 226.162 26.8743 225.921 27.0977C225.684 27.321 225.565 27.5785 225.565 27.8701C225.565 28.1663 225.675 28.417 225.894 28.6221C226.112 28.8226 226.472 28.9889 226.974 29.1211ZM227.773 29.3057L228.156 29.3945C228.767 29.5312 229.28 29.7113 229.694 29.9346C230.114 30.1579 230.43 30.4404 230.645 30.7822C230.859 31.124 230.966 31.5433 230.966 32.04C230.966 32.4639 230.886 32.8421 230.727 33.1748C230.567 33.5075 230.341 33.7946 230.05 34.0361C229.763 34.2731 229.425 34.4622 229.038 34.6035C228.651 34.7402 228.229 34.8245 227.773 34.8564V35.9775H226.974V34.8564C226.522 34.8245 226.103 34.7402 225.716 34.6035C225.328 34.4668 224.989 34.2799 224.697 34.043C224.406 33.806 224.175 33.5234 224.007 33.1953C223.843 32.8672 223.754 32.4935 223.74 32.0742H225.333C225.392 32.4479 225.552 32.7601 225.812 33.0107C226.076 33.2568 226.463 33.4072 226.974 33.4619V30.7344L226.625 30.6523C225.75 30.4518 225.078 30.1419 224.608 29.7227C224.144 29.3034 223.911 28.736 223.911 28.0205C223.911 27.4919 224.041 27.0316 224.301 26.6396C224.565 26.2432 224.927 25.9287 225.388 25.6963C225.853 25.4639 226.381 25.3249 226.974 25.2793V24.1445H227.773V25.2793C228.37 25.3249 228.895 25.4684 229.346 25.71C229.801 25.9469 230.159 26.266 230.419 26.667C230.683 27.0635 230.827 27.5238 230.85 28.0479H229.257C229.211 27.6468 229.054 27.3324 228.785 27.1045C228.521 26.8766 228.184 26.7354 227.773 26.6807V29.3057ZM237.679 35V33.1201H232.859V31.6504C233.497 30.5384 234.158 29.4287 234.842 28.3213C235.53 27.2139 236.209 26.152 236.879 25.1357H239.367V31.6299H240.7V33.1201H239.367V35H237.679ZM234.493 31.5752V31.6709H237.706V26.5713H237.61C237.273 27.0817 236.924 27.6172 236.564 28.1777C236.209 28.7383 235.854 29.3079 235.498 29.8867C235.147 30.4609 234.812 31.0238 234.493 31.5752ZM246.203 35.2461C245.638 35.2461 245.121 35.1755 244.651 35.0342C244.187 34.8975 243.783 34.7015 243.441 34.4463C243.104 34.1911 242.842 33.888 242.655 33.5371C242.473 33.1816 242.382 32.7897 242.382 32.3613C242.382 31.9421 242.468 31.5592 242.642 31.2129C242.819 30.8665 243.068 30.5749 243.387 30.3379C243.71 30.1009 244.086 29.9368 244.515 29.8457V29.7295C244.164 29.6429 243.858 29.4971 243.599 29.292C243.339 29.0824 243.136 28.8294 242.99 28.5332C242.849 28.237 242.778 27.9134 242.778 27.5625C242.778 27.1706 242.863 26.8128 243.031 26.4893C243.2 26.1611 243.437 25.8786 243.742 25.6416C244.048 25.4046 244.41 25.2201 244.829 25.0879C245.248 24.9557 245.709 24.8896 246.21 24.8896C246.711 24.8896 247.169 24.9557 247.584 25.0879C248.003 25.2201 248.366 25.4046 248.671 25.6416C248.976 25.8786 249.213 26.1611 249.382 26.4893C249.55 26.8128 249.635 27.1706 249.635 27.5625C249.635 27.918 249.564 28.2438 249.423 28.54C249.282 28.8317 249.081 29.0824 248.821 29.292C248.566 29.4971 248.261 29.6429 247.905 29.7295V29.8457C248.334 29.9277 248.707 30.0872 249.026 30.3242C249.345 30.5566 249.594 30.8483 249.771 31.1992C249.949 31.5456 250.038 31.9307 250.038 32.3545C250.038 32.7829 249.945 33.1748 249.758 33.5303C249.576 33.8812 249.313 34.1865 248.972 34.4463C248.634 34.7015 248.231 34.8975 247.762 35.0342C247.292 35.1755 246.773 35.2461 246.203 35.2461ZM246.21 33.8721C246.606 33.8721 246.955 33.8037 247.256 33.667C247.557 33.5257 247.791 33.3298 247.96 33.0791C248.129 32.8285 248.213 32.5391 248.213 32.2109C248.213 31.8828 248.129 31.5934 247.96 31.3428C247.791 31.0921 247.554 30.8984 247.249 30.7617C246.948 30.6204 246.602 30.5498 246.21 30.5498C245.813 30.5498 245.463 30.6204 245.157 30.7617C244.856 30.8984 244.622 31.0921 244.453 31.3428C244.285 31.5934 244.2 31.8828 244.2 32.2109C244.2 32.5391 244.285 32.8285 244.453 33.0791C244.622 33.3298 244.856 33.5257 245.157 33.667C245.463 33.8037 245.813 33.8721 246.21 33.8721ZM246.21 29.1963C246.543 29.1963 246.834 29.1348 247.085 29.0117C247.34 28.8887 247.538 28.7178 247.68 28.499C247.826 28.2757 247.898 28.0205 247.898 27.7334C247.898 27.4372 247.828 27.1774 247.687 26.9541C247.545 26.7308 247.347 26.5576 247.092 26.4346C246.841 26.307 246.547 26.2432 246.21 26.2432C245.873 26.2432 245.576 26.307 245.321 26.4346C245.066 26.5576 244.868 26.7308 244.727 26.9541C244.585 27.1774 244.515 27.4372 244.515 27.7334C244.515 28.0205 244.585 28.2757 244.727 28.499C244.872 28.7178 245.071 28.8887 245.321 29.0117C245.576 29.1348 245.873 29.1963 246.21 29.1963Z" fill="#111113"/>
<path opacity="0.75" d="M103.394 45.9033C104.095 45.9033 104.724 46.0241 105.28 46.2656C105.841 46.5026 106.317 46.8467 106.709 47.2979C107.101 47.749 107.399 48.2913 107.604 48.9248C107.814 49.5583 107.919 50.2715 107.919 51.0645C107.919 51.8529 107.814 52.5661 107.604 53.2041C107.399 53.8376 107.101 54.3799 106.709 54.8311C106.322 55.2822 105.848 55.6286 105.287 55.8701C104.727 56.1117 104.095 56.2324 103.394 56.2324C102.687 56.2324 102.054 56.1117 101.493 55.8701C100.933 55.6286 100.456 55.2822 100.064 54.8311C99.6771 54.3799 99.3809 53.8376 99.1758 53.2041C98.9707 52.5661 98.8682 51.8529 98.8682 51.0645C98.8682 50.2715 98.973 49.5583 99.1826 48.9248C99.3923 48.2868 99.693 47.7445 100.085 47.2979C100.477 46.8467 100.951 46.5026 101.507 46.2656C102.067 46.0241 102.696 45.9033 103.394 45.9033ZM103.394 47.0381C102.724 47.0381 102.145 47.2021 101.657 47.5303C101.17 47.8584 100.794 48.3255 100.529 48.9316C100.265 49.5332 100.133 50.2441 100.133 51.0645C100.133 51.8802 100.26 52.5911 100.516 53.1973C100.775 53.7988 101.149 54.266 101.637 54.5986C102.124 54.9313 102.71 55.0977 103.394 55.0977C104.068 55.0977 104.649 54.9313 105.137 54.5986C105.624 54.266 105.998 53.7988 106.258 53.1973C106.522 52.5911 106.654 51.8802 106.654 51.0645C106.654 50.2441 106.522 49.5332 106.258 48.9316C105.993 48.3255 105.618 47.8584 105.13 47.5303C104.647 47.2021 104.068 47.0381 103.394 47.0381ZM109.901 56V48.6309H111.022V49.7246H111.132C111.205 49.4876 111.339 49.278 111.535 49.0957C111.736 48.9089 111.977 48.763 112.26 48.6582C112.547 48.5534 112.852 48.501 113.176 48.501C113.271 48.501 113.374 48.5055 113.483 48.5146C113.593 48.5192 113.686 48.526 113.764 48.5352V49.7109C113.732 49.7018 113.67 49.6927 113.579 49.6836C113.488 49.6699 113.39 49.6608 113.285 49.6562C113.18 49.6471 113.089 49.6426 113.012 49.6426C112.638 49.6426 112.305 49.7201 112.014 49.875C111.722 50.0299 111.492 50.2419 111.323 50.5107C111.159 50.7796 111.077 51.0872 111.077 51.4336V56H109.901ZM115.261 56V48.6309H116.437V56H115.261ZM115.849 47.209C115.698 47.209 115.559 47.1725 115.432 47.0996C115.309 47.0267 115.211 46.9287 115.138 46.8057C115.065 46.6781 115.028 46.5391 115.028 46.3887C115.028 46.2383 115.065 46.1016 115.138 45.9785C115.211 45.8509 115.309 45.7507 115.432 45.6777C115.559 45.6048 115.698 45.5684 115.849 45.5684C115.999 45.5684 116.136 45.6048 116.259 45.6777C116.386 45.7507 116.487 45.8509 116.56 45.9785C116.632 46.1016 116.669 46.2383 116.669 46.3887C116.669 46.5391 116.632 46.6781 116.56 46.8057C116.487 46.9287 116.386 47.0267 116.259 47.0996C116.136 47.1725 115.999 47.209 115.849 47.209ZM121.659 54.8516C122.115 54.8516 122.505 54.7422 122.828 54.5234C123.156 54.3047 123.407 53.9971 123.58 53.6006C123.758 53.2041 123.847 52.7393 123.847 52.2061C123.847 51.6729 123.758 51.208 123.58 50.8115C123.407 50.415 123.156 50.1074 122.828 49.8887C122.505 49.6699 122.115 49.5605 121.659 49.5605C121.203 49.5605 120.816 49.6699 120.497 49.8887C120.183 50.1074 119.941 50.415 119.772 50.8115C119.608 51.208 119.526 51.6729 119.526 52.2061C119.526 52.7393 119.608 53.2041 119.772 53.6006C119.941 53.9971 120.183 54.3047 120.497 54.5234C120.816 54.7422 121.203 54.8516 121.659 54.8516ZM121.714 58.8301C121.121 58.8301 120.604 58.7458 120.162 58.5771C119.72 58.4131 119.367 58.1784 119.103 57.873C118.843 57.5723 118.683 57.2191 118.624 56.8135H119.868C119.932 57.1143 120.123 57.3535 120.442 57.5312C120.761 57.7135 121.185 57.8047 121.714 57.8047C122.375 57.8047 122.89 57.6497 123.259 57.3398C123.632 57.0345 123.819 56.6107 123.819 56.0684V54.6191H123.71C123.478 55.0247 123.161 55.3392 122.76 55.5625C122.359 55.7812 121.905 55.8906 121.399 55.8906C120.761 55.8906 120.212 55.738 119.752 55.4326C119.292 55.1227 118.936 54.6921 118.686 54.1406C118.435 53.5846 118.31 52.9398 118.31 52.2061C118.31 51.6546 118.38 51.1533 118.521 50.7021C118.667 50.2464 118.875 49.8545 119.144 49.5264C119.412 49.1982 119.736 48.9453 120.114 48.7676C120.497 48.5898 120.925 48.501 121.399 48.501C121.746 48.501 122.072 48.5557 122.377 48.665C122.682 48.7699 122.953 48.9202 123.19 49.1162C123.432 49.3076 123.623 49.5355 123.765 49.7998H123.874V48.6309H124.995V56.1299C124.995 56.6813 124.861 57.1576 124.592 57.5586C124.323 57.9642 123.942 58.2764 123.45 58.4951C122.963 58.7184 122.384 58.8301 121.714 58.8301ZM127.237 56V48.6309H128.413V56H127.237ZM127.825 47.209C127.675 47.209 127.536 47.1725 127.408 47.0996C127.285 47.0267 127.187 46.9287 127.114 46.8057C127.041 46.6781 127.005 46.5391 127.005 46.3887C127.005 46.2383 127.041 46.1016 127.114 45.9785C127.187 45.8509 127.285 45.7507 127.408 45.6777C127.536 45.6048 127.675 45.5684 127.825 45.5684C127.976 45.5684 128.112 45.6048 128.235 45.6777C128.363 45.7507 128.463 45.8509 128.536 45.9785C128.609 46.1016 128.646 46.2383 128.646 46.3887C128.646 46.5391 128.609 46.6781 128.536 46.8057C128.463 46.9287 128.363 47.0267 128.235 47.0996C128.112 47.1725 127.976 47.209 127.825 47.209ZM130.655 56V48.6309H131.776V49.793H131.886C132.068 49.3874 132.341 49.0706 132.706 48.8428C133.071 48.6149 133.535 48.501 134.101 48.501C134.93 48.501 135.566 48.738 136.008 49.2119C136.454 49.6813 136.678 50.3535 136.678 51.2285V56H135.502V51.5156C135.502 50.8503 135.358 50.3581 135.071 50.0391C134.789 49.7201 134.354 49.5605 133.766 49.5605C133.374 49.5605 133.032 49.6449 132.74 49.8135C132.453 49.9775 132.23 50.2168 132.07 50.5312C131.911 50.8411 131.831 51.2103 131.831 51.6387V56H130.655ZM141.101 55.0977C141.502 55.0977 141.862 55.0179 142.181 54.8584C142.5 54.6943 142.75 54.4733 142.933 54.1953C143.115 53.9173 143.206 53.6029 143.206 53.252V52.5752L141.224 52.7051C140.663 52.7415 140.253 52.86 139.993 53.0605C139.738 53.2565 139.61 53.5391 139.61 53.9082C139.61 54.1589 139.674 54.373 139.802 54.5508C139.934 54.7285 140.112 54.8652 140.335 54.9609C140.563 55.0521 140.818 55.0977 141.101 55.0977ZM140.882 56.1299C140.408 56.1299 139.982 56.041 139.604 55.8633C139.23 55.6855 138.934 55.4326 138.715 55.1045C138.501 54.7718 138.394 54.3822 138.394 53.9355C138.394 53.2747 138.626 52.7598 139.091 52.3906C139.56 52.0169 140.223 51.805 141.08 51.7549L143.206 51.625V50.9551C143.206 50.4993 143.065 50.1507 142.782 49.9092C142.504 49.6676 142.09 49.5469 141.538 49.5469C141.096 49.5469 140.729 49.6266 140.438 49.7861C140.146 49.9456 139.959 50.1712 139.877 50.4629H138.688C138.738 50.071 138.893 49.7269 139.152 49.4307C139.412 49.1344 139.749 48.9066 140.164 48.7471C140.583 48.583 141.055 48.501 141.579 48.501C142.181 48.501 142.689 48.599 143.104 48.7949C143.523 48.9909 143.84 49.2734 144.054 49.6426C144.272 50.0072 144.382 50.4447 144.382 50.9551V56H143.261V54.9131H143.151C142.914 55.305 142.6 55.6058 142.208 55.8154C141.816 56.0251 141.374 56.1299 140.882 56.1299ZM146.624 56V45.7051H147.8V56H146.624ZM157.623 48.501C158.247 48.501 158.792 48.6582 159.257 48.9727C159.722 49.2871 160.082 49.7314 160.337 50.3057C160.592 50.8753 160.72 51.5452 160.72 52.3154C160.72 52.8896 160.647 53.4115 160.501 53.8809C160.355 54.3503 160.146 54.7536 159.872 55.0908C159.603 55.4235 159.277 55.681 158.895 55.8633C158.516 56.041 158.092 56.1299 157.623 56.1299C157.099 56.1299 156.634 56.0228 156.229 55.8086C155.823 55.5898 155.52 55.2845 155.319 54.8926H155.21V58.4609H154.034V48.6309H155.155V49.8613H155.265C155.502 49.4375 155.827 49.1048 156.242 48.8633C156.661 48.6217 157.122 48.501 157.623 48.501ZM157.343 55.0703C157.794 55.0703 158.179 54.9609 158.498 54.7422C158.822 54.5234 159.07 54.209 159.243 53.7988C159.416 53.3841 159.503 52.8896 159.503 52.3154C159.503 51.7412 159.416 51.249 159.243 50.8389C159.075 50.4242 158.828 50.1074 158.505 49.8887C158.186 49.6699 157.801 49.5605 157.35 49.5605C156.908 49.5605 156.522 49.6722 156.194 49.8955C155.871 50.1188 155.62 50.4378 155.442 50.8525C155.265 51.2627 155.176 51.7503 155.176 52.3154C155.176 52.876 155.265 53.3636 155.442 53.7783C155.62 54.1885 155.871 54.5075 156.194 54.7354C156.518 54.9587 156.901 55.0703 157.343 55.0703ZM162.565 56V48.6309H163.687V49.7246H163.796C163.869 49.4876 164.003 49.278 164.199 49.0957C164.4 48.9089 164.641 48.763 164.924 48.6582C165.211 48.5534 165.516 48.501 165.84 48.501C165.936 48.501 166.038 48.5055 166.147 48.5146C166.257 48.5192 166.35 48.526 166.428 48.5352V49.7109C166.396 49.7018 166.334 49.6927 166.243 49.6836C166.152 49.6699 166.054 49.6608 165.949 49.6562C165.844 49.6471 165.753 49.6426 165.676 49.6426C165.302 49.6426 164.969 49.7201 164.678 49.875C164.386 50.0299 164.156 50.2419 163.987 50.5107C163.823 50.7796 163.741 51.0872 163.741 51.4336V56H162.565ZM167.925 56V48.6309H169.101V56H167.925ZM168.513 47.209C168.362 47.209 168.223 47.1725 168.096 47.0996C167.973 47.0267 167.875 46.9287 167.802 46.8057C167.729 46.6781 167.692 46.5391 167.692 46.3887C167.692 46.2383 167.729 46.1016 167.802 45.9785C167.875 45.8509 167.973 45.7507 168.096 45.6777C168.223 45.6048 168.362 45.5684 168.513 45.5684C168.663 45.5684 168.8 45.6048 168.923 45.6777C169.05 45.7507 169.151 45.8509 169.224 45.9785C169.297 46.1016 169.333 46.2383 169.333 46.3887C169.333 46.5391 169.297 46.6781 169.224 46.8057C169.151 46.9287 169.05 47.0267 168.923 47.0996C168.8 47.1725 168.663 47.209 168.513 47.209ZM177.44 50.8867H176.251C176.187 50.6406 176.073 50.4173 175.909 50.2168C175.745 50.0163 175.533 49.8568 175.273 49.7383C175.014 49.6198 174.706 49.5605 174.351 49.5605C173.909 49.5605 173.526 49.6722 173.202 49.8955C172.879 50.1188 172.628 50.4355 172.45 50.8457C172.277 51.2513 172.19 51.7321 172.19 52.2881C172.19 52.8577 172.279 53.3499 172.457 53.7646C172.635 54.1794 172.885 54.5007 173.209 54.7285C173.533 54.9564 173.913 55.0703 174.351 55.0703C174.847 55.0703 175.26 54.9587 175.588 54.7354C175.921 54.512 176.142 54.193 176.251 53.7783H177.44C177.368 54.2295 177.201 54.6328 176.941 54.9883C176.682 55.3438 176.333 55.624 175.896 55.8291C175.458 56.0296 174.945 56.1299 174.357 56.1299C173.669 56.1299 173.072 55.9727 172.566 55.6582C172.061 55.3438 171.669 54.8994 171.391 54.3252C171.113 53.7464 170.974 53.0674 170.974 52.2881C170.974 51.7139 171.051 51.1943 171.206 50.7295C171.366 50.2646 171.591 49.8659 171.883 49.5332C172.179 49.2005 172.535 48.9453 172.949 48.7676C173.368 48.5898 173.836 48.501 174.351 48.501C174.948 48.501 175.465 48.6104 175.902 48.8291C176.34 49.0433 176.688 49.3304 176.948 49.6904C177.208 50.0505 177.372 50.4492 177.44 50.8867ZM182.116 49.54C181.724 49.54 181.376 49.6312 181.07 49.8135C180.77 49.9912 180.528 50.2419 180.346 50.5654C180.168 50.889 180.063 51.2695 180.031 51.707H184.092C184.083 51.2695 183.994 50.889 183.825 50.5654C183.661 50.2419 183.433 49.9912 183.142 49.8135C182.85 49.6312 182.508 49.54 182.116 49.54ZM184.058 54.0928H185.233C185.119 54.512 184.919 54.8743 184.632 55.1797C184.349 55.485 183.996 55.7197 183.572 55.8838C183.148 56.0479 182.668 56.1299 182.13 56.1299C181.446 56.1299 180.856 55.9749 180.359 55.665C179.863 55.3551 179.48 54.9154 179.211 54.3457C178.942 53.7715 178.808 53.097 178.808 52.3223C178.808 51.7435 178.885 51.2194 179.04 50.75C179.195 50.2806 179.418 49.8796 179.71 49.5469C180.002 49.2096 180.35 48.9521 180.756 48.7744C181.166 48.5921 181.624 48.501 182.13 48.501C182.795 48.501 183.365 48.6514 183.839 48.9521C184.317 49.2484 184.684 49.6745 184.939 50.2305C185.199 50.7865 185.329 51.445 185.329 52.2061V52.6572H180.031V52.7119C180.054 53.1995 180.154 53.6211 180.332 53.9766C180.51 54.332 180.754 54.6077 181.063 54.8037C181.373 54.9951 181.738 55.0908 182.157 55.0908C182.631 55.0908 183.028 55.0065 183.347 54.8379C183.666 54.6647 183.903 54.4163 184.058 54.0928ZM191.153 56V48.6309H192.329V56H191.153ZM191.741 47.209C191.591 47.209 191.452 47.1725 191.324 47.0996C191.201 47.0267 191.103 46.9287 191.03 46.8057C190.957 46.6781 190.921 46.5391 190.921 46.3887C190.921 46.2383 190.957 46.1016 191.03 45.9785C191.103 45.8509 191.201 45.7507 191.324 45.6777C191.452 45.6048 191.591 45.5684 191.741 45.5684C191.892 45.5684 192.028 45.6048 192.151 45.6777C192.279 45.7507 192.379 45.8509 192.452 45.9785C192.525 46.1016 192.562 46.2383 192.562 46.3887C192.562 46.5391 192.525 46.6781 192.452 46.8057C192.379 46.9287 192.279 47.0267 192.151 47.0996C192.028 47.1725 191.892 47.209 191.741 47.209ZM194.4 50.6475C194.4 50.3421 194.469 50.0596 194.605 49.7998C194.747 49.5355 194.94 49.3076 195.187 49.1162C195.437 48.9202 195.729 48.7699 196.062 48.665C196.394 48.5557 196.757 48.501 197.148 48.501C197.663 48.501 198.119 48.583 198.516 48.7471C198.917 48.9066 199.238 49.1344 199.479 49.4307C199.726 49.7269 199.874 50.0755 199.924 50.4766H198.762C198.684 50.1849 198.507 49.9502 198.229 49.7725C197.951 49.5902 197.588 49.499 197.142 49.499C196.85 49.499 196.586 49.5469 196.349 49.6426C196.116 49.7337 195.929 49.8613 195.788 50.0254C195.651 50.1895 195.583 50.3809 195.583 50.5996C195.583 50.8548 195.688 51.0645 195.897 51.2285C196.107 51.3926 196.428 51.527 196.861 51.6318L197.996 51.9053C198.689 52.0739 199.204 52.3177 199.541 52.6367C199.883 52.9512 200.054 53.3727 200.054 53.9014C200.054 54.2295 199.979 54.5303 199.828 54.8037C199.682 55.0771 199.475 55.3141 199.206 55.5146C198.937 55.7106 198.623 55.8633 198.263 55.9727C197.907 56.0775 197.52 56.1299 197.101 56.1299C196.554 56.1299 196.071 56.0479 195.651 55.8838C195.232 55.7197 194.897 55.4873 194.646 55.1865C194.396 54.8812 194.248 54.5257 194.202 54.1201H195.412C195.512 54.43 195.706 54.6784 195.993 54.8652C196.285 55.0475 196.668 55.1387 197.142 55.1387C197.47 55.1387 197.761 55.0908 198.017 54.9951C198.276 54.8949 198.479 54.7604 198.625 54.5918C198.771 54.4186 198.844 54.2181 198.844 53.9902C198.844 53.4889 198.454 53.1426 197.675 52.9512L196.41 52.6436C195.722 52.4749 195.214 52.2334 194.886 51.9189C194.562 51.6045 194.4 51.1807 194.4 50.6475ZM209.706 51.6729V54.7422C210.13 54.7103 210.469 54.626 210.725 54.4893C210.984 54.348 211.174 54.1702 211.292 53.9561C211.41 53.7419 211.47 53.5026 211.47 53.2383C211.47 52.9876 211.42 52.7666 211.319 52.5752C211.219 52.3792 211.044 52.2083 210.793 52.0625C210.547 51.9167 210.198 51.7891 209.747 51.6797L209.706 51.6729ZM208.886 50.3125V47.4072C208.539 47.4528 208.248 47.5462 208.011 47.6875C207.778 47.8288 207.601 48.002 207.478 48.207C207.359 48.4076 207.3 48.6172 207.3 48.8359C207.3 49.1732 207.416 49.4671 207.648 49.7178C207.885 49.9684 208.298 50.1667 208.886 50.3125ZM209.706 50.5107L209.918 50.5586C210.506 50.6999 211.003 50.8799 211.408 51.0986C211.818 51.3174 212.128 51.5931 212.338 51.9258C212.552 52.2585 212.659 52.6641 212.659 53.1426C212.659 53.5527 212.582 53.9173 212.427 54.2363C212.272 54.5553 212.058 54.8265 211.784 55.0498C211.515 55.2686 211.201 55.4417 210.841 55.5693C210.485 55.6969 210.107 55.7767 209.706 55.8086V56.9912H208.886V55.8018C208.48 55.7653 208.097 55.6787 207.737 55.542C207.377 55.4053 207.058 55.223 206.78 54.9951C206.507 54.7673 206.288 54.4938 206.124 54.1748C205.965 53.8558 205.878 53.498 205.864 53.1016H207.054C207.095 53.3841 207.184 53.6416 207.32 53.874C207.457 54.1064 207.653 54.2979 207.908 54.4482C208.168 54.5986 208.494 54.6943 208.886 54.7354V51.4746L208.729 51.4336C207.876 51.2285 207.227 50.9277 206.78 50.5312C206.334 50.1302 206.11 49.5924 206.11 48.918C206.11 48.4258 206.229 47.9951 206.466 47.626C206.703 47.2568 207.031 46.9606 207.45 46.7373C207.869 46.514 208.348 46.3796 208.886 46.334V45.1445H209.706V46.3271C210.103 46.3636 210.469 46.4525 210.807 46.5938C211.148 46.7305 211.449 46.9128 211.709 47.1406C211.969 47.3685 212.172 47.6374 212.317 47.9473C212.468 48.2572 212.55 48.6012 212.563 48.9795H211.374C211.328 48.5192 211.153 48.1569 210.848 47.8926C210.547 47.6237 210.166 47.4596 209.706 47.4004V50.5107ZM218.073 56.2256C217.517 56.2256 217.014 56.123 216.562 55.918C216.111 55.7129 215.738 55.4235 215.441 55.0498C215.145 54.6715 214.945 54.2227 214.84 53.7031H216.104C216.232 54.1497 216.474 54.5007 216.829 54.7559C217.185 55.0065 217.604 55.1318 218.087 55.1318C218.889 55.1318 219.511 54.7855 219.953 54.0928C220.395 53.4001 220.634 52.3975 220.671 51.085H220.562C220.32 51.5635 219.969 51.9372 219.509 52.2061C219.049 52.4704 218.524 52.6025 217.937 52.6025C217.467 52.6025 217.034 52.5205 216.638 52.3564C216.246 52.1924 215.904 51.9645 215.612 51.6729C215.321 51.3766 215.095 51.028 214.936 50.627C214.776 50.2214 214.696 49.7793 214.696 49.3008C214.696 48.804 214.781 48.3483 214.949 47.9336C215.118 47.5189 215.357 47.1611 215.667 46.8604C215.977 46.555 216.341 46.3203 216.761 46.1562C217.185 45.9876 217.649 45.9033 218.155 45.9033C218.688 45.9033 219.181 46.0059 219.632 46.2109C220.083 46.416 220.475 46.7259 220.808 47.1406C221.145 47.5553 221.405 48.0749 221.587 48.6992C221.774 49.3236 221.867 50.055 221.867 50.8936C221.867 52.0238 221.719 52.9876 221.423 53.7852C221.127 54.5781 220.694 55.1842 220.124 55.6035C219.559 56.0182 218.875 56.2256 218.073 56.2256ZM218.155 51.5361C218.593 51.5361 218.98 51.4404 219.317 51.249C219.655 51.0576 219.919 50.7956 220.11 50.4629C220.302 50.1257 220.397 49.7383 220.397 49.3008C220.397 48.9727 220.34 48.6673 220.227 48.3848C220.117 48.1022 219.96 47.8561 219.755 47.6465C219.554 47.4368 219.317 47.2751 219.044 47.1611C218.775 47.0426 218.483 46.9834 218.169 46.9834C217.854 46.9834 217.561 47.0404 217.287 47.1543C217.018 47.2682 216.781 47.43 216.576 47.6396C216.376 47.8447 216.218 48.0863 216.104 48.3643C215.995 48.6377 215.94 48.9362 215.94 49.2598C215.94 49.7064 216.034 50.1029 216.221 50.4492C216.408 50.791 216.667 51.0576 217 51.249C217.333 51.4404 217.718 51.5361 218.155 51.5361ZM227.165 56.2324C226.422 56.2324 225.791 56.0296 225.271 55.624C224.752 55.2184 224.353 54.6305 224.075 53.8604C223.802 53.0902 223.665 52.1582 223.665 51.0645C223.665 49.9798 223.802 49.0524 224.075 48.2822C224.353 47.512 224.754 46.9242 225.278 46.5186C225.802 46.1084 226.431 45.9033 227.165 45.9033C227.894 45.9033 228.519 46.1084 229.038 46.5186C229.562 46.9287 229.961 47.5212 230.234 48.2959C230.512 49.0661 230.651 49.9958 230.651 51.085C230.651 52.1742 230.515 53.1038 230.241 53.874C229.968 54.6396 229.571 55.2253 229.052 55.6309C228.532 56.0319 227.903 56.2324 227.165 56.2324ZM227.165 55.1592C227.894 55.1592 228.45 54.8083 228.833 54.1064C229.22 53.4001 229.414 52.3861 229.414 51.0645C229.414 49.7565 229.218 48.7493 228.826 48.043C228.439 47.3366 227.885 46.9834 227.165 46.9834C226.682 46.9834 226.272 47.1429 225.935 47.4619C225.602 47.7809 225.347 48.2458 225.169 48.8564C224.991 49.4626 224.902 50.1986 224.902 51.0645C224.902 52.3861 225.096 53.4001 225.483 54.1064C225.875 54.8083 226.436 55.1592 227.165 55.1592Z" fill="#111113"/>
<path d="M25 2C25 1.44772 25.4477 1 26 1H72C72.5523 1 73 1.44772 73 2V58.7798C73 60.5463 71.8413 62.1036 70.1494 62.6112L50.1494 68.6112C49.3996 68.8361 48.6004 68.8361 47.8506 68.6112L27.8506 62.6112C26.1587 62.1036 25 60.5463 25 58.7798V2Z" fill="#E44240" stroke="url(#paint0_linear_303_9129)" stroke-width="2"/>
<path d="M38.7666 32V30.2158H33.9404V28.541C34.5602 27.4336 35.2005 26.3421 35.8613 25.2666C36.5221 24.1911 37.1829 23.1475 37.8438 22.1357H40.7354V28.5H42.0273V30.2158H40.7354V32H38.7666ZM35.793 28.4521V28.5684H38.8145V23.7422H38.7051C38.3815 24.2253 38.0534 24.7311 37.7207 25.2598C37.388 25.7839 37.0576 26.3171 36.7295 26.8594C36.4014 27.3971 36.0892 27.9281 35.793 28.4521ZM47.7354 32.2529C47.1429 32.2529 46.5983 32.1481 46.1016 31.9385C45.6048 31.7243 45.1719 31.4053 44.8027 30.9814C44.4382 30.5576 44.1556 30.0267 43.9551 29.3887C43.7546 28.7461 43.6543 27.9964 43.6543 27.1396C43.6543 26.3193 43.7477 25.5856 43.9346 24.9385C44.126 24.2913 44.3994 23.7399 44.7549 23.2842C45.1149 22.8285 45.5479 22.4821 46.0537 22.2451C46.5596 22.0036 47.127 21.8828 47.7559 21.8828C48.2435 21.8828 48.6924 21.9512 49.1025 22.0879C49.5173 22.2201 49.8841 22.4092 50.2031 22.6553C50.5221 22.9014 50.7819 23.1953 50.9824 23.5371C51.1875 23.8743 51.3197 24.248 51.3789 24.6582H49.335C49.2575 24.321 49.0798 24.0566 48.8018 23.8652C48.5238 23.6738 48.1842 23.5781 47.7832 23.5781C47.3275 23.5781 46.9378 23.7103 46.6143 23.9746C46.2952 24.2344 46.0492 24.6149 45.876 25.1162C45.7074 25.613 45.623 26.2168 45.623 26.9277H45.7461C45.9694 26.4674 46.2998 26.112 46.7373 25.8613C47.1794 25.6107 47.6875 25.4854 48.2617 25.4854C48.7311 25.4854 49.1618 25.5674 49.5537 25.7314C49.9502 25.891 50.2943 26.1188 50.5859 26.415C50.8776 26.7067 51.1032 27.0508 51.2627 27.4473C51.4268 27.8438 51.5088 28.2767 51.5088 28.7461C51.5088 29.2565 51.4154 29.7259 51.2285 30.1543C51.0462 30.5827 50.7865 30.9541 50.4492 31.2686C50.112 31.583 49.7132 31.8268 49.2529 32C48.7926 32.1686 48.2868 32.2529 47.7354 32.2529ZM47.7148 30.5576C48.0566 30.5576 48.362 30.4801 48.6309 30.3252C48.8997 30.1702 49.1117 29.9606 49.2666 29.6963C49.4261 29.4274 49.5059 29.1266 49.5059 28.7939C49.5059 28.4521 49.4307 28.1491 49.2803 27.8848C49.1299 27.6204 48.9202 27.4131 48.6514 27.2627C48.387 27.1123 48.0771 27.0371 47.7217 27.0371C47.3662 27.0371 47.054 27.1123 46.7852 27.2627C46.5163 27.4131 46.3066 27.6182 46.1562 27.8779C46.0059 28.1377 45.9307 28.4339 45.9307 28.7666C45.9307 29.1038 46.0081 29.4092 46.1631 29.6826C46.318 29.9515 46.5299 30.1657 46.7988 30.3252C47.0677 30.4801 47.373 30.5576 47.7148 30.5576ZM55.1045 26.7568C54.6123 26.7568 54.1908 26.6611 53.8398 26.4697C53.4889 26.2783 53.2201 26.0026 53.0332 25.6426C52.8509 25.2826 52.7598 24.8496 52.7598 24.3438C52.7598 23.8516 52.8532 23.4255 53.04 23.0654C53.2314 22.7054 53.5026 22.4297 53.8535 22.2383C54.2044 22.0423 54.6214 21.9443 55.1045 21.9443C55.5876 21.9443 56.0046 22.0423 56.3555 22.2383C56.7064 22.4297 56.9753 22.7054 57.1621 23.0654C57.3535 23.4209 57.4492 23.847 57.4492 24.3438C57.4492 25.1048 57.2419 25.6973 56.8271 26.1211C56.417 26.5449 55.8428 26.7568 55.1045 26.7568ZM55.1045 25.5332C55.3551 25.5332 55.5465 25.4307 55.6787 25.2256C55.8154 25.016 55.8838 24.7243 55.8838 24.3506C55.8838 23.986 55.8132 23.6989 55.6719 23.4893C55.5352 23.2796 55.346 23.1748 55.1045 23.1748C54.8584 23.1748 54.6647 23.2796 54.5234 23.4893C54.3867 23.6989 54.3184 23.986 54.3184 24.3506C54.3184 24.7288 54.3867 25.0205 54.5234 25.2256C54.6602 25.4307 54.8538 25.5332 55.1045 25.5332ZM56.1162 32H54.5371L61.0928 22.1357H62.6719L56.1162 32ZM62.1045 32.1162C61.6123 32.1162 61.1908 32.0205 60.8398 31.8291C60.4935 31.6377 60.2269 31.362 60.04 31.002C59.8532 30.6419 59.7598 30.209 59.7598 29.7031C59.7598 29.2109 59.8532 28.7871 60.04 28.4316C60.2314 28.0716 60.5026 27.7959 60.8535 27.6045C61.2044 27.4085 61.6214 27.3105 62.1045 27.3105C62.5876 27.3105 63.0046 27.4062 63.3555 27.5977C63.7064 27.7891 63.9753 28.0648 64.1621 28.4248C64.3535 28.7803 64.4492 29.2064 64.4492 29.7031C64.4492 30.4642 64.2419 31.0566 63.8271 31.4805C63.417 31.9043 62.8428 32.1162 62.1045 32.1162ZM62.1045 30.8926C62.3551 30.8926 62.5488 30.79 62.6855 30.585C62.8223 30.3753 62.8906 30.0837 62.8906 29.71C62.8906 29.3454 62.82 29.0583 62.6787 28.8486C62.542 28.639 62.3506 28.5342 62.1045 28.5342C61.8584 28.5342 61.667 28.639 61.5303 28.8486C61.3936 29.0583 61.3252 29.3454 61.3252 29.71C61.3252 30.0882 61.3913 30.3799 61.5234 30.585C61.6602 30.79 61.8538 30.8926 62.1045 30.8926ZM40.626 36.8828C41.3506 36.8828 42.0046 37.0036 42.5879 37.2451C43.1758 37.4821 43.6748 37.8262 44.085 38.2773C44.4997 38.7285 44.8164 39.2731 45.0352 39.9111C45.2585 40.5492 45.3701 41.2669 45.3701 42.0645C45.3701 42.8665 45.2607 43.5866 45.042 44.2246C44.8232 44.8626 44.5065 45.4072 44.0918 45.8584C43.6771 46.3096 43.1781 46.6559 42.5947 46.8975C42.0114 47.1344 41.3551 47.2529 40.626 47.2529C39.8923 47.2529 39.2314 47.1344 38.6436 46.8975C38.0602 46.6559 37.5612 46.3096 37.1465 45.8584C36.7363 45.4072 36.4219 44.8626 36.2031 44.2246C35.9844 43.5866 35.875 42.8665 35.875 42.0645C35.875 41.2624 35.9844 40.5423 36.2031 39.9043C36.4264 39.2663 36.7454 38.724 37.1602 38.2773C37.5749 37.8262 38.0739 37.4821 38.6572 37.2451C39.2451 37.0036 39.9014 36.8828 40.626 36.8828ZM40.626 38.6943C40.0882 38.6943 39.6211 38.8333 39.2246 39.1113C38.8327 39.3848 38.5273 39.7744 38.3086 40.2803C38.0944 40.7816 37.9873 41.3763 37.9873 42.0645C37.9873 42.748 38.0944 43.3428 38.3086 43.8486C38.5228 44.3545 38.8258 44.7464 39.2178 45.0244C39.6143 45.3024 40.0837 45.4414 40.626 45.4414C41.1637 45.4414 41.6286 45.3024 42.0205 45.0244C42.4124 44.7464 42.7155 44.3545 42.9297 43.8486C43.1484 43.3428 43.2578 42.748 43.2578 42.0645C43.2578 41.3763 43.1484 40.7816 42.9297 40.2803C42.7155 39.7744 42.4102 39.3848 42.0137 39.1113C41.6217 38.8333 41.1592 38.6943 40.626 38.6943ZM49.3965 47H47.332V37.1357H53.792V38.8994H49.3965V41.4697H53.4092V43.1582H49.3965V47ZM57.7637 47H55.6992V37.1357H62.1592V38.8994H57.7637V41.4697H61.7764V43.1582H57.7637V47Z" fill="white"/>
<defs>
<linearGradient id="paint0_linear_303_9129" x1="49" y1="-2" x2="49" y2="70" gradientUnits="userSpaceOnUse">
<stop stop-color="white" stop-opacity="0"/>
<stop offset="1" stop-color="white"/>
</linearGradient>
</defs>
</svg>
