<svg width="311" height="79" viewBox="0 0 311 79" fill="none" xmlns="http://www.w3.org/2000/svg">
<rect x="1" y="3" width="309" height="75" rx="8" fill="#F1F3F9" stroke="#5773D6" stroke-width="2"/>
<path d="M95.4277 35H93.6641V26.6602H90.6289V25.1357H98.4697V26.6602H95.4277V35ZM99.2627 35V27.5215H100.896V28.6836H101.013C101.081 28.4375 101.209 28.2188 101.396 28.0273C101.587 27.8314 101.819 27.6787 102.093 27.5693C102.366 27.4554 102.665 27.3984 102.988 27.3984C103.111 27.3984 103.239 27.4053 103.371 27.4189C103.508 27.4326 103.615 27.4508 103.692 27.4736V29.0459C103.647 29.0322 103.574 29.0186 103.474 29.0049C103.373 28.9867 103.264 28.973 103.146 28.9639C103.027 28.9548 102.92 28.9502 102.824 28.9502C102.455 28.9502 102.129 29.0231 101.847 29.1689C101.569 29.3102 101.35 29.5107 101.19 29.7705C101.035 30.0303 100.958 30.3333 100.958 30.6797V35H99.2627ZM105.976 37.7139C105.939 37.7139 105.873 37.7116 105.777 37.707C105.686 37.707 105.593 37.7048 105.497 37.7002C105.406 37.6956 105.342 37.6911 105.306 37.6865V36.2988C105.351 36.3079 105.424 36.3148 105.524 36.3193C105.629 36.3239 105.711 36.3262 105.771 36.3262C106.131 36.3262 106.415 36.251 106.625 36.1006C106.839 35.9548 107.001 35.7087 107.11 35.3623L107.199 35.0342L104.526 27.5215H106.386L108.136 33.3594H108.252L109.995 27.5215H111.786L109.086 35.2393C108.926 35.7041 108.753 36.0938 108.566 36.4082C108.38 36.7272 108.163 36.9824 107.917 37.1738C107.675 37.3652 107.395 37.502 107.076 37.584C106.762 37.6706 106.395 37.7139 105.976 37.7139ZM117.002 35V27.5215H118.69V35H117.002ZM117.843 26.2842C117.66 26.2842 117.492 26.2386 117.337 26.1475C117.182 26.0563 117.059 25.9355 116.968 25.7852C116.877 25.6302 116.831 25.457 116.831 25.2656C116.831 25.0742 116.877 24.901 116.968 24.7461C117.059 24.5911 117.182 24.4681 117.337 24.377C117.492 24.2858 117.66 24.2402 117.843 24.2402C118.03 24.2402 118.198 24.2858 118.349 24.377C118.504 24.4681 118.627 24.5911 118.718 24.7461C118.809 24.901 118.854 25.0742 118.854 25.2656C118.854 25.457 118.809 25.6302 118.718 25.7852C118.627 25.9355 118.504 26.0563 118.349 26.1475C118.198 26.2386 118.03 26.2842 117.843 26.2842ZM121.336 25.6895H123.024V27.5693H124.624V28.9229H123.024V32.5938C123.024 32.9629 123.106 33.234 123.271 33.4072C123.435 33.5758 123.694 33.6602 124.05 33.6602C124.168 33.6602 124.269 33.6579 124.351 33.6533C124.433 33.6442 124.524 33.6351 124.624 33.626V34.9521C124.501 34.9749 124.362 34.9932 124.207 35.0068C124.057 35.0251 123.899 35.0342 123.735 35.0342C123.161 35.0342 122.699 34.9658 122.348 34.8291C121.997 34.6924 121.739 34.4759 121.575 34.1797C121.416 33.8789 121.336 33.487 121.336 33.0039V28.9229H120.153V27.5693H121.336V25.6895ZM133.278 35.1504C132.531 35.1504 131.888 34.9954 131.351 34.6855C130.813 34.3711 130.4 33.9245 130.113 33.3457C129.826 32.7624 129.683 32.0674 129.683 31.2607C129.683 30.4541 129.828 29.7614 130.12 29.1826C130.412 28.5993 130.824 28.1527 131.357 27.8428C131.895 27.5283 132.535 27.3711 133.278 27.3711C134.021 27.3711 134.661 27.5283 135.199 27.8428C135.737 28.1527 136.149 28.5993 136.437 29.1826C136.728 29.7614 136.874 30.4541 136.874 31.2607C136.874 32.0674 136.728 32.7624 136.437 33.3457C136.149 33.9245 135.737 34.3711 135.199 34.6855C134.666 34.9954 134.026 35.1504 133.278 35.1504ZM133.278 33.7285C133.871 33.7285 134.326 33.5143 134.646 33.0859C134.969 32.653 135.131 32.0446 135.131 31.2607C135.131 30.4814 134.969 29.8753 134.646 29.4424C134.322 29.0094 133.866 28.793 133.278 28.793C132.686 28.793 132.228 29.0094 131.904 29.4424C131.581 29.8753 131.419 30.4814 131.419 31.2607C131.419 32.0446 131.581 32.653 131.904 33.0859C132.228 33.5143 132.686 33.7285 133.278 33.7285ZM145.091 27.5215V35H143.457V33.8105H143.341C143.159 34.2389 142.883 34.5693 142.514 34.8018C142.145 35.0342 141.675 35.1504 141.105 35.1504C140.563 35.1504 140.098 35.041 139.711 34.8223C139.324 34.6035 139.027 34.2891 138.822 33.8789C138.617 33.4642 138.515 32.9652 138.515 32.3818V27.5215H140.21V31.958C140.21 32.5277 140.331 32.9538 140.572 33.2363C140.814 33.5189 141.188 33.6602 141.693 33.6602C142.245 33.6602 142.666 33.5007 142.958 33.1816C143.25 32.8626 143.396 32.4274 143.396 31.876V27.5215H145.091ZM147.709 25.6895H149.397V27.5693H150.997V28.9229H149.397V32.5938C149.397 32.9629 149.479 33.234 149.644 33.4072C149.808 33.5758 150.067 33.6602 150.423 33.6602C150.541 33.6602 150.642 33.6579 150.724 33.6533C150.806 33.6442 150.897 33.6351 150.997 33.626V34.9521C150.874 34.9749 150.735 34.9932 150.58 35.0068C150.43 35.0251 150.272 35.0342 150.108 35.0342C149.534 35.0342 149.072 34.9658 148.721 34.8291C148.37 34.6924 148.112 34.4759 147.948 34.1797C147.789 33.8789 147.709 33.487 147.709 33.0039V28.9229H146.526V27.5693H147.709V25.6895ZM156.972 35V28.9229H155.748V27.5693H156.972V26.7832C156.972 26.0358 157.168 25.4775 157.56 25.1084C157.951 24.7393 158.562 24.5547 159.392 24.5547C159.574 24.5547 159.743 24.5615 159.897 24.5752C160.052 24.5889 160.198 24.6071 160.335 24.6299V25.874C160.267 25.8649 160.182 25.8581 160.082 25.8535C159.982 25.8444 159.872 25.8398 159.754 25.8398C159.353 25.8398 159.066 25.9287 158.893 26.1064C158.724 26.2796 158.64 26.5417 158.64 26.8926V27.5693H160.267V28.9229H158.66V35H156.972ZM164.86 35.1504C164.113 35.1504 163.47 34.9954 162.933 34.6855C162.395 34.3711 161.982 33.9245 161.695 33.3457C161.408 32.7624 161.265 32.0674 161.265 31.2607C161.265 30.4541 161.41 29.7614 161.702 29.1826C161.994 28.5993 162.406 28.1527 162.939 27.8428C163.477 27.5283 164.118 27.3711 164.86 27.3711C165.603 27.3711 166.243 27.5283 166.781 27.8428C167.319 28.1527 167.731 28.5993 168.019 29.1826C168.31 29.7614 168.456 30.4541 168.456 31.2607C168.456 32.0674 168.31 32.7624 168.019 33.3457C167.731 33.9245 167.319 34.3711 166.781 34.6855C166.248 34.9954 165.608 35.1504 164.86 35.1504ZM164.86 33.7285C165.453 33.7285 165.909 33.5143 166.228 33.0859C166.551 32.653 166.713 32.0446 166.713 31.2607C166.713 30.4814 166.551 29.8753 166.228 29.4424C165.904 29.0094 165.448 28.793 164.86 28.793C164.268 28.793 163.81 29.0094 163.486 29.4424C163.163 29.8753 163.001 30.4814 163.001 31.2607C163.001 32.0446 163.163 32.653 163.486 33.0859C163.81 33.5143 164.268 33.7285 164.86 33.7285ZM170.165 35V27.5215H171.799V28.6836H171.915C171.983 28.4375 172.111 28.2188 172.298 28.0273C172.489 27.8314 172.722 27.6787 172.995 27.5693C173.269 27.4554 173.567 27.3984 173.891 27.3984C174.014 27.3984 174.141 27.4053 174.273 27.4189C174.41 27.4326 174.517 27.4508 174.595 27.4736V29.0459C174.549 29.0322 174.476 29.0186 174.376 29.0049C174.276 28.9867 174.166 28.973 174.048 28.9639C173.929 28.9548 173.822 28.9502 173.727 28.9502C173.357 28.9502 173.032 29.0231 172.749 29.1689C172.471 29.3102 172.252 29.5107 172.093 29.7705C171.938 30.0303 171.86 30.3333 171.86 30.6797V35H170.165ZM182.948 35.1504C182.201 35.1504 181.558 34.9954 181.021 34.6855C180.483 34.3711 180.07 33.9245 179.783 33.3457C179.496 32.7624 179.353 32.0674 179.353 31.2607C179.353 30.4541 179.498 29.7614 179.79 29.1826C180.082 28.5993 180.494 28.1527 181.027 27.8428C181.565 27.5283 182.205 27.3711 182.948 27.3711C183.691 27.3711 184.331 27.5283 184.869 27.8428C185.407 28.1527 185.819 28.5993 186.106 29.1826C186.398 29.7614 186.544 30.4541 186.544 31.2607C186.544 32.0674 186.398 32.7624 186.106 33.3457C185.819 33.9245 185.407 34.3711 184.869 34.6855C184.336 34.9954 183.696 35.1504 182.948 35.1504ZM182.948 33.7285C183.541 33.7285 183.996 33.5143 184.315 33.0859C184.639 32.653 184.801 32.0446 184.801 31.2607C184.801 30.4814 184.639 29.8753 184.315 29.4424C183.992 29.0094 183.536 28.793 182.948 28.793C182.356 28.793 181.898 29.0094 181.574 29.4424C181.251 29.8753 181.089 30.4814 181.089 31.2607C181.089 32.0446 181.251 32.653 181.574 33.0859C181.898 33.5143 182.356 33.7285 182.948 33.7285ZM188.253 35V27.5215H189.887V28.7178H190.003C190.181 28.3031 190.456 27.9749 190.83 27.7334C191.204 27.4919 191.669 27.3711 192.225 27.3711C193.059 27.3711 193.697 27.6126 194.139 28.0957C194.581 28.5788 194.802 29.2669 194.802 30.1602V35H193.106V30.5635C193.106 29.9938 192.983 29.5654 192.737 29.2783C192.491 28.9912 192.111 28.8477 191.596 28.8477C191.258 28.8477 190.967 28.9206 190.721 29.0664C190.475 29.2122 190.283 29.4196 190.146 29.6885C190.014 29.9574 189.948 30.2764 189.948 30.6455V35H188.253ZM196.88 35V24.6299H198.575V35H196.88ZM201.542 37.7139C201.506 37.7139 201.439 37.7116 201.344 37.707C201.253 37.707 201.159 37.7048 201.063 37.7002C200.972 37.6956 200.909 37.6911 200.872 37.6865V36.2988C200.918 36.3079 200.991 36.3148 201.091 36.3193C201.196 36.3239 201.278 36.3262 201.337 36.3262C201.697 36.3262 201.982 36.251 202.191 36.1006C202.406 35.9548 202.567 35.7087 202.677 35.3623L202.766 35.0342L200.093 27.5215H201.952L203.702 33.3594H203.818L205.562 27.5215H207.353L204.652 35.2393C204.493 35.7041 204.32 36.0938 204.133 36.4082C203.946 36.7272 203.729 36.9824 203.483 37.1738C203.242 37.3652 202.962 37.502 202.643 37.584C202.328 37.6706 201.961 37.7139 201.542 37.7139ZM216.67 30.9189V33.4688C217.203 33.4232 217.593 33.2865 217.839 33.0586C218.09 32.8307 218.215 32.5482 218.215 32.2109C218.215 31.9922 218.167 31.8053 218.071 31.6504C217.98 31.4909 217.821 31.3542 217.593 31.2402C217.369 31.1217 217.062 31.0146 216.67 30.9189ZM215.87 29.1211V26.6738C215.41 26.7331 215.059 26.8743 214.817 27.0977C214.58 27.321 214.462 27.5785 214.462 27.8701C214.462 28.1663 214.571 28.417 214.79 28.6221C215.009 28.8226 215.369 28.9889 215.87 29.1211ZM216.67 29.3057L217.053 29.3945C217.663 29.5312 218.176 29.7113 218.591 29.9346C219.01 30.1579 219.327 30.4404 219.541 30.7822C219.755 31.124 219.862 31.5433 219.862 32.04C219.862 32.4639 219.783 32.8421 219.623 33.1748C219.464 33.5075 219.238 33.7946 218.946 34.0361C218.659 34.2731 218.322 34.4622 217.935 34.6035C217.547 34.7402 217.126 34.8245 216.67 34.8564V35.9775H215.87V34.8564C215.419 34.8245 215 34.7402 214.612 34.6035C214.225 34.4668 213.885 34.2799 213.594 34.043C213.302 33.806 213.072 33.5234 212.903 33.1953C212.739 32.8672 212.65 32.4935 212.637 32.0742H214.229C214.289 32.4479 214.448 32.7601 214.708 33.0107C214.972 33.2568 215.36 33.4072 215.87 33.4619V30.7344L215.521 30.6523C214.646 30.4518 213.974 30.1419 213.505 29.7227C213.04 29.3034 212.808 28.736 212.808 28.0205C212.808 27.4919 212.938 27.0316 213.197 26.6396C213.462 26.2432 213.824 25.9287 214.284 25.6963C214.749 25.4639 215.278 25.3249 215.87 25.2793V24.1445H216.67V25.2793C217.267 25.3249 217.791 25.4684 218.242 25.71C218.698 25.9469 219.056 26.266 219.315 26.667C219.58 27.0635 219.723 27.5238 219.746 28.0479H218.153C218.108 27.6468 217.951 27.3324 217.682 27.1045C217.417 26.8766 217.08 26.7354 216.67 26.6807V29.3057ZM226.575 35V33.1201H221.756V31.6504C222.394 30.5384 223.055 29.4287 223.738 28.3213C224.426 27.2139 225.105 26.152 225.775 25.1357H228.264V31.6299H229.597V33.1201H228.264V35H226.575ZM223.39 31.5752V31.6709H226.603V26.5713H226.507C226.17 27.0817 225.821 27.6172 225.461 28.1777C225.105 28.7383 224.75 29.3079 224.395 29.8867C224.044 30.4609 223.709 31.0238 223.39 31.5752ZM235.1 35.2461C234.535 35.2461 234.017 35.1755 233.548 35.0342C233.083 34.8975 232.68 34.7015 232.338 34.4463C232.001 34.1911 231.739 33.888 231.552 33.5371C231.369 33.1816 231.278 32.7897 231.278 32.3613C231.278 31.9421 231.365 31.5592 231.538 31.2129C231.716 30.8665 231.964 30.5749 232.283 30.3379C232.607 30.1009 232.983 29.9368 233.411 29.8457V29.7295C233.06 29.6429 232.755 29.4971 232.495 29.292C232.235 29.0824 232.033 28.8294 231.887 28.5332C231.745 28.237 231.675 27.9134 231.675 27.5625C231.675 27.1706 231.759 26.8128 231.928 26.4893C232.096 26.1611 232.333 25.8786 232.639 25.6416C232.944 25.4046 233.306 25.2201 233.726 25.0879C234.145 24.9557 234.605 24.8896 235.106 24.8896C235.608 24.8896 236.066 24.9557 236.48 25.0879C236.9 25.2201 237.262 25.4046 237.567 25.6416C237.873 25.8786 238.11 26.1611 238.278 26.4893C238.447 26.8128 238.531 27.1706 238.531 27.5625C238.531 27.918 238.461 28.2438 238.319 28.54C238.178 28.8317 237.978 29.0824 237.718 29.292C237.463 29.4971 237.157 29.6429 236.802 29.7295V29.8457C237.23 29.9277 237.604 30.0872 237.923 30.3242C238.242 30.5566 238.49 30.8483 238.668 31.1992C238.846 31.5456 238.935 31.9307 238.935 32.3545C238.935 32.7829 238.841 33.1748 238.654 33.5303C238.472 33.8812 238.21 34.1865 237.868 34.4463C237.531 34.7015 237.128 34.8975 236.658 35.0342C236.189 35.1755 235.669 35.2461 235.1 35.2461ZM235.106 33.8721C235.503 33.8721 235.852 33.8037 236.152 33.667C236.453 33.5257 236.688 33.3298 236.856 33.0791C237.025 32.8285 237.109 32.5391 237.109 32.2109C237.109 31.8828 237.025 31.5934 236.856 31.3428C236.688 31.0921 236.451 30.8984 236.146 30.7617C235.845 30.6204 235.498 30.5498 235.106 30.5498C234.71 30.5498 234.359 30.6204 234.054 30.7617C233.753 30.8984 233.518 31.0921 233.35 31.3428C233.181 31.5934 233.097 31.8828 233.097 32.2109C233.097 32.5391 233.181 32.8285 233.35 33.0791C233.518 33.3298 233.753 33.5257 234.054 33.667C234.359 33.8037 234.71 33.8721 235.106 33.8721ZM235.106 29.1963C235.439 29.1963 235.731 29.1348 235.981 29.0117C236.237 28.8887 236.435 28.7178 236.576 28.499C236.722 28.2757 236.795 28.0205 236.795 27.7334C236.795 27.4372 236.724 27.1774 236.583 26.9541C236.442 26.7308 236.243 26.5576 235.988 26.4346C235.738 26.307 235.444 26.2432 235.106 26.2432C234.769 26.2432 234.473 26.307 234.218 26.4346C233.963 26.5576 233.764 26.7308 233.623 26.9541C233.482 27.1774 233.411 27.4372 233.411 27.7334C233.411 28.0205 233.482 28.2757 233.623 28.499C233.769 28.7178 233.967 28.8887 234.218 29.0117C234.473 29.1348 234.769 29.1963 235.106 29.1963ZM248.717 30.9189V33.4688C249.25 33.4232 249.64 33.2865 249.886 33.0586C250.136 32.8307 250.262 32.5482 250.262 32.2109C250.262 31.9922 250.214 31.8053 250.118 31.6504C250.027 31.4909 249.868 31.3542 249.64 31.2402C249.416 31.1217 249.109 31.0146 248.717 30.9189ZM247.917 29.1211V26.6738C247.457 26.7331 247.106 26.8743 246.864 27.0977C246.627 27.321 246.509 27.5785 246.509 27.8701C246.509 28.1663 246.618 28.417 246.837 28.6221C247.056 28.8226 247.416 28.9889 247.917 29.1211ZM248.717 29.3057L249.1 29.3945C249.71 29.5312 250.223 29.7113 250.638 29.9346C251.057 30.1579 251.374 30.4404 251.588 30.7822C251.802 31.124 251.909 31.5433 251.909 32.04C251.909 32.4639 251.829 32.8421 251.67 33.1748C251.51 33.5075 251.285 33.7946 250.993 34.0361C250.706 34.2731 250.369 34.4622 249.981 34.6035C249.594 34.7402 249.173 34.8245 248.717 34.8564V35.9775H247.917V34.8564C247.466 34.8245 247.047 34.7402 246.659 34.6035C246.272 34.4668 245.932 34.2799 245.641 34.043C245.349 33.806 245.119 33.5234 244.95 33.1953C244.786 32.8672 244.697 32.4935 244.684 32.0742H246.276C246.336 32.4479 246.495 32.7601 246.755 33.0107C247.019 33.2568 247.407 33.4072 247.917 33.4619V30.7344L247.568 30.6523C246.693 30.4518 246.021 30.1419 245.552 29.7227C245.087 29.3034 244.854 28.736 244.854 28.0205C244.854 27.4919 244.984 27.0316 245.244 26.6396C245.508 26.2432 245.871 25.9287 246.331 25.6963C246.796 25.4639 247.325 25.3249 247.917 25.2793V24.1445H248.717V25.2793C249.314 25.3249 249.838 25.4684 250.289 25.71C250.745 25.9469 251.103 26.266 251.362 26.667C251.627 27.0635 251.77 27.5238 251.793 28.0479H250.2C250.155 27.6468 249.997 27.3324 249.729 27.1045C249.464 26.8766 249.127 26.7354 248.717 26.6807V29.3057ZM256.318 30.6113V29.2646H257.521C257.859 29.2646 258.155 29.2008 258.41 29.0732C258.67 28.9456 258.87 28.7702 259.012 28.5469C259.158 28.319 259.23 28.0592 259.23 27.7676C259.23 27.4987 259.164 27.2549 259.032 27.0361C258.9 26.8174 258.709 26.6442 258.458 26.5166C258.212 26.389 257.913 26.3252 257.562 26.3252C257.025 26.3252 256.596 26.4574 256.277 26.7217C255.958 26.9814 255.781 27.3551 255.744 27.8428H254.09C254.122 27.264 254.284 26.7536 254.575 26.3115C254.871 25.8649 255.279 25.5163 255.799 25.2656C256.323 25.015 256.943 24.8896 257.658 24.8896C258.182 24.8896 258.647 24.9603 259.053 25.1016C259.463 25.2383 259.807 25.4297 260.085 25.6758C260.363 25.9219 260.573 26.2044 260.714 26.5234C260.86 26.8379 260.933 27.1729 260.933 27.5283C260.933 27.9248 260.855 28.2757 260.7 28.5811C260.545 28.8864 260.333 29.1416 260.064 29.3467C259.796 29.5472 259.486 29.693 259.135 29.7842V29.9004C259.581 29.9688 259.966 30.1077 260.29 30.3174C260.618 30.527 260.871 30.8005 261.049 31.1377C261.227 31.4749 261.315 31.8669 261.315 32.3135C261.315 32.7373 261.222 33.1292 261.035 33.4893C260.853 33.8447 260.593 34.1546 260.256 34.4189C259.919 34.6833 259.524 34.8861 259.073 35.0273C258.622 35.1732 258.13 35.2461 257.597 35.2461C257.059 35.2461 256.569 35.1755 256.127 35.0342C255.685 34.8929 255.3 34.6924 254.972 34.4326C254.648 34.1729 254.393 33.8607 254.206 33.4961C254.024 33.1315 253.921 32.7236 253.898 32.2725H255.587C255.614 32.5778 255.712 32.8421 255.881 33.0654C256.049 33.2842 256.28 33.4551 256.571 33.5781C256.863 33.7012 257.198 33.7627 257.576 33.7627C257.954 33.7627 258.289 33.6966 258.581 33.5645C258.873 33.4323 259.101 33.2477 259.265 33.0107C259.429 32.7738 259.511 32.498 259.511 32.1836C259.511 31.7005 259.338 31.3177 258.991 31.0352C258.645 30.7526 258.166 30.6113 257.556 30.6113H256.318ZM266.941 35.2393C266.372 35.2393 265.845 35.1344 265.362 34.9248C264.884 34.7152 264.467 34.4007 264.111 33.9814C263.76 33.5576 263.487 33.029 263.291 32.3955C263.095 31.762 262.997 31.0215 262.997 30.1738C262.997 29.3444 263.088 28.6038 263.271 27.9521C263.457 27.3005 263.724 26.7467 264.07 26.291C264.417 25.8353 264.836 25.4889 265.328 25.252C265.82 25.0104 266.372 24.8896 266.982 24.8896C267.616 24.8896 268.179 25.0036 268.671 25.2314C269.163 25.4548 269.564 25.7669 269.874 26.168C270.188 26.569 270.387 27.0361 270.469 27.5693H268.705C268.618 27.1911 268.425 26.8971 268.124 26.6875C267.823 26.4733 267.454 26.3662 267.017 26.3662C266.287 26.3662 265.718 26.6761 265.308 27.2959C264.897 27.9111 264.69 28.8021 264.686 29.9688H264.802C265.034 29.5039 265.371 29.1439 265.813 28.8887C266.26 28.6289 266.775 28.499 267.358 28.499C267.828 28.499 268.258 28.5811 268.65 28.7451C269.047 28.9046 269.391 29.1325 269.683 29.4287C269.974 29.7204 270.2 30.0667 270.359 30.4678C270.523 30.8643 270.605 31.2995 270.605 31.7734C270.605 32.2793 270.514 32.7441 270.332 33.168C270.154 33.5918 269.901 33.9587 269.573 34.2686C269.25 34.5785 268.865 34.8177 268.418 34.9863C267.971 35.1549 267.479 35.2393 266.941 35.2393ZM266.928 33.7695C267.297 33.7695 267.627 33.6852 267.919 33.5166C268.215 33.3434 268.448 33.111 268.616 32.8193C268.789 32.5231 268.876 32.1904 268.876 31.8213C268.876 31.443 268.794 31.1081 268.63 30.8164C268.466 30.5202 268.238 30.29 267.946 30.126C267.655 29.9574 267.317 29.873 266.935 29.873C266.552 29.873 266.212 29.9551 265.916 30.1191C265.624 30.2832 265.394 30.5111 265.226 30.8027C265.062 31.0898 264.979 31.418 264.979 31.7871C264.979 32.1608 265.064 32.498 265.232 32.7988C265.406 33.0996 265.638 33.3366 265.93 33.5098C266.226 33.6829 266.559 33.7695 266.928 33.7695ZM272.902 25.1289H274.796L274.639 31.7393H273.06L272.902 25.1289ZM273.853 35.1777C273.506 35.1777 273.23 35.0798 273.025 34.8838C272.82 34.6833 272.718 34.4189 272.718 34.0908C272.718 33.7581 272.82 33.4938 273.025 33.2979C273.23 33.0973 273.506 32.9971 273.853 32.9971C274.199 32.9971 274.475 33.0973 274.68 33.2979C274.885 33.4938 274.987 33.7581 274.987 34.0908C274.987 34.4189 274.885 34.6833 274.68 34.8838C274.475 35.0798 274.199 35.1777 273.853 35.1777Z" fill="#111113"/>
<path d="M211.516 30.5156H239.83V31.6709H211.516V30.5156Z" fill="#111113"/>
<path opacity="0.75" d="M95.3936 45.9033C96.0954 45.9033 96.7243 46.0241 97.2803 46.2656C97.8408 46.5026 98.3171 46.8467 98.709 47.2979C99.1009 47.749 99.3994 48.2913 99.6045 48.9248C99.8141 49.5583 99.9189 50.2715 99.9189 51.0645C99.9189 51.8529 99.8141 52.5661 99.6045 53.2041C99.3994 53.8376 99.1009 54.3799 98.709 54.8311C98.3216 55.2822 97.8477 55.6286 97.2871 55.8701C96.7266 56.1117 96.0954 56.2324 95.3936 56.2324C94.6872 56.2324 94.0537 56.1117 93.4932 55.8701C92.9326 55.6286 92.4564 55.2822 92.0645 54.8311C91.6771 54.3799 91.3809 53.8376 91.1758 53.2041C90.9707 52.5661 90.8682 51.8529 90.8682 51.0645C90.8682 50.2715 90.973 49.5583 91.1826 48.9248C91.3923 48.2868 91.693 47.7445 92.085 47.2979C92.4769 46.8467 92.9508 46.5026 93.5068 46.2656C94.0674 46.0241 94.6963 45.9033 95.3936 45.9033ZM95.3936 47.0381C94.7236 47.0381 94.1449 47.2021 93.6572 47.5303C93.1696 47.8584 92.7936 48.3255 92.5293 48.9316C92.265 49.5332 92.1328 50.2441 92.1328 51.0645C92.1328 51.8802 92.2604 52.5911 92.5156 53.1973C92.7754 53.7988 93.1491 54.266 93.6367 54.5986C94.1243 54.9313 94.71 55.0977 95.3936 55.0977C96.068 55.0977 96.6491 54.9313 97.1367 54.5986C97.6243 54.266 97.998 53.7988 98.2578 53.1973C98.5221 52.5911 98.6543 51.8802 98.6543 51.0645C98.6543 50.2441 98.5221 49.5332 98.2578 48.9316C97.9935 48.3255 97.6175 47.8584 97.1299 47.5303C96.6468 47.2021 96.068 47.0381 95.3936 47.0381ZM101.901 56V48.6309H103.022V49.7246H103.132C103.205 49.4876 103.339 49.278 103.535 49.0957C103.736 48.9089 103.977 48.763 104.26 48.6582C104.547 48.5534 104.852 48.501 105.176 48.501C105.271 48.501 105.374 48.5055 105.483 48.5146C105.593 48.5192 105.686 48.526 105.764 48.5352V49.7109C105.732 49.7018 105.67 49.6927 105.579 49.6836C105.488 49.6699 105.39 49.6608 105.285 49.6562C105.18 49.6471 105.089 49.6426 105.012 49.6426C104.638 49.6426 104.305 49.7201 104.014 49.875C103.722 50.0299 103.492 50.2419 103.323 50.5107C103.159 50.7796 103.077 51.0872 103.077 51.4336V56H101.901ZM107.261 56V48.6309H108.437V56H107.261ZM107.849 47.209C107.698 47.209 107.559 47.1725 107.432 47.0996C107.309 47.0267 107.211 46.9287 107.138 46.8057C107.065 46.6781 107.028 46.5391 107.028 46.3887C107.028 46.2383 107.065 46.1016 107.138 45.9785C107.211 45.8509 107.309 45.7507 107.432 45.6777C107.559 45.6048 107.698 45.5684 107.849 45.5684C107.999 45.5684 108.136 45.6048 108.259 45.6777C108.386 45.7507 108.487 45.8509 108.56 45.9785C108.632 46.1016 108.669 46.2383 108.669 46.3887C108.669 46.5391 108.632 46.6781 108.56 46.8057C108.487 46.9287 108.386 47.0267 108.259 47.0996C108.136 47.1725 107.999 47.209 107.849 47.209ZM113.659 54.8516C114.115 54.8516 114.505 54.7422 114.828 54.5234C115.156 54.3047 115.407 53.9971 115.58 53.6006C115.758 53.2041 115.847 52.7393 115.847 52.2061C115.847 51.6729 115.758 51.208 115.58 50.8115C115.407 50.415 115.156 50.1074 114.828 49.8887C114.505 49.6699 114.115 49.5605 113.659 49.5605C113.203 49.5605 112.816 49.6699 112.497 49.8887C112.183 50.1074 111.941 50.415 111.772 50.8115C111.608 51.208 111.526 51.6729 111.526 52.2061C111.526 52.7393 111.608 53.2041 111.772 53.6006C111.941 53.9971 112.183 54.3047 112.497 54.5234C112.816 54.7422 113.203 54.8516 113.659 54.8516ZM113.714 58.8301C113.121 58.8301 112.604 58.7458 112.162 58.5771C111.72 58.4131 111.367 58.1784 111.103 57.873C110.843 57.5723 110.683 57.2191 110.624 56.8135H111.868C111.932 57.1143 112.123 57.3535 112.442 57.5312C112.761 57.7135 113.185 57.8047 113.714 57.8047C114.375 57.8047 114.89 57.6497 115.259 57.3398C115.632 57.0345 115.819 56.6107 115.819 56.0684V54.6191H115.71C115.478 55.0247 115.161 55.3392 114.76 55.5625C114.359 55.7812 113.905 55.8906 113.399 55.8906C112.761 55.8906 112.212 55.738 111.752 55.4326C111.292 55.1227 110.936 54.6921 110.686 54.1406C110.435 53.5846 110.31 52.9398 110.31 52.2061C110.31 51.6546 110.38 51.1533 110.521 50.7021C110.667 50.2464 110.875 49.8545 111.144 49.5264C111.412 49.1982 111.736 48.9453 112.114 48.7676C112.497 48.5898 112.925 48.501 113.399 48.501C113.746 48.501 114.072 48.5557 114.377 48.665C114.682 48.7699 114.953 48.9202 115.19 49.1162C115.432 49.3076 115.623 49.5355 115.765 49.7998H115.874V48.6309H116.995V56.1299C116.995 56.6813 116.861 57.1576 116.592 57.5586C116.323 57.9642 115.942 58.2764 115.45 58.4951C114.963 58.7184 114.384 58.8301 113.714 58.8301ZM119.237 56V48.6309H120.413V56H119.237ZM119.825 47.209C119.675 47.209 119.536 47.1725 119.408 47.0996C119.285 47.0267 119.187 46.9287 119.114 46.8057C119.041 46.6781 119.005 46.5391 119.005 46.3887C119.005 46.2383 119.041 46.1016 119.114 45.9785C119.187 45.8509 119.285 45.7507 119.408 45.6777C119.536 45.6048 119.675 45.5684 119.825 45.5684C119.976 45.5684 120.112 45.6048 120.235 45.6777C120.363 45.7507 120.463 45.8509 120.536 45.9785C120.609 46.1016 120.646 46.2383 120.646 46.3887C120.646 46.5391 120.609 46.6781 120.536 46.8057C120.463 46.9287 120.363 47.0267 120.235 47.0996C120.112 47.1725 119.976 47.209 119.825 47.209ZM122.655 56V48.6309H123.776V49.793H123.886C124.068 49.3874 124.341 49.0706 124.706 48.8428C125.071 48.6149 125.535 48.501 126.101 48.501C126.93 48.501 127.566 48.738 128.008 49.2119C128.454 49.6813 128.678 50.3535 128.678 51.2285V56H127.502V51.5156C127.502 50.8503 127.358 50.3581 127.071 50.0391C126.789 49.7201 126.354 49.5605 125.766 49.5605C125.374 49.5605 125.032 49.6449 124.74 49.8135C124.453 49.9775 124.23 50.2168 124.07 50.5312C123.911 50.8411 123.831 51.2103 123.831 51.6387V56H122.655ZM133.101 55.0977C133.502 55.0977 133.862 55.0179 134.181 54.8584C134.5 54.6943 134.75 54.4733 134.933 54.1953C135.115 53.9173 135.206 53.6029 135.206 53.252V52.5752L133.224 52.7051C132.663 52.7415 132.253 52.86 131.993 53.0605C131.738 53.2565 131.61 53.5391 131.61 53.9082C131.61 54.1589 131.674 54.373 131.802 54.5508C131.934 54.7285 132.112 54.8652 132.335 54.9609C132.563 55.0521 132.818 55.0977 133.101 55.0977ZM132.882 56.1299C132.408 56.1299 131.982 56.041 131.604 55.8633C131.23 55.6855 130.934 55.4326 130.715 55.1045C130.501 54.7718 130.394 54.3822 130.394 53.9355C130.394 53.2747 130.626 52.7598 131.091 52.3906C131.56 52.0169 132.223 51.805 133.08 51.7549L135.206 51.625V50.9551C135.206 50.4993 135.065 50.1507 134.782 49.9092C134.504 49.6676 134.09 49.5469 133.538 49.5469C133.096 49.5469 132.729 49.6266 132.438 49.7861C132.146 49.9456 131.959 50.1712 131.877 50.4629H130.688C130.738 50.071 130.893 49.7269 131.152 49.4307C131.412 49.1344 131.749 48.9066 132.164 48.7471C132.583 48.583 133.055 48.501 133.579 48.501C134.181 48.501 134.689 48.599 135.104 48.7949C135.523 48.9909 135.84 49.2734 136.054 49.6426C136.272 50.0072 136.382 50.4447 136.382 50.9551V56H135.261V54.9131H135.151C134.914 55.305 134.6 55.6058 134.208 55.8154C133.816 56.0251 133.374 56.1299 132.882 56.1299ZM138.624 56V45.7051H139.8V56H138.624ZM149.623 48.501C150.247 48.501 150.792 48.6582 151.257 48.9727C151.722 49.2871 152.082 49.7314 152.337 50.3057C152.592 50.8753 152.72 51.5452 152.72 52.3154C152.72 52.8896 152.647 53.4115 152.501 53.8809C152.355 54.3503 152.146 54.7536 151.872 55.0908C151.603 55.4235 151.277 55.681 150.895 55.8633C150.516 56.041 150.092 56.1299 149.623 56.1299C149.099 56.1299 148.634 56.0228 148.229 55.8086C147.823 55.5898 147.52 55.2845 147.319 54.8926H147.21V58.4609H146.034V48.6309H147.155V49.8613H147.265C147.502 49.4375 147.827 49.1048 148.242 48.8633C148.661 48.6217 149.122 48.501 149.623 48.501ZM149.343 55.0703C149.794 55.0703 150.179 54.9609 150.498 54.7422C150.822 54.5234 151.07 54.209 151.243 53.7988C151.416 53.3841 151.503 52.8896 151.503 52.3154C151.503 51.7412 151.416 51.249 151.243 50.8389C151.075 50.4242 150.828 50.1074 150.505 49.8887C150.186 49.6699 149.801 49.5605 149.35 49.5605C148.908 49.5605 148.522 49.6722 148.194 49.8955C147.871 50.1188 147.62 50.4378 147.442 50.8525C147.265 51.2627 147.176 51.7503 147.176 52.3154C147.176 52.876 147.265 53.3636 147.442 53.7783C147.62 54.1885 147.871 54.5075 148.194 54.7354C148.518 54.9587 148.901 55.0703 149.343 55.0703ZM154.565 56V48.6309H155.687V49.7246H155.796C155.869 49.4876 156.003 49.278 156.199 49.0957C156.4 48.9089 156.641 48.763 156.924 48.6582C157.211 48.5534 157.516 48.501 157.84 48.501C157.936 48.501 158.038 48.5055 158.147 48.5146C158.257 48.5192 158.35 48.526 158.428 48.5352V49.7109C158.396 49.7018 158.334 49.6927 158.243 49.6836C158.152 49.6699 158.054 49.6608 157.949 49.6562C157.844 49.6471 157.753 49.6426 157.676 49.6426C157.302 49.6426 156.969 49.7201 156.678 49.875C156.386 50.0299 156.156 50.2419 155.987 50.5107C155.823 50.7796 155.741 51.0872 155.741 51.4336V56H154.565ZM159.925 56V48.6309H161.101V56H159.925ZM160.513 47.209C160.362 47.209 160.223 47.1725 160.096 47.0996C159.973 47.0267 159.875 46.9287 159.802 46.8057C159.729 46.6781 159.692 46.5391 159.692 46.3887C159.692 46.2383 159.729 46.1016 159.802 45.9785C159.875 45.8509 159.973 45.7507 160.096 45.6777C160.223 45.6048 160.362 45.5684 160.513 45.5684C160.663 45.5684 160.8 45.6048 160.923 45.6777C161.05 45.7507 161.151 45.8509 161.224 45.9785C161.297 46.1016 161.333 46.2383 161.333 46.3887C161.333 46.5391 161.297 46.6781 161.224 46.8057C161.151 46.9287 161.05 47.0267 160.923 47.0996C160.8 47.1725 160.663 47.209 160.513 47.209ZM169.44 50.8867H168.251C168.187 50.6406 168.073 50.4173 167.909 50.2168C167.745 50.0163 167.533 49.8568 167.273 49.7383C167.014 49.6198 166.706 49.5605 166.351 49.5605C165.909 49.5605 165.526 49.6722 165.202 49.8955C164.879 50.1188 164.628 50.4355 164.45 50.8457C164.277 51.2513 164.19 51.7321 164.19 52.2881C164.19 52.8577 164.279 53.3499 164.457 53.7646C164.635 54.1794 164.885 54.5007 165.209 54.7285C165.533 54.9564 165.913 55.0703 166.351 55.0703C166.847 55.0703 167.26 54.9587 167.588 54.7354C167.921 54.512 168.142 54.193 168.251 53.7783H169.44C169.368 54.2295 169.201 54.6328 168.941 54.9883C168.682 55.3438 168.333 55.624 167.896 55.8291C167.458 56.0296 166.945 56.1299 166.357 56.1299C165.669 56.1299 165.072 55.9727 164.566 55.6582C164.061 55.3438 163.669 54.8994 163.391 54.3252C163.113 53.7464 162.974 53.0674 162.974 52.2881C162.974 51.7139 163.051 51.1943 163.206 50.7295C163.366 50.2646 163.591 49.8659 163.883 49.5332C164.179 49.2005 164.535 48.9453 164.949 48.7676C165.368 48.5898 165.836 48.501 166.351 48.501C166.948 48.501 167.465 48.6104 167.902 48.8291C168.34 49.0433 168.688 49.3304 168.948 49.6904C169.208 50.0505 169.372 50.4492 169.44 50.8867ZM174.116 49.54C173.724 49.54 173.376 49.6312 173.07 49.8135C172.77 49.9912 172.528 50.2419 172.346 50.5654C172.168 50.889 172.063 51.2695 172.031 51.707H176.092C176.083 51.2695 175.994 50.889 175.825 50.5654C175.661 50.2419 175.433 49.9912 175.142 49.8135C174.85 49.6312 174.508 49.54 174.116 49.54ZM176.058 54.0928H177.233C177.119 54.512 176.919 54.8743 176.632 55.1797C176.349 55.485 175.996 55.7197 175.572 55.8838C175.148 56.0479 174.668 56.1299 174.13 56.1299C173.446 56.1299 172.856 55.9749 172.359 55.665C171.863 55.3551 171.48 54.9154 171.211 54.3457C170.942 53.7715 170.808 53.097 170.808 52.3223C170.808 51.7435 170.885 51.2194 171.04 50.75C171.195 50.2806 171.418 49.8796 171.71 49.5469C172.002 49.2096 172.35 48.9521 172.756 48.7744C173.166 48.5921 173.624 48.501 174.13 48.501C174.795 48.501 175.365 48.6514 175.839 48.9521C176.317 49.2484 176.684 49.6745 176.939 50.2305C177.199 50.7865 177.329 51.445 177.329 52.2061V52.6572H172.031V52.7119C172.054 53.1995 172.154 53.6211 172.332 53.9766C172.51 54.332 172.754 54.6077 173.063 54.8037C173.373 54.9951 173.738 55.0908 174.157 55.0908C174.631 55.0908 175.028 55.0065 175.347 54.8379C175.666 54.6647 175.903 54.4163 176.058 54.0928ZM183.153 56V48.6309H184.329V56H183.153ZM183.741 47.209C183.591 47.209 183.452 47.1725 183.324 47.0996C183.201 47.0267 183.103 46.9287 183.03 46.8057C182.957 46.6781 182.921 46.5391 182.921 46.3887C182.921 46.2383 182.957 46.1016 183.03 45.9785C183.103 45.8509 183.201 45.7507 183.324 45.6777C183.452 45.6048 183.591 45.5684 183.741 45.5684C183.892 45.5684 184.028 45.6048 184.151 45.6777C184.279 45.7507 184.379 45.8509 184.452 45.9785C184.525 46.1016 184.562 46.2383 184.562 46.3887C184.562 46.5391 184.525 46.6781 184.452 46.8057C184.379 46.9287 184.279 47.0267 184.151 47.0996C184.028 47.1725 183.892 47.209 183.741 47.209ZM186.4 50.6475C186.4 50.3421 186.469 50.0596 186.605 49.7998C186.747 49.5355 186.94 49.3076 187.187 49.1162C187.437 48.9202 187.729 48.7699 188.062 48.665C188.394 48.5557 188.757 48.501 189.148 48.501C189.663 48.501 190.119 48.583 190.516 48.7471C190.917 48.9066 191.238 49.1344 191.479 49.4307C191.726 49.7269 191.874 50.0755 191.924 50.4766H190.762C190.684 50.1849 190.507 49.9502 190.229 49.7725C189.951 49.5902 189.588 49.499 189.142 49.499C188.85 49.499 188.586 49.5469 188.349 49.6426C188.116 49.7337 187.929 49.8613 187.788 50.0254C187.651 50.1895 187.583 50.3809 187.583 50.5996C187.583 50.8548 187.688 51.0645 187.897 51.2285C188.107 51.3926 188.428 51.527 188.861 51.6318L189.996 51.9053C190.689 52.0739 191.204 52.3177 191.541 52.6367C191.883 52.9512 192.054 53.3727 192.054 53.9014C192.054 54.2295 191.979 54.5303 191.828 54.8037C191.682 55.0771 191.475 55.3141 191.206 55.5146C190.937 55.7106 190.623 55.8633 190.263 55.9727C189.907 56.0775 189.52 56.1299 189.101 56.1299C188.554 56.1299 188.071 56.0479 187.651 55.8838C187.232 55.7197 186.897 55.4873 186.646 55.1865C186.396 54.8812 186.248 54.5257 186.202 54.1201H187.412C187.512 54.43 187.706 54.6784 187.993 54.8652C188.285 55.0475 188.668 55.1387 189.142 55.1387C189.47 55.1387 189.761 55.0908 190.017 54.9951C190.276 54.8949 190.479 54.7604 190.625 54.5918C190.771 54.4186 190.844 54.2181 190.844 53.9902C190.844 53.4889 190.454 53.1426 189.675 52.9512L188.41 52.6436C187.722 52.4749 187.214 52.2334 186.886 51.9189C186.562 51.6045 186.4 51.1807 186.4 50.6475ZM201.706 51.6729V54.7422C202.13 54.7103 202.469 54.626 202.725 54.4893C202.984 54.348 203.174 54.1702 203.292 53.9561C203.41 53.7419 203.47 53.5026 203.47 53.2383C203.47 52.9876 203.42 52.7666 203.319 52.5752C203.219 52.3792 203.044 52.2083 202.793 52.0625C202.547 51.9167 202.198 51.7891 201.747 51.6797L201.706 51.6729ZM200.886 50.3125V47.4072C200.539 47.4528 200.248 47.5462 200.011 47.6875C199.778 47.8288 199.601 48.002 199.478 48.207C199.359 48.4076 199.3 48.6172 199.3 48.8359C199.3 49.1732 199.416 49.4671 199.648 49.7178C199.885 49.9684 200.298 50.1667 200.886 50.3125ZM201.706 50.5107L201.918 50.5586C202.506 50.6999 203.003 50.8799 203.408 51.0986C203.818 51.3174 204.128 51.5931 204.338 51.9258C204.552 52.2585 204.659 52.6641 204.659 53.1426C204.659 53.5527 204.582 53.9173 204.427 54.2363C204.272 54.5553 204.058 54.8265 203.784 55.0498C203.515 55.2686 203.201 55.4417 202.841 55.5693C202.485 55.6969 202.107 55.7767 201.706 55.8086V56.9912H200.886V55.8018C200.48 55.7653 200.097 55.6787 199.737 55.542C199.377 55.4053 199.058 55.223 198.78 54.9951C198.507 54.7673 198.288 54.4938 198.124 54.1748C197.965 53.8558 197.878 53.498 197.864 53.1016H199.054C199.095 53.3841 199.184 53.6416 199.32 53.874C199.457 54.1064 199.653 54.2979 199.908 54.4482C200.168 54.5986 200.494 54.6943 200.886 54.7354V51.4746L200.729 51.4336C199.876 51.2285 199.227 50.9277 198.78 50.5312C198.334 50.1302 198.11 49.5924 198.11 48.918C198.11 48.4258 198.229 47.9951 198.466 47.626C198.703 47.2568 199.031 46.9606 199.45 46.7373C199.869 46.514 200.348 46.3796 200.886 46.334V45.1445H201.706V46.3271C202.103 46.3636 202.469 46.4525 202.807 46.5938C203.148 46.7305 203.449 46.9128 203.709 47.1406C203.969 47.3685 204.172 47.6374 204.317 47.9473C204.468 48.2572 204.55 48.6012 204.563 48.9795H203.374C203.328 48.5192 203.153 48.1569 202.848 47.8926C202.547 47.6237 202.166 47.4596 201.706 47.4004V50.5107ZM210.073 56.2256C209.517 56.2256 209.014 56.123 208.562 55.918C208.111 55.7129 207.738 55.4235 207.441 55.0498C207.145 54.6715 206.945 54.2227 206.84 53.7031H208.104C208.232 54.1497 208.474 54.5007 208.829 54.7559C209.185 55.0065 209.604 55.1318 210.087 55.1318C210.889 55.1318 211.511 54.7855 211.953 54.0928C212.395 53.4001 212.634 52.3975 212.671 51.085H212.562C212.32 51.5635 211.969 51.9372 211.509 52.2061C211.049 52.4704 210.524 52.6025 209.937 52.6025C209.467 52.6025 209.034 52.5205 208.638 52.3564C208.246 52.1924 207.904 51.9645 207.612 51.6729C207.321 51.3766 207.095 51.028 206.936 50.627C206.776 50.2214 206.696 49.7793 206.696 49.3008C206.696 48.804 206.781 48.3483 206.949 47.9336C207.118 47.5189 207.357 47.1611 207.667 46.8604C207.977 46.555 208.341 46.3203 208.761 46.1562C209.185 45.9876 209.649 45.9033 210.155 45.9033C210.688 45.9033 211.181 46.0059 211.632 46.2109C212.083 46.416 212.475 46.7259 212.808 47.1406C213.145 47.5553 213.405 48.0749 213.587 48.6992C213.774 49.3236 213.867 50.055 213.867 50.8936C213.867 52.0238 213.719 52.9876 213.423 53.7852C213.127 54.5781 212.694 55.1842 212.124 55.6035C211.559 56.0182 210.875 56.2256 210.073 56.2256ZM210.155 51.5361C210.593 51.5361 210.98 51.4404 211.317 51.249C211.655 51.0576 211.919 50.7956 212.11 50.4629C212.302 50.1257 212.397 49.7383 212.397 49.3008C212.397 48.9727 212.34 48.6673 212.227 48.3848C212.117 48.1022 211.96 47.8561 211.755 47.6465C211.554 47.4368 211.317 47.2751 211.044 47.1611C210.775 47.0426 210.483 46.9834 210.169 46.9834C209.854 46.9834 209.561 47.0404 209.287 47.1543C209.018 47.2682 208.781 47.43 208.576 47.6396C208.376 47.8447 208.218 48.0863 208.104 48.3643C207.995 48.6377 207.94 48.9362 207.94 49.2598C207.94 49.7064 208.034 50.1029 208.221 50.4492C208.408 50.791 208.667 51.0576 209 51.249C209.333 51.4404 209.718 51.5361 210.155 51.5361ZM219.165 56.2324C218.422 56.2324 217.791 56.0296 217.271 55.624C216.752 55.2184 216.353 54.6305 216.075 53.8604C215.802 53.0902 215.665 52.1582 215.665 51.0645C215.665 49.9798 215.802 49.0524 216.075 48.2822C216.353 47.512 216.754 46.9242 217.278 46.5186C217.802 46.1084 218.431 45.9033 219.165 45.9033C219.894 45.9033 220.519 46.1084 221.038 46.5186C221.562 46.9287 221.961 47.5212 222.234 48.2959C222.512 49.0661 222.651 49.9958 222.651 51.085C222.651 52.1742 222.515 53.1038 222.241 53.874C221.968 54.6396 221.571 55.2253 221.052 55.6309C220.532 56.0319 219.903 56.2324 219.165 56.2324ZM219.165 55.1592C219.894 55.1592 220.45 54.8083 220.833 54.1064C221.22 53.4001 221.414 52.3861 221.414 51.0645C221.414 49.7565 221.218 48.7493 220.826 48.043C220.439 47.3366 219.885 46.9834 219.165 46.9834C218.682 46.9834 218.272 47.1429 217.935 47.4619C217.602 47.7809 217.347 48.2458 217.169 48.8564C216.991 49.4626 216.902 50.1986 216.902 51.0645C216.902 52.3861 217.096 53.4001 217.483 54.1064C217.875 54.8083 218.436 55.1592 219.165 55.1592Z" fill="#111113"/>
<path d="M25 2C25 1.44772 25.4477 1 26 1H72C72.5523 1 73 1.44772 73 2V58.7798C73 60.5463 71.8413 62.1036 70.1494 62.6112L50.1494 68.6112C49.3996 68.8361 48.6004 68.8361 47.8506 68.6112L27.8506 62.6112C26.1587 62.1036 25 60.5463 25 58.7798V2Z" fill="#5773D6" stroke="url(#paint0_linear_303_9162)" stroke-width="2"/>
<path d="M38.124 32.2529C37.5316 32.2529 36.987 32.1481 36.4902 31.9385C35.9935 31.7243 35.5605 31.4053 35.1914 30.9814C34.8268 30.5576 34.5443 30.0267 34.3438 29.3887C34.1432 28.7461 34.043 27.9964 34.043 27.1396C34.043 26.3193 34.1364 25.5856 34.3232 24.9385C34.5146 24.2913 34.7881 23.7399 35.1436 23.2842C35.5036 22.8285 35.9365 22.4821 36.4424 22.2451C36.9482 22.0036 37.5156 21.8828 38.1445 21.8828C38.6322 21.8828 39.0811 21.9512 39.4912 22.0879C39.9059 22.2201 40.2728 22.4092 40.5918 22.6553C40.9108 22.9014 41.1706 23.1953 41.3711 23.5371C41.5762 23.8743 41.7083 24.248 41.7676 24.6582H39.7236C39.6462 24.321 39.4684 24.0566 39.1904 23.8652C38.9124 23.6738 38.5729 23.5781 38.1719 23.5781C37.7161 23.5781 37.3265 23.7103 37.0029 23.9746C36.6839 24.2344 36.4378 24.6149 36.2646 25.1162C36.096 25.613 36.0117 26.2168 36.0117 26.9277H36.1348C36.3581 26.4674 36.6885 26.112 37.126 25.8613C37.568 25.6107 38.0762 25.4854 38.6504 25.4854C39.1198 25.4854 39.5505 25.5674 39.9424 25.7314C40.3389 25.891 40.6829 26.1188 40.9746 26.415C41.2663 26.7067 41.4919 27.0508 41.6514 27.4473C41.8154 27.8438 41.8975 28.2767 41.8975 28.7461C41.8975 29.2565 41.804 29.7259 41.6172 30.1543C41.4349 30.5827 41.1751 30.9541 40.8379 31.2686C40.5007 31.583 40.1019 31.8268 39.6416 32C39.1813 32.1686 38.6755 32.2529 38.124 32.2529ZM38.1035 30.5576C38.4453 30.5576 38.7507 30.4801 39.0195 30.3252C39.2884 30.1702 39.5003 29.9606 39.6553 29.6963C39.8148 29.4274 39.8945 29.1266 39.8945 28.7939C39.8945 28.4521 39.8193 28.1491 39.6689 27.8848C39.5186 27.6204 39.3089 27.4131 39.04 27.2627C38.7757 27.1123 38.4658 27.0371 38.1104 27.0371C37.7549 27.0371 37.4427 27.1123 37.1738 27.2627C36.9049 27.4131 36.6953 27.6182 36.5449 27.8779C36.3945 28.1377 36.3193 28.4339 36.3193 28.7666C36.3193 29.1038 36.3968 29.4092 36.5518 29.6826C36.7067 29.9515 36.9186 30.1657 37.1875 30.3252C37.4564 30.4801 37.7617 30.5576 38.1035 30.5576ZM47.5645 32.2529C46.7487 32.2529 46.0492 32.0479 45.4658 31.6377C44.8825 31.223 44.4336 30.6283 44.1191 29.8535C43.8047 29.0742 43.6475 28.14 43.6475 27.0508C43.6475 25.9616 43.8047 25.0319 44.1191 24.2617C44.4382 23.4915 44.8893 22.9036 45.4727 22.498C46.0605 22.0879 46.7578 21.8828 47.5645 21.8828C48.3711 21.8828 49.0661 22.0879 49.6494 22.498C50.2373 22.9036 50.6885 23.4938 51.0029 24.2686C51.3219 25.0387 51.4814 25.9684 51.4814 27.0576C51.4814 28.1468 51.3242 29.0788 51.0098 29.8535C50.6953 30.6283 50.2464 31.223 49.6631 31.6377C49.0798 32.0479 48.3802 32.2529 47.5645 32.2529ZM47.5645 30.5713C48.1341 30.5713 48.5807 30.2773 48.9043 29.6895C49.2279 29.097 49.3896 28.2174 49.3896 27.0508C49.3896 25.8887 49.2256 25.0182 48.8975 24.4395C48.5739 23.8607 48.1296 23.5713 47.5645 23.5713C47.0039 23.5713 46.5596 23.863 46.2314 24.4463C45.9033 25.0251 45.7393 25.8932 45.7393 27.0508C45.7393 28.2174 45.901 29.097 46.2246 29.6895C46.5527 30.2773 46.9993 30.5713 47.5645 30.5713ZM55.0771 26.7568C54.585 26.7568 54.1634 26.6611 53.8125 26.4697C53.4616 26.2783 53.1927 26.0026 53.0059 25.6426C52.8236 25.2826 52.7324 24.8496 52.7324 24.3438C52.7324 23.8516 52.8258 23.4255 53.0127 23.0654C53.2041 22.7054 53.4753 22.4297 53.8262 22.2383C54.1771 22.0423 54.5941 21.9443 55.0771 21.9443C55.5602 21.9443 55.9772 22.0423 56.3281 22.2383C56.679 22.4297 56.9479 22.7054 57.1348 23.0654C57.3262 23.4209 57.4219 23.847 57.4219 24.3438C57.4219 25.1048 57.2145 25.6973 56.7998 26.1211C56.3896 26.5449 55.8154 26.7568 55.0771 26.7568ZM55.0771 25.5332C55.3278 25.5332 55.5192 25.4307 55.6514 25.2256C55.7881 25.016 55.8564 24.7243 55.8564 24.3506C55.8564 23.986 55.7858 23.6989 55.6445 23.4893C55.5078 23.2796 55.3187 23.1748 55.0771 23.1748C54.8311 23.1748 54.6374 23.2796 54.4961 23.4893C54.3594 23.6989 54.291 23.986 54.291 24.3506C54.291 24.7288 54.3594 25.0205 54.4961 25.2256C54.6328 25.4307 54.8265 25.5332 55.0771 25.5332ZM56.0889 32H54.5098L61.0654 22.1357H62.6445L56.0889 32ZM62.0771 32.1162C61.585 32.1162 61.1634 32.0205 60.8125 31.8291C60.4661 31.6377 60.1995 31.362 60.0127 31.002C59.8258 30.6419 59.7324 30.209 59.7324 29.7031C59.7324 29.2109 59.8258 28.7871 60.0127 28.4316C60.2041 28.0716 60.4753 27.7959 60.8262 27.6045C61.1771 27.4085 61.5941 27.3105 62.0771 27.3105C62.5602 27.3105 62.9772 27.4062 63.3281 27.5977C63.679 27.7891 63.9479 28.0648 64.1348 28.4248C64.3262 28.7803 64.4219 29.2064 64.4219 29.7031C64.4219 30.4642 64.2145 31.0566 63.7998 31.4805C63.3896 31.9043 62.8154 32.1162 62.0771 32.1162ZM62.0771 30.8926C62.3278 30.8926 62.5215 30.79 62.6582 30.585C62.7949 30.3753 62.8633 30.0837 62.8633 29.71C62.8633 29.3454 62.7926 29.0583 62.6514 28.8486C62.5146 28.639 62.3232 28.5342 62.0771 28.5342C61.8311 28.5342 61.6396 28.639 61.5029 28.8486C61.3662 29.0583 61.2979 29.3454 61.2979 29.71C61.2979 30.0882 61.3639 30.3799 61.4961 30.585C61.6328 30.79 61.8265 30.8926 62.0771 30.8926ZM40.626 36.8828C41.3506 36.8828 42.0046 37.0036 42.5879 37.2451C43.1758 37.4821 43.6748 37.8262 44.085 38.2773C44.4997 38.7285 44.8164 39.2731 45.0352 39.9111C45.2585 40.5492 45.3701 41.2669 45.3701 42.0645C45.3701 42.8665 45.2607 43.5866 45.042 44.2246C44.8232 44.8626 44.5065 45.4072 44.0918 45.8584C43.6771 46.3096 43.1781 46.6559 42.5947 46.8975C42.0114 47.1344 41.3551 47.2529 40.626 47.2529C39.8923 47.2529 39.2314 47.1344 38.6436 46.8975C38.0602 46.6559 37.5612 46.3096 37.1465 45.8584C36.7363 45.4072 36.4219 44.8626 36.2031 44.2246C35.9844 43.5866 35.875 42.8665 35.875 42.0645C35.875 41.2624 35.9844 40.5423 36.2031 39.9043C36.4264 39.2663 36.7454 38.724 37.1602 38.2773C37.5749 37.8262 38.0739 37.4821 38.6572 37.2451C39.2451 37.0036 39.9014 36.8828 40.626 36.8828ZM40.626 38.6943C40.0882 38.6943 39.6211 38.8333 39.2246 39.1113C38.8327 39.3848 38.5273 39.7744 38.3086 40.2803C38.0944 40.7816 37.9873 41.3763 37.9873 42.0645C37.9873 42.748 38.0944 43.3428 38.3086 43.8486C38.5228 44.3545 38.8258 44.7464 39.2178 45.0244C39.6143 45.3024 40.0837 45.4414 40.626 45.4414C41.1637 45.4414 41.6286 45.3024 42.0205 45.0244C42.4124 44.7464 42.7155 44.3545 42.9297 43.8486C43.1484 43.3428 43.2578 42.748 43.2578 42.0645C43.2578 41.3763 43.1484 40.7816 42.9297 40.2803C42.7155 39.7744 42.4102 39.3848 42.0137 39.1113C41.6217 38.8333 41.1592 38.6943 40.626 38.6943ZM49.3965 47H47.332V37.1357H53.792V38.8994H49.3965V41.4697H53.4092V43.1582H49.3965V47ZM57.7637 47H55.6992V37.1357H62.1592V38.8994H57.7637V41.4697H61.7764V43.1582H57.7637V47Z" fill="white"/>
<defs>
<linearGradient id="paint0_linear_303_9162" x1="49" y1="0" x2="49" y2="70" gradientUnits="userSpaceOnUse">
<stop stop-color="white" stop-opacity="0"/>
<stop offset="1" stop-color="white"/>
</linearGradient>
</defs>
</svg>
