<svg width="60" height="42" viewBox="0 0 60 42" fill="none" xmlns="http://www.w3.org/2000/svg">
<path fill-rule="evenodd" clip-rule="evenodd" d="M4.05007 0.168237C3.06361 0.41399 2.32518 0.833648 1.58136 1.57137C0.815277 2.33126 0.35216 3.16801 0.13882 4.17796C-0.0476923 5.06067 -0.0455835 36.9481 0.141046 37.8161C0.570187 39.8124 2.21107 41.447 4.20225 41.8621C5.08596 42.0464 54.9191 42.0457 55.7979 41.8614C57.786 41.4446 59.4464 39.792 59.8619 37.8161C60.0478 36.932 60.0451 5.04364 59.8591 4.17796C59.4273 2.16902 57.8047 0.552671 55.7979 0.132547C54.8507 -0.0658519 4.85118 -0.0313276 4.05007 0.168237ZM42.5941 14.8228C36.3439 21.0494 31.0879 26.2193 30.9139 26.3115C30.7398 26.4036 30.3287 26.479 30.0001 26.479C29.6714 26.479 29.2603 26.4036 29.0863 26.3115C28.9123 26.2193 23.6562 21.0494 17.4061 14.8228L6.04218 3.50159H30.0001H53.958L42.5941 14.8228ZM11.1086 28.5491L3.52286 36.1012V20.997V5.89287L11.1086 13.445L18.6943 20.997L11.1086 28.5491ZM56.4773 21.0261V36.1012L48.8917 28.5493L41.3061 20.9973L48.862 13.4741C53.0178 9.33633 56.4314 5.95095 56.4476 5.95095C56.4639 5.95095 56.4773 12.7348 56.4773 21.0261ZM23.899 26.2841C26.4178 28.7654 26.7431 29.0454 27.5923 29.4624L28.5234 29.9197H29.994C31.4529 29.9197 31.4718 29.9162 32.3895 29.48C33.2463 29.0727 33.5205 28.8369 36.1129 26.2764L38.9113 23.5122L46.4347 31.0024L53.9582 38.4925H30.0003H6.04242L13.5397 31.0278C17.6632 26.9222 21.0594 23.5631 21.0869 23.5631C21.1143 23.5631 22.3797 24.7875 23.899 26.2841Z" fill="#E44240"/>
</svg>
