<svg width="72" height="72" viewBox="0 0 72 72" fill="none" xmlns="http://www.w3.org/2000/svg">
<rect width="72" height="72" rx="13.5" fill="#F9F9F9"/>
<path fill-rule="evenodd" clip-rule="evenodd" d="M29.6671 21.3315L29.6856 23.6631L30.2834 23.8637C31.082 24.1318 32.1538 24.6635 32.8857 25.1548C35.3445 26.8053 37.0214 29.1846 37.7402 32.043C39.1851 37.7893 35.9688 43.757 30.3538 45.7481L29.6856 45.985L29.6671 48.3128L29.6486 50.6406H41.3243H53V39.0391V27.4375H48.7802H44.5604V23.2188V19H37.1045H29.6486L29.6671 21.3315ZM46.6703 22.4805V25.3281H49.5359H52.4016L49.5538 22.4805C47.9876 20.9143 46.6981 19.6328 46.6882 19.6328C46.6784 19.6328 46.6703 20.9143 46.6703 22.4805ZM25.501 25.3713C23.9448 25.5625 22.4415 26.1169 21.1406 26.9793C20.462 27.4291 19.0926 28.7982 18.6427 29.4766C16.9685 32.001 16.5544 34.9961 17.4907 37.8086C17.981 39.2813 18.6251 40.318 19.7684 41.4747C21.1854 42.9081 22.8205 43.7832 24.7583 44.145L25.4307 44.2705V49.6353V55H26.4856H27.5406V49.6307V44.2615L28.0856 44.1762C28.3854 44.1292 29.0105 43.9651 29.4747 43.8115C30.9442 43.3252 31.9832 42.6804 33.1417 41.5359C36.4211 38.2957 36.9066 33.3638 34.3286 29.4766C33.866 28.779 32.5035 27.4233 31.7955 26.956C30.7324 26.2543 29.5155 25.7463 28.3098 25.5009C27.7944 25.396 25.9809 25.3123 25.501 25.3713ZM27.5406 33.7656V37.9844H26.4856H25.4307V33.7656V29.5469H26.4856H27.5406V33.7656ZM31.7604 34.8203V37.9844H30.7054H29.6505V34.8203V31.6562H30.7054H31.7604V34.8203ZM47.7253 32.7109V33.7656H43.5055H39.2857V32.7109V31.6562H43.5055H47.7253V32.7109ZM23.3208 35.875V37.9844H22.2658H21.2109V35.875V33.7656H22.2658H23.3208V35.875ZM47.7253 36.9297V37.9844H42.978H40.3406V36.9297V35.875H42.978H47.7253V36.9297ZM47.7253 41.1484V42.2031H42.4505H39.2857V41.1484V40.0938H42.4505H47.7253V41.1484Z" fill="#E44240"/>
</svg>
