<svg width="52" height="52" viewBox="0 0 52 52" fill="none" xmlns="http://www.w3.org/2000/svg">
<rect opacity="0.1" width="52" height="52" rx="26" fill="white"/>
<path d="M26.3427 18.1581C24.3021 18.1581 22.3288 18.8877 20.779 20.2152C19.2292 21.5426 18.2051 23.3804 17.8916 25.3968C17.5781 27.4131 17.9958 29.4751 19.0694 31.2105C20.143 32.9458 21.8017 34.2401 23.7459 34.8597C25.6901 35.4792 27.7918 35.3832 29.6715 34.589C31.5512 33.7948 33.0849 32.3546 33.9959 30.5287C34.9068 28.7027 35.1348 26.6112 34.6388 24.6318C34.1428 22.6524 32.9554 20.9156 31.291 19.735L26.3427 26.7108V18.1581Z" fill="white"/>
<path fill-rule="evenodd" clip-rule="evenodd" d="M22.7645 11.119V12.2906L23.6052 12.2985L24.4459 12.3065L24.4539 13.3474L24.4618 14.3882L24.3175 14.4088C23.5595 14.517 22.5171 14.8027 21.6632 15.1366C21.4324 15.2268 21.2392 15.2963 21.2339 15.2911C21.2006 15.258 20.8256 14.6302 20.8256 14.6074C20.8256 14.5919 20.9751 14.49 21.1579 14.3807C21.3407 14.2715 21.4979 14.1698 21.5072 14.1547C21.5322 14.1147 20.7476 12.853 20.6109 12.7132C20.2661 12.3608 19.7148 12.2264 19.2504 12.3816C19.0196 12.4587 17.6099 13.3073 17.4376 13.4728C17.0252 13.869 16.9215 14.5054 17.1858 15.0182C17.2605 15.1632 17.9102 16.2299 17.9479 16.2694C17.9615 16.2837 18.1272 16.2038 18.316 16.0919C18.5049 15.98 18.6686 15.8836 18.6798 15.8777C18.7008 15.8667 19.0684 16.4519 19.0684 16.4963C19.0684 16.5099 18.9216 16.6298 18.7423 16.7627C18.0374 17.2849 17.1378 18.1367 16.5771 18.8128C15.0878 20.6086 14.1433 22.7277 13.8133 25.014C13.4462 27.5566 13.8634 30.1577 14.9994 32.4083C16.6851 35.7483 19.722 38.1501 23.3848 39.0399L23.7476 39.1281C23.7476 39.1281 24.7955 39.3685 26.34 39.3685C27.8845 39.3685 28.9324 39.1281 28.9324 39.1281L29.4079 39.0095C31.5366 38.4786 33.5109 37.3978 35.0835 35.9024C38.4573 32.6942 39.7795 27.9492 38.5449 23.4804C38.0839 21.8115 37.3019 20.2967 36.1913 18.9214C35.6125 18.2046 34.617 17.2557 33.8754 16.7139C33.7297 16.6074 33.6104 16.5092 33.6104 16.4959C33.6104 16.4518 33.9781 15.8668 33.9989 15.8777C34.0102 15.8836 34.1739 15.98 34.3628 16.0919C34.5516 16.2038 34.7173 16.2837 34.7309 16.2694C34.794 16.2031 35.4474 15.1098 35.5264 14.9383C35.7447 14.4643 35.63 13.851 35.2552 13.4883C35.0641 13.3032 33.6536 12.4495 33.4183 12.3765C32.9467 12.2301 32.4086 12.365 32.0656 12.7155C31.9291 12.8551 31.147 14.1153 31.172 14.1554C31.1811 14.1701 31.3381 14.2715 31.5209 14.3807C31.7037 14.49 31.8532 14.593 31.8532 14.6098C31.8532 14.6338 31.6171 15.0291 31.4644 15.2608C31.4442 15.2915 31.3565 15.2677 31.0627 15.1515C30.3034 14.8514 29.2809 14.5626 28.5434 14.4397L28.2177 14.3855V13.3567C28.2177 12.4176 28.2222 12.3263 28.269 12.3085C28.2973 12.2977 28.6756 12.2908 29.1097 12.2931L29.8991 12.2973L29.9071 11.1223L29.915 9.94745H26.3397H22.7645V11.119ZM27.7633 16.7048C30.0994 17.0519 32.115 18.0751 33.7373 19.7376C35.2383 21.2756 36.1988 23.2245 36.5219 25.3875C36.6012 25.9185 36.6332 27.1451 36.5822 27.6982C36.2945 30.8194 34.6135 33.6225 32.0096 35.3234C30.7308 36.1587 29.3768 36.6764 27.8845 36.9009C25.8171 37.2118 23.7128 36.8942 21.8405 35.9887C18.9126 34.5728 16.7906 31.7973 16.222 28.6399C16.0767 27.833 16.0258 26.6826 16.1003 25.8901C16.2891 23.8823 17.0498 22.0162 18.3297 20.4206C18.669 19.9976 19.4722 19.2006 19.9015 18.8607C21.3878 17.6842 23.1392 16.9416 25.0064 16.6963C25.5387 16.6264 25.568 16.6252 26.4909 16.6349C27.1656 16.642 27.4437 16.6573 27.7633 16.7048Z" fill="white"/>
</svg>
