<svg width="72" height="72" viewBox="0 0 72 72" fill="none" xmlns="http://www.w3.org/2000/svg">
<rect width="72" height="72" rx="13.5" fill="#F9F9F9"/>
<path fill-rule="evenodd" clip-rule="evenodd" d="M23.25 36C23.25 28.9711 28.9711 23.25 36 23.25C43.0289 23.25 48.75 28.9711 48.75 36C48.75 43.0289 43.0289 48.75 36 48.75C28.9711 48.75 23.25 43.0289 23.25 36ZM42.4135 39.1791L37.3941 35.4145V27.7461C37.3941 26.9751 36.7708 26.3518 35.9998 26.3518C35.2287 26.3518 34.6055 26.9751 34.6055 27.7461V36.1117C34.6055 36.5509 34.8118 36.9651 35.1632 37.2272L40.7402 41.41C40.9912 41.5982 41.284 41.6889 41.5754 41.6889C42.0007 41.6889 42.4189 41.4978 42.6922 41.1297C43.1553 40.5148 43.0297 39.6406 42.4135 39.1791Z" fill="#E44240"/>
<path fill-rule="evenodd" clip-rule="evenodd" d="M36 18C26.0742 18 18 26.0742 18 36C18 45.9258 26.0742 54 36 54C45.9258 54 54 45.9258 54 36C54 26.0742 45.9258 18 36 18ZM36 21C27.7285 21 21 27.7285 21 36C21 44.2715 27.7285 51 36 51C44.2715 51 51 44.2715 51 36C51 27.7285 44.2715 21 36 21Z" fill="#E44240"/>
</svg>
