<svg width="18" height="14" viewBox="0 0 18 14" fill="none" xmlns="http://www.w3.org/2000/svg">
<path fill-rule="evenodd" clip-rule="evenodd" d="M16.2386 1.2869C15.5106 0.601047 15.3718 0.496587 15.0769 0.412696C14.6359 0.287189 14.3298 0.308832 13.9557 0.492055C13.8701 0.53397 12.0859 2.20808 9.99072 4.21233L6.18129 7.85634L4.91978 6.65838C4.16275 5.93944 3.54633 5.40456 3.37828 5.32073C3.00073 5.13244 2.3962 5.12665 2.04054 5.30797C1.65092 5.50669 0.176431 6.97522 0.0771273 7.2635C-0.0435174 7.61361 -0.0207451 8.07253 0.132254 8.37518C0.223469 8.55566 1.03731 9.37411 2.80087 11.0591C5.22441 13.3746 5.35339 13.4875 5.67619 13.5782C6.09661 13.6962 6.19654 13.6963 6.61795 13.5789C6.94648 13.4875 7.09767 13.3492 12.0128 8.6451C15.656 5.15819 17.1067 3.73206 17.2025 3.54323C17.379 3.19539 17.3767 2.68197 17.197 2.32637C17.1162 2.1664 16.7463 1.7652 16.2386 1.2869Z" fill="#5773D6"/>
</svg>
