<svg width="70" height="70" viewBox="0 0 70 70" fill="none" xmlns="http://www.w3.org/2000/svg">
<rect width="70" height="70" rx="35" fill="white" fill-opacity="0.1"/>
<path fill-rule="evenodd" clip-rule="evenodd" d="M26.6403 14.829C26.361 14.8913 25.8512 15.0802 25.5075 15.2489C24.3125 15.8352 23.6026 16.6819 23.1335 18.0807C22.4343 20.1654 22.736 21.7901 24.0855 23.2072C24.5639 23.7095 25.1827 24.1928 25.7809 24.5312L26.2106 24.7742L21.8553 24.775L17.5 24.7757V28.7617V32.7478H25.7419H33.9837V28.8004V24.8531H34.9993H36.0149V28.8004V32.7478H44.2574H52.5L52.4798 28.7811L52.4595 24.8144L47.7722 24.7757C43.1148 24.7372 43.0866 24.7361 43.3583 24.5902C44.0375 24.2255 44.8544 23.6159 45.4354 23.0407C46.7886 21.7007 47.2574 20.287 46.9067 18.6047C46.6379 17.3154 46.0572 16.2518 45.3171 15.6929C43.7622 14.5191 41.6044 14.4203 39.5501 15.4288C38.0553 16.1627 36.8298 17.5925 35.5026 20.1511C35.2652 20.6087 35.0418 20.9831 35.0061 20.9831C34.9703 20.9831 34.7434 20.4869 34.5017 19.8802C33.9878 18.5901 33.472 17.8393 32.4143 16.8418C31.3934 15.879 30.3663 15.2704 29.2153 14.9463C28.4532 14.7317 27.3102 14.6796 26.6403 14.829ZM28.5986 17.3141C29.5722 17.5974 30.3388 18.1755 31.052 19.1643C31.5087 19.7973 32.2869 21.1533 32.7016 22.0385C33.075 22.8356 33.5394 24.0808 33.4837 24.1359C33.4645 24.1549 33.0507 24.114 32.564 24.0451C29.4007 23.5973 27.1674 22.7916 26.0197 21.6839C25.436 21.1207 25.2787 20.7272 25.2756 19.8222C25.2734 19.1756 25.2995 19.0308 25.4922 18.6225C25.7771 18.0185 26.1018 17.6879 26.6793 17.4134C27.233 17.1504 27.9147 17.1151 28.5986 17.3141ZM43.0486 17.2675C44.1372 17.5671 44.7211 18.5705 44.4822 19.731C44.1447 21.3702 42.6451 22.5269 39.5518 23.5342C38.379 23.9161 36.5793 24.3545 36.5013 24.2773C36.3646 24.1417 37.182 22.1444 37.7628 21.1956C38.6436 19.7565 39.6042 18.3735 39.9179 18.0927C40.7128 17.3812 42.1169 17.011 43.0486 17.2675ZM19.8437 44.3576V54.3421H27.0309H34.2181V44.3786V34.415L32.4564 37.5094C31.4876 39.2113 30.2835 41.3263 29.7808 42.2094C29.278 43.0925 28.848 43.8153 28.825 43.8154C28.802 43.8157 28.7164 43.7027 28.6348 43.5643C28.5532 43.4259 28.2132 42.8749 27.8793 42.3397L27.2723 41.3666L25.6486 41.6569C24.7556 41.8165 24.0202 41.9409 24.0144 41.9333C24.0086 41.9257 24.8798 40.3871 25.9503 38.514C27.0208 36.6409 27.9836 34.943 28.09 34.7408L28.2835 34.3732H24.0636H19.8437V44.3576ZM41.9482 34.7795C42.0757 35.003 43.0358 36.6835 44.0818 38.514C45.4748 40.9517 45.9512 41.8477 45.8624 41.8628C45.7957 41.8743 45.0664 41.7665 44.2417 41.6235L42.7424 41.3635L41.966 42.6315L41.1895 43.8996L40.9964 43.5674C40.8902 43.3848 39.7203 41.3197 38.3967 38.9784C37.0731 36.6371 35.9606 34.6883 35.9244 34.6479C35.8882 34.6074 35.8586 39.0221 35.8586 44.4582V54.3421H43.0068H50.1549V44.3576V34.3732H45.9357H41.7164L41.9482 34.7795Z" fill="white"/>
</svg>
