<svg width="14" height="18" viewBox="0 0 14 18" fill="none" xmlns="http://www.w3.org/2000/svg">
<path opacity="0.25" d="M12.1531 6.7999H11.6198V4.66657C11.6198 2.3135 9.70619 0.399902 7.35313 0.399902C5.00006 0.399902 3.08646 2.3135 3.08646 4.66657V6.7999H2.55313C1.67135 6.7999 0.953125 7.51741 0.953125 8.3999V15.8666C0.953125 16.7491 1.67135 17.4666 2.55313 17.4666H12.1531C13.0349 17.4666 13.7531 16.7491 13.7531 15.8666V8.3999C13.7531 7.51741 13.0349 6.7999 12.1531 6.7999ZM4.50868 4.66657C4.50868 3.09786 5.78441 1.82212 7.35313 1.82212C8.92184 1.82212 10.1976 3.09786 10.1976 4.66657V6.7999H4.50868V4.66657ZM8.06424 12.2911V13.911C8.06424 14.3035 7.74637 14.6221 7.35313 14.6221C6.95988 14.6221 6.64201 14.3035 6.64201 13.911V12.2911C6.2189 12.0443 5.9309 11.5907 5.9309 11.0666C5.9309 10.2822 6.56877 9.64435 7.35313 9.64435C8.13748 9.64435 8.77535 10.2822 8.77535 11.0666C8.77535 11.5907 8.48735 12.0443 8.06424 12.2911Z" fill="#111113"/>
</svg>
