<svg width="112" height="31" viewBox="0 0 112 31" fill="none" xmlns="http://www.w3.org/2000/svg">
<rect x="0.631836" width="111" height="31" rx="5" fill="#00D48B"/>
<path d="M18.2305 20V18.1201H13.4111V16.6504C14.0492 15.5384 14.71 14.4287 15.3936 13.3213C16.0817 12.2139 16.7607 11.152 17.4307 10.1357H19.9189V16.6299H21.252V18.1201H19.9189V20H18.2305ZM15.0449 16.5752V16.6709H18.2578V11.5713H18.1621C17.8249 12.0817 17.4762 12.6172 17.1162 13.1777C16.7607 13.7383 16.4053 14.3079 16.0498 14.8867C15.6989 15.4609 15.3639 16.0238 15.0449 16.5752ZM24.0205 20.1436C23.8063 20.1436 23.6172 20.0957 23.4531 20C23.2891 19.9089 23.1592 19.7812 23.0635 19.6172C22.9723 19.4531 22.9268 19.2686 22.9268 19.0635C22.9268 18.8584 22.9723 18.6738 23.0635 18.5098C23.1592 18.3457 23.2891 18.2181 23.4531 18.127C23.6172 18.0312 23.8063 17.9834 24.0205 17.9834C24.2347 17.9834 24.4238 18.0312 24.5879 18.127C24.7565 18.2181 24.8864 18.3457 24.9775 18.5098C25.0687 18.6738 25.1143 18.8584 25.1143 19.0635C25.1143 19.2686 25.0687 19.4531 24.9775 19.6172C24.8864 19.7812 24.7565 19.9089 24.5879 20C24.4238 20.0957 24.2347 20.1436 24.0205 20.1436ZM27.6914 20L31.9775 11.7217V11.6123H26.8916V10.1357H33.7549V11.6396L29.5371 20H27.6914ZM38.8682 20.2393C38.2666 20.2393 37.7197 20.1299 37.2275 19.9111C36.7399 19.6878 36.3366 19.3757 36.0176 18.9746C35.6986 18.5736 35.4912 18.1042 35.3955 17.5664H37.1523C37.2572 17.9355 37.4668 18.2272 37.7812 18.4414C38.0957 18.6556 38.4648 18.7627 38.8887 18.7627C39.3717 18.7627 39.7819 18.6214 40.1191 18.3389C40.4564 18.0563 40.7161 17.6462 40.8984 17.1084C41.0807 16.5706 41.1742 15.9212 41.1787 15.1602H41.0625C40.8301 15.6296 40.4906 15.9919 40.0439 16.2471C39.5973 16.5023 39.0846 16.6299 38.5059 16.6299C38.0365 16.6299 37.6035 16.5501 37.207 16.3906C36.8105 16.2266 36.4665 15.9987 36.1748 15.707C35.8831 15.4108 35.6576 15.0645 35.498 14.668C35.3385 14.2669 35.2588 13.8294 35.2588 13.3555C35.2588 12.8496 35.3477 12.3848 35.5254 11.9609C35.7077 11.5371 35.9606 11.1725 36.2842 10.8672C36.6123 10.5573 36.9997 10.318 37.4463 10.1494C37.8929 9.97624 38.3851 9.88965 38.9229 9.88965C39.5107 9.88965 40.0462 10.0013 40.5293 10.2246C41.0124 10.4434 41.4271 10.7692 41.7734 11.2021C42.1243 11.6305 42.3932 12.1592 42.5801 12.7881C42.7715 13.417 42.8672 14.1393 42.8672 14.9551C42.8672 16.0625 42.7077 17.0104 42.3887 17.7988C42.0697 18.5872 41.6117 19.1911 41.0146 19.6104C40.4176 20.0296 39.7021 20.2393 38.8682 20.2393ZM38.9297 15.2354C39.3125 15.2354 39.6497 15.1533 39.9414 14.9893C40.2376 14.8252 40.4678 14.6019 40.6318 14.3193C40.8005 14.0322 40.8848 13.7041 40.8848 13.335C40.8848 12.9613 40.7982 12.6263 40.625 12.3301C40.4564 12.0293 40.224 11.7923 39.9277 11.6191C39.6361 11.446 39.3057 11.3594 38.9365 11.3594C38.5674 11.3594 38.2347 11.446 37.9385 11.6191C37.6468 11.7878 37.4144 12.0202 37.2412 12.3164C37.0726 12.6081 36.9883 12.9362 36.9883 13.3008C36.9883 13.6836 37.0703 14.0208 37.2344 14.3125C37.3984 14.5996 37.6263 14.8252 37.918 14.9893C38.2096 15.1533 38.5469 15.2354 38.9297 15.2354ZM51.5967 20.1299C50.8994 20.1299 50.2956 19.9772 49.7852 19.6719C49.2793 19.362 48.8874 18.9222 48.6094 18.3525C48.3359 17.7829 48.1992 17.1038 48.1992 16.3154C48.1992 15.527 48.3359 14.848 48.6094 14.2783C48.8874 13.7041 49.2793 13.2643 49.7852 12.959C50.2956 12.6536 50.8994 12.501 51.5967 12.501C52.2939 12.501 52.8955 12.6536 53.4014 12.959C53.9118 13.2643 54.3037 13.7041 54.5771 14.2783C54.8551 14.848 54.9941 15.527 54.9941 16.3154C54.9941 17.1038 54.8551 17.7829 54.5771 18.3525C54.3037 18.9222 53.9118 19.362 53.4014 19.6719C52.8955 19.9772 52.2939 20.1299 51.5967 20.1299ZM51.5967 19.0703C52.2939 19.0703 52.8317 18.8288 53.21 18.3457C53.5882 17.8626 53.7773 17.1859 53.7773 16.3154C53.7773 15.4404 53.5882 14.7637 53.21 14.2852C52.8317 13.8021 52.2939 13.5605 51.5967 13.5605C50.8994 13.5605 50.3617 13.8021 49.9834 14.2852C49.6051 14.7637 49.416 15.4404 49.416 16.3154C49.416 17.1859 49.6051 17.8626 49.9834 18.3457C50.3617 18.8288 50.8994 19.0703 51.5967 19.0703ZM62.8008 12.6309V20H61.6797V18.8447H61.5703C61.388 19.2549 61.1032 19.5716 60.7158 19.7949C60.3285 20.0182 59.8522 20.1299 59.2871 20.1299C58.4577 20.1299 57.8311 19.8929 57.4072 19.4189C56.9834 18.945 56.7715 18.2728 56.7715 17.4023V12.6309H57.9473V17.1152C57.9473 17.7806 58.0771 18.2705 58.3369 18.585C58.6012 18.8994 59.0273 19.0566 59.6152 19.0566C60.2624 19.0566 60.7591 18.8743 61.1055 18.5098C61.4518 18.1452 61.625 17.6393 61.625 16.9922V12.6309H62.8008ZM65.5078 10.7236H66.6836V12.6309H68.3242V13.6152H66.6836V17.7852C66.6836 18.2181 66.7702 18.5326 66.9434 18.7285C67.1165 18.9245 67.3945 19.0225 67.7773 19.0225C67.8822 19.0225 67.971 19.0202 68.0439 19.0156C68.1214 19.0111 68.2148 19.0042 68.3242 18.9951V19.9863C68.2057 20.0046 68.0895 20.0205 67.9756 20.0342C67.8617 20.0479 67.7477 20.0547 67.6338 20.0547C67.1279 20.0547 66.7178 19.9886 66.4033 19.8564C66.0934 19.7243 65.8656 19.5146 65.7197 19.2275C65.5785 18.9359 65.5078 18.5553 65.5078 18.0859V13.6152H64.3184V12.6309H65.5078V10.7236ZM77.0811 20.1299C76.3838 20.1299 75.7799 19.9772 75.2695 19.6719C74.7637 19.362 74.3717 18.9222 74.0938 18.3525C73.8203 17.7829 73.6836 17.1038 73.6836 16.3154C73.6836 15.527 73.8203 14.848 74.0938 14.2783C74.3717 13.7041 74.7637 13.2643 75.2695 12.959C75.7799 12.6536 76.3838 12.501 77.0811 12.501C77.7783 12.501 78.3799 12.6536 78.8857 12.959C79.3962 13.2643 79.7881 13.7041 80.0615 14.2783C80.3395 14.848 80.4785 15.527 80.4785 16.3154C80.4785 17.1038 80.3395 17.7829 80.0615 18.3525C79.7881 18.9222 79.3962 19.362 78.8857 19.6719C78.3799 19.9772 77.7783 20.1299 77.0811 20.1299ZM77.0811 19.0703C77.7783 19.0703 78.3161 18.8288 78.6943 18.3457C79.0726 17.8626 79.2617 17.1859 79.2617 16.3154C79.2617 15.4404 79.0726 14.7637 78.6943 14.2852C78.3161 13.8021 77.7783 13.5605 77.0811 13.5605C76.3838 13.5605 75.846 13.8021 75.4678 14.2852C75.0895 14.7637 74.9004 15.4404 74.9004 16.3154C74.9004 17.1859 75.0895 17.8626 75.4678 18.3457C75.846 18.8288 76.3838 19.0703 77.0811 19.0703ZM82.8164 20V13.6152H81.5928V12.6309H82.8164V11.8105C82.8164 11.0768 82.9964 10.5322 83.3564 10.1768C83.721 9.81673 84.2542 9.63672 84.9561 9.63672C85.0973 9.63672 85.234 9.64355 85.3662 9.65723C85.4984 9.66634 85.626 9.68229 85.749 9.70508V10.6621C85.6761 10.6484 85.5918 10.6393 85.4961 10.6348C85.4004 10.6302 85.3001 10.6279 85.1953 10.6279C84.7715 10.6279 84.4639 10.7305 84.2725 10.9355C84.0856 11.1361 83.9922 11.4391 83.9922 11.8447V12.6309H85.6807V13.6152H83.9922V20H82.8164ZM94.8545 20.2461C94.3441 20.2461 93.877 20.1732 93.4531 20.0273C93.0339 19.8815 92.667 19.6764 92.3525 19.4121C92.0426 19.1432 91.7988 18.8265 91.6211 18.4619C91.4434 18.0973 91.3454 17.6986 91.3271 17.2656H92.9746C93.0111 17.571 93.1136 17.8376 93.2822 18.0654C93.4508 18.2887 93.6696 18.4642 93.9385 18.5918C94.2074 18.7148 94.5104 18.7764 94.8477 18.7764C95.2259 18.7764 95.5563 18.6943 95.8389 18.5303C96.126 18.3662 96.3493 18.1361 96.5088 17.8398C96.6683 17.5391 96.748 17.1904 96.748 16.7939C96.748 16.4066 96.6683 16.0671 96.5088 15.7754C96.3538 15.4837 96.1351 15.2581 95.8525 15.0986C95.5745 14.9346 95.2555 14.8525 94.8955 14.8525C94.4762 14.8525 94.1094 14.9437 93.7949 15.126C93.4805 15.3083 93.2389 15.5589 93.0703 15.8779H91.4707L92.0107 10.1357H97.9238V11.6191H93.3848L93.1113 14.4697H93.2275C93.4463 14.1644 93.7357 13.9297 94.0957 13.7656C94.4603 13.597 94.8932 13.5127 95.3945 13.5127C95.8184 13.5127 96.2148 13.5879 96.584 13.7383C96.9531 13.8887 97.2767 14.1074 97.5547 14.3945C97.8372 14.6771 98.056 15.0189 98.2109 15.4199C98.3704 15.8164 98.4502 16.263 98.4502 16.7598C98.4502 17.2793 98.3636 17.7533 98.1904 18.1816C98.0218 18.6055 97.778 18.9723 97.459 19.2822C97.14 19.5876 96.7594 19.8245 96.3174 19.9932C95.8799 20.1618 95.3923 20.2461 94.8545 20.2461Z" fill="white"/>
</svg>
