<svg width="112" height="31" viewBox="0 0 112 31" fill="none" xmlns="http://www.w3.org/2000/svg">
<rect x="0.631836" width="111" height="31" rx="5" fill="#00D48B"/>
<path d="M22.376 20V18.1201H17.5566V16.6504C18.1947 15.5384 18.8555 14.4287 19.5391 13.3213C20.2272 12.2139 20.9062 11.152 21.5762 10.1357H24.0645V16.6299H25.3975V18.1201H24.0645V20H22.376ZM19.1904 16.5752V16.6709H22.4033V11.5713H22.3076C21.9704 12.0817 21.6217 12.6172 21.2617 13.1777C20.9062 13.7383 20.5508 14.3079 20.1953 14.8867C19.8444 15.4609 19.5094 16.0238 19.1904 16.5752ZM28.166 20.1436C27.9518 20.1436 27.7627 20.0957 27.5986 20C27.4346 19.9089 27.3047 19.7812 27.209 19.6172C27.1178 19.4531 27.0723 19.2686 27.0723 19.0635C27.0723 18.8584 27.1178 18.6738 27.209 18.5098C27.3047 18.3457 27.4346 18.2181 27.5986 18.127C27.7627 18.0312 27.9518 17.9834 28.166 17.9834C28.3802 17.9834 28.5693 18.0312 28.7334 18.127C28.902 18.2181 29.0319 18.3457 29.123 18.5098C29.2142 18.6738 29.2598 18.8584 29.2598 19.0635C29.2598 19.2686 29.2142 19.4531 29.123 19.6172C29.0319 19.7812 28.902 19.9089 28.7334 20C28.5693 20.0957 28.3802 20.1436 28.166 20.1436ZM35.1797 20.2461C34.6146 20.2461 34.0973 20.1755 33.6279 20.0342C33.1631 19.8975 32.7598 19.7015 32.418 19.4463C32.0807 19.1911 31.8187 18.888 31.6318 18.5371C31.4495 18.1816 31.3584 17.7897 31.3584 17.3613C31.3584 16.9421 31.445 16.5592 31.6182 16.2129C31.7959 15.8665 32.0443 15.5749 32.3633 15.3379C32.6868 15.1009 33.0628 14.9368 33.4912 14.8457V14.7295C33.1403 14.6429 32.835 14.4971 32.5752 14.292C32.3154 14.0824 32.1126 13.8294 31.9668 13.5332C31.8255 13.237 31.7549 12.9134 31.7549 12.5625C31.7549 12.1706 31.8392 11.8128 32.0078 11.4893C32.1764 11.1611 32.4134 10.8786 32.7188 10.6416C33.0241 10.4046 33.3864 10.2201 33.8057 10.0879C34.2249 9.95573 34.6852 9.88965 35.1865 9.88965C35.6878 9.88965 36.1458 9.95573 36.5605 10.0879C36.9798 10.2201 37.3421 10.4046 37.6475 10.6416C37.9528 10.8786 38.1898 11.1611 38.3584 11.4893C38.527 11.8128 38.6113 12.1706 38.6113 12.5625C38.6113 12.918 38.5407 13.2438 38.3994 13.54C38.2581 13.8317 38.0576 14.0824 37.7979 14.292C37.5426 14.4971 37.2373 14.6429 36.8818 14.7295V14.8457C37.3102 14.9277 37.6839 15.0872 38.0029 15.3242C38.3219 15.5566 38.5703 15.8483 38.748 16.1992C38.9258 16.5456 39.0146 16.9307 39.0146 17.3545C39.0146 17.7829 38.9212 18.1748 38.7344 18.5303C38.5521 18.8812 38.29 19.1865 37.9482 19.4463C37.611 19.7015 37.2077 19.8975 36.7383 20.0342C36.2689 20.1755 35.7493 20.2461 35.1797 20.2461ZM35.1865 18.8721C35.583 18.8721 35.9316 18.8037 36.2324 18.667C36.5332 18.5257 36.7679 18.3298 36.9365 18.0791C37.1051 17.8285 37.1895 17.5391 37.1895 17.2109C37.1895 16.8828 37.1051 16.5934 36.9365 16.3428C36.7679 16.0921 36.5309 15.8984 36.2256 15.7617C35.9248 15.6204 35.5785 15.5498 35.1865 15.5498C34.79 15.5498 34.4391 15.6204 34.1338 15.7617C33.833 15.8984 33.5983 16.0921 33.4297 16.3428C33.2611 16.5934 33.1768 16.8828 33.1768 17.2109C33.1768 17.5391 33.2611 17.8285 33.4297 18.0791C33.5983 18.3298 33.833 18.5257 34.1338 18.667C34.4391 18.8037 34.79 18.8721 35.1865 18.8721ZM35.1865 14.1963C35.5192 14.1963 35.8109 14.1348 36.0615 14.0117C36.3167 13.8887 36.515 13.7178 36.6562 13.499C36.8021 13.2757 36.875 13.0205 36.875 12.7334C36.875 12.4372 36.8044 12.1774 36.6631 11.9541C36.5218 11.7308 36.3236 11.5576 36.0684 11.4346C35.8177 11.307 35.5238 11.2432 35.1865 11.2432C34.8493 11.2432 34.5531 11.307 34.2979 11.4346C34.0426 11.5576 33.8444 11.7308 33.7031 11.9541C33.5618 12.1774 33.4912 12.4372 33.4912 12.7334C33.4912 13.0205 33.5618 13.2757 33.7031 13.499C33.849 13.7178 34.0472 13.8887 34.2979 14.0117C34.5531 14.1348 34.8493 14.1963 35.1865 14.1963ZM47.7715 20.1299C47.0742 20.1299 46.4704 19.9772 45.96 19.6719C45.4541 19.362 45.0622 18.9222 44.7842 18.3525C44.5107 17.7829 44.374 17.1038 44.374 16.3154C44.374 15.527 44.5107 14.848 44.7842 14.2783C45.0622 13.7041 45.4541 13.2643 45.96 12.959C46.4704 12.6536 47.0742 12.501 47.7715 12.501C48.4688 12.501 49.0703 12.6536 49.5762 12.959C50.0866 13.2643 50.4785 13.7041 50.752 14.2783C51.0299 14.848 51.1689 15.527 51.1689 16.3154C51.1689 17.1038 51.0299 17.7829 50.752 18.3525C50.4785 18.9222 50.0866 19.362 49.5762 19.6719C49.0703 19.9772 48.4688 20.1299 47.7715 20.1299ZM47.7715 19.0703C48.4688 19.0703 49.0065 18.8288 49.3848 18.3457C49.763 17.8626 49.9521 17.1859 49.9521 16.3154C49.9521 15.4404 49.763 14.7637 49.3848 14.2852C49.0065 13.8021 48.4688 13.5605 47.7715 13.5605C47.0742 13.5605 46.5365 13.8021 46.1582 14.2852C45.7799 14.7637 45.5908 15.4404 45.5908 16.3154C45.5908 17.1859 45.7799 17.8626 46.1582 18.3457C46.5365 18.8288 47.0742 19.0703 47.7715 19.0703ZM58.9756 12.6309V20H57.8545V18.8447H57.7451C57.5628 19.2549 57.278 19.5716 56.8906 19.7949C56.5033 20.0182 56.027 20.1299 55.4619 20.1299C54.6325 20.1299 54.0059 19.8929 53.582 19.4189C53.1582 18.945 52.9463 18.2728 52.9463 17.4023V12.6309H54.1221V17.1152C54.1221 17.7806 54.252 18.2705 54.5117 18.585C54.776 18.8994 55.2021 19.0566 55.79 19.0566C56.4372 19.0566 56.9339 18.8743 57.2803 18.5098C57.6266 18.1452 57.7998 17.6393 57.7998 16.9922V12.6309H58.9756ZM61.6826 10.7236H62.8584V12.6309H64.499V13.6152H62.8584V17.7852C62.8584 18.2181 62.945 18.5326 63.1182 18.7285C63.2913 18.9245 63.5693 19.0225 63.9521 19.0225C64.057 19.0225 64.1458 19.0202 64.2188 19.0156C64.2962 19.0111 64.3896 19.0042 64.499 18.9951V19.9863C64.3805 20.0046 64.2643 20.0205 64.1504 20.0342C64.0365 20.0479 63.9225 20.0547 63.8086 20.0547C63.3027 20.0547 62.8926 19.9886 62.5781 19.8564C62.2682 19.7243 62.0404 19.5146 61.8945 19.2275C61.7533 18.9359 61.6826 18.5553 61.6826 18.0859V13.6152H60.4932V12.6309H61.6826V10.7236ZM73.2559 20.1299C72.5586 20.1299 71.9548 19.9772 71.4443 19.6719C70.9385 19.362 70.5465 18.9222 70.2686 18.3525C69.9951 17.7829 69.8584 17.1038 69.8584 16.3154C69.8584 15.527 69.9951 14.848 70.2686 14.2783C70.5465 13.7041 70.9385 13.2643 71.4443 12.959C71.9548 12.6536 72.5586 12.501 73.2559 12.501C73.9531 12.501 74.5547 12.6536 75.0605 12.959C75.571 13.2643 75.9629 13.7041 76.2363 14.2783C76.5143 14.848 76.6533 15.527 76.6533 16.3154C76.6533 17.1038 76.5143 17.7829 76.2363 18.3525C75.9629 18.9222 75.571 19.362 75.0605 19.6719C74.5547 19.9772 73.9531 20.1299 73.2559 20.1299ZM73.2559 19.0703C73.9531 19.0703 74.4909 18.8288 74.8691 18.3457C75.2474 17.8626 75.4365 17.1859 75.4365 16.3154C75.4365 15.4404 75.2474 14.7637 74.8691 14.2852C74.4909 13.8021 73.9531 13.5605 73.2559 13.5605C72.5586 13.5605 72.0208 13.8021 71.6426 14.2852C71.2643 14.7637 71.0752 15.4404 71.0752 16.3154C71.0752 17.1859 71.2643 17.8626 71.6426 18.3457C72.0208 18.8288 72.5586 19.0703 73.2559 19.0703ZM78.9912 20V13.6152H77.7676V12.6309H78.9912V11.8105C78.9912 11.0768 79.1712 10.5322 79.5312 10.1768C79.8958 9.81673 80.429 9.63672 81.1309 9.63672C81.2721 9.63672 81.4089 9.64355 81.541 9.65723C81.6732 9.66634 81.8008 9.68229 81.9238 9.70508V10.6621C81.8509 10.6484 81.7666 10.6393 81.6709 10.6348C81.5752 10.6302 81.4749 10.6279 81.3701 10.6279C80.9463 10.6279 80.6387 10.7305 80.4473 10.9355C80.2604 11.1361 80.167 11.4391 80.167 11.8447V12.6309H81.8555V13.6152H80.167V20H78.9912ZM91.0293 20.2461C90.5189 20.2461 90.0518 20.1732 89.6279 20.0273C89.2087 19.8815 88.8418 19.6764 88.5273 19.4121C88.2174 19.1432 87.9736 18.8265 87.7959 18.4619C87.6182 18.0973 87.5202 17.6986 87.502 17.2656H89.1494C89.1859 17.571 89.2884 17.8376 89.457 18.0654C89.6257 18.2887 89.8444 18.4642 90.1133 18.5918C90.3822 18.7148 90.6852 18.7764 91.0225 18.7764C91.4007 18.7764 91.7311 18.6943 92.0137 18.5303C92.3008 18.3662 92.5241 18.1361 92.6836 17.8398C92.8431 17.5391 92.9229 17.1904 92.9229 16.7939C92.9229 16.4066 92.8431 16.0671 92.6836 15.7754C92.5286 15.4837 92.3099 15.2581 92.0273 15.0986C91.7493 14.9346 91.4303 14.8525 91.0703 14.8525C90.651 14.8525 90.2842 14.9437 89.9697 15.126C89.6553 15.3083 89.4137 15.5589 89.2451 15.8779H87.6455L88.1855 10.1357H94.0986V11.6191H89.5596L89.2861 14.4697H89.4023C89.6211 14.1644 89.9105 13.9297 90.2705 13.7656C90.6351 13.597 91.068 13.5127 91.5693 13.5127C91.9932 13.5127 92.3896 13.5879 92.7588 13.7383C93.1279 13.8887 93.4515 14.1074 93.7295 14.3945C94.012 14.6771 94.2308 15.0189 94.3857 15.4199C94.5452 15.8164 94.625 16.263 94.625 16.7598C94.625 17.2793 94.5384 17.7533 94.3652 18.1816C94.1966 18.6055 93.9528 18.9723 93.6338 19.2822C93.3148 19.5876 92.9342 19.8245 92.4922 19.9932C92.0547 20.1618 91.5671 20.2461 91.0293 20.2461Z" fill="white"/>
</svg>
