<svg width="87" height="31" viewBox="0 0 87 31" fill="none" xmlns="http://www.w3.org/2000/svg">
<path d="M20.0445 11.8671H16.8115V9.4007C16.8115 7.76322 16.161 6.19281 15.0031 5.03494C13.8453 3.87707 12.2749 3.22658 10.6374 3.22658C8.9999 3.22658 7.42949 3.87707 6.27162 5.03494C5.11374 6.19281 4.46326 7.76322 4.46326 9.4007V11.8671H1.23828V9.4007C1.23828 6.90748 2.22871 4.51637 3.99168 2.7534C5.75466 0.990428 8.14576 0 10.639 0C13.1322 0 15.5233 0.990428 17.2863 2.7534C19.0493 4.51637 20.0397 6.90748 20.0397 9.4007L20.0445 11.8671Z" fill="#D5D5D9"/>
<path d="M0.530816 11.811H20.7499C20.8201 11.811 20.8897 11.825 20.9545 11.852C21.0193 11.8791 21.0781 11.9188 21.1275 11.9688C21.1769 12.0187 21.2158 12.078 21.2421 12.1432C21.2684 12.2083 21.2815 12.278 21.2807 12.3483V24.8825C21.2807 25.555 21.1482 26.2208 20.8909 26.8421C20.6336 27.4633 20.2564 28.0278 19.7809 28.5033C19.3054 28.9788 18.7409 29.3559 18.1197 29.6133C17.4984 29.8706 16.8326 30.003 16.1602 30.003H5.12051C4.44767 30.003 3.78143 29.8704 3.15987 29.6128C2.5383 29.3552 1.97361 28.9776 1.49806 28.5016C1.02252 28.0256 0.645443 27.4605 0.388396 26.8387C0.13135 26.2169 -0.00062991 25.5506 2.26031e-06 24.8777V12.3483C2.26031e-06 12.2075 0.0559271 12.0725 0.155474 11.9729C0.255021 11.8734 0.390036 11.8174 0.530816 11.8174V11.811Z" fill="#00D48B"/>
<path d="M9.69429 24.5203L4.69727 19.8359L6.82854 17.8394L9.69429 20.5255L15.4531 15.126L17.5827 17.1241L9.69429 24.5203Z" fill="white"/>
<path d="M30.3088 11.8023C29.9458 11.6639 29.5932 11.4992 29.254 11.3097C28.9571 11.1437 28.6894 10.9303 28.4613 10.678C28.2349 10.4149 28.0641 10.1087 27.9591 9.77792C27.8305 9.37599 27.7697 8.95547 27.7791 8.53358C27.7673 7.99916 27.8696 7.46836 28.0791 6.97658C28.2746 6.53856 28.5673 6.15082 28.935 5.84278C29.3294 5.52678 29.7823 5.29174 30.2678 5.15113C30.8356 4.98914 31.4239 4.91041 32.0143 4.91742C32.5688 4.91465 33.1221 4.96755 33.666 5.07533C34.2143 5.18901 34.7545 5.33883 35.283 5.5238C35.2102 6.20699 35.0234 6.87313 34.7303 7.49453L34.2029 7.28925C34.0171 7.21679 33.826 7.15872 33.6313 7.11554C33.4063 7.06433 33.1785 7.02637 32.9491 7.00185C32.6616 6.97237 32.3727 6.95866 32.0838 6.96079C31.8837 6.96062 31.684 6.97752 31.4869 7.01132C31.2961 7.04228 31.1123 7.10642 30.9436 7.20082C30.776 7.29744 30.6384 7.43841 30.5457 7.60822C30.4325 7.82404 30.378 8.06584 30.3878 8.30935C30.381 8.50917 30.4233 8.70762 30.511 8.8873C30.5868 9.04086 30.6945 9.17651 30.8268 9.28523C30.9697 9.39795 31.1269 9.49139 31.2942 9.56316L31.8121 9.77792L32.848 10.1759C33.255 10.3341 33.6535 10.5133 34.0418 10.7127C34.3832 10.8842 34.6912 11.1153 34.9514 11.3949C35.207 11.6822 35.4034 12.017 35.5294 12.3803C35.6796 12.8408 35.75 13.3236 35.7378 13.8078C35.7454 14.3598 35.6379 14.9073 35.422 15.4153C35.2112 15.8945 34.8949 16.3199 34.4966 16.6597C34.0561 17.0271 33.5474 17.304 32.9996 17.4745C32.3363 17.6807 31.6444 17.7798 30.95 17.7682C30.571 17.7682 30.2299 17.7682 29.9298 17.7335C29.3682 17.6881 28.8132 17.5811 28.2749 17.4145C28.0097 17.3355 27.7349 17.2376 27.4443 17.1208C27.482 16.7679 27.5464 16.4185 27.637 16.0754C27.7286 15.7122 27.8391 15.3459 27.9528 14.9763C28.3952 15.1595 28.8514 15.3074 29.3172 15.4185C29.766 15.5193 30.2247 15.5691 30.6847 15.5669C31.2826 15.5994 31.8772 15.4579 32.3964 15.1595C32.602 15.0277 32.7689 14.8436 32.8799 14.626C32.9909 14.4085 33.042 14.1653 33.0281 13.9215C33.0364 13.6826 32.9865 13.4452 32.8828 13.2298C32.7866 13.0509 32.6569 12.8922 32.5006 12.7624C32.3393 12.6347 32.162 12.5285 31.9732 12.4466C31.7774 12.3613 31.5753 12.2761 31.3668 12.1971L30.3088 11.8023Z" fill="#32364E"/>
<path d="M37.5566 5.12598H44.6121C44.6815 5.47329 44.7165 5.82663 44.7163 6.18082C44.7179 6.54658 44.683 6.91158 44.6121 7.27041H40.0801V9.96752H43.6773C43.7453 10.3214 43.7802 10.6809 43.7815 11.0413C43.7819 11.407 43.747 11.7719 43.6773 12.1309H40.0801V15.4154H44.7321C44.8016 15.7628 44.8365 16.1161 44.8363 16.4703C44.8379 16.836 44.803 17.201 44.7321 17.5599H37.5566V5.12598Z" fill="#32364E"/>
<path d="M54.9521 15.2036C55.1023 15.5239 55.2269 15.8555 55.3248 16.1953C55.4223 16.5326 55.4941 16.8768 55.5396 17.2249C55.0171 17.4251 54.4752 17.5702 53.9226 17.6576C53.4099 17.7296 52.8927 17.7644 52.375 17.7618C51.4934 17.7809 50.6173 17.6186 49.8011 17.2849C49.089 16.987 48.4532 16.5326 47.9409 15.9553C47.4261 15.3632 47.04 14.6706 46.8071 13.9214C46.5477 13.0938 46.4198 12.2305 46.4281 11.3633C46.4202 10.4914 46.5546 9.62417 46.826 8.79563C47.0695 8.04291 47.4603 7.34615 47.9756 6.74595C48.4839 6.16366 49.1163 5.70282 49.8264 5.39739C50.6159 5.06229 51.4669 4.8966 52.3245 4.91102C52.8359 4.90808 53.3468 4.94291 53.8531 5.01525C54.3735 5.10018 54.8822 5.24538 55.369 5.44792C55.3441 5.7935 55.274 6.13433 55.1606 6.46171C55.0437 6.77753 54.9174 7.12178 54.7784 7.45339C54.4286 7.33151 54.0709 7.23338 53.7078 7.15967C53.3426 7.09851 52.9727 7.06997 52.6024 7.0744C51.4949 7.0744 50.6443 7.43443 50.0506 8.15451C49.4568 8.87458 49.16 9.94416 49.16 11.3633C49.16 14.1783 50.3527 15.5847 52.7382 15.5826C53.112 15.5935 53.4861 15.5724 53.8562 15.5195C54.2284 15.4399 54.5946 15.3343 54.9521 15.2036Z" fill="#32364E"/>
<path d="M57.3565 5.1258C57.5776 5.09106 57.7892 5.06895 57.9881 5.05631C58.1871 5.04368 58.4082 5.04053 58.6198 5.04053C58.8314 5.04053 59.0177 5.04052 59.223 5.05631C59.4283 5.07211 59.643 5.09106 59.8546 5.1258V11.578C59.8546 12.2792 59.8799 12.8824 59.9304 13.3845C59.9664 13.8139 60.0731 14.2343 60.2463 14.6289C60.3816 14.9352 60.6119 15.1899 60.9032 15.3553C61.2442 15.524 61.6221 15.6044 62.0022 15.589C62.3794 15.6045 62.7543 15.5241 63.0918 15.3553C63.3787 15.1873 63.6053 14.9331 63.7392 14.6289C63.9124 14.2343 64.0191 13.8139 64.0551 13.3845C64.1056 12.8824 64.1309 12.2792 64.1309 11.578V5.1258C64.3614 5.09106 64.5825 5.06895 64.7878 5.05631C64.9931 5.04368 65.1983 5.04053 65.3942 5.04053C65.59 5.04053 65.811 5.04052 66.0258 5.05631C66.2406 5.07211 66.4553 5.09106 66.6732 5.1258V12.1118C66.6796 12.8863 66.6098 13.6596 66.4648 14.4204C66.3506 15.0642 66.0973 15.6753 65.7226 16.2111C65.3557 16.7153 64.8607 17.1122 64.2888 17.3607C62.815 17.9038 61.1958 17.9038 59.722 17.3607C59.1495 17.1132 58.6543 16.7161 58.2882 16.2111C57.9124 15.6755 57.6581 15.0644 57.5428 14.4204C57.3978 13.6596 57.328 12.8863 57.3344 12.1118L57.3565 5.1258Z" fill="#32364E"/>
<path d="M69.1521 5.12544C69.6574 5.06859 70.1343 5.01806 70.5764 4.98016C71.0186 4.94226 71.5239 4.91699 72.0576 4.91699C72.6869 4.91782 73.3148 4.97597 73.9336 5.09069C74.5221 5.20195 75.0866 5.41574 75.6011 5.72234C76.0943 6.01393 76.5076 6.42296 76.8044 6.91299C77.1292 7.49706 77.2876 8.15903 77.2624 8.82686C77.2682 9.23978 77.2096 9.65109 77.0886 10.0459C76.9863 10.373 76.8374 10.6836 76.6465 10.9681C76.4825 11.2193 76.2884 11.4494 76.0685 11.6535C75.886 11.8224 75.6895 11.9756 75.4811 12.1114L75.1874 12.3009L78.213 17.5593L77.4866 17.6288C77.2339 17.6509 76.975 17.6635 76.7097 17.6635C76.2749 17.6639 75.8408 17.629 75.4116 17.5593L72.1745 11.7672L72.5914 11.5587C72.7524 11.4798 72.9482 11.3755 73.1788 11.2429C73.4172 11.108 73.6405 10.9481 73.8452 10.766C74.0644 10.5682 74.2481 10.3342 74.3884 10.0744C74.5437 9.78309 74.622 9.45694 74.6158 9.12689C74.6158 8.4005 74.4052 7.86782 73.9841 7.52884C73.5258 7.17319 72.9561 6.99187 72.3766 7.01721C72.145 7.0151 71.9137 7.032 71.6849 7.06774V17.5656C71.4765 17.5878 71.2712 17.6099 71.0533 17.6257C70.8354 17.6414 70.6427 17.6541 70.4469 17.6541C70.2511 17.6541 70.0458 17.6541 69.8153 17.6351C69.5847 17.6162 69.3731 17.6004 69.1426 17.5656L69.1521 5.12544Z" fill="#32364E"/>
<path d="M79.5967 5.12598H86.6521C86.7216 5.47329 86.7565 5.82663 86.7564 6.18082C86.7579 6.54658 86.723 6.91158 86.6521 7.27041H82.1201V9.96752H85.7173C85.7853 10.3214 85.8202 10.6809 85.8215 11.0413C85.8219 11.407 85.787 11.7719 85.7173 12.1309H82.1201V15.4154H86.7721C86.8416 15.7628 86.8765 16.1161 86.8764 16.4703C86.8779 16.836 86.843 17.201 86.7721 17.5599H79.5967V5.12598Z" fill="#32364E"/>
<path d="M27.9599 21.1444C28.2094 21.1223 28.4621 21.1034 28.7179 21.0907C28.9737 21.0781 29.2295 21.0718 29.4885 21.0718C29.7651 21.0717 30.0412 21.0982 30.3128 21.1507C30.5834 21.2061 30.8408 21.3134 31.0707 21.4666C31.3042 21.6266 31.4923 21.8442 31.6171 22.0982C31.771 22.42 31.8436 22.7746 31.8287 23.1309C31.8438 23.4853 31.7711 23.8379 31.6171 24.1574C31.4907 24.4094 31.3041 24.6263 31.0739 24.789C30.8499 24.9446 30.5961 25.0521 30.3286 25.1048C30.0623 25.1574 29.7915 25.1838 29.5201 25.1838H29.3211H29.1474V27.0629C29.0432 27.0787 28.9453 27.0882 28.8316 27.0945H28.5473H28.2631C28.1589 27.0945 28.0546 27.0787 27.9473 27.0629L27.9599 21.1444ZM29.1474 24.151C29.2084 24.1553 29.2696 24.1553 29.3306 24.151H29.539C29.6735 24.1519 29.8075 24.1338 29.9369 24.0973C30.0628 24.0647 30.1802 24.0055 30.2812 23.9236C30.3847 23.8385 30.4668 23.7303 30.5212 23.6078C30.5851 23.4528 30.6152 23.2859 30.6096 23.1183C30.6155 22.9445 30.5854 22.7714 30.5212 22.6098C30.4686 22.481 30.3863 22.3663 30.2812 22.2751C30.1803 22.1923 30.063 22.132 29.9369 22.0982C29.8071 22.0634 29.6734 22.0454 29.539 22.0445H29.3716L29.1474 22.0666V24.151Z" fill="#BABABD"/>
<path d="M34.3843 21.1695C34.498 21.1506 34.6053 21.1411 34.7001 21.1317C34.7948 21.1222 34.918 21.1317 35.0412 21.1317C35.1643 21.1317 35.2559 21.1317 35.357 21.1317C35.4581 21.1317 35.5749 21.1506 35.7012 21.1695L37.5267 27.0122C37.3175 27.0426 37.1064 27.0585 36.8951 27.0596C36.693 27.06 36.4913 27.0442 36.2918 27.0122L35.976 25.8405H34.0432L33.7084 27.0122C33.5237 27.0431 33.3367 27.0589 33.1494 27.0596C32.9505 27.0598 32.752 27.0439 32.5557 27.0122L34.3843 21.1695ZM35.6855 24.8583L35.0096 22.4044L34.3022 24.8583H35.6855Z" fill="#BABABD"/>
<path d="M39.8535 24.9212L38.0312 21.1692C38.2581 21.1352 38.4872 21.1183 38.7166 21.1187C38.9229 21.1183 39.1289 21.1352 39.3324 21.1692L40.4883 23.8158L41.6253 21.1692C41.8287 21.1346 42.0348 21.1177 42.2412 21.1187C42.4527 21.1189 42.6639 21.1358 42.8728 21.1692L41.0537 24.9212V27.0182C40.9463 27.034 40.8421 27.0467 40.7378 27.053H40.4473H40.1567C40.0588 27.053 39.9546 27.034 39.8409 27.0182L39.8535 24.9212Z" fill="#BABABD"/>
<path d="M44.4931 21.1699C44.7019 21.1362 44.9132 21.1193 45.1247 21.1193C45.3363 21.1183 45.5476 21.1352 45.7564 21.1699L47.0986 24.5176L48.4787 21.1699C48.6639 21.1341 48.8523 21.1172 49.0409 21.1193C49.2399 21.1182 49.4387 21.1351 49.6347 21.1699L49.9094 27.0126C49.7161 27.0431 49.5208 27.059 49.3251 27.0599C49.143 27.0601 48.9613 27.0443 48.7819 27.0126L48.6335 23.0458L47.4492 25.7935L47.2123 25.8219C47.1302 25.8219 47.0481 25.8219 46.9691 25.8219C46.8902 25.8219 46.827 25.8219 46.7575 25.8219C46.6833 25.8156 46.6095 25.8051 46.5364 25.7903L45.4311 22.9858L45.3174 27.0094C45.1518 27.0402 44.9837 27.0561 44.8152 27.0568C44.6352 27.0563 44.4556 27.0405 44.2783 27.0094L44.4931 21.1699Z" fill="#BABABD"/>
<path d="M51.7822 21.1694H55.0984C55.1302 21.3328 55.1461 21.4989 55.1457 21.6653C55.1462 21.8369 55.1304 22.0083 55.0984 22.1769H52.9697V23.4402H54.6594C54.6913 23.6068 54.7083 23.7759 54.7099 23.9455C54.709 24.1172 54.6921 24.2885 54.6594 24.4571H52.9697V26.0015H55.1552C55.187 26.1649 55.2029 26.3309 55.2026 26.4973C55.2031 26.669 55.1872 26.8403 55.1552 27.009H51.7822V21.1694Z" fill="#BABABD"/>
<path d="M56.9102 21.1692C57.068 21.1361 57.2289 21.1191 57.3902 21.1187C57.5588 21.1189 57.7271 21.1359 57.8924 21.1692L60.1536 24.8896V21.1692C60.3381 21.1358 60.5252 21.1189 60.7127 21.1187C60.8761 21.1177 61.0392 21.1346 61.199 21.1692V27.0119C61.0439 27.0418 60.8864 27.0576 60.7284 27.0593C60.5621 27.0579 60.3962 27.042 60.2326 27.0119L57.9618 23.2979V27.0119C57.7878 27.0435 57.6113 27.0594 57.4344 27.0593C57.2596 27.0598 57.0852 27.0439 56.9133 27.0119L56.9102 21.1692Z" fill="#BABABD"/>
<path d="M64.2797 22.1769H62.8269C62.7923 22.0086 62.7754 21.8371 62.7764 21.6653C62.7755 21.4987 62.7925 21.3324 62.8269 21.1694H66.9326C66.9645 21.3328 66.9803 21.4989 66.98 21.6653C66.9805 21.8369 66.9646 22.0083 66.9326 22.1769H65.4767V27.0121L65.1861 27.0406C65.0882 27.0406 64.9935 27.0406 64.9019 27.0406H64.605C64.4976 27.0406 64.3903 27.0248 64.2892 27.009L64.2797 22.1769Z" fill="#BABABD"/>
</svg>
