<svg width="90" height="29" viewBox="0 0 90 29" fill="none" xmlns="http://www.w3.org/2000/svg">
<path d="M21.2724 11.8349C21.2724 13.7126 20.7156 15.5481 19.6724 17.1093C18.6292 18.6705 17.1465 19.8873 15.4118 20.6058C13.6771 21.3244 11.7682 21.5124 9.92665 21.1461C8.08507 20.7798 6.39347 19.8756 5.06577 18.5479C3.73807 17.2202 2.83389 15.5286 2.46758 13.687C2.10126 11.8454 2.28927 9.93659 3.00782 8.20186C3.72637 6.46713 4.94318 4.98444 6.5044 3.94127C8.06561 2.8981 9.9011 2.34131 11.7788 2.34131C13.0255 2.34131 14.26 2.58687 15.4118 3.06397C16.5636 3.54106 17.6102 4.24036 18.4917 5.12192C19.3733 6.00348 20.0726 7.05005 20.5497 8.20186C21.0268 9.35368 21.2724 10.5882 21.2724 11.8349Z" fill="#468B96"/>
<path d="M22.3082 20.4081L13.7088 28.2429C13.1817 28.7297 12.4906 29 11.7731 29C11.0556 29 10.3644 28.7297 9.83729 28.2429L1.25018 20.4081C0.93464 20.1166 0.68309 19.7628 0.511475 19.369C0.339861 18.9753 0.251925 18.5501 0.253243 18.1206V4.31027C0.242835 3.58847 0.491728 2.88688 0.954691 2.33301C1.41765 1.77914 2.06396 1.40974 2.77617 1.29194L11.3663 0.0289503C11.6361 -0.00965009 11.91 -0.00965009 12.1798 0.0289503L20.773 1.29194C21.4849 1.4098 22.1309 1.77932 22.5933 2.33326C23.0558 2.8872 23.304 3.58875 23.2929 4.31027V18.1206C23.2958 18.5492 23.2097 18.9738 23.0403 19.3675C22.8708 19.7612 22.6215 20.1155 22.3082 20.4081Z" fill="#32364E"/>
<path d="M10.376 18.6767L4.77832 13.4294L7.16576 11.1929L10.376 14.2019L16.8269 8.15332L19.2125 10.3917L10.376 18.6767Z" fill="white"/>
<path d="M32.5068 9.81041C32.1456 9.67228 31.7951 9.5076 31.4583 9.31773C31.1599 9.15261 30.891 8.93917 30.6624 8.68608C30.4349 8.42581 30.261 8.12314 30.1508 7.79547C30.0222 7.39354 29.9613 6.97302 29.9707 6.55113C29.964 6.01556 30.0716 5.48473 30.2866 4.99413C30.4795 4.5546 30.7726 4.16631 31.1424 3.86033C31.5352 3.54357 31.9872 3.30842 32.472 3.16868C33.0399 3.00691 33.6281 2.92819 34.2185 2.93497C34.773 2.93205 35.3264 2.98495 35.8703 3.09289C36.4089 3.20427 36.9395 3.35092 37.4589 3.53188C37.3861 4.21506 37.1993 4.88121 36.9062 5.5026L36.3788 5.29732C36.1929 5.22487 36.0018 5.16679 35.8071 5.12362C35.5822 5.0724 35.3544 5.03444 35.1249 5.00992C34.8375 4.98037 34.5486 4.96666 34.2596 4.96886C34.0596 4.96869 33.8599 4.9856 33.6627 5.0194C33.472 5.05036 33.2881 5.11449 33.1195 5.20889C32.9512 5.31159 32.8137 5.4578 32.7215 5.63209C32.6094 5.84821 32.5561 6.08998 32.5668 6.33321C32.5591 6.53277 32.6003 6.73117 32.6868 6.91117C32.7626 7.06473 32.8703 7.20038 33.0026 7.3091C33.1456 7.42182 33.3027 7.51526 33.47 7.58703L33.988 7.80178L35.027 8.19972C35.4629 8.37342 35.8608 8.55028 36.2208 8.73662C36.5656 8.9018 36.878 9.1275 37.143 9.403C37.3998 9.68942 37.5963 10.0245 37.721 10.3884C37.8712 10.8489 37.9417 11.3316 37.9294 11.8159C37.9371 12.3679 37.8295 12.9153 37.6136 13.4234C37.4042 13.9034 37.0877 14.329 36.6883 14.6677C36.2477 15.0352 35.739 15.312 35.1913 15.4826C34.528 15.6887 33.8361 15.7879 33.1416 15.7763C32.7626 15.7763 32.4215 15.7763 32.1215 15.7415C31.5588 15.6981 31.0027 15.5921 30.4634 15.4257C30.1981 15.3468 29.9202 15.2489 29.6328 15.132C29.6708 14.7795 29.7342 14.4301 29.8223 14.0866C29.9139 13.7234 30.0244 13.3571 30.1381 12.9876C30.5816 13.1708 31.0388 13.3186 31.5056 13.4297C31.9534 13.5305 32.4111 13.5803 32.87 13.5782C33.468 13.6106 34.0625 13.4691 34.5817 13.1707C34.7878 13.0394 34.9551 12.8554 35.0661 12.6377C35.1772 12.4201 35.228 12.1767 35.2134 11.9327C35.2217 11.6938 35.1719 11.4564 35.0681 11.2411C34.9731 11.0614 34.8432 10.9025 34.686 10.7737C34.5246 10.6459 34.3473 10.5398 34.1585 10.4578C33.9627 10.3726 33.7606 10.2873 33.5553 10.2083L32.5068 9.81041Z" fill="#32364E"/>
<path d="M39.751 3.13428H46.8064C46.8759 3.48159 46.9108 3.83493 46.9106 4.18912C46.9122 4.55488 46.8773 4.91988 46.8064 5.27871H42.2744V7.97582H45.8716C45.9396 8.32974 45.9745 8.68922 45.9758 9.04961C45.9762 9.41532 45.9413 9.7802 45.8716 10.1392H42.2744V13.4237H46.9328C47.0022 13.7711 47.0371 14.1244 47.037 14.4786C47.0386 14.8443 47.0037 15.2093 46.9328 15.5682H39.751V3.13428Z" fill="#32364E"/>
<path d="M57.1516 13.212C57.2994 13.5329 57.4229 13.8644 57.5211 14.2037C57.6182 14.5413 57.691 14.8853 57.739 15.2333C57.2164 15.4328 56.6745 15.5777 56.122 15.6659C55.6093 15.7377 55.0922 15.7725 54.5745 15.7702C53.6891 15.7929 52.8086 15.6327 51.9879 15.2996C51.2759 15.0017 50.6401 14.5473 50.1277 13.97C49.6189 13.3806 49.2372 12.6925 49.0066 11.9487C48.7448 11.1216 48.6159 10.2581 48.6244 9.39057C48.6165 8.51875 48.751 7.65148 49.0224 6.82294C49.2658 6.07022 49.6566 5.37346 50.1719 4.77326C50.6799 4.18983 51.3123 3.72789 52.0227 3.42154C52.8097 3.08469 53.6584 2.91581 54.5145 2.9257C55.0269 2.92288 55.5389 2.95771 56.0462 3.02993C56.5656 3.1149 57.0733 3.26011 57.559 3.4626C57.5372 3.8086 57.467 4.14984 57.3506 4.47639C57.2369 4.79221 57.1105 5.13645 56.9716 5.46807C56.6205 5.34654 56.2618 5.24842 55.8978 5.17435C55.5326 5.11306 55.1627 5.08452 54.7924 5.08908C53.6828 5.08908 52.8322 5.44912 52.2406 6.16919C51.6489 6.88926 51.3542 7.95885 51.3563 9.37794C51.3563 12.193 52.5501 13.5994 54.9377 13.5973C55.3138 13.6064 55.6899 13.5831 56.062 13.5278C56.4321 13.4479 56.7962 13.3424 57.1516 13.212Z" fill="#32364E"/>
<path d="M59.567 3.13418C59.7849 3.09944 59.9965 3.07733 60.1986 3.0647C60.4007 3.05206 60.6187 3.0647 60.8303 3.0647C61.0419 3.0647 61.2282 3.0647 61.4335 3.0647C61.6388 3.0647 61.8567 3.09944 62.0651 3.13418V9.58641C62.0601 10.1895 62.0864 10.7925 62.1441 11.3929C62.1786 11.8225 62.2854 12.2432 62.4599 12.6372C62.5963 12.9429 62.8264 13.1972 63.1168 13.3636C63.458 13.5317 63.8358 13.6121 64.2159 13.5973C64.593 13.6129 64.9679 13.5325 65.3054 13.3636C65.5933 13.1969 65.8202 12.9423 65.9529 12.6372C66.1289 12.2437 66.2358 11.8228 66.2687 11.3929C66.3192 10.8908 66.3477 10.2875 66.3477 9.58641V3.13418C66.5782 3.09944 66.7961 3.07733 67.0046 3.0647C67.213 3.05206 67.412 3.0647 67.6078 3.0647C67.8036 3.0647 68.0278 3.0647 68.2394 3.0647C68.451 3.0647 68.6689 3.09944 68.89 3.13418V10.1202C68.8964 10.8947 68.8266 11.668 68.6816 12.4288C68.5663 13.0728 68.312 13.6839 67.9362 14.2195C67.5736 14.7227 67.0829 15.1196 66.515 15.3691C65.0412 15.9122 63.4221 15.9122 61.9483 15.3691C61.3758 15.1216 60.8805 14.7245 60.5144 14.2195C60.1399 13.6832 59.8857 13.0724 59.7691 12.4288C59.6268 11.6676 59.558 10.8945 59.5638 10.1202L59.567 3.13418Z" fill="#32364E"/>
<path d="M71.3468 3.13422C71.8553 3.07738 72.329 3.02684 72.7743 2.98895C73.2196 2.95105 73.7218 2.92578 74.2523 2.92578C74.8817 2.92633 75.5096 2.98448 76.1283 3.09948C76.7159 3.20583 77.2802 3.41426 77.7959 3.71534C78.289 4.00693 78.7024 4.41596 78.9991 4.90598C79.3277 5.48883 79.4884 6.15127 79.4634 6.81986C79.4708 7.23288 79.4122 7.64443 79.2897 8.03893C79.1811 8.36632 79.027 8.67678 78.8318 8.96113C78.6657 9.21167 78.4707 9.44171 78.2506 9.64646C78.0687 9.81612 77.8721 9.96936 77.6632 10.1044L77.3695 10.2939L80.4109 15.5523L79.6845 15.6218C79.4318 15.6439 79.1728 15.6565 78.9076 15.6565C78.4728 15.6569 78.0387 15.622 77.6095 15.5523L74.3566 9.77595L74.7703 9.56751C74.9314 9.48855 75.1272 9.38433 75.3577 9.25169C75.5958 9.1225 75.8193 8.96789 76.0241 8.79059C76.2443 8.59287 76.4291 8.35895 76.5705 8.09894C76.7233 7.80684 76.8004 7.48108 76.7947 7.15147C76.7947 6.42508 76.5842 5.8924 76.1631 5.55342C75.7037 5.19754 75.1329 5.01624 74.5524 5.04179C74.3208 5.03968 74.0895 5.05658 73.8607 5.09232V15.5681C73.6554 15.5902 73.447 15.6123 73.2291 15.6281C73.0112 15.6439 72.8217 15.6565 72.6259 15.6565C72.4301 15.6565 72.2216 15.6565 71.9942 15.6376C71.7668 15.6186 71.5489 15.6029 71.3184 15.5681L71.3468 3.13422Z" fill="#32364E"/>
<path d="M81.791 3.13428H88.8465C88.9159 3.48159 88.9508 3.83493 88.9507 4.18912C88.9523 4.55488 88.9174 4.91988 88.8465 5.27871H84.3176V7.97582H87.9148C87.9828 8.32974 88.0177 8.68922 88.019 9.04961C88.0194 9.41532 87.9845 9.7802 87.9148 10.1392H84.3176V13.4237H88.9696C89.0391 13.7711 89.074 14.1244 89.0739 14.4786C89.0754 14.8443 89.0405 15.2093 88.9696 15.5682H81.791V3.13428Z" fill="#32364E"/>
<path d="M31.0568 22.589C30.8906 22.5308 30.7299 22.4579 30.5767 22.3711C30.4395 22.2964 30.3165 22.198 30.2135 22.0806C30.1102 21.9622 30.0308 21.8249 29.9798 21.6763C29.9217 21.4925 29.894 21.3005 29.8977 21.1078C29.8936 20.8648 29.941 20.6238 30.0366 20.4004C30.1243 20.2009 30.2573 20.0246 30.4251 19.8856C30.6042 19.741 30.8103 19.6336 31.0315 19.5698C31.2905 19.4973 31.5585 19.4622 31.8274 19.4655C32.0796 19.4636 32.3314 19.4869 32.579 19.535C32.8285 19.5876 33.0742 19.6562 33.3149 19.7403C33.2806 20.0512 33.1952 20.3542 33.0622 20.6372L32.8222 20.5425C32.7377 20.5106 32.6512 20.4842 32.5632 20.4635C32.4591 20.44 32.3536 20.4231 32.2474 20.413C32.1173 20.3996 31.9866 20.3933 31.8558 20.3941C31.7648 20.3937 31.6739 20.4011 31.5842 20.4162C31.4969 20.4307 31.4126 20.4595 31.3347 20.5014C31.2597 20.5471 31.1977 20.6112 31.1547 20.6878C31.1045 20.7852 31.0805 20.8941 31.0852 21.0036C31.0815 21.0951 31.0999 21.1861 31.1389 21.2689C31.1757 21.3383 31.2262 21.3996 31.2873 21.4489C31.353 21.5003 31.4252 21.5428 31.5021 21.5752L31.7358 21.6731L32.2095 21.8532C32.4085 21.9321 32.5885 22.0142 32.7527 22.0963C32.9076 22.1773 33.0475 22.2841 33.1664 22.4122C33.2824 22.543 33.3715 22.6954 33.4286 22.8606C33.497 23.0705 33.529 23.2905 33.5233 23.5112C33.5271 23.7619 33.4775 24.0106 33.378 24.2408C33.2828 24.4596 33.1392 24.6539 32.958 24.8092C32.7575 24.9766 32.5256 25.1022 32.2758 25.1788C31.9742 25.2719 31.6598 25.3167 31.3441 25.3114C31.1704 25.3114 31.0283 25.3114 30.8799 25.2956C30.7484 25.2874 30.6176 25.2705 30.4883 25.2451C30.3654 25.2224 30.2441 25.1918 30.1251 25.1535C29.9962 25.1168 29.8697 25.0725 29.7461 25.0208C29.7636 24.8601 29.7921 24.7008 29.8314 24.544C29.8756 24.3797 29.923 24.2281 29.983 24.045C30.1882 24.1281 30.3993 24.1956 30.6146 24.2471C30.8219 24.2933 31.0339 24.3155 31.2462 24.3134C31.5188 24.3277 31.7896 24.263 32.0263 24.1271C32.1188 24.0664 32.1936 23.9826 32.2435 23.884C32.2934 23.7853 32.3165 23.6753 32.3106 23.5649C32.3142 23.4558 32.2914 23.3475 32.2442 23.2491C32.2006 23.168 32.1416 23.0961 32.0705 23.0375C31.9972 22.9788 31.9165 22.93 31.8305 22.8922C31.7421 22.8522 31.6505 22.8143 31.5557 22.7785L31.0568 22.589Z" fill="#BABABD"/>
<path d="M35.1888 22.589C35.0229 22.5275 34.8623 22.4525 34.7087 22.3648C34.572 22.2892 34.4492 22.1909 34.3455 22.0742C34.2432 21.9557 34.1648 21.8184 34.115 21.67C34.0553 21.4865 34.0276 21.2943 34.0328 21.1015C34.0278 20.8587 34.0741 20.6177 34.1687 20.394C34.2564 20.1937 34.3906 20.0172 34.5603 19.8792C34.7386 19.7353 34.9436 19.6279 35.1635 19.5634C35.4225 19.491 35.6905 19.4559 35.9594 19.4592C36.2116 19.4573 36.4634 19.4806 36.711 19.5287C36.9606 19.5808 37.2064 19.6494 37.4469 19.734C37.4136 20.0446 37.3293 20.3477 37.1974 20.6309L36.9574 20.5362C36.8718 20.5042 36.7842 20.4778 36.6952 20.4572C36.5911 20.4337 36.4856 20.4168 36.3794 20.4067C36.2482 20.3933 36.1165 20.3869 35.9846 20.3877C35.8936 20.3874 35.8028 20.3948 35.713 20.4098C35.6266 20.4238 35.5433 20.4527 35.4667 20.4951C35.3901 20.5397 35.3268 20.6041 35.2835 20.6814C35.2333 20.7789 35.2094 20.8877 35.214 20.9973C35.2118 21.0886 35.2302 21.1793 35.2677 21.2625C35.3057 21.3321 35.3572 21.3933 35.4193 21.4426C35.484 21.4937 35.5552 21.5362 35.6309 21.5689L35.8678 21.6668L36.3383 21.8468C36.5373 21.9258 36.7205 22.0079 36.8816 22.09C37.037 22.1701 37.177 22.277 37.2953 22.4058C37.4133 22.5357 37.5036 22.6883 37.5606 22.8543C37.629 23.0642 37.661 23.2842 37.6553 23.5049C37.6581 23.7558 37.6075 24.0045 37.5069 24.2344C37.4124 24.4537 37.2687 24.6482 37.0868 24.8029C36.8871 24.9696 36.6563 25.0952 36.4078 25.1724C36.101 25.2667 35.7812 25.3114 35.4604 25.3051C35.2867 25.3051 35.1445 25.3051 34.9961 25.2893C34.7399 25.2712 34.4866 25.2235 34.2413 25.1471C34.1128 25.1094 33.9863 25.0652 33.8623 25.0145C33.8794 24.8535 33.909 24.694 33.9507 24.5376C33.9918 24.3734 34.0423 24.2218 34.0992 24.0386C34.3045 24.1212 34.5156 24.1888 34.7308 24.2407C34.9381 24.2869 35.1501 24.3091 35.3625 24.3071C35.635 24.321 35.9057 24.2563 36.1425 24.1207C36.2344 24.0597 36.3087 23.9757 36.358 23.8771C36.4073 23.7785 36.4299 23.6687 36.4236 23.5586C36.4272 23.4495 36.4045 23.3412 36.3573 23.2427C36.3147 23.1609 36.2556 23.0888 36.1836 23.0311C36.1107 22.9718 36.0299 22.9229 35.9436 22.8859C35.8551 22.8459 35.7636 22.808 35.6688 22.7722L35.1888 22.589Z" fill="#BABABD"/>
<path d="M38.4863 19.5503C38.6711 19.5196 38.858 19.5038 39.0453 19.5029C39.2379 19.5036 39.4301 19.5195 39.6201 19.5503V24.2181H41.5814C41.5814 24.3097 41.6066 24.395 41.613 24.474C41.6193 24.5529 41.613 24.635 41.613 24.7077C41.613 24.7803 41.613 24.8751 41.613 24.954C41.6067 25.0398 41.5962 25.1251 41.5814 25.2098H38.4863V19.5503Z" fill="#BABABD"/>
<path d="M44.0918 19.5508H47.3037C47.3352 19.7089 47.3511 19.8696 47.3511 20.0308C47.3519 20.1973 47.336 20.3634 47.3037 20.5267H45.2414V21.7552H46.8773C46.9115 21.9163 46.9305 22.0802 46.9342 22.2447C46.9342 22.4112 46.9184 22.5772 46.8868 22.7406H45.2509V24.2344H47.3669C47.3984 24.3925 47.4143 24.5533 47.4142 24.7145C47.4148 24.8809 47.3989 25.047 47.3669 25.2103H44.0918V19.5508Z" fill="#BABABD"/>
<path d="M48.2758 19.5503C48.4298 19.5197 48.5863 19.5038 48.7433 19.5029C48.9065 19.5037 49.0693 19.5195 49.2296 19.5503L51.4183 23.157V19.5503C51.5977 19.5195 51.7794 19.5037 51.9615 19.5029C52.1196 19.5026 52.2772 19.5185 52.4321 19.5503V25.213C52.2823 25.2428 52.13 25.2587 51.9773 25.2604C51.8162 25.259 51.6555 25.2432 51.4972 25.213L49.2865 21.6158V25.213C49.1178 25.2447 48.9465 25.2606 48.7748 25.2604C48.6053 25.2607 48.4361 25.2448 48.2695 25.213L48.2758 19.5503Z" fill="#BABABD"/>
<path d="M57.2732 24.1397C57.4092 24.4316 57.4997 24.7426 57.5417 25.0619C57.3039 25.1525 57.0572 25.2181 56.8058 25.2577C56.5725 25.2902 56.3371 25.3061 56.1015 25.305C55.6995 25.3129 55.3 25.2399 54.9267 25.0903C54.6034 24.9529 54.3144 24.7458 54.0803 24.4839C53.8475 24.2137 53.6723 23.8988 53.5655 23.5585C53.4477 23.1814 53.3891 22.7883 53.3918 22.3932C53.3877 21.9962 53.4496 21.6013 53.575 21.2246C53.6833 20.877 53.8605 20.5548 54.0961 20.2772C54.3276 20.0074 54.6154 19.7918 54.9393 19.6455C55.2993 19.4957 55.6864 19.4215 56.0763 19.4276C56.3097 19.4269 56.5428 19.4417 56.7742 19.4718C57.0109 19.5104 57.242 19.5772 57.4627 19.6708C57.4501 19.8382 57.414 20.003 57.3554 20.1603C57.3017 20.3087 57.2448 20.4603 57.1817 20.6119C57.0324 20.5559 56.8794 20.5105 56.7237 20.4761C56.557 20.4461 56.3878 20.4323 56.2184 20.4351C55.9998 20.4223 55.7813 20.4602 55.5797 20.5456C55.3782 20.6311 55.199 20.7618 55.0562 20.9277C54.758 21.3533 54.6153 21.8685 54.6519 22.3868C54.6519 23.6691 55.1951 24.307 56.2816 24.307C56.4529 24.3088 56.624 24.2961 56.7932 24.2691C56.956 24.2371 57.1164 24.1938 57.2732 24.1397Z" fill="#BABABD"/>
<path d="M58.4541 19.5506L59.1015 19.4843C59.3037 19.4653 59.5279 19.459 59.7774 19.459C60.0633 19.4589 60.3487 19.4842 60.6301 19.5348C60.8972 19.5838 61.1536 19.6789 61.3881 19.8159C61.6139 19.948 61.8029 20.1348 61.9376 20.3591C62.0858 20.6238 62.158 20.9244 62.1461 21.2276C62.1483 21.4158 62.1216 21.6033 62.0671 21.7834C62.0196 21.9322 61.9516 22.0736 61.865 22.2035C61.7904 22.3187 61.7024 22.4248 61.6028 22.5193C61.5194 22.5962 61.4296 22.666 61.3344 22.7277L61.2017 22.813L62.5787 25.2133L62.2629 25.2448C62.1492 25.2448 62.0292 25.2606 61.9092 25.2606C61.7061 25.2617 61.5033 25.2458 61.3028 25.2133L59.8216 22.5825L60.0111 22.4909L60.2795 22.3488C60.3925 22.288 60.4985 22.2149 60.5954 22.1308C60.6966 22.0419 60.7801 21.9348 60.8417 21.815C60.934 21.6261 60.9662 21.4134 60.934 21.2057C60.9018 20.9979 60.8068 20.805 60.6617 20.6528C60.4527 20.4909 60.1931 20.4082 59.929 20.4191C59.8232 20.4187 59.7175 20.4271 59.6132 20.4443V25.2133C59.5184 25.2259 59.4237 25.2354 59.3289 25.2417C59.2374 25.2463 59.1457 25.2463 59.0542 25.2417H58.7699C58.6641 25.2375 58.5587 25.2269 58.4541 25.2101V19.5506Z" fill="#BABABD"/>
<path d="M64.3414 23.1886L62.5791 19.5503C62.7977 19.5188 63.0183 19.503 63.2392 19.5029C63.4401 19.5031 63.6407 19.519 63.8392 19.5503L64.9541 22.1179L66.0563 19.5503C66.2547 19.5185 66.4554 19.5026 66.6564 19.5029C66.8594 19.504 67.062 19.5198 67.2627 19.5503L65.4973 23.1886V25.213C65.3931 25.213 65.2952 25.2383 65.2004 25.2446H64.9162H64.6383C64.5404 25.2446 64.4424 25.2288 64.3414 25.213V23.1886Z" fill="#BABABD"/>
<path d="M67.8913 19.5285C68.1313 19.5064 68.3777 19.4906 68.624 19.4779C68.8704 19.4653 69.1199 19.459 69.3725 19.459C69.6406 19.4596 69.9081 19.485 70.1715 19.5348C70.4319 19.5846 70.6799 19.6855 70.9011 19.8317C71.1266 19.985 71.3101 20.1924 71.4348 20.4349C71.5822 20.7462 71.6516 21.0887 71.637 21.4329C71.6519 21.776 71.5825 22.1176 71.4348 22.4277C71.3096 22.668 71.1288 22.8748 70.9074 23.0309C70.6912 23.1837 70.4462 23.2912 70.1873 23.3467C69.9293 23.3975 69.6671 23.424 69.4041 23.4257H69.2083C69.1483 23.4257 69.0914 23.4257 69.0409 23.4257V25.2133C68.9448 25.2297 68.8477 25.2402 68.7503 25.2448H68.4756H68.1977C68.0918 25.2406 67.9864 25.2301 67.8818 25.2133L67.8913 19.5285ZM69.0409 22.4403C69.0998 22.4446 69.1589 22.4446 69.2178 22.4403H69.4199C69.55 22.4409 69.6796 22.4239 69.8052 22.3898C69.9274 22.3569 70.0415 22.2988 70.14 22.2193C70.2408 22.1338 70.3199 22.0256 70.3705 21.9034C70.4316 21.7521 70.4606 21.5897 70.4558 21.4266C70.4605 21.2583 70.4315 21.0908 70.3705 20.9339C70.3174 20.8195 70.2389 20.7188 70.1409 20.6394C70.0429 20.5601 69.9281 20.5041 69.8052 20.4759C69.6793 20.4433 69.5499 20.4263 69.4199 20.4254H69.2557L69.0409 20.4475V22.4403Z" fill="#BABABD"/>
<path d="M73.5829 20.5267H72.1744C72.142 20.3634 72.1262 20.1973 72.127 20.0308C72.1269 19.8696 72.1428 19.7089 72.1744 19.5508H76.1474C76.1789 19.7089 76.1948 19.8696 76.1948 20.0308C76.1956 20.1973 76.1797 20.3634 76.1474 20.5267H74.7262V25.2135C74.6314 25.2261 74.5367 25.2356 74.442 25.2419C74.3504 25.2465 74.2587 25.2465 74.1672 25.2419H73.8798C73.774 25.2377 73.6685 25.2272 73.564 25.2103L73.5829 20.5267Z" fill="#BABABD"/>
<path d="M76.9365 19.5503C77.1265 19.519 77.3188 19.5031 77.5113 19.5029C77.706 19.5034 77.9003 19.5192 78.0924 19.5503V25.213C77.7097 25.2761 77.3192 25.2761 76.9365 25.213V19.5503Z" fill="#BABABD"/>
<path d="M81.5069 25.3046C81.1286 25.3141 80.753 25.2386 80.4079 25.0835C80.1064 24.9469 79.8438 24.7375 79.6436 24.474C79.4369 24.1994 79.2857 23.8873 79.1983 23.5549C79.0977 23.1758 79.0488 22.7849 79.053 22.3927C79.0491 21.9985 79.0979 21.6055 79.1983 21.2242C79.2832 20.8822 79.4345 20.5603 79.6436 20.2767C79.8424 20.0064 80.105 19.7894 80.4079 19.6451C81.1156 19.352 81.9108 19.352 82.6186 19.6451C82.9209 19.7903 83.1833 20.0071 83.3829 20.2767C83.592 20.5603 83.7433 20.8822 83.8282 21.2242C83.9285 21.6055 83.9774 21.9985 83.9735 22.3927C83.9776 22.7849 83.9287 23.1758 83.8282 23.5549C83.7408 23.8873 83.5895 24.1994 83.3829 24.474C83.1828 24.7363 82.9215 24.9456 82.6218 25.0835C82.2718 25.2409 81.8905 25.3165 81.5069 25.3046ZM81.5069 24.3571C82.3217 24.3571 82.7291 23.7065 82.7291 22.4053C82.7622 21.9002 82.6597 21.3954 82.4323 20.9431C82.3395 20.7851 82.2049 20.6557 82.0433 20.5693C81.8817 20.483 81.6993 20.4429 81.5164 20.4536C80.691 20.4536 80.2794 21.1042 80.2815 22.4053C80.2836 23.7065 80.6921 24.3529 81.5069 24.3445V24.3571Z" fill="#BABABD"/>
<path d="M84.9174 19.5503C85.0703 19.5196 85.2258 19.5037 85.3817 19.5029C85.5449 19.5035 85.7078 19.5193 85.8681 19.5503L88.0567 23.157V19.5503C88.2362 19.5195 88.4179 19.5037 88.5999 19.5029C88.759 19.5027 88.9177 19.5186 89.0737 19.5503V25.213C88.9228 25.2427 88.7695 25.2585 88.6157 25.2604C88.4546 25.259 88.2939 25.2432 88.1357 25.213L85.9249 21.6158V25.213C85.7562 25.2447 85.5849 25.2605 85.4133 25.2604C85.2448 25.2608 85.0766 25.245 84.9111 25.213L84.9174 19.5503Z" fill="#BABABD"/>
</svg>
